M48
;Layer_Color=9474304
;FILE_FORMAT=4:4
METRIC,LZ
;TYPE=PLATED
T1F00S00C0.3048
T3F00S00C0.6604
T4F00S00C0.7112
T6F00S00C0.9000
T7F00S00C0.9906
T8F00S00C1.2954
T9F00S00C1.5240
T10F00S00C4.4960
;TYPE=NON_PLATED
T11F00S00C0.8000
%
T01
X0017075Y0001825
X0016325Y0004925
X00230632Y00060348
X00245872Y00073048
X00246493Y00045607
X003937Y0005588
Y0008128
X00415191Y0010795
X0045212Y0011684
Y0009652
X0046275Y000705
X0046482Y0004318
X0044725Y000275
X003937Y0002794
X0035687Y0009271
X00476378Y0010922
X0049149Y0012446
X00517Y00043
X0060575Y0003925
X00598524Y0005588
X00652Y00026
X0064825Y0013325
X0063125Y001225
X0057694Y00139429
X0082825Y000635
X0087875Y000645
X009295Y0006425
X0098075Y0006375
X010355Y00068
X0104525Y00280833
X00985Y0034225
X0098625Y0041275
X009335Y0043925
X00933201Y00362399
X008685Y003785
X00779Y0040575
X0081575Y00307
X00866Y00214
X0087125Y0016075
X0072325Y00256
X00684Y00294
X00679Y00336
X00604Y0037
X0061775Y0038675
X00633Y00402
X0057Y00369
X00561009Y00316897
X00581Y00318
X00548Y00308
X00583Y00257
X00571Y00243
X0054864Y0014986
X00418Y0017775
X00411Y0021275
X004115Y00285
X00412Y00297588
X00399Y00356
X0040125Y00441
X0042875Y0052075
X00513Y00341304
X00475Y00249
X000889Y0023114
X00056013Y00275236
X00015535Y00220422
X0002286Y0020828
X00032335Y00198032
X0003925Y003615
X0009025Y0038775
X00107263Y00326487
X0059125Y0054425
X0069088Y0055118
T03
X0002794Y00259588
Y00272288
Y00284988
Y00297688
X0004064
Y00310388
X0002794
X0004064Y00284988
Y00272288
Y00259588
T04
X0053848Y0041529
T06
X0096012Y0020066
X0102512
T07
X00048641Y00112141
Y00162179
T08
X00073533Y00102108
Y00172212
T09
X009779Y00508
X009271
X0086233Y00507746
X0081153
X000635Y0045466
Y0040386
T10
X0005Y0005
X01093
Y005215
X0005
T11
X0108259Y0025948
Y0030948
M30
