G04*
G04 #@! TF.GenerationSoftware,Altium Limited,Altium Designer,22.9.1 (49)*
G04*
G04 Layer_Color=255*
%FSLAX44Y44*%
%MOMM*%
G71*
G04*
G04 #@! TF.SameCoordinates,A2259558-2793-4ACD-BA26-FD92625B8348*
G04*
G04*
G04 #@! TF.FilePolarity,Positive*
G04*
G01*
G75*
%ADD17R,0.9000X0.6500*%
%ADD18R,0.9800X0.8700*%
%ADD19R,0.3500X0.5750*%
%ADD20R,0.5750X0.3500*%
G04:AMPARAMS|DCode=21|XSize=1.3mm|YSize=1.1mm|CornerRadius=0mm|HoleSize=0mm|Usage=FLASHONLY|Rotation=315.000|XOffset=0mm|YOffset=0mm|HoleType=Round|Shape=Rectangle|*
%AMROTATEDRECTD21*
4,1,4,-0.8485,0.0707,-0.0707,0.8485,0.8485,-0.0707,0.0707,-0.8485,-0.8485,0.0707,0.0*
%
%ADD21ROTATEDRECTD21*%

G04:AMPARAMS|DCode=22|XSize=0.65mm|YSize=0.9mm|CornerRadius=0mm|HoleSize=0mm|Usage=FLASHONLY|Rotation=135.000|XOffset=0mm|YOffset=0mm|HoleType=Round|Shape=Rectangle|*
%AMROTATEDRECTD22*
4,1,4,0.5480,0.0884,-0.0884,-0.5480,-0.5480,-0.0884,0.0884,0.5480,0.5480,0.0884,0.0*
%
%ADD22ROTATEDRECTD22*%

G04:AMPARAMS|DCode=23|XSize=0.9mm|YSize=0.75mm|CornerRadius=0mm|HoleSize=0mm|Usage=FLASHONLY|Rotation=225.000|XOffset=0mm|YOffset=0mm|HoleType=Round|Shape=Rectangle|*
%AMROTATEDRECTD23*
4,1,4,0.0530,0.5834,0.5834,0.0530,-0.0530,-0.5834,-0.5834,-0.0530,0.0530,0.5834,0.0*
%
%ADD23ROTATEDRECTD23*%

G04:AMPARAMS|DCode=24|XSize=0.9mm|YSize=0.75mm|CornerRadius=0mm|HoleSize=0mm|Usage=FLASHONLY|Rotation=135.000|XOffset=0mm|YOffset=0mm|HoleType=Round|Shape=Rectangle|*
%AMROTATEDRECTD24*
4,1,4,0.5834,-0.0530,0.0530,-0.5834,-0.5834,0.0530,-0.0530,0.5834,0.5834,-0.0530,0.0*
%
%ADD24ROTATEDRECTD24*%

%ADD25R,0.5600X0.5200*%
G04:AMPARAMS|DCode=26|XSize=0.3mm|YSize=2.1mm|CornerRadius=0mm|HoleSize=0mm|Usage=FLASHONLY|Rotation=45.000|XOffset=0mm|YOffset=0mm|HoleType=Round|Shape=Round|*
%AMOVALD26*
21,1,1.8000,0.3000,0.0000,0.0000,135.0*
1,1,0.3000,0.6364,-0.6364*
1,1,0.3000,-0.6364,0.6364*
%
%ADD26OVALD26*%

G04:AMPARAMS|DCode=27|XSize=0.3mm|YSize=2.1mm|CornerRadius=0mm|HoleSize=0mm|Usage=FLASHONLY|Rotation=315.000|XOffset=0mm|YOffset=0mm|HoleType=Round|Shape=Round|*
%AMOVALD27*
21,1,1.8000,0.3000,0.0000,0.0000,45.0*
1,1,0.3000,-0.6364,-0.6364*
1,1,0.3000,0.6364,0.6364*
%
%ADD27OVALD27*%

G04:AMPARAMS|DCode=28|XSize=0.85mm|YSize=0.6mm|CornerRadius=0mm|HoleSize=0mm|Usage=FLASHONLY|Rotation=315.000|XOffset=0mm|YOffset=0mm|HoleType=Round|Shape=Rectangle|*
%AMROTATEDRECTD28*
4,1,4,-0.5127,0.0884,-0.0884,0.5127,0.5127,-0.0884,0.0884,-0.5127,-0.5127,0.0884,0.0*
%
%ADD28ROTATEDRECTD28*%

%ADD29R,0.6000X0.8500*%
G04:AMPARAMS|DCode=30|XSize=0.7565mm|YSize=0.8621mm|CornerRadius=0mm|HoleSize=0mm|Usage=FLASHONLY|Rotation=225.000|XOffset=0mm|YOffset=0mm|HoleType=Round|Shape=Rectangle|*
%AMROTATEDRECTD30*
4,1,4,-0.0374,0.5723,0.5723,-0.0374,0.0374,-0.5723,-0.5723,0.0374,-0.0374,0.5723,0.0*
%
%ADD30ROTATEDRECTD30*%

G04:AMPARAMS|DCode=31|XSize=1.6mm|YSize=0.85mm|CornerRadius=0mm|HoleSize=0mm|Usage=FLASHONLY|Rotation=315.000|XOffset=0mm|YOffset=0mm|HoleType=Round|Shape=Rectangle|*
%AMROTATEDRECTD31*
4,1,4,-0.8662,0.2652,-0.2652,0.8662,0.8662,-0.2652,0.2652,-0.8662,-0.8662,0.2652,0.0*
%
%ADD31ROTATEDRECTD31*%

G04:AMPARAMS|DCode=32|XSize=0.95mm|YSize=0.8mm|CornerRadius=0mm|HoleSize=0mm|Usage=FLASHONLY|Rotation=315.000|XOffset=0mm|YOffset=0mm|HoleType=Round|Shape=Rectangle|*
%AMROTATEDRECTD32*
4,1,4,-0.6187,0.0530,-0.0530,0.6187,0.6187,-0.0530,0.0530,-0.6187,-0.6187,0.0530,0.0*
%
%ADD32ROTATEDRECTD32*%

%ADD33R,0.8578X0.8121*%
%ADD34R,0.5500X1.8000*%
%ADD35R,6.0000X6.0000*%
%ADD36R,0.8500X0.6000*%
%ADD37R,1.6000X0.8500*%
%ADD38R,0.8000X0.9500*%
G04:AMPARAMS|DCode=39|XSize=1mm|YSize=0.7mm|CornerRadius=0mm|HoleSize=0mm|Usage=FLASHONLY|Rotation=135.000|XOffset=0mm|YOffset=0mm|HoleType=Round|Shape=Rectangle|*
%AMROTATEDRECTD39*
4,1,4,0.6010,-0.1061,0.1061,-0.6010,-0.6010,0.1061,-0.1061,0.6010,0.6010,-0.1061,0.0*
%
%ADD39ROTATEDRECTD39*%

%ADD40R,1.5000X2.1200*%
%ADD41R,2.6000X1.1000*%
G04:AMPARAMS|DCode=42|XSize=1.2052mm|YSize=0.5321mm|CornerRadius=0.2661mm|HoleSize=0mm|Usage=FLASHONLY|Rotation=0.000|XOffset=0mm|YOffset=0mm|HoleType=Round|Shape=RoundedRectangle|*
%AMROUNDEDRECTD42*
21,1,1.2052,0.0000,0,0,0.0*
21,1,0.6731,0.5321,0,0,0.0*
1,1,0.5321,0.3366,0.0000*
1,1,0.5321,-0.3366,0.0000*
1,1,0.5321,-0.3366,0.0000*
1,1,0.5321,0.3366,0.0000*
%
%ADD42ROUNDEDRECTD42*%
%ADD43R,1.2052X0.5321*%
%ADD44R,0.7565X0.8621*%
%ADD45R,1.1000X0.6000*%
%ADD46R,1.3000X0.4500*%
%ADD47R,0.8000X0.4000*%
%ADD48O,2.2000X0.6000*%
%ADD49R,0.7000X1.0000*%
%ADD50R,3.5000X1.6000*%
%ADD51R,1.4000X1.1000*%
%ADD52R,0.5500X1.0500*%
%ADD53R,0.8500X0.7000*%
%ADD54R,0.8500X1.6000*%
G04:AMPARAMS|DCode=55|XSize=0.8578mm|YSize=0.8121mm|CornerRadius=0mm|HoleSize=0mm|Usage=FLASHONLY|Rotation=225.000|XOffset=0mm|YOffset=0mm|HoleType=Round|Shape=Rectangle|*
%AMROTATEDRECTD55*
4,1,4,0.0161,0.5904,0.5904,0.0161,-0.0161,-0.5904,-0.5904,-0.0161,0.0161,0.5904,0.0*
%
%ADD55ROTATEDRECTD55*%

%ADD56R,1.0500X0.5500*%
%ADD57R,1.0000X1.0500*%
%ADD58R,1.0500X1.0000*%
G04:AMPARAMS|DCode=59|XSize=2.4741mm|YSize=0.6221mm|CornerRadius=0.3111mm|HoleSize=0mm|Usage=FLASHONLY|Rotation=180.000|XOffset=0mm|YOffset=0mm|HoleType=Round|Shape=RoundedRectangle|*
%AMROUNDEDRECTD59*
21,1,2.4741,0.0000,0,0,180.0*
21,1,1.8519,0.6221,0,0,180.0*
1,1,0.6221,-0.9260,0.0000*
1,1,0.6221,0.9260,0.0000*
1,1,0.6221,0.9260,0.0000*
1,1,0.6221,-0.9260,0.0000*
%
%ADD59ROUNDEDRECTD59*%
G04:AMPARAMS|DCode=60|XSize=2.3581mm|YSize=0.6221mm|CornerRadius=0.3111mm|HoleSize=0mm|Usage=FLASHONLY|Rotation=180.000|XOffset=0mm|YOffset=0mm|HoleType=Round|Shape=RoundedRectangle|*
%AMROUNDEDRECTD60*
21,1,2.3581,0.0000,0,0,180.0*
21,1,1.7360,0.6221,0,0,180.0*
1,1,0.6221,-0.8680,0.0000*
1,1,0.6221,0.8680,0.0000*
1,1,0.6221,0.8680,0.0000*
1,1,0.6221,-0.8680,0.0000*
%
%ADD60ROUNDEDRECTD60*%
%ADD61R,2.4741X0.6221*%
%ADD62R,1.2500X2.5000*%
%ADD93R,2.2900X2.2900*%
%ADD102C,1.9954*%
%ADD103C,1.5406*%
%ADD104R,1.5406X1.5406*%
%ADD113C,5.8420*%
%ADD114C,1.4080*%
%ADD115C,2.5400*%
%ADD116C,1.0160*%
%ADD117R,1.0160X1.0160*%
%ADD118O,2.0000X1.4500*%
%ADD119O,1.8000X1.1500*%
%ADD120C,0.8000*%
D17*
X544500Y523750D02*
D03*
Y509250D02*
D03*
X568500Y523750D02*
D03*
Y509250D02*
D03*
D18*
X587500Y523500D02*
D03*
Y507500D02*
D03*
D19*
X426840Y50605D02*
D03*
X431840D02*
D03*
X436840D02*
D03*
X441840D02*
D03*
Y73855D02*
D03*
X436840D02*
D03*
X431840D02*
D03*
X426840D02*
D03*
D20*
X443465Y57230D02*
D03*
Y62230D02*
D03*
Y67230D02*
D03*
X425215D02*
D03*
Y62230D02*
D03*
Y57230D02*
D03*
D21*
X524523Y394205D02*
D03*
X540786Y377942D02*
D03*
X528058Y365214D02*
D03*
X511795Y381478D02*
D03*
D22*
X496874Y368126D02*
D03*
X507127Y357873D02*
D03*
D23*
X550581Y397419D02*
D03*
X559419Y388581D02*
D03*
D24*
X505685Y400154D02*
D03*
X496846Y391315D02*
D03*
D25*
X485346Y478649D02*
D03*
X492946D02*
D03*
D26*
X556895Y350594D02*
D03*
X553359Y347059D02*
D03*
X549823Y343523D02*
D03*
X546288Y339988D02*
D03*
X542752Y336452D02*
D03*
X539217Y332917D02*
D03*
X535681Y329381D02*
D03*
X532146Y325846D02*
D03*
X528610Y322310D02*
D03*
X525075Y318775D02*
D03*
X521539Y315239D02*
D03*
X518004Y311704D02*
D03*
X514468Y308168D02*
D03*
X510933Y304632D02*
D03*
X507397Y301097D02*
D03*
X503862Y297561D02*
D03*
X583058Y218365D02*
D03*
X586593Y221901D02*
D03*
X590129Y225437D02*
D03*
X593664Y228972D02*
D03*
X597200Y232508D02*
D03*
X600735Y236043D02*
D03*
X604271Y239579D02*
D03*
X607806Y243114D02*
D03*
X611342Y246650D02*
D03*
X614877Y250185D02*
D03*
X618413Y253721D02*
D03*
X621948Y257256D02*
D03*
X625484Y260792D02*
D03*
X629019Y264328D02*
D03*
X632555Y267863D02*
D03*
X636091Y271399D02*
D03*
D27*
X503862D02*
D03*
X507397Y267863D02*
D03*
X510933Y264328D02*
D03*
X514468Y260792D02*
D03*
X518004Y257256D02*
D03*
X521539Y253721D02*
D03*
X525075Y250185D02*
D03*
X528610Y246650D02*
D03*
X532146Y243114D02*
D03*
X535681Y239579D02*
D03*
X539217Y236043D02*
D03*
X542752Y232508D02*
D03*
X546288Y228972D02*
D03*
X549823Y225437D02*
D03*
X553359Y221901D02*
D03*
X556894Y218365D02*
D03*
X636091Y297561D02*
D03*
X632555Y301097D02*
D03*
X629019Y304632D02*
D03*
X625484Y308168D02*
D03*
X621948Y311704D02*
D03*
X618413Y315239D02*
D03*
X614877Y318775D02*
D03*
X611342Y322310D02*
D03*
X607806Y325846D02*
D03*
X604271Y329381D02*
D03*
X600735Y332917D02*
D03*
X597200Y336452D02*
D03*
X593664Y339988D02*
D03*
X590129Y343523D02*
D03*
X586593Y347059D02*
D03*
X583058Y350594D02*
D03*
D28*
X459981Y218185D02*
D03*
X471295Y229499D02*
D03*
X599082Y394790D02*
D03*
X587768Y383476D02*
D03*
X464820Y295384D02*
D03*
X476134Y306698D02*
D03*
X575484Y165086D02*
D03*
X564170Y153772D02*
D03*
D29*
X692000Y275000D02*
D03*
X676000Y275000D02*
D03*
X131230Y73020D02*
D03*
X147231Y73020D02*
D03*
X500760Y53340D02*
D03*
X484760Y53340D02*
D03*
X500760Y33020D02*
D03*
X484760Y33020D02*
D03*
X502030Y93980D02*
D03*
X486030Y93980D02*
D03*
X951100Y367030D02*
D03*
X966600D02*
D03*
Y382270D02*
D03*
X951100D02*
D03*
X836470Y367030D02*
D03*
X851970D02*
D03*
X852300Y382270D02*
D03*
X836800D02*
D03*
D30*
X656205Y396204D02*
D03*
X647000Y387000D02*
D03*
X498578Y179608D02*
D03*
X489374Y170404D02*
D03*
D31*
X573950Y398203D02*
D03*
X592335Y416588D02*
D03*
X435563Y223811D02*
D03*
X453948Y242196D02*
D03*
D32*
X617227Y356087D02*
D03*
X626773Y365634D02*
D03*
X512117Y188267D02*
D03*
X521663Y197813D02*
D03*
D33*
X669000Y254000D02*
D03*
X680544D02*
D03*
D34*
X713500Y522000D02*
D03*
X732500D02*
D03*
X723000Y546000D02*
D03*
D35*
X197660Y459740D02*
D03*
X330660D02*
D03*
D36*
X675750Y89250D02*
D03*
X675750Y105250D02*
D03*
X816610Y337950D02*
D03*
Y322450D02*
D03*
X866028Y178642D02*
D03*
Y194142D02*
D03*
X932180Y412880D02*
D03*
Y397380D02*
D03*
Y327530D02*
D03*
Y343030D02*
D03*
D37*
X654000Y116500D02*
D03*
Y90500D02*
D03*
X135176Y53380D02*
D03*
Y27380D02*
D03*
D38*
X846690Y68580D02*
D03*
X860190D02*
D03*
X1012590D02*
D03*
X999090D02*
D03*
X961790D02*
D03*
X948290D02*
D03*
X910990D02*
D03*
X897490D02*
D03*
X809390D02*
D03*
X795890D02*
D03*
D39*
X463401Y320635D02*
D03*
X449613Y306847D02*
D03*
D40*
X396750Y509250D02*
D03*
Y466950D02*
D03*
X653000Y498850D02*
D03*
Y541150D02*
D03*
D41*
X616000Y502250D02*
D03*
Y529250D02*
D03*
D42*
X94325Y311760D02*
D03*
Y292760D02*
D03*
X73315D02*
D03*
Y302260D02*
D03*
D43*
Y311760D02*
D03*
D44*
X376655Y39377D02*
D03*
X363637D02*
D03*
X377349Y71120D02*
D03*
X364331D02*
D03*
X74051Y274802D02*
D03*
X87069D02*
D03*
D45*
X186612Y74018D02*
D03*
Y61518D02*
D03*
Y49018D02*
D03*
Y36518D02*
D03*
X208612D02*
D03*
Y49018D02*
D03*
Y61518D02*
D03*
Y74018D02*
D03*
D46*
X1072090Y271480D02*
D03*
Y297480D02*
D03*
Y277980D02*
D03*
Y284480D02*
D03*
Y290980D02*
D03*
D47*
X1035000Y280000D02*
D03*
X1021000Y275000D02*
D03*
Y285000D02*
D03*
D48*
X676780Y31750D02*
D03*
Y44450D02*
D03*
Y57150D02*
D03*
Y69850D02*
D03*
X628780Y31750D02*
D03*
Y44450D02*
D03*
Y57150D02*
D03*
Y69850D02*
D03*
D49*
X482600Y73660D02*
D03*
X502100D02*
D03*
D50*
X349000Y321000D02*
D03*
X295000D02*
D03*
D51*
X380000Y303500D02*
D03*
Y288500D02*
D03*
D52*
X957580Y325570D02*
D03*
X967080Y350070D02*
D03*
X948080D02*
D03*
X957580Y423730D02*
D03*
X948080Y399230D02*
D03*
X967080D02*
D03*
X844550Y423730D02*
D03*
X835050Y399230D02*
D03*
X854050D02*
D03*
X843280Y325570D02*
D03*
X852780Y350070D02*
D03*
X833780D02*
D03*
D53*
X817880Y406600D02*
D03*
Y419100D02*
D03*
X73660Y339190D02*
D03*
Y351690D02*
D03*
D54*
X993140Y43180D02*
D03*
X1018540D02*
D03*
X942340D02*
D03*
X967740D02*
D03*
X891540D02*
D03*
X916940D02*
D03*
X840740D02*
D03*
X866140D02*
D03*
X789940D02*
D03*
X815340D02*
D03*
D55*
X550746Y166348D02*
D03*
X558908Y174511D02*
D03*
D56*
X911298Y186392D02*
D03*
X886798Y195892D02*
D03*
Y176892D02*
D03*
D57*
X88052Y251942D02*
D03*
X74051D02*
D03*
D58*
X93980Y354360D02*
D03*
Y340360D02*
D03*
D59*
X463489Y500380D02*
D03*
Y538480D02*
D03*
X511810D02*
D03*
D60*
X462910Y513080D02*
D03*
Y525780D02*
D03*
X512389D02*
D03*
X512390Y513080D02*
D03*
D61*
X511810Y500380D02*
D03*
D62*
X418000Y416000D02*
D03*
X384000D02*
D03*
X417000Y382000D02*
D03*
X383000D02*
D03*
D93*
X487649Y519430D02*
D03*
D102*
X73533Y102108D02*
D03*
Y172212D02*
D03*
D103*
X48641Y112141D02*
D03*
D104*
Y162179D02*
D03*
D113*
X50000Y50000D02*
D03*
X1093000D02*
D03*
Y521500D02*
D03*
X50000D02*
D03*
D114*
X1025120Y200660D02*
D03*
X960120D02*
D03*
D115*
X63500Y403860D02*
D03*
Y454660D02*
D03*
X811530Y507746D02*
D03*
X862330D02*
D03*
X927100Y508000D02*
D03*
X977900D02*
D03*
D116*
X40640Y297688D02*
D03*
X27940D02*
D03*
X40640Y310388D02*
D03*
X27940D02*
D03*
Y284988D02*
D03*
X40640D02*
D03*
X27940Y272288D02*
D03*
X40640D02*
D03*
X27940Y259588D02*
D03*
D117*
X40640D02*
D03*
D118*
X1072090Y247230D02*
D03*
Y321730D02*
D03*
D119*
X1110090Y245730D02*
D03*
Y323230D02*
D03*
D120*
X1082590Y259480D02*
D03*
Y309480D02*
D03*
M02*
