G04*
G04 #@! TF.GenerationSoftware,Altium Limited,Altium Designer,22.9.1 (49)*
G04*
G04 Layer_Color=255*
%FSLAX44Y44*%
%MOMM*%
G71*
G04*
G04 #@! TF.SameCoordinates,A2259558-2793-4ACD-BA26-FD92625B8348*
G04*
G04*
G04 #@! TF.FilePolarity,Positive*
G04*
G01*
G75*
%ADD102C,1.9954*%
%ADD103C,1.5406*%
%ADD104R,1.5406X1.5406*%
%ADD113C,5.8420*%
%ADD114C,1.4080*%
%ADD115C,2.5400*%
%ADD116C,1.0160*%
%ADD117R,1.0160X1.0160*%
%ADD118O,2.0000X1.4500*%
%ADD119O,1.8000X1.1500*%
%ADD120C,0.8000*%
D102*
X73533Y102108D02*
D03*
Y172212D02*
D03*
D103*
X48641Y112141D02*
D03*
D104*
Y162179D02*
D03*
D113*
X50000Y50000D02*
D03*
X1093000D02*
D03*
Y521500D02*
D03*
X50000D02*
D03*
D114*
X1025120Y200660D02*
D03*
X960120D02*
D03*
D115*
X63500Y403860D02*
D03*
Y454660D02*
D03*
X811530Y507746D02*
D03*
X862330D02*
D03*
X927100Y508000D02*
D03*
X977900D02*
D03*
D116*
X40640Y297688D02*
D03*
X27940D02*
D03*
X40640Y310388D02*
D03*
X27940D02*
D03*
Y284988D02*
D03*
X40640D02*
D03*
X27940Y272288D02*
D03*
X40640D02*
D03*
X27940Y259588D02*
D03*
D117*
X40640D02*
D03*
D118*
X1072090Y247230D02*
D03*
Y321730D02*
D03*
D119*
X1110090Y245730D02*
D03*
Y323230D02*
D03*
D120*
X1082590Y259480D02*
D03*
Y309480D02*
D03*
M02*
