G04*
G04 #@! TF.GenerationSoftware,Altium Limited,Altium Designer,22.9.1 (49)*
G04*
G04 Layer_Color=8388736*
%FSLAX44Y44*%
%MOMM*%
G71*
G04*
G04 #@! TF.SameCoordinates,A2259558-2793-4ACD-BA26-FD92625B8348*
G04*
G04*
G04 #@! TF.FilePolarity,Negative*
G04*
G01*
G75*
%ADD19R,0.3500X0.5750*%
%ADD20R,0.5750X0.3500*%
G04:AMPARAMS|DCode=22|XSize=0.65mm|YSize=0.9mm|CornerRadius=0mm|HoleSize=0mm|Usage=FLASHONLY|Rotation=135.000|XOffset=0mm|YOffset=0mm|HoleType=Round|Shape=Rectangle|*
%AMROTATEDRECTD22*
4,1,4,0.5480,0.0884,-0.0884,-0.5480,-0.5480,-0.0884,0.0884,0.5480,0.5480,0.0884,0.0*
%
%ADD22ROTATEDRECTD22*%

G04:AMPARAMS|DCode=30|XSize=0.7565mm|YSize=0.8621mm|CornerRadius=0mm|HoleSize=0mm|Usage=FLASHONLY|Rotation=225.000|XOffset=0mm|YOffset=0mm|HoleType=Round|Shape=Rectangle|*
%AMROTATEDRECTD30*
4,1,4,-0.0374,0.5723,0.5723,-0.0374,0.0374,-0.5723,-0.5723,0.0374,-0.0374,0.5723,0.0*
%
%ADD30ROTATEDRECTD30*%

%ADD33R,0.8578X0.8121*%
G04:AMPARAMS|DCode=42|XSize=1.2052mm|YSize=0.5321mm|CornerRadius=0.2661mm|HoleSize=0mm|Usage=FLASHONLY|Rotation=0.000|XOffset=0mm|YOffset=0mm|HoleType=Round|Shape=RoundedRectangle|*
%AMROUNDEDRECTD42*
21,1,1.2052,0.0000,0,0,0.0*
21,1,0.6731,0.5321,0,0,0.0*
1,1,0.5321,0.3366,0.0000*
1,1,0.5321,-0.3366,0.0000*
1,1,0.5321,-0.3366,0.0000*
1,1,0.5321,0.3366,0.0000*
%
%ADD42ROUNDEDRECTD42*%
%ADD43R,1.2052X0.5321*%
%ADD44R,0.7565X0.8621*%
%ADD47R,0.8000X0.4000*%
%ADD52R,0.5500X1.0500*%
G04:AMPARAMS|DCode=55|XSize=0.8578mm|YSize=0.8121mm|CornerRadius=0mm|HoleSize=0mm|Usage=FLASHONLY|Rotation=225.000|XOffset=0mm|YOffset=0mm|HoleType=Round|Shape=Rectangle|*
%AMROTATEDRECTD55*
4,1,4,0.0161,0.5904,0.5904,0.0161,-0.0161,-0.5904,-0.5904,-0.0161,0.0161,0.5904,0.0*
%
%ADD55ROTATEDRECTD55*%

%ADD56R,1.0500X0.5500*%
G04:AMPARAMS|DCode=59|XSize=2.4741mm|YSize=0.6221mm|CornerRadius=0.3111mm|HoleSize=0mm|Usage=FLASHONLY|Rotation=180.000|XOffset=0mm|YOffset=0mm|HoleType=Round|Shape=RoundedRectangle|*
%AMROUNDEDRECTD59*
21,1,2.4741,0.0000,0,0,180.0*
21,1,1.8519,0.6221,0,0,180.0*
1,1,0.6221,-0.9260,0.0000*
1,1,0.6221,0.9260,0.0000*
1,1,0.6221,0.9260,0.0000*
1,1,0.6221,-0.9260,0.0000*
%
%ADD59ROUNDEDRECTD59*%
G04:AMPARAMS|DCode=60|XSize=2.3581mm|YSize=0.6221mm|CornerRadius=0.3111mm|HoleSize=0mm|Usage=FLASHONLY|Rotation=180.000|XOffset=0mm|YOffset=0mm|HoleType=Round|Shape=RoundedRectangle|*
%AMROUNDEDRECTD60*
21,1,2.3581,0.0000,0,0,180.0*
21,1,1.7360,0.6221,0,0,180.0*
1,1,0.6221,-0.8680,0.0000*
1,1,0.6221,0.8680,0.0000*
1,1,0.6221,0.8680,0.0000*
1,1,0.6221,-0.8680,0.0000*
%
%ADD60ROUNDEDRECTD60*%
%ADD61R,2.4741X0.6221*%
%ADD62R,1.2500X2.5000*%
%ADD63R,1.0000X0.7500*%
%ADD64R,1.0800X0.9700*%
G04:AMPARAMS|DCode=65|XSize=1.4mm|YSize=1.2mm|CornerRadius=0mm|HoleSize=0mm|Usage=FLASHONLY|Rotation=315.000|XOffset=0mm|YOffset=0mm|HoleType=Round|Shape=Rectangle|*
%AMROTATEDRECTD65*
4,1,4,-0.9192,0.0707,-0.0707,0.9192,0.9192,-0.0707,0.0707,-0.9192,-0.9192,0.0707,0.0*
%
%ADD65ROTATEDRECTD65*%

G04:AMPARAMS|DCode=66|XSize=1mm|YSize=0.85mm|CornerRadius=0mm|HoleSize=0mm|Usage=FLASHONLY|Rotation=225.000|XOffset=0mm|YOffset=0mm|HoleType=Round|Shape=Rectangle|*
%AMROTATEDRECTD66*
4,1,4,0.0530,0.6541,0.6541,0.0530,-0.0530,-0.6541,-0.6541,-0.0530,0.0530,0.6541,0.0*
%
%ADD66ROTATEDRECTD66*%

G04:AMPARAMS|DCode=67|XSize=1mm|YSize=0.85mm|CornerRadius=0mm|HoleSize=0mm|Usage=FLASHONLY|Rotation=135.000|XOffset=0mm|YOffset=0mm|HoleType=Round|Shape=Rectangle|*
%AMROTATEDRECTD67*
4,1,4,0.6541,-0.0530,0.0530,-0.6541,-0.6541,0.0530,-0.0530,0.6541,0.6541,-0.0530,0.0*
%
%ADD67ROTATEDRECTD67*%

%ADD68R,0.6600X0.6200*%
G04:AMPARAMS|DCode=69|XSize=0.4mm|YSize=2.2mm|CornerRadius=0mm|HoleSize=0mm|Usage=FLASHONLY|Rotation=45.000|XOffset=0mm|YOffset=0mm|HoleType=Round|Shape=Round|*
%AMOVALD69*
21,1,1.8000,0.4000,0.0000,0.0000,135.0*
1,1,0.4000,0.6364,-0.6364*
1,1,0.4000,-0.6364,0.6364*
%
%ADD69OVALD69*%

G04:AMPARAMS|DCode=70|XSize=0.4mm|YSize=2.2mm|CornerRadius=0mm|HoleSize=0mm|Usage=FLASHONLY|Rotation=315.000|XOffset=0mm|YOffset=0mm|HoleType=Round|Shape=Round|*
%AMOVALD70*
21,1,1.8000,0.4000,0.0000,0.0000,45.0*
1,1,0.4000,-0.6364,-0.6364*
1,1,0.4000,0.6364,0.6364*
%
%ADD70OVALD70*%

G04:AMPARAMS|DCode=71|XSize=0.95mm|YSize=0.7mm|CornerRadius=0mm|HoleSize=0mm|Usage=FLASHONLY|Rotation=315.000|XOffset=0mm|YOffset=0mm|HoleType=Round|Shape=Rectangle|*
%AMROTATEDRECTD71*
4,1,4,-0.5834,0.0884,-0.0884,0.5834,0.5834,-0.0884,0.0884,-0.5834,-0.5834,0.0884,0.0*
%
%ADD71ROTATEDRECTD71*%

%ADD72R,0.7000X0.9500*%
G04:AMPARAMS|DCode=73|XSize=1.7mm|YSize=0.95mm|CornerRadius=0mm|HoleSize=0mm|Usage=FLASHONLY|Rotation=315.000|XOffset=0mm|YOffset=0mm|HoleType=Round|Shape=Rectangle|*
%AMROTATEDRECTD73*
4,1,4,-0.9369,0.2652,-0.2652,0.9369,0.9369,-0.2652,0.2652,-0.9369,-0.9369,0.2652,0.0*
%
%ADD73ROTATEDRECTD73*%

G04:AMPARAMS|DCode=74|XSize=1.05mm|YSize=0.9mm|CornerRadius=0mm|HoleSize=0mm|Usage=FLASHONLY|Rotation=315.000|XOffset=0mm|YOffset=0mm|HoleType=Round|Shape=Rectangle|*
%AMROTATEDRECTD74*
4,1,4,-0.6894,0.0530,-0.0530,0.6894,0.6894,-0.0530,0.0530,-0.6894,-0.6894,0.0530,0.0*
%
%ADD74ROTATEDRECTD74*%

%ADD75R,0.6500X1.9000*%
%ADD76R,6.1000X6.1000*%
%ADD77R,0.9500X0.7000*%
%ADD78R,1.7000X0.9500*%
%ADD79R,0.9000X1.0500*%
G04:AMPARAMS|DCode=80|XSize=1.1mm|YSize=0.8mm|CornerRadius=0mm|HoleSize=0mm|Usage=FLASHONLY|Rotation=135.000|XOffset=0mm|YOffset=0mm|HoleType=Round|Shape=Rectangle|*
%AMROTATEDRECTD80*
4,1,4,0.6718,-0.1061,0.1061,-0.6718,-0.6718,0.1061,-0.1061,0.6718,0.6718,-0.1061,0.0*
%
%ADD80ROTATEDRECTD80*%

%ADD81R,1.6000X2.2200*%
%ADD82R,2.7000X1.2000*%
%ADD83R,1.2000X0.7000*%
%ADD84R,1.4000X0.5500*%
%ADD85O,2.3000X0.7000*%
%ADD86R,0.8000X1.1000*%
%ADD87R,3.6000X1.7000*%
%ADD88R,1.5000X1.2000*%
%ADD89R,0.9500X0.8000*%
%ADD90R,0.9500X1.7000*%
%ADD91R,1.1000X1.1500*%
%ADD92R,1.1500X1.1000*%
%ADD93R,2.2900X2.2900*%
%ADD94C,5.9420*%
%ADD95C,1.5080*%
%ADD96C,2.7940*%
%ADD97C,1.1160*%
%ADD98R,1.1160X1.1160*%
%ADD99O,2.1000X1.5500*%
%ADD100O,1.9000X1.2500*%
%ADD101C,0.9000*%
%ADD102C,1.9954*%
%ADD103C,1.5406*%
%ADD104R,1.5406X1.5406*%
%ADD105C,0.7096*%
%ADD106C,1.3700*%
G36*
X1129166Y500852D02*
X1129147D01*
X1129109D01*
X1129034Y500871D01*
X1128940Y500890D01*
X1128827Y500908D01*
X1128696Y500927D01*
X1128357Y501002D01*
X1127981Y501115D01*
X1127568Y501266D01*
X1127117Y501454D01*
X1126684Y501698D01*
X1126666D01*
X1126628Y501735D01*
X1126553Y501773D01*
X1126478Y501848D01*
X1126346Y501923D01*
X1126215Y502036D01*
X1126045Y502168D01*
X1125857Y502318D01*
X1125632Y502487D01*
X1125406Y502694D01*
X1125143Y502920D01*
X1124861Y503183D01*
X1124579Y503465D01*
X1124260Y503784D01*
X1123922Y504123D01*
X1123564Y504498D01*
X1123546Y504517D01*
X1123489Y504574D01*
X1123414Y504649D01*
X1123301Y504762D01*
X1123188Y504912D01*
X1123038Y505062D01*
X1122700Y505401D01*
X1122343Y505739D01*
X1121985Y506077D01*
X1121835Y506228D01*
X1121666Y506378D01*
X1121534Y506491D01*
X1121422Y506566D01*
X1121384Y506585D01*
X1121290Y506641D01*
X1121140Y506735D01*
X1120933Y506829D01*
X1120707Y506923D01*
X1120444Y507017D01*
X1120181Y507074D01*
X1119899Y507092D01*
X1119880D01*
X1119862D01*
X1119768D01*
X1119598Y507074D01*
X1119410Y507036D01*
X1119204Y506980D01*
X1118997Y506904D01*
X1118790Y506792D01*
X1118602Y506641D01*
X1118583Y506622D01*
X1118527Y506566D01*
X1118452Y506453D01*
X1118377Y506322D01*
X1118301Y506134D01*
X1118226Y505927D01*
X1118170Y505683D01*
X1118151Y505401D01*
Y505269D01*
X1118170Y505119D01*
X1118207Y504950D01*
X1118264Y504743D01*
X1118358Y504536D01*
X1118471Y504329D01*
X1118621Y504141D01*
X1118640Y504123D01*
X1118715Y504066D01*
X1118828Y503991D01*
X1118997Y503916D01*
X1119204Y503822D01*
X1119486Y503747D01*
X1119805Y503671D01*
X1120181Y503634D01*
X1119937Y501153D01*
X1119918D01*
X1119843Y501172D01*
X1119749D01*
X1119598Y501209D01*
X1119429Y501228D01*
X1119241Y501284D01*
X1119035Y501341D01*
X1118790Y501397D01*
X1118320Y501585D01*
X1117832Y501811D01*
X1117587Y501961D01*
X1117362Y502130D01*
X1117174Y502318D01*
X1116986Y502525D01*
X1116967Y502544D01*
X1116948Y502581D01*
X1116911Y502638D01*
X1116835Y502732D01*
X1116779Y502844D01*
X1116704Y502995D01*
X1116610Y503145D01*
X1116535Y503333D01*
X1116441Y503540D01*
X1116366Y503765D01*
X1116215Y504254D01*
X1116121Y504837D01*
X1116102Y505137D01*
X1116084Y505457D01*
Y505645D01*
X1116102Y505777D01*
X1116121Y505946D01*
X1116140Y506134D01*
X1116178Y506340D01*
X1116215Y506566D01*
X1116347Y507055D01*
X1116535Y507543D01*
X1116647Y507807D01*
X1116779Y508032D01*
X1116948Y508276D01*
X1117136Y508483D01*
X1117155Y508502D01*
X1117174Y508540D01*
X1117249Y508577D01*
X1117324Y508652D01*
X1117418Y508746D01*
X1117550Y508840D01*
X1117681Y508934D01*
X1117850Y509047D01*
X1118226Y509235D01*
X1118659Y509423D01*
X1118903Y509498D01*
X1119166Y509536D01*
X1119448Y509573D01*
X1119730Y509592D01*
X1119768D01*
X1119880D01*
X1120050Y509573D01*
X1120256Y509555D01*
X1120519Y509517D01*
X1120801Y509461D01*
X1121102Y509385D01*
X1121403Y509273D01*
X1121440Y509254D01*
X1121534Y509216D01*
X1121704Y509141D01*
X1121910Y509028D01*
X1122155Y508897D01*
X1122437Y508728D01*
X1122737Y508521D01*
X1123057Y508276D01*
X1123076Y508258D01*
X1123170Y508182D01*
X1123301Y508070D01*
X1123489Y507901D01*
X1123715Y507675D01*
X1124016Y507393D01*
X1124335Y507055D01*
X1124730Y506641D01*
X1124749Y506622D01*
X1124767Y506585D01*
X1124824Y506529D01*
X1124899Y506453D01*
X1125087Y506246D01*
X1125312Y506002D01*
X1125557Y505758D01*
X1125801Y505513D01*
X1126008Y505288D01*
X1126102Y505213D01*
X1126177Y505137D01*
X1126196Y505119D01*
X1126233Y505081D01*
X1126309Y505025D01*
X1126403Y504950D01*
X1126609Y504780D01*
X1126854Y504630D01*
Y509592D01*
X1129166D01*
Y500852D01*
D02*
G37*
G36*
Y490740D02*
X1129147D01*
X1129109D01*
X1129034Y490759D01*
X1128940Y490777D01*
X1128827Y490796D01*
X1128696Y490815D01*
X1128357Y490890D01*
X1127981Y491003D01*
X1127568Y491153D01*
X1127117Y491341D01*
X1126684Y491586D01*
X1126666D01*
X1126628Y491623D01*
X1126553Y491661D01*
X1126478Y491736D01*
X1126346Y491811D01*
X1126215Y491924D01*
X1126045Y492056D01*
X1125857Y492206D01*
X1125632Y492375D01*
X1125406Y492582D01*
X1125143Y492807D01*
X1124861Y493070D01*
X1124579Y493353D01*
X1124260Y493672D01*
X1123922Y494010D01*
X1123564Y494386D01*
X1123546Y494405D01*
X1123489Y494461D01*
X1123414Y494537D01*
X1123301Y494649D01*
X1123188Y494800D01*
X1123038Y494950D01*
X1122700Y495288D01*
X1122343Y495627D01*
X1121985Y495965D01*
X1121835Y496115D01*
X1121666Y496266D01*
X1121534Y496379D01*
X1121422Y496454D01*
X1121384Y496473D01*
X1121290Y496529D01*
X1121140Y496623D01*
X1120933Y496717D01*
X1120707Y496811D01*
X1120444Y496905D01*
X1120181Y496961D01*
X1119899Y496980D01*
X1119880D01*
X1119862D01*
X1119768D01*
X1119598Y496961D01*
X1119410Y496924D01*
X1119204Y496867D01*
X1118997Y496792D01*
X1118790Y496679D01*
X1118602Y496529D01*
X1118583Y496510D01*
X1118527Y496454D01*
X1118452Y496341D01*
X1118377Y496209D01*
X1118301Y496021D01*
X1118226Y495815D01*
X1118170Y495570D01*
X1118151Y495288D01*
Y495157D01*
X1118170Y495006D01*
X1118207Y494837D01*
X1118264Y494631D01*
X1118358Y494424D01*
X1118471Y494217D01*
X1118621Y494029D01*
X1118640Y494010D01*
X1118715Y493954D01*
X1118828Y493879D01*
X1118997Y493804D01*
X1119204Y493710D01*
X1119486Y493634D01*
X1119805Y493559D01*
X1120181Y493522D01*
X1119937Y491040D01*
X1119918D01*
X1119843Y491059D01*
X1119749D01*
X1119598Y491097D01*
X1119429Y491116D01*
X1119241Y491172D01*
X1119035Y491228D01*
X1118790Y491285D01*
X1118320Y491473D01*
X1117832Y491698D01*
X1117587Y491849D01*
X1117362Y492018D01*
X1117174Y492206D01*
X1116986Y492413D01*
X1116967Y492431D01*
X1116948Y492469D01*
X1116911Y492525D01*
X1116835Y492619D01*
X1116779Y492732D01*
X1116704Y492883D01*
X1116610Y493033D01*
X1116535Y493221D01*
X1116441Y493428D01*
X1116366Y493653D01*
X1116215Y494142D01*
X1116121Y494725D01*
X1116102Y495025D01*
X1116084Y495345D01*
Y495533D01*
X1116102Y495664D01*
X1116121Y495834D01*
X1116140Y496021D01*
X1116178Y496228D01*
X1116215Y496454D01*
X1116347Y496942D01*
X1116535Y497431D01*
X1116647Y497694D01*
X1116779Y497920D01*
X1116948Y498164D01*
X1117136Y498371D01*
X1117155Y498390D01*
X1117174Y498427D01*
X1117249Y498465D01*
X1117324Y498540D01*
X1117418Y498634D01*
X1117550Y498728D01*
X1117681Y498822D01*
X1117850Y498935D01*
X1118226Y499123D01*
X1118659Y499311D01*
X1118903Y499386D01*
X1119166Y499424D01*
X1119448Y499461D01*
X1119730Y499480D01*
X1119768D01*
X1119880D01*
X1120050Y499461D01*
X1120256Y499442D01*
X1120519Y499405D01*
X1120801Y499348D01*
X1121102Y499273D01*
X1121403Y499160D01*
X1121440Y499142D01*
X1121534Y499104D01*
X1121704Y499029D01*
X1121910Y498916D01*
X1122155Y498784D01*
X1122437Y498615D01*
X1122737Y498409D01*
X1123057Y498164D01*
X1123076Y498145D01*
X1123170Y498070D01*
X1123301Y497957D01*
X1123489Y497788D01*
X1123715Y497563D01*
X1124016Y497281D01*
X1124335Y496942D01*
X1124730Y496529D01*
X1124749Y496510D01*
X1124767Y496473D01*
X1124824Y496416D01*
X1124899Y496341D01*
X1125087Y496134D01*
X1125312Y495890D01*
X1125557Y495646D01*
X1125801Y495401D01*
X1126008Y495176D01*
X1126102Y495101D01*
X1126177Y495025D01*
X1126196Y495006D01*
X1126233Y494969D01*
X1126309Y494912D01*
X1126403Y494837D01*
X1126609Y494668D01*
X1126854Y494518D01*
Y499480D01*
X1129166D01*
Y490740D01*
D02*
G37*
G36*
X1123358Y489368D02*
X1123658Y489349D01*
X1124016Y489311D01*
X1124391Y489274D01*
X1124805Y489236D01*
X1125237Y489161D01*
X1125688Y489067D01*
X1126121Y488973D01*
X1126553Y488841D01*
X1126985Y488710D01*
X1127380Y488522D01*
X1127756Y488334D01*
X1128075Y488108D01*
X1128094Y488090D01*
X1128132Y488052D01*
X1128207Y487996D01*
X1128282Y487920D01*
X1128376Y487808D01*
X1128489Y487676D01*
X1128621Y487507D01*
X1128733Y487338D01*
X1128865Y487131D01*
X1128996Y486924D01*
X1129109Y486680D01*
X1129203Y486417D01*
X1129278Y486135D01*
X1129353Y485815D01*
X1129391Y485496D01*
X1129410Y485157D01*
Y485082D01*
X1129391Y484969D01*
Y484838D01*
X1129372Y484688D01*
X1129335Y484500D01*
X1129297Y484293D01*
X1129222Y484067D01*
X1129147Y483823D01*
X1129053Y483578D01*
X1128940Y483315D01*
X1128790Y483071D01*
X1128639Y482808D01*
X1128432Y482564D01*
X1128226Y482319D01*
X1127963Y482094D01*
X1127944Y482075D01*
X1127887Y482037D01*
X1127794Y481981D01*
X1127681Y481925D01*
X1127512Y481830D01*
X1127305Y481736D01*
X1127042Y481624D01*
X1126760Y481530D01*
X1126421Y481417D01*
X1126045Y481304D01*
X1125613Y481210D01*
X1125143Y481135D01*
X1124617Y481060D01*
X1124034Y481003D01*
X1123414Y480966D01*
X1122737Y480947D01*
X1122719D01*
X1122700D01*
X1122643D01*
X1122568D01*
X1122380D01*
X1122136Y480966D01*
X1121835Y480985D01*
X1121478Y481022D01*
X1121102Y481060D01*
X1120689Y481097D01*
X1120256Y481173D01*
X1119824Y481248D01*
X1119373Y481361D01*
X1118941Y481473D01*
X1118527Y481624D01*
X1118132Y481793D01*
X1117756Y481981D01*
X1117437Y482206D01*
X1117418Y482225D01*
X1117381Y482263D01*
X1117305Y482319D01*
X1117230Y482413D01*
X1117117Y482507D01*
X1117005Y482639D01*
X1116892Y482808D01*
X1116760Y482977D01*
X1116629Y483184D01*
X1116516Y483391D01*
X1116403Y483635D01*
X1116290Y483898D01*
X1116215Y484180D01*
X1116140Y484500D01*
X1116102Y484819D01*
X1116084Y485157D01*
Y485345D01*
X1116102Y485477D01*
X1116121Y485627D01*
X1116159Y485815D01*
X1116196Y486003D01*
X1116253Y486229D01*
X1116328Y486473D01*
X1116422Y486699D01*
X1116516Y486943D01*
X1116647Y487187D01*
X1116817Y487432D01*
X1116986Y487676D01*
X1117193Y487902D01*
X1117437Y488108D01*
X1117456Y488127D01*
X1117512Y488165D01*
X1117606Y488221D01*
X1117738Y488315D01*
X1117926Y488409D01*
X1118151Y488522D01*
X1118395Y488635D01*
X1118715Y488747D01*
X1119053Y488860D01*
X1119448Y488992D01*
X1119880Y489086D01*
X1120369Y489180D01*
X1120895Y489274D01*
X1121459Y489330D01*
X1122079Y489368D01*
X1122756Y489386D01*
X1122775D01*
X1122794D01*
X1122850D01*
X1122925D01*
X1123113D01*
X1123358Y489368D01*
D02*
G37*
G36*
X1129166Y470515D02*
X1129147D01*
X1129109D01*
X1129034Y470534D01*
X1128940Y470553D01*
X1128827Y470572D01*
X1128696Y470591D01*
X1128357Y470666D01*
X1127981Y470779D01*
X1127568Y470929D01*
X1127117Y471117D01*
X1126684Y471361D01*
X1126666D01*
X1126628Y471399D01*
X1126553Y471436D01*
X1126478Y471511D01*
X1126346Y471587D01*
X1126215Y471699D01*
X1126045Y471831D01*
X1125857Y471981D01*
X1125632Y472151D01*
X1125406Y472357D01*
X1125143Y472583D01*
X1124861Y472846D01*
X1124579Y473128D01*
X1124260Y473447D01*
X1123922Y473786D01*
X1123564Y474162D01*
X1123546Y474180D01*
X1123489Y474237D01*
X1123414Y474312D01*
X1123301Y474425D01*
X1123188Y474575D01*
X1123038Y474726D01*
X1122700Y475064D01*
X1122343Y475402D01*
X1121985Y475741D01*
X1121835Y475891D01*
X1121666Y476041D01*
X1121534Y476154D01*
X1121422Y476229D01*
X1121384Y476248D01*
X1121290Y476305D01*
X1121140Y476399D01*
X1120933Y476492D01*
X1120707Y476586D01*
X1120444Y476680D01*
X1120181Y476737D01*
X1119899Y476756D01*
X1119880D01*
X1119862D01*
X1119768D01*
X1119598Y476737D01*
X1119410Y476699D01*
X1119204Y476643D01*
X1118997Y476568D01*
X1118790Y476455D01*
X1118602Y476305D01*
X1118583Y476286D01*
X1118527Y476229D01*
X1118452Y476116D01*
X1118377Y475985D01*
X1118301Y475797D01*
X1118226Y475590D01*
X1118170Y475346D01*
X1118151Y475064D01*
Y474932D01*
X1118170Y474782D01*
X1118207Y474613D01*
X1118264Y474406D01*
X1118358Y474199D01*
X1118471Y473993D01*
X1118621Y473805D01*
X1118640Y473786D01*
X1118715Y473729D01*
X1118828Y473654D01*
X1118997Y473579D01*
X1119204Y473485D01*
X1119486Y473410D01*
X1119805Y473335D01*
X1120181Y473297D01*
X1119937Y470816D01*
X1119918D01*
X1119843Y470835D01*
X1119749D01*
X1119598Y470872D01*
X1119429Y470891D01*
X1119241Y470948D01*
X1119035Y471004D01*
X1118790Y471060D01*
X1118320Y471248D01*
X1117832Y471474D01*
X1117587Y471624D01*
X1117362Y471793D01*
X1117174Y471981D01*
X1116986Y472188D01*
X1116967Y472207D01*
X1116948Y472244D01*
X1116911Y472301D01*
X1116835Y472395D01*
X1116779Y472508D01*
X1116704Y472658D01*
X1116610Y472808D01*
X1116535Y472996D01*
X1116441Y473203D01*
X1116366Y473429D01*
X1116215Y473917D01*
X1116121Y474500D01*
X1116102Y474801D01*
X1116084Y475120D01*
Y475308D01*
X1116102Y475440D01*
X1116121Y475609D01*
X1116140Y475797D01*
X1116178Y476004D01*
X1116215Y476229D01*
X1116347Y476718D01*
X1116535Y477207D01*
X1116647Y477470D01*
X1116779Y477695D01*
X1116948Y477940D01*
X1117136Y478147D01*
X1117155Y478165D01*
X1117174Y478203D01*
X1117249Y478241D01*
X1117324Y478316D01*
X1117418Y478410D01*
X1117550Y478504D01*
X1117681Y478598D01*
X1117850Y478710D01*
X1118226Y478898D01*
X1118659Y479086D01*
X1118903Y479161D01*
X1119166Y479199D01*
X1119448Y479237D01*
X1119730Y479255D01*
X1119768D01*
X1119880D01*
X1120050Y479237D01*
X1120256Y479218D01*
X1120519Y479180D01*
X1120801Y479124D01*
X1121102Y479049D01*
X1121403Y478936D01*
X1121440Y478917D01*
X1121534Y478880D01*
X1121704Y478804D01*
X1121910Y478692D01*
X1122155Y478560D01*
X1122437Y478391D01*
X1122737Y478184D01*
X1123057Y477940D01*
X1123076Y477921D01*
X1123170Y477846D01*
X1123301Y477733D01*
X1123489Y477564D01*
X1123715Y477338D01*
X1124016Y477056D01*
X1124335Y476718D01*
X1124730Y476305D01*
X1124749Y476286D01*
X1124767Y476248D01*
X1124824Y476192D01*
X1124899Y476116D01*
X1125087Y475910D01*
X1125312Y475665D01*
X1125557Y475421D01*
X1125801Y475177D01*
X1126008Y474951D01*
X1126102Y474876D01*
X1126177Y474801D01*
X1126196Y474782D01*
X1126233Y474744D01*
X1126309Y474688D01*
X1126403Y474613D01*
X1126609Y474444D01*
X1126854Y474293D01*
Y479255D01*
X1129166D01*
Y470515D01*
D02*
G37*
G36*
X1125688Y465027D02*
X1123188D01*
Y469933D01*
X1125688D01*
Y465027D01*
D02*
G37*
G36*
X1129166Y461099D02*
X1126215Y459971D01*
Y454745D01*
X1129166Y453674D01*
Y450892D01*
X1116159Y455930D01*
Y458711D01*
X1129166Y463937D01*
Y461099D01*
D02*
G37*
G36*
X1118508Y441607D02*
X1116366D01*
Y443750D01*
X1118508D01*
Y441607D01*
D02*
G37*
G36*
Y437791D02*
X1116366D01*
Y439934D01*
X1118508D01*
Y437791D01*
D02*
G37*
G36*
X1125181Y438863D02*
X1125200D01*
X1125237D01*
X1125294D01*
X1125369Y438882D01*
X1125557Y438900D01*
X1125820Y438938D01*
X1126083Y439013D01*
X1126384Y439126D01*
X1126666Y439258D01*
X1126910Y439445D01*
X1126929Y439464D01*
X1127004Y439558D01*
X1127098Y439671D01*
X1127211Y439840D01*
X1127324Y440047D01*
X1127418Y440310D01*
X1127493Y440592D01*
X1127512Y440893D01*
Y440987D01*
X1127493Y441100D01*
X1127474Y441231D01*
X1127436Y441381D01*
X1127380Y441551D01*
X1127305Y441720D01*
X1127192Y441870D01*
X1127173Y441889D01*
X1127136Y441945D01*
X1127060Y442021D01*
X1126948Y442096D01*
X1126797Y442209D01*
X1126628Y442303D01*
X1126403Y442397D01*
X1126158Y442491D01*
X1126572Y444972D01*
X1126590D01*
X1126628Y444953D01*
X1126703Y444915D01*
X1126797Y444878D01*
X1126910Y444821D01*
X1127042Y444765D01*
X1127342Y444596D01*
X1127681Y444389D01*
X1128038Y444126D01*
X1128357Y443806D01*
X1128658Y443449D01*
Y443430D01*
X1128696Y443411D01*
X1128715Y443336D01*
X1128771Y443261D01*
X1128827Y443167D01*
X1128884Y443036D01*
X1128940Y442904D01*
X1129015Y442735D01*
X1129147Y442359D01*
X1129260Y441927D01*
X1129335Y441419D01*
X1129372Y440874D01*
Y440761D01*
X1129353Y440648D01*
Y440479D01*
X1129316Y440273D01*
X1129278Y440028D01*
X1129241Y439765D01*
X1129166Y439502D01*
X1129090Y439201D01*
X1128978Y438900D01*
X1128846Y438600D01*
X1128696Y438299D01*
X1128508Y437998D01*
X1128301Y437716D01*
X1128057Y437472D01*
X1127775Y437228D01*
X1127756Y437209D01*
X1127718Y437190D01*
X1127643Y437152D01*
X1127549Y437077D01*
X1127418Y437021D01*
X1127267Y436946D01*
X1127098Y436852D01*
X1126891Y436777D01*
X1126666Y436683D01*
X1126421Y436607D01*
X1126158Y436513D01*
X1125857Y436457D01*
X1125557Y436401D01*
X1125237Y436344D01*
X1124880Y436325D01*
X1124523Y436307D01*
X1124504D01*
X1124429D01*
X1124297D01*
X1124128Y436325D01*
X1123940Y436344D01*
X1123715Y436363D01*
X1123470Y436401D01*
X1123188Y436457D01*
X1122606Y436607D01*
X1122305Y436701D01*
X1121985Y436814D01*
X1121685Y436964D01*
X1121403Y437134D01*
X1121121Y437322D01*
X1120858Y437528D01*
X1120839Y437547D01*
X1120801Y437585D01*
X1120726Y437660D01*
X1120651Y437754D01*
X1120557Y437867D01*
X1120444Y438017D01*
X1120313Y438186D01*
X1120181Y438374D01*
X1120068Y438581D01*
X1119937Y438825D01*
X1119824Y439070D01*
X1119730Y439352D01*
X1119655Y439633D01*
X1119580Y439953D01*
X1119542Y440273D01*
X1119523Y440611D01*
Y440818D01*
X1119542Y440968D01*
X1119561Y441137D01*
X1119598Y441344D01*
X1119636Y441570D01*
X1119692Y441814D01*
X1119768Y442077D01*
X1119862Y442340D01*
X1119974Y442622D01*
X1120125Y442904D01*
X1120275Y443167D01*
X1120463Y443430D01*
X1120689Y443693D01*
X1120933Y443919D01*
X1120952Y443938D01*
X1120989Y443975D01*
X1121083Y444032D01*
X1121196Y444107D01*
X1121346Y444201D01*
X1121516Y444295D01*
X1121741Y444408D01*
X1121985Y444520D01*
X1122268Y444633D01*
X1122587Y444746D01*
X1122925Y444840D01*
X1123320Y444934D01*
X1123734Y445009D01*
X1124185Y445065D01*
X1124654Y445103D01*
X1125181D01*
Y438863D01*
D02*
G37*
G36*
X1129166Y432153D02*
X1127756D01*
X1127794Y432134D01*
X1127887Y432059D01*
X1128019Y431946D01*
X1128188Y431777D01*
X1128395Y431589D01*
X1128583Y431344D01*
X1128790Y431081D01*
X1128959Y430781D01*
X1128978Y430743D01*
X1129015Y430630D01*
X1129090Y430461D01*
X1129166Y430235D01*
X1129241Y429972D01*
X1129316Y429672D01*
X1129353Y429352D01*
X1129372Y429014D01*
Y428845D01*
X1129353Y428675D01*
X1129316Y428450D01*
X1129278Y428168D01*
X1129203Y427886D01*
X1129090Y427585D01*
X1128959Y427303D01*
X1128940Y427266D01*
X1128884Y427191D01*
X1128790Y427040D01*
X1128658Y426890D01*
X1128489Y426702D01*
X1128301Y426533D01*
X1128057Y426363D01*
X1127794Y426213D01*
X1127756Y426194D01*
X1127662Y426157D01*
X1127493Y426100D01*
X1127248Y426044D01*
X1126948Y425988D01*
X1126590Y425931D01*
X1126177Y425894D01*
X1125707Y425875D01*
X1119730D01*
Y428375D01*
X1124072D01*
X1124091D01*
X1124166D01*
X1124260D01*
X1124391D01*
X1124542D01*
X1124711D01*
X1125106Y428394D01*
X1125538Y428412D01*
X1125933Y428431D01*
X1126102Y428450D01*
X1126271Y428469D01*
X1126403Y428488D01*
X1126497Y428506D01*
X1126515D01*
X1126572Y428525D01*
X1126647Y428563D01*
X1126760Y428619D01*
X1126872Y428675D01*
X1126985Y428769D01*
X1127098Y428863D01*
X1127211Y428995D01*
X1127230Y429014D01*
X1127248Y429070D01*
X1127286Y429145D01*
X1127324Y429258D01*
X1127380Y429390D01*
X1127418Y429559D01*
X1127436Y429728D01*
X1127455Y429935D01*
Y430047D01*
X1127436Y430160D01*
X1127418Y430311D01*
X1127380Y430499D01*
X1127305Y430687D01*
X1127230Y430893D01*
X1127117Y431081D01*
X1127098Y431100D01*
X1127060Y431157D01*
X1126985Y431250D01*
X1126872Y431363D01*
X1126741Y431476D01*
X1126609Y431589D01*
X1126440Y431702D01*
X1126252Y431777D01*
X1126233D01*
X1126139Y431814D01*
X1126064D01*
X1125970Y431833D01*
X1125876Y431852D01*
X1125745Y431871D01*
X1125575Y431889D01*
X1125406Y431908D01*
X1125200Y431927D01*
X1124955D01*
X1124692Y431946D01*
X1124391Y431965D01*
X1124072D01*
X1123715D01*
X1119730D01*
Y434465D01*
X1129166D01*
Y432153D01*
D02*
G37*
G36*
X1128771Y423431D02*
X1129128Y423413D01*
X1129541Y423375D01*
X1129955Y423337D01*
X1130350Y423262D01*
X1130519Y423225D01*
X1130688Y423168D01*
X1130726Y423149D01*
X1130820Y423112D01*
X1130970Y423055D01*
X1131158Y422961D01*
X1131365Y422849D01*
X1131590Y422717D01*
X1131797Y422567D01*
X1131985Y422379D01*
X1132004Y422360D01*
X1132060Y422285D01*
X1132154Y422172D01*
X1132248Y422040D01*
X1132361Y421852D01*
X1132493Y421627D01*
X1132605Y421364D01*
X1132718Y421063D01*
X1132737Y421025D01*
X1132756Y420913D01*
X1132812Y420743D01*
X1132850Y420499D01*
X1132906Y420180D01*
X1132962Y419823D01*
X1132981Y419409D01*
X1133000Y418958D01*
Y418732D01*
X1132981Y418563D01*
Y418375D01*
X1132962Y418150D01*
X1132925Y417905D01*
X1132887Y417642D01*
X1132793Y417078D01*
X1132643Y416514D01*
X1132549Y416251D01*
X1132436Y415988D01*
X1132323Y415763D01*
X1132173Y415556D01*
X1132154Y415537D01*
X1132135Y415518D01*
X1132023Y415405D01*
X1131853Y415236D01*
X1131609Y415067D01*
X1131308Y414879D01*
X1130951Y414710D01*
X1130538Y414597D01*
X1130312Y414578D01*
X1130087Y414560D01*
X1130068D01*
X1129993D01*
X1129899D01*
X1129786Y414578D01*
X1130124Y417435D01*
X1130143D01*
X1130199Y417454D01*
X1130293Y417473D01*
X1130387Y417492D01*
X1130613Y417586D01*
X1130726Y417661D01*
X1130801Y417755D01*
X1130820Y417774D01*
X1130838Y417830D01*
X1130895Y417905D01*
X1130932Y418037D01*
X1130989Y418187D01*
X1131045Y418375D01*
X1131064Y418601D01*
X1131083Y418864D01*
Y419033D01*
X1131064Y419202D01*
X1131045Y419409D01*
X1131008Y419653D01*
X1130951Y419898D01*
X1130876Y420123D01*
X1130782Y420330D01*
X1130763Y420349D01*
X1130744Y420386D01*
X1130707Y420443D01*
X1130632Y420518D01*
X1130538Y420593D01*
X1130425Y420668D01*
X1130293Y420743D01*
X1130143Y420819D01*
X1130124D01*
X1130087Y420838D01*
X1130011Y420856D01*
X1129880Y420894D01*
X1129730Y420913D01*
X1129541Y420932D01*
X1129297Y420950D01*
X1129015D01*
X1127643D01*
X1127662Y420932D01*
X1127700Y420894D01*
X1127775Y420838D01*
X1127887Y420743D01*
X1128000Y420649D01*
X1128132Y420518D01*
X1128263Y420349D01*
X1128395Y420180D01*
X1128545Y419992D01*
X1128677Y419766D01*
X1128921Y419296D01*
X1129015Y419033D01*
X1129090Y418751D01*
X1129147Y418450D01*
X1129166Y418131D01*
Y418056D01*
X1129147Y417943D01*
Y417811D01*
X1129109Y417661D01*
X1129072Y417473D01*
X1129034Y417266D01*
X1128959Y417041D01*
X1128884Y416815D01*
X1128771Y416571D01*
X1128639Y416308D01*
X1128489Y416063D01*
X1128301Y415819D01*
X1128094Y415575D01*
X1127850Y415349D01*
X1127568Y415123D01*
X1127549D01*
X1127512Y415086D01*
X1127436Y415048D01*
X1127342Y414992D01*
X1127211Y414917D01*
X1127060Y414842D01*
X1126891Y414766D01*
X1126684Y414691D01*
X1126478Y414616D01*
X1126233Y414541D01*
X1125970Y414466D01*
X1125688Y414390D01*
X1125087Y414296D01*
X1124749Y414278D01*
X1124410Y414259D01*
X1124391D01*
X1124297D01*
X1124185D01*
X1124016Y414278D01*
X1123828Y414296D01*
X1123602Y414315D01*
X1123339Y414353D01*
X1123076Y414409D01*
X1122474Y414541D01*
X1122173Y414635D01*
X1121873Y414729D01*
X1121591Y414860D01*
X1121290Y415011D01*
X1121027Y415180D01*
X1120783Y415387D01*
X1120764Y415405D01*
X1120726Y415443D01*
X1120670Y415499D01*
X1120576Y415593D01*
X1120482Y415706D01*
X1120388Y415838D01*
X1120275Y415988D01*
X1120144Y416176D01*
X1120031Y416364D01*
X1119918Y416590D01*
X1119711Y417060D01*
X1119636Y417341D01*
X1119580Y417623D01*
X1119542Y417924D01*
X1119523Y418225D01*
Y418300D01*
X1119542Y418394D01*
Y418526D01*
X1119580Y418657D01*
X1119598Y418845D01*
X1119655Y419033D01*
X1119711Y419240D01*
X1119805Y419465D01*
X1119899Y419691D01*
X1120031Y419935D01*
X1120181Y420180D01*
X1120350Y420424D01*
X1120576Y420668D01*
X1120801Y420894D01*
X1121083Y421119D01*
X1119730D01*
Y423450D01*
X1128207D01*
X1128226D01*
X1128282D01*
X1128357D01*
X1128470D01*
X1128621D01*
X1128771Y423431D01*
D02*
G37*
G36*
X1129166Y410424D02*
X1129147D01*
X1129128Y410406D01*
X1129053Y410387D01*
X1128978Y410349D01*
X1128884Y410312D01*
X1128752Y410274D01*
X1128602Y410237D01*
X1128432Y410180D01*
X1128414D01*
X1128395Y410161D01*
X1128320Y410143D01*
X1128226Y410105D01*
X1128151Y410086D01*
X1128169Y410049D01*
X1128245Y409973D01*
X1128357Y409842D01*
X1128489Y409673D01*
X1128639Y409466D01*
X1128809Y409240D01*
X1128940Y408977D01*
X1129072Y408714D01*
X1129090Y408676D01*
X1129109Y408582D01*
X1129166Y408432D01*
X1129222Y408244D01*
X1129278Y408019D01*
X1129316Y407756D01*
X1129353Y407455D01*
X1129372Y407154D01*
Y407022D01*
X1129353Y406910D01*
Y406797D01*
X1129335Y406646D01*
X1129278Y406327D01*
X1129184Y405951D01*
X1129053Y405575D01*
X1128865Y405199D01*
X1128602Y404861D01*
X1128583D01*
X1128564Y404823D01*
X1128451Y404729D01*
X1128282Y404598D01*
X1128057Y404447D01*
X1127775Y404297D01*
X1127436Y404165D01*
X1127042Y404072D01*
X1126835Y404053D01*
X1126609Y404034D01*
X1126572D01*
X1126478D01*
X1126327Y404053D01*
X1126139Y404090D01*
X1125914Y404128D01*
X1125688Y404184D01*
X1125444Y404278D01*
X1125200Y404410D01*
X1125162Y404429D01*
X1125087Y404485D01*
X1124974Y404560D01*
X1124843Y404692D01*
X1124692Y404823D01*
X1124523Y405011D01*
X1124373Y405218D01*
X1124241Y405462D01*
X1124222Y405500D01*
X1124185Y405594D01*
X1124128Y405744D01*
X1124034Y405970D01*
X1123940Y406252D01*
X1123846Y406590D01*
X1123752Y407004D01*
X1123658Y407455D01*
Y407473D01*
X1123640Y407530D01*
X1123621Y407624D01*
X1123602Y407737D01*
X1123583Y407887D01*
X1123546Y408056D01*
X1123452Y408432D01*
X1123358Y408827D01*
X1123264Y409240D01*
X1123151Y409598D01*
X1123094Y409767D01*
X1123038Y409898D01*
X1122794D01*
X1122756D01*
X1122681D01*
X1122549Y409879D01*
X1122380Y409861D01*
X1122211Y409804D01*
X1122042Y409748D01*
X1121891Y409654D01*
X1121760Y409522D01*
X1121741Y409504D01*
X1121704Y409447D01*
X1121666Y409353D01*
X1121591Y409222D01*
X1121534Y409034D01*
X1121497Y408808D01*
X1121459Y408526D01*
X1121440Y408188D01*
Y408075D01*
X1121459Y407962D01*
X1121478Y407812D01*
X1121516Y407643D01*
X1121553Y407455D01*
X1121628Y407286D01*
X1121722Y407135D01*
X1121741Y407116D01*
X1121779Y407079D01*
X1121835Y407004D01*
X1121929Y406928D01*
X1122061Y406816D01*
X1122230Y406722D01*
X1122418Y406628D01*
X1122643Y406534D01*
X1122230Y404297D01*
X1122211D01*
X1122173Y404316D01*
X1122098Y404335D01*
X1122004Y404372D01*
X1121891Y404410D01*
X1121760Y404466D01*
X1121459Y404598D01*
X1121140Y404786D01*
X1120801Y405011D01*
X1120482Y405274D01*
X1120200Y405594D01*
Y405613D01*
X1120162Y405631D01*
X1120144Y405688D01*
X1120087Y405763D01*
X1120050Y405876D01*
X1119993Y405989D01*
X1119918Y406139D01*
X1119862Y406289D01*
X1119805Y406477D01*
X1119730Y406684D01*
X1119674Y406910D01*
X1119636Y407173D01*
X1119580Y407436D01*
X1119561Y407737D01*
X1119523Y408037D01*
Y408658D01*
X1119542Y408789D01*
Y408940D01*
X1119580Y409315D01*
X1119617Y409710D01*
X1119692Y410124D01*
X1119805Y410518D01*
X1119862Y410688D01*
X1119937Y410857D01*
Y410876D01*
X1119956Y410894D01*
X1120012Y410988D01*
X1120087Y411139D01*
X1120200Y411308D01*
X1120350Y411515D01*
X1120519Y411703D01*
X1120726Y411872D01*
X1120933Y412022D01*
X1120971Y412041D01*
X1121046Y412079D01*
X1121215Y412135D01*
X1121309Y412154D01*
X1121440Y412191D01*
X1121572Y412229D01*
X1121741Y412248D01*
X1121929Y412285D01*
X1122136Y412304D01*
X1122361Y412323D01*
X1122606Y412342D01*
X1122869Y412360D01*
X1123170D01*
X1126083Y412323D01*
X1126102D01*
X1126139D01*
X1126196D01*
X1126290D01*
X1126515D01*
X1126778Y412342D01*
X1127079D01*
X1127380Y412379D01*
X1127681Y412398D01*
X1127925Y412436D01*
X1127944D01*
X1128019Y412454D01*
X1128151Y412492D01*
X1128301Y412530D01*
X1128489Y412605D01*
X1128696Y412680D01*
X1128921Y412774D01*
X1129166Y412887D01*
Y410424D01*
D02*
G37*
G36*
Y393677D02*
X1116253D01*
Y396309D01*
X1126966D01*
Y402850D01*
X1129166D01*
Y393677D01*
D02*
G37*
G36*
Y383509D02*
X1124373D01*
X1124354D01*
X1124297D01*
X1124222D01*
X1124128D01*
X1123997D01*
X1123865D01*
X1123546Y383490D01*
X1123226Y383471D01*
X1122888Y383433D01*
X1122606Y383396D01*
X1122493Y383377D01*
X1122399Y383340D01*
X1122380D01*
X1122324Y383302D01*
X1122249Y383264D01*
X1122136Y383208D01*
X1121910Y383039D01*
X1121798Y382945D01*
X1121704Y382813D01*
X1121685Y382794D01*
X1121666Y382757D01*
X1121628Y382682D01*
X1121572Y382569D01*
X1121516Y382437D01*
X1121478Y382306D01*
X1121459Y382136D01*
X1121440Y381949D01*
Y381836D01*
X1121459Y381723D01*
X1121478Y381573D01*
X1121534Y381385D01*
X1121591Y381197D01*
X1121685Y380990D01*
X1121798Y380783D01*
X1121816Y380764D01*
X1121854Y380708D01*
X1121948Y380614D01*
X1122042Y380501D01*
X1122192Y380388D01*
X1122343Y380276D01*
X1122549Y380163D01*
X1122756Y380088D01*
X1122775D01*
X1122869Y380050D01*
X1123019Y380031D01*
X1123245Y379994D01*
X1123376Y379975D01*
X1123546Y379956D01*
X1123715Y379937D01*
X1123922D01*
X1124128Y379919D01*
X1124373Y379900D01*
X1124636D01*
X1124918D01*
X1129166D01*
Y377400D01*
X1119730D01*
Y379712D01*
X1121121D01*
X1121102Y379731D01*
X1121046Y379768D01*
X1120971Y379843D01*
X1120876Y379937D01*
X1120745Y380050D01*
X1120613Y380201D01*
X1120463Y380370D01*
X1120313Y380558D01*
X1120181Y380764D01*
X1120031Y381009D01*
X1119899Y381253D01*
X1119768Y381535D01*
X1119674Y381836D01*
X1119598Y382136D01*
X1119542Y382475D01*
X1119523Y382813D01*
Y382945D01*
X1119542Y383114D01*
X1119561Y383321D01*
X1119598Y383546D01*
X1119655Y383791D01*
X1119730Y384054D01*
X1119824Y384317D01*
X1119843Y384355D01*
X1119880Y384430D01*
X1119937Y384561D01*
X1120031Y384712D01*
X1120144Y384881D01*
X1120275Y385050D01*
X1120425Y385219D01*
X1120595Y385369D01*
X1120613Y385388D01*
X1120670Y385426D01*
X1120764Y385482D01*
X1120895Y385557D01*
X1121046Y385651D01*
X1121234Y385727D01*
X1121422Y385802D01*
X1121647Y385858D01*
X1121666D01*
X1121760Y385877D01*
X1121891Y385914D01*
X1122079Y385933D01*
X1122305Y385971D01*
X1122606Y385990D01*
X1122925Y386008D01*
X1123320D01*
X1129166D01*
Y383509D01*
D02*
G37*
G36*
Y372363D02*
X1119730D01*
Y374863D01*
X1129166D01*
Y372363D01*
D02*
G37*
G36*
X1118471D02*
X1116159D01*
Y374863D01*
X1118471D01*
Y372363D01*
D02*
G37*
G36*
X1129015Y370840D02*
X1129034Y370821D01*
X1129072Y370709D01*
X1129128Y370521D01*
X1129184Y370276D01*
X1129260Y369994D01*
X1129316Y369656D01*
X1129353Y369280D01*
X1129372Y368885D01*
Y368773D01*
X1129353Y368641D01*
X1129335Y368472D01*
X1129316Y368284D01*
X1129278Y368077D01*
X1129222Y367870D01*
X1129147Y367664D01*
X1129128Y367645D01*
X1129109Y367570D01*
X1129053Y367476D01*
X1128996Y367363D01*
X1128809Y367100D01*
X1128696Y366968D01*
X1128564Y366855D01*
X1128545Y366837D01*
X1128489Y366818D01*
X1128414Y366780D01*
X1128301Y366724D01*
X1128169Y366667D01*
X1128000Y366611D01*
X1127812Y366555D01*
X1127606Y366517D01*
X1127587D01*
X1127512Y366498D01*
X1127399D01*
X1127211Y366479D01*
X1126966Y366461D01*
X1126666D01*
X1126497Y366442D01*
X1126290D01*
X1126083D01*
X1125839D01*
X1121722D01*
Y365295D01*
X1119730D01*
Y366442D01*
X1117850D01*
X1116384Y368942D01*
X1119730D01*
Y370652D01*
X1121722D01*
Y368942D01*
X1125538D01*
X1125557D01*
X1125594D01*
X1125651D01*
X1125726D01*
X1125914D01*
X1126139D01*
X1126365Y368960D01*
X1126590D01*
X1126760D01*
X1126835Y368979D01*
X1126872D01*
X1126910Y368998D01*
X1126985Y369036D01*
X1127079Y369092D01*
X1127192Y369205D01*
X1127211Y369243D01*
X1127248Y369318D01*
X1127286Y369449D01*
X1127305Y369618D01*
Y369694D01*
X1127286Y369769D01*
X1127267Y369882D01*
X1127248Y370032D01*
X1127211Y370201D01*
X1127154Y370408D01*
X1127079Y370633D01*
X1129015Y370859D01*
Y370840D01*
D02*
G37*
G36*
X1126440Y364111D02*
X1126534Y364092D01*
X1126666Y364074D01*
X1126985Y363998D01*
X1127324Y363867D01*
X1127512Y363773D01*
X1127700Y363679D01*
X1127887Y363547D01*
X1128075Y363397D01*
X1128263Y363228D01*
X1128451Y363040D01*
X1128470Y363021D01*
X1128489Y362983D01*
X1128527Y362927D01*
X1128602Y362833D01*
X1128658Y362720D01*
X1128733Y362589D01*
X1128827Y362420D01*
X1128902Y362232D01*
X1128996Y362025D01*
X1129072Y361781D01*
X1129166Y361517D01*
X1129222Y361235D01*
X1129278Y360916D01*
X1129335Y360578D01*
X1129353Y360220D01*
X1129372Y359845D01*
Y359656D01*
X1129353Y359525D01*
Y359356D01*
X1129335Y359168D01*
X1129316Y358961D01*
X1129278Y358736D01*
X1129184Y358247D01*
X1129053Y357739D01*
X1128865Y357232D01*
X1128733Y357006D01*
X1128602Y356781D01*
X1128583Y356762D01*
X1128564Y356724D01*
X1128527Y356668D01*
X1128451Y356612D01*
X1128282Y356405D01*
X1128038Y356179D01*
X1127737Y355935D01*
X1127380Y355709D01*
X1126948Y355503D01*
X1126478Y355333D01*
X1126102Y357833D01*
X1126139D01*
X1126215Y357871D01*
X1126346Y357909D01*
X1126515Y357965D01*
X1126703Y358059D01*
X1126872Y358172D01*
X1127060Y358303D01*
X1127211Y358472D01*
X1127230Y358491D01*
X1127267Y358566D01*
X1127324Y358679D01*
X1127380Y358829D01*
X1127455Y359017D01*
X1127512Y359262D01*
X1127549Y359525D01*
X1127568Y359845D01*
Y359995D01*
X1127549Y360183D01*
X1127530Y360390D01*
X1127493Y360615D01*
X1127418Y360859D01*
X1127342Y361085D01*
X1127230Y361292D01*
X1127211Y361311D01*
X1127173Y361348D01*
X1127117Y361404D01*
X1127042Y361461D01*
X1126948Y361517D01*
X1126835Y361574D01*
X1126703Y361611D01*
X1126553Y361630D01*
X1126534D01*
X1126497D01*
X1126384Y361611D01*
X1126233Y361555D01*
X1126083Y361442D01*
X1126045Y361404D01*
X1126027Y361348D01*
X1125970Y361273D01*
X1125933Y361160D01*
X1125876Y361010D01*
X1125820Y360841D01*
X1125763Y360615D01*
Y360578D01*
X1125726Y360484D01*
X1125688Y360333D01*
X1125651Y360126D01*
X1125594Y359882D01*
X1125519Y359619D01*
X1125444Y359318D01*
X1125350Y358999D01*
X1125162Y358341D01*
X1125068Y358021D01*
X1124955Y357720D01*
X1124861Y357439D01*
X1124749Y357175D01*
X1124636Y356950D01*
X1124542Y356781D01*
X1124523Y356762D01*
X1124504Y356724D01*
X1124467Y356687D01*
X1124391Y356612D01*
X1124222Y356424D01*
X1123978Y356236D01*
X1123677Y356029D01*
X1123320Y355841D01*
X1123113Y355766D01*
X1122888Y355728D01*
X1122662Y355691D01*
X1122418Y355672D01*
X1122399D01*
X1122361D01*
X1122305D01*
X1122211Y355691D01*
X1122117Y355709D01*
X1121985Y355728D01*
X1121704Y355784D01*
X1121384Y355897D01*
X1121046Y356085D01*
X1120858Y356179D01*
X1120689Y356311D01*
X1120519Y356461D01*
X1120369Y356630D01*
X1120350Y356649D01*
X1120331Y356668D01*
X1120294Y356724D01*
X1120238Y356818D01*
X1120181Y356912D01*
X1120106Y357044D01*
X1120031Y357194D01*
X1119937Y357363D01*
X1119862Y357570D01*
X1119786Y357796D01*
X1119711Y358040D01*
X1119655Y358303D01*
X1119598Y358604D01*
X1119561Y358923D01*
X1119523Y359262D01*
Y359957D01*
X1119542Y360108D01*
X1119561Y360296D01*
X1119580Y360502D01*
X1119598Y360728D01*
X1119674Y361198D01*
X1119786Y361668D01*
X1119956Y362119D01*
X1120050Y362326D01*
X1120162Y362514D01*
Y362532D01*
X1120200Y362551D01*
X1120275Y362664D01*
X1120425Y362833D01*
X1120632Y363021D01*
X1120876Y363246D01*
X1121196Y363453D01*
X1121572Y363660D01*
X1122004Y363810D01*
X1122437Y361461D01*
X1122418D01*
X1122343Y361423D01*
X1122249Y361386D01*
X1122136Y361329D01*
X1121985Y361254D01*
X1121854Y361141D01*
X1121722Y361029D01*
X1121610Y360878D01*
X1121591Y360859D01*
X1121553Y360803D01*
X1121516Y360709D01*
X1121459Y360578D01*
X1121403Y360408D01*
X1121346Y360202D01*
X1121328Y359957D01*
X1121309Y359675D01*
Y359506D01*
X1121328Y359337D01*
X1121346Y359130D01*
X1121384Y358886D01*
X1121422Y358660D01*
X1121497Y358454D01*
X1121591Y358266D01*
Y358247D01*
X1121628Y358228D01*
X1121722Y358134D01*
X1121891Y358021D01*
X1121985Y358003D01*
X1122098Y357984D01*
X1122117D01*
X1122136D01*
X1122249Y358021D01*
X1122399Y358096D01*
X1122474Y358153D01*
X1122549Y358228D01*
X1122568Y358247D01*
X1122587Y358322D01*
X1122625Y358360D01*
X1122643Y358435D01*
X1122681Y358529D01*
X1122737Y358642D01*
X1122775Y358792D01*
X1122831Y358942D01*
X1122888Y359130D01*
X1122944Y359356D01*
X1123019Y359600D01*
X1123094Y359882D01*
X1123170Y360202D01*
X1123264Y360559D01*
Y360578D01*
X1123282Y360653D01*
X1123301Y360747D01*
X1123339Y360878D01*
X1123395Y361047D01*
X1123433Y361235D01*
X1123564Y361649D01*
X1123734Y362119D01*
X1123922Y362570D01*
X1124034Y362795D01*
X1124128Y363002D01*
X1124260Y363171D01*
X1124373Y363340D01*
X1124410Y363378D01*
X1124485Y363472D01*
X1124636Y363585D01*
X1124843Y363735D01*
X1125106Y363886D01*
X1125425Y363998D01*
X1125801Y364092D01*
X1126215Y364130D01*
X1126233D01*
X1126271D01*
X1126346D01*
X1126440Y364111D01*
D02*
G37*
G36*
X1129166Y351330D02*
X1127756D01*
X1127794Y351311D01*
X1127887Y351236D01*
X1128019Y351123D01*
X1128188Y350954D01*
X1128395Y350766D01*
X1128583Y350522D01*
X1128790Y350258D01*
X1128959Y349958D01*
X1128978Y349920D01*
X1129015Y349807D01*
X1129090Y349638D01*
X1129166Y349413D01*
X1129241Y349150D01*
X1129316Y348849D01*
X1129353Y348529D01*
X1129372Y348191D01*
Y348022D01*
X1129353Y347853D01*
X1129316Y347627D01*
X1129278Y347345D01*
X1129203Y347063D01*
X1129090Y346763D01*
X1128959Y346480D01*
X1128940Y346443D01*
X1128884Y346368D01*
X1128790Y346217D01*
X1128658Y346067D01*
X1128489Y345879D01*
X1128301Y345710D01*
X1128057Y345541D01*
X1127794Y345390D01*
X1127756Y345372D01*
X1127662Y345334D01*
X1127493Y345278D01*
X1127248Y345221D01*
X1126948Y345165D01*
X1126590Y345108D01*
X1126177Y345071D01*
X1125707Y345052D01*
X1119730D01*
Y347552D01*
X1124072D01*
X1124091D01*
X1124166D01*
X1124260D01*
X1124391D01*
X1124542D01*
X1124711D01*
X1125106Y347571D01*
X1125538Y347589D01*
X1125933Y347608D01*
X1126102Y347627D01*
X1126271Y347646D01*
X1126403Y347665D01*
X1126497Y347683D01*
X1126515D01*
X1126572Y347702D01*
X1126647Y347740D01*
X1126760Y347796D01*
X1126872Y347853D01*
X1126985Y347947D01*
X1127098Y348041D01*
X1127211Y348172D01*
X1127230Y348191D01*
X1127248Y348247D01*
X1127286Y348322D01*
X1127324Y348435D01*
X1127380Y348567D01*
X1127418Y348736D01*
X1127436Y348905D01*
X1127455Y349112D01*
Y349225D01*
X1127436Y349338D01*
X1127418Y349488D01*
X1127380Y349676D01*
X1127305Y349864D01*
X1127230Y350070D01*
X1127117Y350258D01*
X1127098Y350277D01*
X1127060Y350334D01*
X1126985Y350428D01*
X1126872Y350540D01*
X1126741Y350653D01*
X1126609Y350766D01*
X1126440Y350879D01*
X1126252Y350954D01*
X1126233D01*
X1126139Y350992D01*
X1126064D01*
X1125970Y351010D01*
X1125876Y351029D01*
X1125745Y351048D01*
X1125575Y351067D01*
X1125406Y351086D01*
X1125200Y351104D01*
X1124955D01*
X1124692Y351123D01*
X1124391Y351142D01*
X1124072D01*
X1123715D01*
X1119730D01*
Y353642D01*
X1129166D01*
Y351330D01*
D02*
G37*
G36*
X1124974Y342308D02*
X1125331Y342289D01*
X1125726Y342251D01*
X1126139Y342195D01*
X1126553Y342120D01*
X1126910Y342026D01*
X1126929D01*
X1126966Y342007D01*
X1127023Y341988D01*
X1127098Y341951D01*
X1127305Y341857D01*
X1127568Y341706D01*
X1127850Y341518D01*
X1128151Y341274D01*
X1128451Y340992D01*
X1128733Y340635D01*
Y340616D01*
X1128771Y340597D01*
X1128790Y340541D01*
X1128846Y340447D01*
X1128884Y340353D01*
X1128940Y340240D01*
X1129015Y340090D01*
X1129072Y339939D01*
X1129128Y339752D01*
X1129203Y339564D01*
X1129297Y339113D01*
X1129372Y338586D01*
X1129410Y338004D01*
Y337816D01*
X1129391Y337684D01*
X1129372Y337515D01*
X1129353Y337346D01*
X1129316Y337139D01*
X1129278Y336913D01*
X1129147Y336425D01*
X1129053Y336180D01*
X1128959Y335936D01*
X1128827Y335692D01*
X1128696Y335466D01*
X1128527Y335241D01*
X1128339Y335034D01*
X1128320Y335015D01*
X1128282Y334996D01*
X1128226Y334940D01*
X1128132Y334865D01*
X1128019Y334789D01*
X1127887Y334714D01*
X1127718Y334620D01*
X1127549Y334526D01*
X1127324Y334413D01*
X1127098Y334319D01*
X1126835Y334244D01*
X1126553Y334169D01*
X1126252Y334094D01*
X1125914Y334038D01*
X1125557Y334019D01*
X1125181Y334000D01*
X1124899Y336500D01*
X1124918D01*
X1124955D01*
X1125012D01*
X1125087Y336519D01*
X1125275D01*
X1125519Y336556D01*
X1125782Y336594D01*
X1126045Y336650D01*
X1126271Y336725D01*
X1126478Y336819D01*
X1126515Y336838D01*
X1126590Y336895D01*
X1126703Y336988D01*
X1126816Y337139D01*
X1126948Y337308D01*
X1127060Y337534D01*
X1127136Y337797D01*
X1127173Y338097D01*
Y338248D01*
X1127154Y338398D01*
X1127117Y338567D01*
X1127060Y338774D01*
X1126966Y338981D01*
X1126854Y339169D01*
X1126684Y339319D01*
X1126666Y339338D01*
X1126572Y339376D01*
X1126440Y339432D01*
X1126233Y339507D01*
X1126102Y339545D01*
X1125952Y339582D01*
X1125782Y339601D01*
X1125594Y339639D01*
X1125369Y339658D01*
X1125143Y339676D01*
X1124880Y339695D01*
X1124598D01*
X1116159D01*
Y342327D01*
X1124410D01*
X1124429D01*
X1124485D01*
X1124561D01*
X1124673D01*
X1124805D01*
X1124974Y342308D01*
D02*
G37*
%LPC*%
G36*
X1123170Y486755D02*
X1122756D01*
X1122737D01*
X1122662D01*
X1122531D01*
X1122380D01*
X1122192D01*
X1121985Y486736D01*
X1121741D01*
X1121497Y486717D01*
X1120971Y486699D01*
X1120463Y486661D01*
X1120219Y486623D01*
X1119974Y486586D01*
X1119768Y486548D01*
X1119598Y486511D01*
X1119580D01*
X1119561Y486492D01*
X1119467Y486473D01*
X1119316Y486417D01*
X1119128Y486360D01*
X1118941Y486266D01*
X1118753Y486172D01*
X1118583Y486060D01*
X1118452Y485947D01*
X1118433Y485928D01*
X1118395Y485890D01*
X1118358Y485815D01*
X1118301Y485721D01*
X1118245Y485608D01*
X1118189Y485477D01*
X1118170Y485327D01*
X1118151Y485157D01*
Y485082D01*
X1118170Y484988D01*
X1118189Y484894D01*
X1118226Y484763D01*
X1118283Y484631D01*
X1118358Y484481D01*
X1118452Y484349D01*
X1118471Y484330D01*
X1118508Y484293D01*
X1118583Y484236D01*
X1118677Y484161D01*
X1118828Y484067D01*
X1118997Y483992D01*
X1119222Y483898D01*
X1119486Y483823D01*
X1119504D01*
X1119523Y483804D01*
X1119598D01*
X1119674Y483785D01*
X1119786Y483767D01*
X1119918Y483748D01*
X1120068Y483729D01*
X1120256Y483710D01*
X1120482Y483672D01*
X1120707Y483654D01*
X1120989Y483635D01*
X1121271Y483616D01*
X1121610Y483597D01*
X1121948D01*
X1122343Y483578D01*
X1122756D01*
X1122775D01*
X1122850D01*
X1122982D01*
X1123132D01*
X1123320D01*
X1123527Y483597D01*
X1123771D01*
X1124016Y483616D01*
X1124542Y483635D01*
X1125068Y483672D01*
X1125312Y483691D01*
X1125538Y483729D01*
X1125745Y483767D01*
X1125933Y483804D01*
X1125970Y483823D01*
X1126064Y483842D01*
X1126215Y483898D01*
X1126384Y483955D01*
X1126572Y484048D01*
X1126760Y484142D01*
X1126929Y484255D01*
X1127060Y484368D01*
X1127079Y484387D01*
X1127098Y484424D01*
X1127154Y484500D01*
X1127192Y484594D01*
X1127248Y484706D01*
X1127305Y484838D01*
X1127324Y484988D01*
X1127342Y485157D01*
Y485233D01*
X1127324Y485327D01*
X1127305Y485420D01*
X1127267Y485552D01*
X1127230Y485684D01*
X1127154Y485815D01*
X1127060Y485947D01*
X1127042Y485966D01*
X1127004Y486003D01*
X1126929Y486078D01*
X1126816Y486154D01*
X1126684Y486229D01*
X1126497Y486323D01*
X1126290Y486417D01*
X1126027Y486492D01*
X1126008D01*
X1125989Y486511D01*
X1125914D01*
X1125839Y486530D01*
X1125726Y486548D01*
X1125594Y486567D01*
X1125444Y486605D01*
X1125256Y486623D01*
X1125049Y486642D01*
X1124805Y486680D01*
X1124542Y486699D01*
X1124241Y486717D01*
X1123922Y486736D01*
X1123564D01*
X1123170Y486755D01*
D02*
G37*
G36*
X1124016Y459125D02*
X1119185Y457302D01*
X1124016Y455535D01*
Y459125D01*
D02*
G37*
G36*
X1123658Y442622D02*
X1123640D01*
X1123602D01*
X1123564D01*
X1123489Y442603D01*
X1123282Y442584D01*
X1123057Y442547D01*
X1122794Y442472D01*
X1122512Y442378D01*
X1122249Y442227D01*
X1122023Y442058D01*
X1122004Y442039D01*
X1121929Y441964D01*
X1121835Y441851D01*
X1121722Y441701D01*
X1121628Y441513D01*
X1121534Y441287D01*
X1121459Y441043D01*
X1121440Y440761D01*
Y440630D01*
X1121478Y440479D01*
X1121516Y440291D01*
X1121591Y440085D01*
X1121685Y439859D01*
X1121835Y439633D01*
X1122042Y439427D01*
X1122061Y439408D01*
X1122155Y439352D01*
X1122286Y439258D01*
X1122474Y439164D01*
X1122700Y439051D01*
X1122982Y438976D01*
X1123301Y438919D01*
X1123658Y438900D01*
Y442622D01*
D02*
G37*
G36*
X1124335Y420988D02*
X1124316D01*
X1124279D01*
X1124203D01*
X1124091D01*
X1123978Y420969D01*
X1123828Y420950D01*
X1123508Y420913D01*
X1123151Y420838D01*
X1122794Y420743D01*
X1122455Y420593D01*
X1122155Y420386D01*
X1122117Y420368D01*
X1122042Y420274D01*
X1121929Y420142D01*
X1121798Y419973D01*
X1121666Y419747D01*
X1121553Y419484D01*
X1121478Y419202D01*
X1121440Y418864D01*
Y418826D01*
X1121459Y418713D01*
X1121478Y418544D01*
X1121534Y418338D01*
X1121610Y418112D01*
X1121741Y417849D01*
X1121910Y417605D01*
X1122155Y417379D01*
X1122192Y417360D01*
X1122286Y417285D01*
X1122455Y417210D01*
X1122681Y417097D01*
X1122982Y417003D01*
X1123339Y416909D01*
X1123771Y416834D01*
X1124279Y416815D01*
X1124297D01*
X1124335D01*
X1124429D01*
X1124523Y416834D01*
X1124636D01*
X1124786Y416853D01*
X1125106Y416890D01*
X1125463Y416947D01*
X1125820Y417060D01*
X1126158Y417191D01*
X1126459Y417379D01*
X1126497Y417398D01*
X1126572Y417492D01*
X1126684Y417605D01*
X1126797Y417774D01*
X1126929Y417980D01*
X1127042Y418225D01*
X1127117Y418507D01*
X1127154Y418807D01*
Y418845D01*
X1127136Y418958D01*
X1127117Y419127D01*
X1127060Y419353D01*
X1126985Y419597D01*
X1126854Y419841D01*
X1126684Y420104D01*
X1126440Y420349D01*
X1126403Y420368D01*
X1126309Y420443D01*
X1126139Y420555D01*
X1125914Y420668D01*
X1125613Y420781D01*
X1125256Y420894D01*
X1124824Y420969D01*
X1124335Y420988D01*
D02*
G37*
G36*
X1125463Y409898D02*
X1125162D01*
X1124654D01*
Y409879D01*
X1124692Y409804D01*
X1124711Y409692D01*
X1124767Y409522D01*
X1124824Y409315D01*
X1124899Y409034D01*
X1124974Y408733D01*
X1125049Y408357D01*
Y408319D01*
X1125068Y408263D01*
X1125087Y408188D01*
X1125124Y408019D01*
X1125181Y407793D01*
X1125237Y407567D01*
X1125312Y407342D01*
X1125406Y407154D01*
X1125482Y407004D01*
X1125500Y406985D01*
X1125538Y406928D01*
X1125613Y406853D01*
X1125707Y406778D01*
X1125839Y406684D01*
X1125989Y406609D01*
X1126158Y406553D01*
X1126346Y406534D01*
X1126365D01*
X1126440D01*
X1126534Y406553D01*
X1126647Y406590D01*
X1126797Y406628D01*
X1126948Y406684D01*
X1127098Y406778D01*
X1127248Y406910D01*
X1127267Y406928D01*
X1127305Y406985D01*
X1127361Y407060D01*
X1127436Y407192D01*
X1127512Y407323D01*
X1127568Y407492D01*
X1127606Y407699D01*
X1127624Y407906D01*
Y408019D01*
X1127606Y408150D01*
X1127568Y408319D01*
X1127512Y408526D01*
X1127436Y408733D01*
X1127342Y408977D01*
X1127192Y409203D01*
X1127173Y409222D01*
X1127136Y409278D01*
X1127060Y409353D01*
X1126966Y409447D01*
X1126835Y409541D01*
X1126703Y409635D01*
X1126534Y409729D01*
X1126365Y409785D01*
X1126346D01*
X1126309Y409804D01*
X1126215Y409823D01*
X1126102Y409842D01*
X1125933Y409861D01*
X1125726Y409879D01*
X1125463Y409898D01*
D02*
G37*
%LPD*%
D19*
X426840Y50605D02*
D03*
X431840D02*
D03*
X436840D02*
D03*
X441840D02*
D03*
Y73855D02*
D03*
X436840D02*
D03*
X431840D02*
D03*
X426840D02*
D03*
D20*
X443465Y57230D02*
D03*
Y62230D02*
D03*
Y67230D02*
D03*
X425215D02*
D03*
Y62230D02*
D03*
Y57230D02*
D03*
D22*
X496874Y368126D02*
D03*
X507127Y357873D02*
D03*
D30*
X656205Y396204D02*
D03*
X647000Y387000D02*
D03*
X498578Y179608D02*
D03*
X489374Y170404D02*
D03*
D33*
X669000Y254000D02*
D03*
X680544D02*
D03*
D42*
X94325Y311760D02*
D03*
Y292760D02*
D03*
X73315D02*
D03*
Y302260D02*
D03*
D43*
Y311760D02*
D03*
D44*
X376655Y39377D02*
D03*
X363637D02*
D03*
X377349Y71120D02*
D03*
X364331D02*
D03*
X74051Y274802D02*
D03*
X87069D02*
D03*
D47*
X1035000Y280000D02*
D03*
X1021000Y275000D02*
D03*
Y285000D02*
D03*
D52*
X957580Y325570D02*
D03*
X967080Y350070D02*
D03*
X948080D02*
D03*
X957580Y423730D02*
D03*
X948080Y399230D02*
D03*
X967080D02*
D03*
X844550Y423730D02*
D03*
X835050Y399230D02*
D03*
X854050D02*
D03*
X843280Y325570D02*
D03*
X852780Y350070D02*
D03*
X833780D02*
D03*
D55*
X550746Y166348D02*
D03*
X558908Y174511D02*
D03*
D56*
X911298Y186392D02*
D03*
X886798Y195892D02*
D03*
Y176892D02*
D03*
D59*
X463489Y500380D02*
D03*
Y538480D02*
D03*
X511810D02*
D03*
D60*
X462910Y513080D02*
D03*
Y525780D02*
D03*
X512389D02*
D03*
X512390Y513080D02*
D03*
D61*
X511810Y500380D02*
D03*
D62*
X418000Y416000D02*
D03*
X384000D02*
D03*
X417000Y382000D02*
D03*
X383000D02*
D03*
D63*
X544500Y523750D02*
D03*
Y509250D02*
D03*
X568500Y523750D02*
D03*
Y509250D02*
D03*
D64*
X587500Y523500D02*
D03*
Y507500D02*
D03*
D65*
X524523Y394205D02*
D03*
X540786Y377942D02*
D03*
X528058Y365214D02*
D03*
X511795Y381478D02*
D03*
D66*
X550581Y397419D02*
D03*
X559419Y388581D02*
D03*
D67*
X505685Y400154D02*
D03*
X496846Y391315D02*
D03*
D68*
X485346Y478649D02*
D03*
X492946D02*
D03*
D69*
X556895Y350594D02*
D03*
X553359Y347059D02*
D03*
X549823Y343523D02*
D03*
X546288Y339988D02*
D03*
X542752Y336452D02*
D03*
X539217Y332917D02*
D03*
X535681Y329381D02*
D03*
X532146Y325846D02*
D03*
X528610Y322310D02*
D03*
X525075Y318775D02*
D03*
X521539Y315239D02*
D03*
X518004Y311704D02*
D03*
X514468Y308168D02*
D03*
X510933Y304632D02*
D03*
X507397Y301097D02*
D03*
X503862Y297561D02*
D03*
X583058Y218365D02*
D03*
X586593Y221901D02*
D03*
X590129Y225437D02*
D03*
X593664Y228972D02*
D03*
X597200Y232508D02*
D03*
X600735Y236043D02*
D03*
X604271Y239579D02*
D03*
X607806Y243114D02*
D03*
X611342Y246650D02*
D03*
X614877Y250185D02*
D03*
X618413Y253721D02*
D03*
X621948Y257256D02*
D03*
X625484Y260792D02*
D03*
X629019Y264328D02*
D03*
X632555Y267863D02*
D03*
X636091Y271399D02*
D03*
D70*
X503862D02*
D03*
X507397Y267863D02*
D03*
X510933Y264328D02*
D03*
X514468Y260792D02*
D03*
X518004Y257256D02*
D03*
X521539Y253721D02*
D03*
X525075Y250185D02*
D03*
X528610Y246650D02*
D03*
X532146Y243114D02*
D03*
X535681Y239579D02*
D03*
X539217Y236043D02*
D03*
X542752Y232508D02*
D03*
X546288Y228972D02*
D03*
X549823Y225437D02*
D03*
X553359Y221901D02*
D03*
X556894Y218365D02*
D03*
X636091Y297561D02*
D03*
X632555Y301097D02*
D03*
X629019Y304632D02*
D03*
X625484Y308168D02*
D03*
X621948Y311704D02*
D03*
X618413Y315239D02*
D03*
X614877Y318775D02*
D03*
X611342Y322310D02*
D03*
X607806Y325846D02*
D03*
X604271Y329381D02*
D03*
X600735Y332917D02*
D03*
X597200Y336452D02*
D03*
X593664Y339988D02*
D03*
X590129Y343523D02*
D03*
X586593Y347059D02*
D03*
X583058Y350594D02*
D03*
D71*
X459981Y218185D02*
D03*
X471295Y229499D02*
D03*
X599082Y394790D02*
D03*
X587768Y383476D02*
D03*
X464820Y295384D02*
D03*
X476134Y306698D02*
D03*
X575484Y165086D02*
D03*
X564170Y153772D02*
D03*
D72*
X692000Y275000D02*
D03*
X676000Y275000D02*
D03*
X131230Y73020D02*
D03*
X147231Y73020D02*
D03*
X500760Y53340D02*
D03*
X484760Y53340D02*
D03*
X500760Y33020D02*
D03*
X484760Y33020D02*
D03*
X502030Y93980D02*
D03*
X486030Y93980D02*
D03*
X951100Y367030D02*
D03*
X966600D02*
D03*
Y382270D02*
D03*
X951100D02*
D03*
X836470Y367030D02*
D03*
X851970D02*
D03*
X852300Y382270D02*
D03*
X836800D02*
D03*
D73*
X573950Y398203D02*
D03*
X592335Y416588D02*
D03*
X435563Y223811D02*
D03*
X453948Y242196D02*
D03*
D74*
X617227Y356087D02*
D03*
X626773Y365634D02*
D03*
X512117Y188267D02*
D03*
X521663Y197813D02*
D03*
D75*
X713500Y522000D02*
D03*
X732500D02*
D03*
X723000Y546000D02*
D03*
D76*
X197660Y459740D02*
D03*
X330660D02*
D03*
D77*
X675750Y89250D02*
D03*
X675750Y105250D02*
D03*
X816610Y337950D02*
D03*
Y322450D02*
D03*
X866028Y178642D02*
D03*
Y194142D02*
D03*
X932180Y412880D02*
D03*
Y397380D02*
D03*
Y327530D02*
D03*
Y343030D02*
D03*
D78*
X654000Y116500D02*
D03*
Y90500D02*
D03*
X135176Y53380D02*
D03*
Y27380D02*
D03*
D79*
X846690Y68580D02*
D03*
X860190D02*
D03*
X1012590D02*
D03*
X999090D02*
D03*
X961790D02*
D03*
X948290D02*
D03*
X910990D02*
D03*
X897490D02*
D03*
X809390D02*
D03*
X795890D02*
D03*
D80*
X463401Y320635D02*
D03*
X449613Y306847D02*
D03*
D81*
X396750Y509250D02*
D03*
Y466950D02*
D03*
X653000Y498850D02*
D03*
Y541150D02*
D03*
D82*
X616000Y502250D02*
D03*
Y529250D02*
D03*
D83*
X186612Y74018D02*
D03*
Y61518D02*
D03*
Y49018D02*
D03*
Y36518D02*
D03*
X208612D02*
D03*
Y49018D02*
D03*
Y61518D02*
D03*
Y74018D02*
D03*
D84*
X1072090Y271480D02*
D03*
Y297480D02*
D03*
Y277980D02*
D03*
Y284480D02*
D03*
Y290980D02*
D03*
D85*
X676780Y31750D02*
D03*
Y44450D02*
D03*
Y57150D02*
D03*
Y69850D02*
D03*
X628780Y31750D02*
D03*
Y44450D02*
D03*
Y57150D02*
D03*
Y69850D02*
D03*
D86*
X482600Y73660D02*
D03*
X502100D02*
D03*
D87*
X349000Y321000D02*
D03*
X295000D02*
D03*
D88*
X380000Y303500D02*
D03*
Y288500D02*
D03*
D89*
X817880Y406600D02*
D03*
Y419100D02*
D03*
X73660Y339190D02*
D03*
Y351690D02*
D03*
D90*
X993140Y43180D02*
D03*
X1018540D02*
D03*
X942340D02*
D03*
X967740D02*
D03*
X891540D02*
D03*
X916940D02*
D03*
X840740D02*
D03*
X866140D02*
D03*
X789940D02*
D03*
X815340D02*
D03*
D91*
X88052Y251942D02*
D03*
X74051D02*
D03*
D92*
X93980Y354360D02*
D03*
Y340360D02*
D03*
D93*
X487649Y519430D02*
D03*
D94*
X50000Y50000D02*
D03*
X1093000D02*
D03*
Y521500D02*
D03*
X50000D02*
D03*
D95*
X1025120Y200660D02*
D03*
X960120D02*
D03*
D96*
X63500Y403860D02*
D03*
Y454660D02*
D03*
X811530Y507746D02*
D03*
X862330D02*
D03*
X927100Y508000D02*
D03*
X977900D02*
D03*
D97*
X40640Y297688D02*
D03*
X27940D02*
D03*
X40640Y310388D02*
D03*
X27940D02*
D03*
Y284988D02*
D03*
X40640D02*
D03*
X27940Y272288D02*
D03*
X40640D02*
D03*
X27940Y259588D02*
D03*
D98*
X40640D02*
D03*
D99*
X1072090Y247230D02*
D03*
Y321730D02*
D03*
D100*
X1110090Y245730D02*
D03*
Y323230D02*
D03*
D101*
X1082590Y259480D02*
D03*
Y309480D02*
D03*
D102*
X73533Y102108D02*
D03*
Y172212D02*
D03*
D103*
X48641Y112141D02*
D03*
D104*
Y162179D02*
D03*
D105*
X415191Y107950D02*
D03*
X576940Y139429D02*
D03*
X452120Y116840D02*
D03*
Y96520D02*
D03*
X22860Y208280D02*
D03*
X412000Y297588D02*
D03*
X15535Y220422D02*
D03*
X32335Y198032D02*
D03*
X107263Y326487D02*
D03*
X56013Y275236D02*
D03*
X513000Y341304D02*
D03*
X1045250Y280833D02*
D03*
X475000Y249000D02*
D03*
X411000Y212750D02*
D03*
X491490Y124460D02*
D03*
X476378Y109220D02*
D03*
X690880Y551180D02*
D03*
X88900Y231140D02*
D03*
X631250Y122500D02*
D03*
X462750Y70500D02*
D03*
X591250Y544250D02*
D03*
X90250Y387750D02*
D03*
X399000Y356000D02*
D03*
X411500Y285000D02*
D03*
X418000Y177750D02*
D03*
X548640Y149860D02*
D03*
X723250Y256000D02*
D03*
X617750Y386750D02*
D03*
X633000Y402000D02*
D03*
X779000Y405750D02*
D03*
X868500Y378500D02*
D03*
X933500Y439250D02*
D03*
X986250Y412750D02*
D03*
X985000Y342250D02*
D03*
X871250Y160750D02*
D03*
X980750Y63750D02*
D03*
X929500Y64250D02*
D03*
X878750Y64500D02*
D03*
X828250Y63500D02*
D03*
X605750Y39250D02*
D03*
X648250Y133250D02*
D03*
X517000Y43000D02*
D03*
X447250Y27500D02*
D03*
X163250Y49250D02*
D03*
X170750Y18250D02*
D03*
X401250Y441000D02*
D03*
X428750Y520750D02*
D03*
X866000Y214000D02*
D03*
X679000Y336000D02*
D03*
X652000Y26000D02*
D03*
X570000Y369000D02*
D03*
X684000Y294000D02*
D03*
X548000Y308000D02*
D03*
X561009Y316897D02*
D03*
X581000Y318000D02*
D03*
X583000Y257000D02*
D03*
X598524Y55880D02*
D03*
X571000Y243000D02*
D03*
X604000Y370000D02*
D03*
X246493Y45607D02*
D03*
X245872Y73048D02*
D03*
X230632Y60348D02*
D03*
X933201Y362399D02*
D03*
X815750Y307000D02*
D03*
X1035500Y68000D02*
D03*
X39250Y361500D02*
D03*
X393700Y81280D02*
D03*
Y27940D02*
D03*
X464820Y43180D02*
D03*
X393700Y55880D02*
D03*
X356870Y92710D02*
D03*
D106*
X538480Y415290D02*
D03*
M02*
