G04*
G04 #@! TF.GenerationSoftware,Altium Limited,Altium Designer,22.9.1 (49)*
G04*
G04 Layer_Physical_Order=2*
G04 Layer_Color=36540*
%FSLAX44Y44*%
%MOMM*%
G71*
G04*
G04 #@! TF.SameCoordinates,A2259558-2793-4ACD-BA26-FD92625B8348*
G04*
G04*
G04 #@! TF.FilePolarity,Positive*
G04*
G01*
G75*
%ADD103C,1.5406*%
%ADD113C,5.8420*%
%ADD115C,2.5400*%
%ADD116C,1.0160*%
%ADD118O,2.0000X1.4500*%
%ADD119O,1.8000X1.1500*%
%ADD121C,0.6096*%
%ADD122C,1.2700*%
G36*
X1097732Y562719D02*
X1103169Y561638D01*
X1108419Y559856D01*
X1113391Y557404D01*
X1118000Y554324D01*
X1122168Y550668D01*
X1125824Y546500D01*
X1128904Y541891D01*
X1131356Y536919D01*
X1133138Y531669D01*
X1134219Y526232D01*
X1134500Y521951D01*
X1134546Y520700D01*
X1134546Y520700D01*
X1134546Y519452D01*
X1134546Y50800D01*
X1134546Y50800D01*
X1134546D01*
X1134500Y49549D01*
X1134219Y45268D01*
X1133138Y39831D01*
X1131356Y34581D01*
X1128904Y29609D01*
X1125824Y25000D01*
X1122168Y20832D01*
X1118000Y17176D01*
X1113391Y14096D01*
X1108419Y11644D01*
X1103169Y9862D01*
X1097732Y8781D01*
X1092383Y8430D01*
X1092200Y8454D01*
X52058D01*
X52048Y8454D01*
X50800Y8454D01*
X49549Y8500D01*
X45268Y8781D01*
X39831Y9862D01*
X34581Y11644D01*
X29609Y14096D01*
X25000Y17176D01*
X20832Y20832D01*
X17176Y25000D01*
X14096Y29609D01*
X11644Y34581D01*
X9862Y39831D01*
X8781Y45268D01*
X8430Y50617D01*
X8454Y50800D01*
Y519442D01*
X8454Y519452D01*
X8454Y520700D01*
X8500Y521951D01*
X8781Y526232D01*
X9862Y531669D01*
X11644Y536919D01*
X14096Y541891D01*
X17176Y546500D01*
X20832Y550668D01*
X25000Y554324D01*
X29609Y557404D01*
X34581Y559856D01*
X39831Y561638D01*
X45268Y562719D01*
X50617Y563070D01*
X50800Y563046D01*
X1092200D01*
X1092383Y563070D01*
X1097732Y562719D01*
D02*
G37*
%LPC*%
G36*
X1094270Y553248D02*
Y522770D01*
X1124748D01*
X1124456Y526482D01*
X1123289Y531342D01*
X1121377Y535959D01*
X1118766Y540220D01*
X1115520Y544020D01*
X1111720Y547266D01*
X1107459Y549877D01*
X1102842Y551789D01*
X1097982Y552956D01*
X1094270Y553248D01*
D02*
G37*
G36*
X1091730D02*
X1088018Y552956D01*
X1083158Y551789D01*
X1078541Y549877D01*
X1074280Y547266D01*
X1070480Y544020D01*
X1067234Y540220D01*
X1064623Y535959D01*
X1062711Y531342D01*
X1061544Y526482D01*
X1061252Y522770D01*
X1091730D01*
Y553248D01*
D02*
G37*
G36*
X51270D02*
Y522770D01*
X81748D01*
X81456Y526482D01*
X80289Y531342D01*
X78377Y535959D01*
X75766Y540220D01*
X72520Y544020D01*
X68720Y547266D01*
X64459Y549877D01*
X59842Y551789D01*
X54982Y552956D01*
X51270Y553248D01*
D02*
G37*
G36*
X48730D02*
X45018Y552956D01*
X40158Y551789D01*
X35541Y549877D01*
X31280Y547266D01*
X27480Y544020D01*
X24234Y540220D01*
X21623Y535959D01*
X19711Y531342D01*
X18544Y526482D01*
X18252Y522770D01*
X48730D01*
Y553248D01*
D02*
G37*
G36*
X977900Y522803D02*
X975012Y522519D01*
X972235Y521676D01*
X969676Y520308D01*
X967432Y518467D01*
X965592Y516224D01*
X964223Y513665D01*
X963381Y510888D01*
X963097Y508000D01*
X963381Y505112D01*
X964223Y502335D01*
X965592Y499776D01*
X967432Y497533D01*
X969676Y495691D01*
X972235Y494324D01*
X975012Y493481D01*
X977900Y493197D01*
X980788Y493481D01*
X983565Y494324D01*
X986124Y495691D01*
X988367Y497533D01*
X990209Y499776D01*
X991577Y502335D01*
X992419Y505112D01*
X992703Y508000D01*
X992419Y510888D01*
X991577Y513665D01*
X990209Y516224D01*
X988367Y518467D01*
X986124Y520308D01*
X983565Y521676D01*
X980788Y522519D01*
X977900Y522803D01*
D02*
G37*
G36*
X927100D02*
X924212Y522519D01*
X921435Y521676D01*
X918876Y520308D01*
X916633Y518467D01*
X914791Y516224D01*
X913423Y513665D01*
X912581Y510888D01*
X912297Y508000D01*
X912581Y505112D01*
X913423Y502335D01*
X914791Y499776D01*
X916633Y497533D01*
X918876Y495691D01*
X921435Y494324D01*
X924212Y493481D01*
X927100Y493197D01*
X929988Y493481D01*
X932765Y494324D01*
X935324Y495691D01*
X937568Y497533D01*
X939408Y499776D01*
X940777Y502335D01*
X941619Y505112D01*
X941903Y508000D01*
X941619Y510888D01*
X940777Y513665D01*
X939408Y516224D01*
X937568Y518467D01*
X935324Y520308D01*
X932765Y521676D01*
X929988Y522519D01*
X927100Y522803D01*
D02*
G37*
G36*
X862330Y522549D02*
X859442Y522265D01*
X856665Y521423D01*
X854106Y520055D01*
X851862Y518214D01*
X850022Y515970D01*
X848653Y513411D01*
X847811Y510634D01*
X847527Y507746D01*
X847811Y504858D01*
X848653Y502081D01*
X850022Y499522D01*
X851862Y497279D01*
X854106Y495438D01*
X856665Y494070D01*
X859442Y493227D01*
X862330Y492943D01*
X865218Y493227D01*
X867995Y494070D01*
X870554Y495438D01*
X872797Y497279D01*
X874639Y499522D01*
X876006Y502081D01*
X876849Y504858D01*
X877133Y507746D01*
X876849Y510634D01*
X876006Y513411D01*
X874639Y515970D01*
X872797Y518214D01*
X870554Y520055D01*
X867995Y521423D01*
X865218Y522265D01*
X862330Y522549D01*
D02*
G37*
G36*
X811530D02*
X808642Y522265D01*
X805865Y521423D01*
X803306Y520055D01*
X801062Y518214D01*
X799221Y515970D01*
X797853Y513411D01*
X797011Y510634D01*
X796727Y507746D01*
X797011Y504858D01*
X797853Y502081D01*
X799221Y499522D01*
X801062Y497279D01*
X803306Y495438D01*
X805865Y494070D01*
X808642Y493227D01*
X811530Y492943D01*
X814418Y493227D01*
X817195Y494070D01*
X819754Y495438D01*
X821998Y497279D01*
X823839Y499522D01*
X825207Y502081D01*
X826049Y504858D01*
X826333Y507746D01*
X826049Y510634D01*
X825207Y513411D01*
X823839Y515970D01*
X821998Y518214D01*
X819754Y520055D01*
X817195Y521423D01*
X814418Y522265D01*
X811530Y522549D01*
D02*
G37*
G36*
X1124748Y520230D02*
X1094270D01*
Y489752D01*
X1097982Y490044D01*
X1102842Y491211D01*
X1107459Y493123D01*
X1111720Y495734D01*
X1115520Y498980D01*
X1118766Y502780D01*
X1121377Y507041D01*
X1123289Y511658D01*
X1124456Y516518D01*
X1124748Y520230D01*
D02*
G37*
G36*
X1091730D02*
X1061252D01*
X1061544Y516518D01*
X1062711Y511658D01*
X1064623Y507041D01*
X1067234Y502780D01*
X1070480Y498980D01*
X1074280Y495734D01*
X1078541Y493123D01*
X1083158Y491211D01*
X1088018Y490044D01*
X1091730Y489752D01*
Y520230D01*
D02*
G37*
G36*
X81748D02*
X51270D01*
Y489752D01*
X54982Y490044D01*
X59842Y491211D01*
X64459Y493123D01*
X68720Y495734D01*
X72520Y498980D01*
X75766Y502780D01*
X78377Y507041D01*
X80289Y511658D01*
X81456Y516518D01*
X81748Y520230D01*
D02*
G37*
G36*
X48730D02*
X18252D01*
X18544Y516518D01*
X19711Y511658D01*
X21623Y507041D01*
X24234Y502780D01*
X27480Y498980D01*
X31280Y495734D01*
X35541Y493123D01*
X40158Y491211D01*
X45018Y490044D01*
X48730Y489752D01*
Y520230D01*
D02*
G37*
G36*
X63500Y469463D02*
X60612Y469179D01*
X57835Y468336D01*
X55276Y466968D01*
X53032Y465127D01*
X51192Y462884D01*
X49823Y460325D01*
X48981Y457548D01*
X48697Y454660D01*
X48981Y451772D01*
X49823Y448995D01*
X51192Y446436D01*
X53032Y444193D01*
X55276Y442351D01*
X57835Y440984D01*
X60612Y440141D01*
X63500Y439857D01*
X66388Y440141D01*
X69165Y440984D01*
X71724Y442351D01*
X73967Y444193D01*
X75809Y446436D01*
X77176Y448995D01*
X78019Y451772D01*
X78303Y454660D01*
X78019Y457548D01*
X77176Y460325D01*
X75809Y462884D01*
X73967Y465127D01*
X71724Y466968D01*
X69165Y468336D01*
X66388Y469179D01*
X63500Y469463D01*
D02*
G37*
G36*
X64770Y419049D02*
Y405130D01*
X78689D01*
X78520Y406848D01*
X77648Y409720D01*
X76233Y412368D01*
X74328Y414688D01*
X72008Y416593D01*
X69360Y418008D01*
X66488Y418880D01*
X64770Y419049D01*
D02*
G37*
G36*
X62230D02*
X60512Y418880D01*
X57640Y418008D01*
X54992Y416593D01*
X52671Y414688D01*
X50767Y412368D01*
X49352Y409720D01*
X48481Y406848D01*
X48311Y405130D01*
X62230D01*
Y419049D01*
D02*
G37*
G36*
X633000Y407179D02*
X631018Y406785D01*
X629338Y405662D01*
X628215Y403982D01*
X627821Y402000D01*
X628215Y400018D01*
X629338Y398338D01*
X631018Y397215D01*
X633000Y396820D01*
X634982Y397215D01*
X636662Y398338D01*
X637785Y400018D01*
X638180Y402000D01*
X637785Y403982D01*
X636662Y405662D01*
X634982Y406785D01*
X633000Y407179D01*
D02*
G37*
G36*
X587453Y421045D02*
X569493Y403085D01*
X578832Y393745D01*
X596793Y411706D01*
X587453Y421045D01*
D02*
G37*
G36*
X78689Y402590D02*
X64770D01*
Y388671D01*
X66488Y388840D01*
X69360Y389712D01*
X72008Y391127D01*
X74328Y393032D01*
X76233Y395352D01*
X77648Y398000D01*
X78520Y400872D01*
X78689Y402590D01*
D02*
G37*
G36*
X62230D02*
X48311D01*
X48481Y400872D01*
X49352Y398000D01*
X50767Y395352D01*
X52671Y393032D01*
X54992Y391127D01*
X57640Y389712D01*
X60512Y388840D01*
X62230Y388671D01*
Y402590D01*
D02*
G37*
G36*
X604000Y375179D02*
X602018Y374785D01*
X600337Y373662D01*
X599215Y371982D01*
X598820Y370000D01*
X599215Y368018D01*
X600337Y366338D01*
X602018Y365215D01*
X604000Y364821D01*
X605982Y365215D01*
X607663Y366338D01*
X608785Y368018D01*
X609179Y370000D01*
X608785Y371982D01*
X607663Y373662D01*
X605982Y374785D01*
X604000Y375179D01*
D02*
G37*
G36*
X570000Y374179D02*
X568018Y373785D01*
X566338Y372663D01*
X565215Y370982D01*
X564821Y369000D01*
X565215Y367018D01*
X566338Y365337D01*
X568018Y364215D01*
X570000Y363820D01*
X571982Y364215D01*
X573662Y365337D01*
X574785Y367018D01*
X575179Y369000D01*
X574785Y370982D01*
X573662Y372663D01*
X571982Y373785D01*
X570000Y374179D01*
D02*
G37*
G36*
X933201Y367579D02*
X931218Y367185D01*
X929538Y366062D01*
X928415Y364382D01*
X928021Y362399D01*
X928415Y360417D01*
X929538Y358737D01*
X931218Y357614D01*
X933201Y357220D01*
X935183Y357614D01*
X936863Y358737D01*
X937986Y360417D01*
X938380Y362399D01*
X937986Y364382D01*
X936863Y366062D01*
X935183Y367185D01*
X933201Y367579D01*
D02*
G37*
G36*
X39250Y366679D02*
X37268Y366285D01*
X35587Y365163D01*
X34465Y363482D01*
X34070Y361500D01*
X34465Y359518D01*
X35587Y357837D01*
X37268Y356715D01*
X39250Y356320D01*
X41232Y356715D01*
X42913Y357837D01*
X44035Y359518D01*
X44429Y361500D01*
X44035Y363482D01*
X42913Y365163D01*
X41232Y366285D01*
X39250Y366679D01*
D02*
G37*
G36*
X513000Y346484D02*
X511018Y346090D01*
X509338Y344967D01*
X508215Y343286D01*
X507821Y341304D01*
X508215Y339322D01*
X509338Y337642D01*
X511018Y336519D01*
X513000Y336125D01*
X514982Y336519D01*
X516662Y337642D01*
X517785Y339322D01*
X518180Y341304D01*
X517785Y343286D01*
X516662Y344967D01*
X514982Y346090D01*
X513000Y346484D01*
D02*
G37*
G36*
X679000Y341180D02*
X677018Y340785D01*
X675338Y339663D01*
X674215Y337982D01*
X673820Y336000D01*
X674215Y334018D01*
X675338Y332337D01*
X677018Y331215D01*
X679000Y330821D01*
X680982Y331215D01*
X682663Y332337D01*
X683785Y334018D01*
X684180Y336000D01*
X683785Y337982D01*
X682663Y339663D01*
X680982Y340785D01*
X679000Y341180D01*
D02*
G37*
G36*
X1113340Y331591D02*
X1111360D01*
Y324500D01*
X1121534D01*
X1121417Y325394D01*
X1120581Y327411D01*
X1119252Y329142D01*
X1117521Y330471D01*
X1115504Y331307D01*
X1113340Y331591D01*
D02*
G37*
G36*
X1108820D02*
X1106840D01*
X1104676Y331307D01*
X1102659Y330471D01*
X1100928Y329142D01*
X1099599Y327411D01*
X1098763Y325394D01*
X1098646Y324500D01*
X1108820D01*
Y331591D01*
D02*
G37*
G36*
X1074840Y331604D02*
X1073360D01*
Y323000D01*
X1084547D01*
X1084378Y324286D01*
X1083392Y326667D01*
X1081822Y328712D01*
X1079777Y330281D01*
X1077396Y331268D01*
X1074840Y331604D01*
D02*
G37*
G36*
X1070820D02*
X1069340D01*
X1066784Y331268D01*
X1064403Y330281D01*
X1062358Y328712D01*
X1060788Y326667D01*
X1059802Y324286D01*
X1059633Y323000D01*
X1070820D01*
Y331604D01*
D02*
G37*
G36*
X107263Y331666D02*
X105281Y331272D01*
X103601Y330149D01*
X102478Y328469D01*
X102084Y326487D01*
X102478Y324504D01*
X103601Y322824D01*
X105281Y321701D01*
X107263Y321307D01*
X109246Y321701D01*
X110926Y322824D01*
X112049Y324504D01*
X112443Y326487D01*
X112049Y328469D01*
X110926Y330149D01*
X109246Y331272D01*
X107263Y331666D01*
D02*
G37*
G36*
X39370Y317907D02*
X38651Y317812D01*
X36797Y317044D01*
X35205Y315823D01*
X34770Y315256D01*
X33169D01*
X33012Y315460D01*
X31527Y316600D01*
X29797Y317317D01*
X27940Y317561D01*
X26083Y317317D01*
X24353Y316600D01*
X22868Y315460D01*
X21728Y313975D01*
X21011Y312245D01*
X20767Y310388D01*
X21011Y308531D01*
X21728Y306801D01*
X22868Y305316D01*
X23490Y304838D01*
Y303238D01*
X22868Y302760D01*
X21728Y301275D01*
X21011Y299545D01*
X20767Y297688D01*
X21011Y295831D01*
X21728Y294101D01*
X22868Y292616D01*
X23490Y292138D01*
Y290538D01*
X22868Y290060D01*
X21728Y288575D01*
X21011Y286845D01*
X20767Y284988D01*
X21011Y283131D01*
X21728Y281401D01*
X22868Y279916D01*
X23490Y279438D01*
Y277838D01*
X22868Y277360D01*
X21728Y275875D01*
X21011Y274145D01*
X20767Y272288D01*
X21011Y270431D01*
X21728Y268701D01*
X22868Y267216D01*
X23490Y266738D01*
Y265138D01*
X22868Y264660D01*
X21728Y263175D01*
X21011Y261445D01*
X20767Y259588D01*
X21011Y257731D01*
X21728Y256001D01*
X22868Y254516D01*
X24353Y253376D01*
X26083Y252659D01*
X27940Y252415D01*
X29797Y252659D01*
X31527Y253376D01*
X32258Y253937D01*
X33528Y253311D01*
Y252476D01*
X47752D01*
Y266700D01*
X47558D01*
X46932Y267970D01*
X47296Y268445D01*
X48064Y270299D01*
X48159Y271018D01*
X40640D01*
Y273558D01*
X48159D01*
X48064Y274277D01*
X47296Y276131D01*
X46075Y277723D01*
X45709Y278003D01*
Y279273D01*
X46075Y279553D01*
X47296Y281145D01*
X48064Y282999D01*
X48159Y283718D01*
X40640D01*
Y286258D01*
X48159D01*
X48064Y286977D01*
X47296Y288831D01*
X46075Y290423D01*
X45508Y290858D01*
Y292459D01*
X45712Y292616D01*
X46852Y294101D01*
X47569Y295831D01*
X47813Y297688D01*
X47569Y299545D01*
X46852Y301275D01*
X45712Y302760D01*
X45508Y302917D01*
Y304518D01*
X46075Y304953D01*
X47296Y306545D01*
X48064Y308399D01*
X48159Y309118D01*
X40640D01*
Y310388D01*
X39370D01*
Y317907D01*
D02*
G37*
G36*
X1121534Y321960D02*
X1111360D01*
Y314869D01*
X1113340D01*
X1115504Y315153D01*
X1117521Y315989D01*
X1119252Y317318D01*
X1120581Y319049D01*
X1121417Y321066D01*
X1121534Y321960D01*
D02*
G37*
G36*
X1108820D02*
X1098646D01*
X1098763Y321066D01*
X1099599Y319049D01*
X1100928Y317318D01*
X1102659Y315989D01*
X1104676Y315153D01*
X1106840Y314869D01*
X1108820D01*
Y321960D01*
D02*
G37*
G36*
X581000Y323180D02*
X579018Y322785D01*
X577337Y321662D01*
X576215Y319982D01*
X575821Y318000D01*
X576215Y316018D01*
X577337Y314338D01*
X579018Y313215D01*
X581000Y312820D01*
X582982Y313215D01*
X584663Y314338D01*
X585785Y316018D01*
X586180Y318000D01*
X585785Y319982D01*
X584663Y321662D01*
X582982Y322785D01*
X581000Y323180D01*
D02*
G37*
G36*
X1070820Y320460D02*
X1059633D01*
X1059802Y319174D01*
X1060788Y316793D01*
X1062358Y314748D01*
X1064403Y313178D01*
X1066784Y312192D01*
X1069340Y311856D01*
X1070820D01*
Y320460D01*
D02*
G37*
G36*
X561009Y322077D02*
X559027Y321682D01*
X557347Y320560D01*
X556224Y318879D01*
X555830Y316897D01*
X556224Y314915D01*
X557347Y313235D01*
X559027Y312112D01*
X561009Y311718D01*
X562992Y312112D01*
X564672Y313235D01*
X565795Y314915D01*
X566189Y316897D01*
X565795Y318879D01*
X564672Y320560D01*
X562992Y321682D01*
X561009Y322077D01*
D02*
G37*
G36*
X41910Y317907D02*
Y311658D01*
X48159D01*
X48064Y312377D01*
X47296Y314231D01*
X46075Y315823D01*
X44483Y317044D01*
X42629Y317812D01*
X41910Y317907D01*
D02*
G37*
G36*
X459392Y322708D02*
X448078Y311394D01*
X454159Y305312D01*
X465467Y316620D01*
X460638Y321464D01*
X459392Y322708D01*
D02*
G37*
G36*
X1084547Y320460D02*
X1073360D01*
Y311856D01*
X1074840D01*
X1075638Y311961D01*
X1076706Y310820D01*
X1076440Y309480D01*
X1076908Y307126D01*
X1078241Y305131D01*
X1080236Y303798D01*
X1082590Y303330D01*
X1084944Y303798D01*
X1086939Y305131D01*
X1088272Y307126D01*
X1088740Y309480D01*
X1088272Y311834D01*
X1086939Y313829D01*
X1084944Y315162D01*
X1083900Y315369D01*
X1083373Y316769D01*
X1083392Y316793D01*
X1084378Y319174D01*
X1084547Y320460D01*
D02*
G37*
G36*
X548000Y313179D02*
X546018Y312785D01*
X544338Y311663D01*
X543215Y309982D01*
X542821Y308000D01*
X543215Y306018D01*
X544338Y304338D01*
X546018Y303215D01*
X548000Y302820D01*
X549982Y303215D01*
X551662Y304338D01*
X552785Y306018D01*
X553180Y308000D01*
X552785Y309982D01*
X551662Y311663D01*
X549982Y312785D01*
X548000Y313179D01*
D02*
G37*
G36*
X815750Y312180D02*
X813768Y311785D01*
X812087Y310662D01*
X810965Y308982D01*
X810571Y307000D01*
X810965Y305018D01*
X812087Y303337D01*
X813768Y302215D01*
X815750Y301821D01*
X817732Y302215D01*
X819413Y303337D01*
X820535Y305018D01*
X820929Y307000D01*
X820535Y308982D01*
X819413Y310662D01*
X817732Y311785D01*
X815750Y312180D01*
D02*
G37*
G36*
X412000Y302768D02*
X410018Y302374D01*
X408338Y301251D01*
X407215Y299570D01*
X406820Y297588D01*
X407215Y295606D01*
X408338Y293926D01*
X410018Y292803D01*
X412000Y292409D01*
X413982Y292803D01*
X415662Y293926D01*
X416785Y295606D01*
X417179Y297588D01*
X416785Y299570D01*
X415662Y301251D01*
X413982Y302374D01*
X412000Y302768D01*
D02*
G37*
G36*
X684000Y299179D02*
X682018Y298785D01*
X680338Y297663D01*
X679215Y295982D01*
X678820Y294000D01*
X679215Y292018D01*
X680338Y290338D01*
X682018Y289215D01*
X684000Y288820D01*
X685982Y289215D01*
X687663Y290338D01*
X688785Y292018D01*
X689180Y294000D01*
X688785Y295982D01*
X687663Y297663D01*
X685982Y298785D01*
X684000Y299179D01*
D02*
G37*
G36*
X1045250Y286012D02*
X1043268Y285618D01*
X1041588Y284495D01*
X1040465Y282815D01*
X1040070Y280833D01*
X1040465Y278851D01*
X1041588Y277170D01*
X1043268Y276048D01*
X1045250Y275653D01*
X1047232Y276048D01*
X1048913Y277170D01*
X1050035Y278851D01*
X1050430Y280833D01*
X1050035Y282815D01*
X1048913Y284495D01*
X1047232Y285618D01*
X1045250Y286012D01*
D02*
G37*
G36*
X1082590Y265630D02*
X1080236Y265162D01*
X1078241Y263829D01*
X1076908Y261834D01*
X1076440Y259480D01*
X1076706Y258140D01*
X1075638Y256999D01*
X1074840Y257104D01*
X1073360D01*
Y248500D01*
X1084547D01*
X1084378Y249786D01*
X1083392Y252167D01*
X1083373Y252191D01*
X1083900Y253591D01*
X1084944Y253798D01*
X1086939Y255131D01*
X1088272Y257126D01*
X1088740Y259480D01*
X1088272Y261834D01*
X1086939Y263829D01*
X1084944Y265162D01*
X1082590Y265630D01*
D02*
G37*
G36*
X583000Y262180D02*
X581018Y261785D01*
X579338Y260662D01*
X578215Y258982D01*
X577821Y257000D01*
X578215Y255018D01*
X579338Y253337D01*
X581018Y252215D01*
X583000Y251821D01*
X584982Y252215D01*
X586662Y253337D01*
X587785Y255018D01*
X588180Y257000D01*
X587785Y258982D01*
X586662Y260662D01*
X584982Y261785D01*
X583000Y262180D01*
D02*
G37*
G36*
X1070820Y257104D02*
X1069340D01*
X1066784Y256768D01*
X1064403Y255782D01*
X1062358Y254212D01*
X1060788Y252167D01*
X1059802Y249786D01*
X1059633Y248500D01*
X1070820D01*
Y257104D01*
D02*
G37*
G36*
X1113340Y254091D02*
X1111360D01*
Y247000D01*
X1121534D01*
X1121417Y247894D01*
X1120581Y249911D01*
X1119252Y251642D01*
X1117521Y252971D01*
X1115504Y253807D01*
X1113340Y254091D01*
D02*
G37*
G36*
X1108820D02*
X1106840D01*
X1104676Y253807D01*
X1102659Y252971D01*
X1100928Y251642D01*
X1099599Y249911D01*
X1098763Y247894D01*
X1098646Y247000D01*
X1108820D01*
Y254091D01*
D02*
G37*
G36*
X475000Y254179D02*
X473018Y253785D01*
X471338Y252663D01*
X470215Y250982D01*
X469821Y249000D01*
X470215Y247018D01*
X471338Y245338D01*
X473018Y244215D01*
X475000Y243820D01*
X476982Y244215D01*
X478662Y245338D01*
X479785Y247018D01*
X480179Y249000D01*
X479785Y250982D01*
X478662Y252663D01*
X476982Y253785D01*
X475000Y254179D01*
D02*
G37*
G36*
X571000Y248179D02*
X569018Y247785D01*
X567337Y246663D01*
X566215Y244982D01*
X565821Y243000D01*
X566215Y241018D01*
X567337Y239338D01*
X569018Y238215D01*
X571000Y237820D01*
X572982Y238215D01*
X574663Y239338D01*
X575785Y241018D01*
X576180Y243000D01*
X575785Y244982D01*
X574663Y246663D01*
X572982Y247785D01*
X571000Y248179D01*
D02*
G37*
G36*
X1121534Y244460D02*
X1111360D01*
Y237369D01*
X1113340D01*
X1115504Y237653D01*
X1117521Y238489D01*
X1119252Y239818D01*
X1120581Y241549D01*
X1121417Y243566D01*
X1121534Y244460D01*
D02*
G37*
G36*
X1108820D02*
X1098646D01*
X1098763Y243566D01*
X1099599Y241549D01*
X1100928Y239818D01*
X1102659Y238489D01*
X1104676Y237653D01*
X1106840Y237369D01*
X1108820D01*
Y244460D01*
D02*
G37*
G36*
X1084547Y245960D02*
X1073360D01*
Y237355D01*
X1074840D01*
X1077396Y237692D01*
X1079777Y238678D01*
X1081822Y240248D01*
X1083392Y242293D01*
X1084378Y244674D01*
X1084547Y245960D01*
D02*
G37*
G36*
X1070820D02*
X1059633D01*
X1059802Y244674D01*
X1060788Y242293D01*
X1062358Y240248D01*
X1064403Y238678D01*
X1066784Y237692D01*
X1069340Y237355D01*
X1070820D01*
Y245960D01*
D02*
G37*
G36*
X449066Y246654D02*
X431105Y228693D01*
X440445Y219354D01*
X458405Y237314D01*
X449066Y246654D01*
D02*
G37*
G36*
X15535Y225602D02*
X13553Y225207D01*
X11872Y224085D01*
X10749Y222404D01*
X10355Y220422D01*
X10749Y218440D01*
X11872Y216760D01*
X13553Y215637D01*
X15535Y215243D01*
X17517Y215637D01*
X19197Y216760D01*
X20320Y218440D01*
X20714Y220422D01*
X20320Y222404D01*
X19197Y224085D01*
X17517Y225207D01*
X15535Y225602D01*
D02*
G37*
G36*
X866000Y219179D02*
X864018Y218785D01*
X862337Y217663D01*
X861215Y215982D01*
X860820Y214000D01*
X861215Y212018D01*
X862337Y210338D01*
X864018Y209215D01*
X866000Y208820D01*
X867982Y209215D01*
X869662Y210338D01*
X870785Y212018D01*
X871180Y214000D01*
X870785Y215982D01*
X869662Y217663D01*
X867982Y218785D01*
X866000Y219179D01*
D02*
G37*
G36*
X411000Y217929D02*
X409018Y217535D01*
X407337Y216413D01*
X406215Y214732D01*
X405821Y212750D01*
X406215Y210768D01*
X407337Y209088D01*
X409018Y207965D01*
X411000Y207570D01*
X412982Y207965D01*
X414663Y209088D01*
X415785Y210768D01*
X416180Y212750D01*
X415785Y214732D01*
X414663Y216413D01*
X412982Y217535D01*
X411000Y217929D01*
D02*
G37*
G36*
X22860Y213459D02*
X20878Y213065D01*
X19197Y211943D01*
X18075Y210262D01*
X17680Y208280D01*
X18075Y206298D01*
X19197Y204618D01*
X20878Y203495D01*
X22860Y203100D01*
X24842Y203495D01*
X26523Y204618D01*
X27645Y206298D01*
X28040Y208280D01*
X27645Y210262D01*
X26523Y211943D01*
X24842Y213065D01*
X22860Y213459D01*
D02*
G37*
G36*
X323003Y213810D02*
X142520D01*
Y196250D01*
X323003D01*
Y213810D01*
D02*
G37*
G36*
X32335Y203212D02*
X30353Y202817D01*
X28672Y201695D01*
X27550Y200014D01*
X27155Y198032D01*
X27550Y196050D01*
X28672Y194370D01*
X30353Y193247D01*
X32335Y192853D01*
X34317Y193247D01*
X35997Y194370D01*
X37120Y196050D01*
X37514Y198032D01*
X37120Y200014D01*
X35997Y201695D01*
X34317Y202817D01*
X32335Y203212D01*
D02*
G37*
G36*
X1025120Y209810D02*
X1022752Y209499D01*
X1020545Y208584D01*
X1018650Y207130D01*
X1017196Y205235D01*
X1016282Y203028D01*
X1015970Y200660D01*
X1016282Y198292D01*
X1017196Y196085D01*
X1018650Y194190D01*
X1020545Y192736D01*
X1022752Y191821D01*
X1025120Y191510D01*
X1027488Y191821D01*
X1029695Y192736D01*
X1031590Y194190D01*
X1033044Y196085D01*
X1033959Y198292D01*
X1034270Y200660D01*
X1033959Y203028D01*
X1033044Y205235D01*
X1031590Y207130D01*
X1029695Y208584D01*
X1027488Y209499D01*
X1025120Y209810D01*
D02*
G37*
G36*
X960120D02*
X957752Y209499D01*
X955545Y208584D01*
X953650Y207130D01*
X952196Y205235D01*
X951282Y203028D01*
X950970Y200660D01*
X951282Y198292D01*
X952196Y196085D01*
X953650Y194190D01*
X955545Y192736D01*
X957752Y191821D01*
X960120Y191510D01*
X962488Y191821D01*
X964695Y192736D01*
X966590Y194190D01*
X968044Y196085D01*
X968959Y198292D01*
X969270Y200660D01*
X968959Y203028D01*
X968044Y205235D01*
X966590Y207130D01*
X964695Y208584D01*
X962488Y209499D01*
X960120Y209810D01*
D02*
G37*
G36*
X73533Y184325D02*
X70398Y183912D01*
X67477Y182702D01*
X64968Y180777D01*
X63043Y178268D01*
X61833Y175347D01*
X61420Y172212D01*
X61833Y169077D01*
X63043Y166156D01*
X64968Y163647D01*
X67477Y161722D01*
X70398Y160512D01*
X73533Y160099D01*
X76668Y160512D01*
X79589Y161722D01*
X82098Y163647D01*
X84023Y166156D01*
X85233Y169077D01*
X85646Y172212D01*
X85233Y175347D01*
X84023Y178268D01*
X82098Y180777D01*
X79589Y182702D01*
X76668Y183912D01*
X73533Y184325D01*
D02*
G37*
G36*
X58376Y171914D02*
X38906D01*
Y152444D01*
X58376D01*
Y171914D01*
D02*
G37*
G36*
X576940Y144609D02*
X574958Y144214D01*
X573278Y143092D01*
X572155Y141411D01*
X571761Y139429D01*
X572155Y137447D01*
X573278Y135767D01*
X574958Y134644D01*
X576940Y134250D01*
X578922Y134644D01*
X580603Y135767D01*
X581725Y137447D01*
X582120Y139429D01*
X581725Y141411D01*
X580603Y143092D01*
X578922Y144214D01*
X576940Y144609D01*
D02*
G37*
G36*
X491490Y129640D02*
X489508Y129245D01*
X487827Y128123D01*
X486705Y126442D01*
X486311Y124460D01*
X486705Y122478D01*
X487827Y120798D01*
X489508Y119675D01*
X491490Y119281D01*
X493472Y119675D01*
X495153Y120798D01*
X496275Y122478D01*
X496670Y124460D01*
X496275Y126442D01*
X495153Y128123D01*
X493472Y129245D01*
X491490Y129640D01*
D02*
G37*
G36*
X631250Y127680D02*
X629268Y127285D01*
X627588Y126163D01*
X626465Y124482D01*
X626071Y122500D01*
X626465Y120518D01*
X627588Y118837D01*
X629268Y117715D01*
X631250Y117320D01*
X633232Y117715D01*
X634912Y118837D01*
X636035Y120518D01*
X636429Y122500D01*
X636035Y124482D01*
X634912Y126163D01*
X633232Y127285D01*
X631250Y127680D01*
D02*
G37*
G36*
X49911Y122305D02*
Y113411D01*
X58805D01*
X58620Y114815D01*
X57588Y117307D01*
X55946Y119446D01*
X53807Y121088D01*
X51315Y122120D01*
X49911Y122305D01*
D02*
G37*
G36*
X47371D02*
X45967Y122120D01*
X43475Y121088D01*
X41336Y119446D01*
X39694Y117307D01*
X38662Y114815D01*
X38477Y113411D01*
X47371D01*
Y122305D01*
D02*
G37*
G36*
X452120Y122020D02*
X450138Y121625D01*
X448457Y120503D01*
X447335Y118822D01*
X446940Y116840D01*
X447335Y114858D01*
X448457Y113177D01*
X450138Y112055D01*
X452120Y111660D01*
X454102Y112055D01*
X455783Y113177D01*
X456905Y114858D01*
X457299Y116840D01*
X456905Y118822D01*
X455783Y120503D01*
X454102Y121625D01*
X452120Y122020D01*
D02*
G37*
G36*
X476378Y114399D02*
X474395Y114005D01*
X472715Y112882D01*
X471592Y111202D01*
X471198Y109220D01*
X471592Y107238D01*
X472715Y105557D01*
X474395Y104435D01*
X476378Y104040D01*
X478360Y104435D01*
X480040Y105557D01*
X481163Y107238D01*
X481557Y109220D01*
X481163Y111202D01*
X480040Y112882D01*
X478360Y114005D01*
X476378Y114399D01*
D02*
G37*
G36*
X415191Y113130D02*
X413208Y112735D01*
X411528Y111613D01*
X410405Y109932D01*
X410011Y107950D01*
X410405Y105968D01*
X411528Y104288D01*
X413208Y103165D01*
X415191Y102771D01*
X417173Y103165D01*
X418853Y104288D01*
X419976Y105968D01*
X420370Y107950D01*
X419976Y109932D01*
X418853Y111613D01*
X417173Y112735D01*
X415191Y113130D01*
D02*
G37*
G36*
X58805Y110871D02*
X49911D01*
Y101977D01*
X51315Y102162D01*
X53807Y103194D01*
X55946Y104836D01*
X57588Y106975D01*
X58620Y109467D01*
X58805Y110871D01*
D02*
G37*
G36*
X47371D02*
X38477D01*
X38662Y109467D01*
X39694Y106975D01*
X41336Y104836D01*
X43475Y103194D01*
X45967Y102162D01*
X47371Y101977D01*
Y110871D01*
D02*
G37*
G36*
X452120Y101699D02*
X450138Y101305D01*
X448457Y100183D01*
X447335Y98502D01*
X446940Y96520D01*
X447335Y94538D01*
X448457Y92858D01*
X450138Y91735D01*
X452120Y91341D01*
X454102Y91735D01*
X455783Y92858D01*
X456905Y94538D01*
X457299Y96520D01*
X456905Y98502D01*
X455783Y100183D01*
X454102Y101305D01*
X452120Y101699D01*
D02*
G37*
G36*
X660604Y116200D02*
X647396D01*
Y90800D01*
X660604D01*
Y116200D01*
D02*
G37*
G36*
X73533Y114221D02*
X70398Y113808D01*
X67477Y112598D01*
X64968Y110673D01*
X63043Y108164D01*
X61833Y105243D01*
X61420Y102108D01*
X61833Y98973D01*
X63043Y96052D01*
X64968Y93543D01*
X67477Y91618D01*
X70398Y90408D01*
X73533Y89995D01*
X76668Y90408D01*
X79589Y91618D01*
X82098Y93543D01*
X84023Y96052D01*
X85233Y98973D01*
X85646Y102108D01*
X85233Y105243D01*
X84023Y108164D01*
X82098Y110673D01*
X79589Y112598D01*
X76668Y113808D01*
X73533Y114221D01*
D02*
G37*
G36*
X356870Y97889D02*
X354888Y97495D01*
X353208Y96372D01*
X352085Y94692D01*
X351690Y92710D01*
X352085Y90728D01*
X353208Y89047D01*
X354888Y87925D01*
X356870Y87530D01*
X358852Y87925D01*
X360532Y89047D01*
X361655Y90728D01*
X362049Y92710D01*
X361655Y94692D01*
X360532Y96372D01*
X358852Y97495D01*
X356870Y97889D01*
D02*
G37*
G36*
X393700Y86460D02*
X391718Y86065D01*
X390037Y84943D01*
X388915Y83262D01*
X388521Y81280D01*
X388915Y79298D01*
X390037Y77618D01*
X391718Y76495D01*
X393700Y76101D01*
X395682Y76495D01*
X397363Y77618D01*
X398485Y79298D01*
X398880Y81280D01*
X398485Y83262D01*
X397363Y84943D01*
X395682Y86065D01*
X393700Y86460D01*
D02*
G37*
G36*
X499970Y77960D02*
X483979D01*
X483968Y71120D01*
X483969Y69360D01*
X499970D01*
Y77960D01*
D02*
G37*
G36*
X245872Y78228D02*
X243890Y77833D01*
X242209Y76711D01*
X241087Y75030D01*
X240693Y73048D01*
X241087Y71066D01*
X242209Y69385D01*
X243890Y68263D01*
X245872Y67868D01*
X247854Y68263D01*
X249534Y69385D01*
X250657Y71066D01*
X251052Y73048D01*
X250657Y75030D01*
X249534Y76711D01*
X247854Y77833D01*
X245872Y78228D01*
D02*
G37*
G36*
X1035500Y73179D02*
X1033518Y72785D01*
X1031837Y71663D01*
X1030715Y69982D01*
X1030321Y68000D01*
X1030715Y66018D01*
X1031837Y64338D01*
X1033518Y63215D01*
X1035500Y62821D01*
X1037482Y63215D01*
X1039163Y64338D01*
X1040285Y66018D01*
X1040679Y68000D01*
X1040285Y69982D01*
X1039163Y71663D01*
X1037482Y72785D01*
X1035500Y73179D01*
D02*
G37*
G36*
X230632Y65528D02*
X228650Y65133D01*
X226970Y64011D01*
X225847Y62330D01*
X225452Y60348D01*
X225847Y58366D01*
X226970Y56686D01*
X228650Y55563D01*
X230632Y55168D01*
X232614Y55563D01*
X234294Y56686D01*
X235417Y58366D01*
X235812Y60348D01*
X235417Y62330D01*
X234294Y64011D01*
X232614Y65133D01*
X230632Y65528D01*
D02*
G37*
G36*
X1094270Y81748D02*
Y51270D01*
X1124748D01*
X1124456Y54982D01*
X1123289Y59842D01*
X1121377Y64459D01*
X1118766Y68720D01*
X1115520Y72520D01*
X1111720Y75766D01*
X1107459Y78377D01*
X1102842Y80289D01*
X1097982Y81456D01*
X1094270Y81748D01*
D02*
G37*
G36*
X1091730D02*
X1088018Y81456D01*
X1083158Y80289D01*
X1078541Y78377D01*
X1074280Y75766D01*
X1070480Y72520D01*
X1067234Y68720D01*
X1064623Y64459D01*
X1062711Y59842D01*
X1061544Y54982D01*
X1061252Y51270D01*
X1091730D01*
Y81748D01*
D02*
G37*
G36*
X51270D02*
Y51270D01*
X81748D01*
X81456Y54982D01*
X80289Y59842D01*
X78377Y64459D01*
X75766Y68720D01*
X72520Y72520D01*
X68720Y75766D01*
X64459Y78377D01*
X59842Y80289D01*
X54982Y81456D01*
X51270Y81748D01*
D02*
G37*
G36*
X48730D02*
X45018Y81456D01*
X40158Y80289D01*
X35541Y78377D01*
X31280Y75766D01*
X27480Y72520D01*
X24234Y68720D01*
X21623Y64459D01*
X19711Y59842D01*
X18544Y54982D01*
X18252Y51270D01*
X48730D01*
Y81748D01*
D02*
G37*
G36*
X598524Y61059D02*
X596542Y60665D01*
X594861Y59542D01*
X593739Y57862D01*
X593344Y55880D01*
X593739Y53898D01*
X594861Y52217D01*
X596542Y51095D01*
X598524Y50700D01*
X600506Y51095D01*
X602186Y52217D01*
X603309Y53898D01*
X603703Y55880D01*
X603309Y57862D01*
X602186Y59542D01*
X600506Y60665D01*
X598524Y61059D01*
D02*
G37*
G36*
X393700D02*
X391718Y60665D01*
X390037Y59542D01*
X388915Y57862D01*
X388521Y55880D01*
X388915Y53898D01*
X390037Y52217D01*
X391718Y51095D01*
X393700Y50700D01*
X395682Y51095D01*
X397363Y52217D01*
X398485Y53898D01*
X398880Y55880D01*
X398485Y57862D01*
X397363Y59542D01*
X395682Y60665D01*
X393700Y61059D01*
D02*
G37*
G36*
X246493Y50787D02*
X244510Y50393D01*
X242830Y49270D01*
X241707Y47590D01*
X241313Y45607D01*
X241707Y43625D01*
X242830Y41945D01*
X244510Y40822D01*
X246493Y40428D01*
X248475Y40822D01*
X250155Y41945D01*
X251278Y43625D01*
X251672Y45607D01*
X251278Y47590D01*
X250155Y49270D01*
X248475Y50393D01*
X246493Y50787D01*
D02*
G37*
G36*
X464820Y48359D02*
X462838Y47965D01*
X461157Y46842D01*
X460035Y45162D01*
X459641Y43180D01*
X460035Y41198D01*
X461157Y39518D01*
X462838Y38395D01*
X464820Y38001D01*
X466802Y38395D01*
X468483Y39518D01*
X469605Y41198D01*
X470000Y43180D01*
X469605Y45162D01*
X468483Y46842D01*
X466802Y47965D01*
X464820Y48359D01*
D02*
G37*
G36*
X141780Y53080D02*
X128572D01*
Y27680D01*
X141780D01*
Y53080D01*
D02*
G37*
G36*
X393700Y33119D02*
X391718Y32725D01*
X390037Y31602D01*
X388915Y29922D01*
X388521Y27940D01*
X388915Y25958D01*
X390037Y24278D01*
X391718Y23155D01*
X393700Y22761D01*
X395682Y23155D01*
X397363Y24278D01*
X398485Y25958D01*
X398880Y27940D01*
X398485Y29922D01*
X397363Y31602D01*
X395682Y32725D01*
X393700Y33119D01*
D02*
G37*
G36*
X652000Y31179D02*
X650018Y30785D01*
X648337Y29662D01*
X647215Y27982D01*
X646821Y26000D01*
X647215Y24018D01*
X648337Y22338D01*
X650018Y21215D01*
X652000Y20821D01*
X653982Y21215D01*
X655663Y22338D01*
X656785Y24018D01*
X657179Y26000D01*
X656785Y27982D01*
X655663Y29662D01*
X653982Y30785D01*
X652000Y31179D01*
D02*
G37*
G36*
X1124748Y48730D02*
X1094270D01*
Y18252D01*
X1097982Y18544D01*
X1102842Y19711D01*
X1107459Y21623D01*
X1111720Y24234D01*
X1115520Y27480D01*
X1118766Y31280D01*
X1121377Y35541D01*
X1123289Y40158D01*
X1124456Y45018D01*
X1124748Y48730D01*
D02*
G37*
G36*
X1091730D02*
X1061252D01*
X1061544Y45018D01*
X1062711Y40158D01*
X1064623Y35541D01*
X1067234Y31280D01*
X1070480Y27480D01*
X1074280Y24234D01*
X1078541Y21623D01*
X1083158Y19711D01*
X1088018Y18544D01*
X1091730Y18252D01*
Y48730D01*
D02*
G37*
G36*
X81748D02*
X51270D01*
Y18252D01*
X54982Y18544D01*
X59842Y19711D01*
X64459Y21623D01*
X68720Y24234D01*
X72520Y27480D01*
X75766Y31280D01*
X78377Y35541D01*
X80289Y40158D01*
X81456Y45018D01*
X81748Y48730D01*
D02*
G37*
G36*
X48730D02*
X18252D01*
X18544Y45018D01*
X19711Y40158D01*
X21623Y35541D01*
X24234Y31280D01*
X27480Y27480D01*
X31280Y24234D01*
X35541Y21623D01*
X40158Y19711D01*
X45018Y18544D01*
X48730Y18252D01*
Y48730D01*
D02*
G37*
G36*
X170750Y23430D02*
X168768Y23035D01*
X167087Y21913D01*
X165965Y20232D01*
X165571Y18250D01*
X165965Y16268D01*
X167087Y14588D01*
X168768Y13465D01*
X170750Y13070D01*
X172732Y13465D01*
X174412Y14588D01*
X175535Y16268D01*
X175930Y18250D01*
X175535Y20232D01*
X174412Y21913D01*
X172732Y23035D01*
X170750Y23430D01*
D02*
G37*
%LPD*%
G36*
X310427Y211759D02*
X310690Y211740D01*
X311009Y211702D01*
X311367Y211646D01*
X311742Y211571D01*
X312137Y211458D01*
X311799Y209710D01*
X311780D01*
X311705Y209729D01*
X311573Y209766D01*
X311423Y209785D01*
X311254Y209823D01*
X311066Y209842D01*
X310652Y209860D01*
X310558D01*
X310464Y209842D01*
X310352Y209823D01*
X310088Y209748D01*
X309976Y209691D01*
X309863Y209597D01*
Y209578D01*
X309825Y209541D01*
X309788Y209484D01*
X309750Y209372D01*
X309712Y209240D01*
X309675Y209071D01*
X309656Y208864D01*
X309637Y208620D01*
Y207962D01*
X311498D01*
Y206007D01*
X309637D01*
Y198526D01*
X307137D01*
Y206007D01*
X305746D01*
Y207962D01*
X307137D01*
Y208657D01*
Y208676D01*
Y208714D01*
Y208770D01*
Y208864D01*
X307156Y209071D01*
X307175Y209334D01*
X307194Y209616D01*
X307250Y209917D01*
X307306Y210199D01*
X307382Y210443D01*
X307400Y210462D01*
X307438Y210537D01*
X307495Y210650D01*
X307589Y210781D01*
X307720Y210932D01*
X307870Y211101D01*
X308077Y211251D01*
X308303Y211402D01*
X308340Y211420D01*
X308434Y211458D01*
X308585Y211514D01*
X308773Y211590D01*
X309036Y211665D01*
X309318Y211721D01*
X309656Y211759D01*
X310032Y211778D01*
X310220D01*
X310427Y211759D01*
D02*
G37*
G36*
X304374D02*
X304638Y211740D01*
X304957Y211702D01*
X305314Y211646D01*
X305690Y211571D01*
X306085Y211458D01*
X305746Y209710D01*
X305728D01*
X305653Y209729D01*
X305521Y209766D01*
X305371Y209785D01*
X305201Y209823D01*
X305013Y209842D01*
X304600Y209860D01*
X304506D01*
X304412Y209842D01*
X304299Y209823D01*
X304036Y209748D01*
X303923Y209691D01*
X303811Y209597D01*
Y209578D01*
X303773Y209541D01*
X303735Y209484D01*
X303698Y209372D01*
X303660Y209240D01*
X303622Y209071D01*
X303604Y208864D01*
X303585Y208620D01*
Y207962D01*
X305446D01*
Y206007D01*
X303585D01*
Y198526D01*
X301085D01*
Y206007D01*
X299694D01*
Y207962D01*
X301085D01*
Y208657D01*
Y208676D01*
Y208714D01*
Y208770D01*
Y208864D01*
X301104Y209071D01*
X301123Y209334D01*
X301141Y209616D01*
X301198Y209917D01*
X301254Y210199D01*
X301329Y210443D01*
X301348Y210462D01*
X301386Y210537D01*
X301442Y210650D01*
X301536Y210781D01*
X301668Y210932D01*
X301818Y211101D01*
X302025Y211251D01*
X302250Y211402D01*
X302288Y211420D01*
X302382Y211458D01*
X302532Y211514D01*
X302720Y211590D01*
X302983Y211665D01*
X303265Y211721D01*
X303604Y211759D01*
X303980Y211778D01*
X304168D01*
X304374Y211759D01*
D02*
G37*
G36*
X180509Y209221D02*
X178009D01*
Y211533D01*
X180509D01*
Y209221D01*
D02*
G37*
G36*
X243024Y209315D02*
X242611Y206909D01*
X240769D01*
X240318Y209315D01*
Y211533D01*
X243024D01*
Y209315D01*
D02*
G37*
G36*
X239021D02*
X238607Y206909D01*
X236765D01*
X236314Y209315D01*
Y211533D01*
X239021D01*
Y209315D01*
D02*
G37*
G36*
X165810Y209315D02*
X165397Y206909D01*
X163555D01*
X163104Y209315D01*
Y211533D01*
X165810D01*
Y209315D01*
D02*
G37*
G36*
X151262D02*
X150849Y206909D01*
X149007D01*
X148555Y209315D01*
Y211533D01*
X151262D01*
Y209315D01*
D02*
G37*
G36*
X147259D02*
X146845Y206909D01*
X145003D01*
X144552Y209315D01*
Y211533D01*
X147259D01*
Y209315D01*
D02*
G37*
G36*
X196786Y198526D02*
X194474D01*
Y199898D01*
X194455Y199861D01*
X194380Y199767D01*
X194249Y199617D01*
X194079Y199447D01*
X193892Y199259D01*
X193647Y199053D01*
X193384Y198865D01*
X193102Y198696D01*
X193064Y198677D01*
X192971Y198639D01*
X192801Y198583D01*
X192613Y198508D01*
X192369Y198432D01*
X192087Y198376D01*
X191805Y198338D01*
X191504Y198320D01*
X191354D01*
X191241Y198338D01*
X191091Y198357D01*
X190940Y198395D01*
X190753Y198432D01*
X190546Y198489D01*
X190339Y198545D01*
X190114Y198639D01*
X189888Y198733D01*
X189644Y198865D01*
X189418Y199015D01*
X189174Y199184D01*
X188948Y199391D01*
X188723Y199617D01*
X188704Y199635D01*
X188666Y199673D01*
X188610Y199748D01*
X188553Y199861D01*
X188459Y199992D01*
X188365Y200162D01*
X188253Y200350D01*
X188159Y200575D01*
X188046Y200819D01*
X187933Y201083D01*
X187839Y201383D01*
X187764Y201703D01*
X187689Y202060D01*
X187632Y202436D01*
X187595Y202831D01*
X187576Y203263D01*
Y203282D01*
Y203376D01*
Y203489D01*
X187595Y203658D01*
X187614Y203864D01*
X187632Y204090D01*
X187670Y204353D01*
X187708Y204616D01*
X187839Y205218D01*
X187933Y205518D01*
X188046Y205819D01*
X188178Y206120D01*
X188328Y206402D01*
X188497Y206665D01*
X188685Y206909D01*
X188704Y206928D01*
X188741Y206966D01*
X188798Y207022D01*
X188892Y207116D01*
X189004Y207210D01*
X189136Y207304D01*
X189286Y207417D01*
X189474Y207548D01*
X189662Y207661D01*
X189888Y207774D01*
X190358Y207981D01*
X190640Y208056D01*
X190922Y208112D01*
X191222Y208150D01*
X191542Y208169D01*
X191692D01*
X191805Y208150D01*
X191937Y208131D01*
X192106Y208093D01*
X192275Y208056D01*
X192482Y207999D01*
X192689Y207943D01*
X192914Y207849D01*
X193140Y207736D01*
X193365Y207624D01*
X193610Y207454D01*
X193835Y207285D01*
X194061Y207078D01*
X194286Y206853D01*
Y211533D01*
X196786D01*
Y198526D01*
D02*
G37*
G36*
X254903Y202004D02*
X249998D01*
Y204503D01*
X254903D01*
Y202004D01*
D02*
G37*
G36*
X160811Y203282D02*
Y203263D01*
Y203207D01*
Y203131D01*
Y203019D01*
Y202887D01*
X160792Y202718D01*
X160773Y202361D01*
X160735Y201966D01*
X160679Y201553D01*
X160604Y201139D01*
X160510Y200782D01*
Y200763D01*
X160491Y200725D01*
X160472Y200669D01*
X160435Y200594D01*
X160341Y200387D01*
X160190Y200124D01*
X160002Y199842D01*
X159758Y199541D01*
X159476Y199241D01*
X159119Y198959D01*
X159100D01*
X159081Y198921D01*
X159025Y198902D01*
X158931Y198846D01*
X158837Y198808D01*
X158724Y198752D01*
X158574Y198677D01*
X158423Y198620D01*
X158236Y198564D01*
X158048Y198489D01*
X157596Y198395D01*
X157070Y198320D01*
X156487Y198282D01*
X156299D01*
X156168Y198301D01*
X155999Y198320D01*
X155830Y198338D01*
X155623Y198376D01*
X155397Y198414D01*
X154909Y198545D01*
X154664Y198639D01*
X154420Y198733D01*
X154176Y198865D01*
X153950Y198996D01*
X153724Y199165D01*
X153518Y199353D01*
X153499Y199372D01*
X153480Y199410D01*
X153424Y199466D01*
X153349Y199560D01*
X153273Y199673D01*
X153198Y199804D01*
X153104Y199974D01*
X153010Y200143D01*
X152897Y200368D01*
X152803Y200594D01*
X152728Y200857D01*
X152653Y201139D01*
X152578Y201440D01*
X152521Y201778D01*
X152503Y202135D01*
X152484Y202511D01*
X154984Y202793D01*
Y202774D01*
Y202737D01*
Y202680D01*
X155003Y202605D01*
Y202417D01*
X155040Y202173D01*
X155078Y201910D01*
X155134Y201646D01*
X155209Y201421D01*
X155303Y201214D01*
X155322Y201177D01*
X155379Y201101D01*
X155472Y200989D01*
X155623Y200876D01*
X155792Y200744D01*
X156018Y200632D01*
X156281Y200556D01*
X156581Y200519D01*
X156732D01*
X156882Y200537D01*
X157051Y200575D01*
X157258Y200632D01*
X157465Y200725D01*
X157653Y200838D01*
X157803Y201007D01*
X157822Y201026D01*
X157860Y201120D01*
X157916Y201252D01*
X157991Y201458D01*
X158029Y201590D01*
X158066Y201740D01*
X158085Y201910D01*
X158123Y202098D01*
X158141Y202323D01*
X158160Y202549D01*
X158179Y202812D01*
Y203094D01*
Y211533D01*
X160811D01*
Y203282D01*
D02*
G37*
G36*
X298228Y198526D02*
X295916D01*
Y199936D01*
X295897Y199898D01*
X295822Y199804D01*
X295709Y199673D01*
X295540Y199504D01*
X295352Y199297D01*
X295108Y199109D01*
X294845Y198902D01*
X294544Y198733D01*
X294506Y198714D01*
X294394Y198677D01*
X294224Y198602D01*
X293999Y198526D01*
X293736Y198451D01*
X293435Y198376D01*
X293116Y198338D01*
X292777Y198320D01*
X292608D01*
X292439Y198338D01*
X292213Y198376D01*
X291931Y198414D01*
X291649Y198489D01*
X291349Y198602D01*
X291067Y198733D01*
X291029Y198752D01*
X290954Y198808D01*
X290804Y198902D01*
X290653Y199034D01*
X290465Y199203D01*
X290296Y199391D01*
X290127Y199635D01*
X289977Y199898D01*
X289958Y199936D01*
X289920Y200030D01*
X289864Y200199D01*
X289807Y200444D01*
X289751Y200744D01*
X289695Y201101D01*
X289657Y201515D01*
X289638Y201985D01*
Y207962D01*
X292138D01*
Y203620D01*
Y203601D01*
Y203526D01*
Y203432D01*
Y203301D01*
Y203150D01*
Y202981D01*
X292157Y202586D01*
X292176Y202154D01*
X292195Y201759D01*
X292213Y201590D01*
X292232Y201421D01*
X292251Y201289D01*
X292270Y201195D01*
Y201177D01*
X292288Y201120D01*
X292326Y201045D01*
X292383Y200932D01*
X292439Y200819D01*
X292533Y200707D01*
X292627Y200594D01*
X292758Y200481D01*
X292777Y200462D01*
X292834Y200444D01*
X292909Y200406D01*
X293022Y200368D01*
X293153Y200312D01*
X293322Y200274D01*
X293491Y200256D01*
X293698Y200237D01*
X293811D01*
X293924Y200256D01*
X294074Y200274D01*
X294262Y200312D01*
X294450Y200387D01*
X294657Y200462D01*
X294845Y200575D01*
X294864Y200594D01*
X294920Y200632D01*
X295014Y200707D01*
X295127Y200819D01*
X295240Y200951D01*
X295352Y201083D01*
X295465Y201252D01*
X295540Y201440D01*
Y201459D01*
X295578Y201553D01*
Y201628D01*
X295597Y201722D01*
X295615Y201816D01*
X295634Y201947D01*
X295653Y202116D01*
X295672Y202286D01*
X295691Y202492D01*
Y202737D01*
X295709Y203000D01*
X295728Y203301D01*
Y203620D01*
Y203977D01*
Y207962D01*
X298228D01*
Y198526D01*
D02*
G37*
G36*
X223946D02*
X221634D01*
Y199936D01*
X221616Y199898D01*
X221540Y199804D01*
X221428Y199673D01*
X221259Y199504D01*
X221070Y199297D01*
X220826Y199109D01*
X220563Y198902D01*
X220262Y198733D01*
X220225Y198714D01*
X220112Y198677D01*
X219943Y198602D01*
X219717Y198526D01*
X219454Y198451D01*
X219153Y198376D01*
X218834Y198338D01*
X218495Y198320D01*
X218326D01*
X218157Y198338D01*
X217932Y198376D01*
X217650Y198414D01*
X217368Y198489D01*
X217067Y198601D01*
X216785Y198733D01*
X216747Y198752D01*
X216672Y198808D01*
X216522Y198902D01*
X216371Y199034D01*
X216183Y199203D01*
X216014Y199391D01*
X215845Y199635D01*
X215695Y199898D01*
X215676Y199936D01*
X215639Y200030D01*
X215582Y200199D01*
X215526Y200443D01*
X215469Y200744D01*
X215413Y201101D01*
X215375Y201515D01*
X215357Y201985D01*
Y207962D01*
X217856Y207962D01*
Y203620D01*
Y203601D01*
Y203526D01*
Y203432D01*
Y203301D01*
Y203150D01*
Y202981D01*
X217875Y202586D01*
X217894Y202154D01*
X217913Y201759D01*
X217932Y201590D01*
X217950Y201421D01*
X217969Y201289D01*
X217988Y201195D01*
Y201177D01*
X218007Y201120D01*
X218044Y201045D01*
X218101Y200932D01*
X218157Y200819D01*
X218251Y200707D01*
X218345Y200594D01*
X218477Y200481D01*
X218495Y200462D01*
X218552Y200444D01*
X218627Y200406D01*
X218740Y200368D01*
X218871Y200312D01*
X219041Y200274D01*
X219210Y200256D01*
X219417Y200237D01*
X219529D01*
X219642Y200256D01*
X219792Y200274D01*
X219980Y200312D01*
X220168Y200387D01*
X220375Y200462D01*
X220563Y200575D01*
X220582Y200594D01*
X220638Y200632D01*
X220732Y200707D01*
X220845Y200819D01*
X220958Y200951D01*
X221070Y201083D01*
X221183Y201252D01*
X221259Y201440D01*
Y201459D01*
X221296Y201553D01*
Y201628D01*
X221315Y201722D01*
X221334Y201816D01*
X221352Y201947D01*
X221371Y202116D01*
X221390Y202286D01*
X221409Y202492D01*
Y202737D01*
X221428Y203000D01*
X221446Y203301D01*
Y203620D01*
Y203977D01*
Y207962D01*
X223946D01*
Y198526D01*
D02*
G37*
G36*
X276011D02*
X273511D01*
Y211533D01*
X276011D01*
Y198526D01*
D02*
G37*
G36*
X266425Y211514D02*
X266914D01*
X267440Y211477D01*
X267966Y211439D01*
X268192Y211420D01*
X268418Y211402D01*
X268606Y211364D01*
X268756Y211327D01*
X268775D01*
X268812Y211308D01*
X268869Y211289D01*
X268944Y211270D01*
X269151Y211176D01*
X269414Y211063D01*
X269696Y210894D01*
X270015Y210669D01*
X270316Y210387D01*
X270617Y210048D01*
Y210030D01*
X270654Y210011D01*
X270692Y209954D01*
X270730Y209879D01*
X270805Y209766D01*
X270861Y209654D01*
X270936Y209522D01*
X271012Y209372D01*
X271143Y208996D01*
X271275Y208582D01*
X271350Y208075D01*
X271387Y207530D01*
Y207511D01*
Y207473D01*
Y207417D01*
Y207323D01*
X271369Y207229D01*
Y207097D01*
X271331Y206834D01*
X271275Y206515D01*
X271199Y206158D01*
X271087Y205819D01*
X270936Y205500D01*
X270917Y205462D01*
X270861Y205368D01*
X270767Y205218D01*
X270636Y205030D01*
X270485Y204842D01*
X270278Y204616D01*
X270072Y204410D01*
X269827Y204222D01*
X269790Y204203D01*
X269715Y204146D01*
X269583Y204071D01*
X269414Y203977D01*
X269207Y203864D01*
X268981Y203771D01*
X268737Y203676D01*
X268474Y203601D01*
X268436D01*
X268380Y203582D01*
X268305D01*
X268211Y203564D01*
X268079Y203545D01*
X267948Y203526D01*
X267779D01*
X267609Y203507D01*
X267403Y203489D01*
X267177Y203470D01*
X266933Y203451D01*
X266670D01*
X266388Y203432D01*
X264057D01*
Y198526D01*
X261425D01*
Y211533D01*
X266218D01*
X266425Y211514D01*
D02*
G37*
G36*
X230600Y208150D02*
X230750D01*
X231126Y208112D01*
X231521Y208075D01*
X231935Y208000D01*
X232329Y207887D01*
X232498Y207830D01*
X232668Y207755D01*
X232686D01*
X232705Y207736D01*
X232799Y207680D01*
X232950Y207605D01*
X233119Y207492D01*
X233326Y207342D01*
X233514Y207173D01*
X233683Y206966D01*
X233833Y206759D01*
X233852Y206721D01*
X233889Y206646D01*
X233946Y206477D01*
X233965Y206383D01*
X234002Y206252D01*
X234040Y206120D01*
X234058Y205951D01*
X234096Y205763D01*
X234115Y205556D01*
X234134Y205331D01*
X234153Y205086D01*
X234171Y204823D01*
Y204522D01*
X234134Y201609D01*
Y201590D01*
Y201553D01*
Y201496D01*
Y201402D01*
Y201177D01*
X234153Y200914D01*
Y200613D01*
X234190Y200312D01*
X234209Y200011D01*
X234247Y199767D01*
Y199748D01*
X234265Y199673D01*
X234303Y199541D01*
X234340Y199391D01*
X234416Y199203D01*
X234491Y198996D01*
X234585Y198771D01*
X234698Y198526D01*
X232235D01*
Y198545D01*
X232216Y198564D01*
X232198Y198639D01*
X232160Y198714D01*
X232122Y198808D01*
X232085Y198940D01*
X232047Y199090D01*
X231991Y199259D01*
Y199278D01*
X231972Y199297D01*
X231953Y199372D01*
X231916Y199466D01*
X231897Y199541D01*
X231859Y199523D01*
X231784Y199447D01*
X231653Y199335D01*
X231483Y199203D01*
X231277Y199053D01*
X231051Y198883D01*
X230788Y198752D01*
X230525Y198620D01*
X230487Y198602D01*
X230393Y198583D01*
X230243Y198526D01*
X230055Y198470D01*
X229829Y198414D01*
X229566Y198376D01*
X229266Y198338D01*
X228965Y198320D01*
X228833D01*
X228720Y198338D01*
X228608D01*
X228457Y198357D01*
X228138Y198414D01*
X227762Y198508D01*
X227386Y198639D01*
X227010Y198827D01*
X226672Y199090D01*
Y199109D01*
X226634Y199128D01*
X226540Y199241D01*
X226409Y199410D01*
X226258Y199635D01*
X226108Y199917D01*
X225976Y200256D01*
X225882Y200650D01*
X225863Y200857D01*
X225845Y201083D01*
Y201120D01*
Y201214D01*
X225863Y201365D01*
X225901Y201553D01*
X225939Y201778D01*
X225995Y202004D01*
X226089Y202248D01*
X226221Y202492D01*
X226239Y202530D01*
X226296Y202605D01*
X226371Y202718D01*
X226502Y202850D01*
X226634Y203000D01*
X226822Y203169D01*
X227029Y203319D01*
X227273Y203451D01*
X227311Y203470D01*
X227405Y203507D01*
X227555Y203564D01*
X227781Y203658D01*
X228063Y203752D01*
X228401Y203846D01*
X228815Y203940D01*
X229266Y204034D01*
X229284D01*
X229341Y204052D01*
X229435Y204071D01*
X229548Y204090D01*
X229698Y204109D01*
X229867Y204146D01*
X230243Y204240D01*
X230638Y204334D01*
X231051Y204428D01*
X231408Y204541D01*
X231577Y204597D01*
X231709Y204654D01*
Y204898D01*
Y204936D01*
Y205011D01*
X231690Y205143D01*
X231671Y205312D01*
X231615Y205481D01*
X231559Y205650D01*
X231465Y205800D01*
X231333Y205932D01*
X231314Y205951D01*
X231258Y205988D01*
X231164Y206026D01*
X231032Y206101D01*
X230844Y206158D01*
X230619Y206195D01*
X230337Y206233D01*
X229999Y206252D01*
X229886D01*
X229773Y206233D01*
X229623Y206214D01*
X229454Y206176D01*
X229266Y206139D01*
X229096Y206064D01*
X228946Y205970D01*
X228927Y205951D01*
X228890Y205913D01*
X228815Y205857D01*
X228739Y205763D01*
X228626Y205631D01*
X228533Y205462D01*
X228438Y205274D01*
X228345Y205049D01*
X226108Y205462D01*
Y205481D01*
X226127Y205518D01*
X226145Y205594D01*
X226183Y205688D01*
X226221Y205800D01*
X226277Y205932D01*
X226409Y206233D01*
X226597Y206552D01*
X226822Y206891D01*
X227085Y207210D01*
X227405Y207492D01*
X227423D01*
X227442Y207530D01*
X227499Y207549D01*
X227574Y207605D01*
X227687Y207642D01*
X227799Y207699D01*
X227950Y207774D01*
X228100Y207830D01*
X228288Y207887D01*
X228495Y207962D01*
X228720Y208018D01*
X228984Y208056D01*
X229247Y208112D01*
X229548Y208131D01*
X229848Y208169D01*
X230469D01*
X230600Y208150D01*
D02*
G37*
G36*
X201729Y198526D02*
X199230D01*
Y211533D01*
X201729D01*
Y198526D01*
D02*
G37*
G36*
X180509D02*
X178009D01*
Y207962D01*
X180509D01*
Y198526D01*
D02*
G37*
G36*
X171994Y208150D02*
X172145D01*
X172520Y208112D01*
X172915Y208075D01*
X173329Y207999D01*
X173723Y207887D01*
X173892Y207830D01*
X174062Y207755D01*
X174081D01*
X174099Y207736D01*
X174193Y207680D01*
X174344Y207605D01*
X174513Y207492D01*
X174720Y207342D01*
X174907Y207173D01*
X175077Y206966D01*
X175227Y206759D01*
X175246Y206721D01*
X175283Y206646D01*
X175340Y206477D01*
X175359Y206383D01*
X175396Y206252D01*
X175434Y206120D01*
X175453Y205951D01*
X175490Y205763D01*
X175509Y205556D01*
X175528Y205331D01*
X175547Y205086D01*
X175565Y204823D01*
Y204522D01*
X175528Y201609D01*
Y201590D01*
Y201553D01*
Y201496D01*
Y201402D01*
Y201177D01*
X175547Y200913D01*
Y200613D01*
X175584Y200312D01*
X175603Y200011D01*
X175641Y199767D01*
Y199748D01*
X175659Y199673D01*
X175697Y199541D01*
X175735Y199391D01*
X175810Y199203D01*
X175885Y198996D01*
X175979Y198771D01*
X176092Y198526D01*
X173629D01*
Y198545D01*
X173611Y198564D01*
X173592Y198639D01*
X173554Y198714D01*
X173517Y198808D01*
X173479Y198940D01*
X173441Y199090D01*
X173385Y199259D01*
Y199278D01*
X173366Y199297D01*
X173347Y199372D01*
X173310Y199466D01*
X173291Y199541D01*
X173253Y199522D01*
X173178Y199447D01*
X173047Y199335D01*
X172878Y199203D01*
X172671Y199053D01*
X172445Y198883D01*
X172182Y198752D01*
X171919Y198620D01*
X171881Y198601D01*
X171787Y198583D01*
X171637Y198526D01*
X171449Y198470D01*
X171224Y198414D01*
X170960Y198376D01*
X170660Y198338D01*
X170359Y198320D01*
X170227D01*
X170114Y198338D01*
X170002D01*
X169851Y198357D01*
X169532Y198414D01*
X169156Y198508D01*
X168780Y198639D01*
X168404Y198827D01*
X168066Y199090D01*
Y199109D01*
X168028Y199128D01*
X167934Y199241D01*
X167803Y199410D01*
X167652Y199635D01*
X167502Y199917D01*
X167370Y200256D01*
X167276Y200650D01*
X167258Y200857D01*
X167239Y201083D01*
Y201120D01*
Y201214D01*
X167258Y201364D01*
X167295Y201553D01*
X167333Y201778D01*
X167389Y202004D01*
X167483Y202248D01*
X167615Y202492D01*
X167633Y202530D01*
X167690Y202605D01*
X167765Y202718D01*
X167897Y202849D01*
X168028Y203000D01*
X168216Y203169D01*
X168423Y203319D01*
X168667Y203451D01*
X168705Y203470D01*
X168799Y203507D01*
X168949Y203564D01*
X169175Y203658D01*
X169457Y203752D01*
X169795Y203846D01*
X170208Y203940D01*
X170660Y204034D01*
X170678D01*
X170735Y204052D01*
X170829Y204071D01*
X170942Y204090D01*
X171092Y204109D01*
X171261Y204146D01*
X171637Y204240D01*
X172032Y204334D01*
X172445Y204428D01*
X172802Y204541D01*
X172971Y204597D01*
X173103Y204654D01*
Y204898D01*
Y204936D01*
Y205011D01*
X173084Y205142D01*
X173065Y205312D01*
X173009Y205481D01*
X172953Y205650D01*
X172859Y205800D01*
X172727Y205932D01*
X172708Y205951D01*
X172652Y205988D01*
X172558Y206026D01*
X172426Y206101D01*
X172239Y206157D01*
X172013Y206195D01*
X171731Y206233D01*
X171393Y206252D01*
X171280D01*
X171167Y206233D01*
X171017Y206214D01*
X170848Y206176D01*
X170660Y206139D01*
X170490Y206063D01*
X170340Y205970D01*
X170321Y205951D01*
X170284Y205913D01*
X170208Y205857D01*
X170133Y205763D01*
X170021Y205631D01*
X169927Y205462D01*
X169833Y205274D01*
X169739Y205049D01*
X167502Y205462D01*
Y205481D01*
X167521Y205518D01*
X167540Y205594D01*
X167577Y205688D01*
X167615Y205800D01*
X167671Y205932D01*
X167803Y206233D01*
X167991Y206552D01*
X168216Y206891D01*
X168479Y207210D01*
X168799Y207492D01*
X168818D01*
X168836Y207530D01*
X168893Y207548D01*
X168968Y207605D01*
X169081Y207642D01*
X169193Y207699D01*
X169344Y207774D01*
X169494Y207830D01*
X169682Y207887D01*
X169889Y207962D01*
X170114Y208018D01*
X170378Y208056D01*
X170641Y208112D01*
X170942Y208131D01*
X171242Y208169D01*
X171863D01*
X171994Y208150D01*
D02*
G37*
G36*
X316836Y208150D02*
X317005Y208131D01*
X317212Y208093D01*
X317438Y208056D01*
X317682Y208000D01*
X317945Y207924D01*
X318208Y207830D01*
X318490Y207718D01*
X318772Y207567D01*
X319035Y207417D01*
X319298Y207229D01*
X319562Y207003D01*
X319787Y206759D01*
X319806Y206740D01*
X319844Y206703D01*
X319900Y206609D01*
X319975Y206496D01*
X320069Y206346D01*
X320163Y206176D01*
X320276Y205951D01*
X320389Y205706D01*
X320501Y205424D01*
X320614Y205105D01*
X320708Y204767D01*
X320802Y204372D01*
X320877Y203958D01*
X320934Y203507D01*
X320971Y203037D01*
Y202511D01*
X314731D01*
Y202492D01*
Y202455D01*
Y202398D01*
X314750Y202323D01*
X314769Y202135D01*
X314806Y201872D01*
X314881Y201609D01*
X314994Y201308D01*
X315126Y201026D01*
X315314Y200782D01*
X315332Y200763D01*
X315426Y200688D01*
X315539Y200594D01*
X315708Y200481D01*
X315915Y200368D01*
X316178Y200274D01*
X316460Y200199D01*
X316761Y200180D01*
X316855D01*
X316968Y200199D01*
X317099Y200218D01*
X317250Y200256D01*
X317419Y200312D01*
X317588Y200387D01*
X317738Y200500D01*
X317757Y200519D01*
X317813Y200556D01*
X317889Y200632D01*
X317964Y200744D01*
X318077Y200895D01*
X318171Y201064D01*
X318265Y201289D01*
X318359Y201534D01*
X320840Y201120D01*
Y201101D01*
X320821Y201064D01*
X320783Y200989D01*
X320746Y200895D01*
X320689Y200782D01*
X320633Y200650D01*
X320464Y200350D01*
X320257Y200011D01*
X319994Y199654D01*
X319674Y199335D01*
X319317Y199034D01*
X319298D01*
X319280Y198996D01*
X319204Y198978D01*
X319129Y198921D01*
X319035Y198865D01*
X318904Y198808D01*
X318772Y198752D01*
X318603Y198677D01*
X318227Y198545D01*
X317795Y198432D01*
X317287Y198357D01*
X316742Y198320D01*
X316629D01*
X316517Y198338D01*
X316347D01*
X316141Y198376D01*
X315896Y198414D01*
X315633Y198451D01*
X315370Y198526D01*
X315069Y198602D01*
X314769Y198714D01*
X314468Y198846D01*
X314167Y198996D01*
X313866Y199184D01*
X313584Y199391D01*
X313340Y199635D01*
X313096Y199917D01*
X313077Y199936D01*
X313058Y199974D01*
X313020Y200049D01*
X312945Y200143D01*
X312889Y200274D01*
X312814Y200425D01*
X312720Y200594D01*
X312645Y200801D01*
X312551Y201026D01*
X312475Y201271D01*
X312381Y201534D01*
X312325Y201835D01*
X312269Y202135D01*
X312212Y202455D01*
X312194Y202812D01*
X312175Y203169D01*
Y203188D01*
Y203263D01*
Y203395D01*
X312194Y203564D01*
X312212Y203752D01*
X312231Y203977D01*
X312269Y204222D01*
X312325Y204503D01*
X312475Y205086D01*
X312569Y205387D01*
X312682Y205706D01*
X312833Y206007D01*
X313002Y206289D01*
X313190Y206571D01*
X313396Y206834D01*
X313415Y206853D01*
X313453Y206891D01*
X313528Y206966D01*
X313622Y207041D01*
X313735Y207135D01*
X313885Y207248D01*
X314054Y207379D01*
X314242Y207511D01*
X314449Y207624D01*
X314693Y207755D01*
X314938Y207868D01*
X315220Y207962D01*
X315502Y208037D01*
X315821Y208112D01*
X316141Y208150D01*
X316479Y208169D01*
X316686D01*
X316836Y208150D01*
D02*
G37*
G36*
X283210D02*
X283398Y208131D01*
X283605Y208093D01*
X283849Y208056D01*
X284093Y208000D01*
X284375Y207924D01*
X284657Y207830D01*
X284939Y207718D01*
X285240Y207586D01*
X285541Y207417D01*
X285823Y207229D01*
X286105Y207022D01*
X286368Y206778D01*
X286387Y206759D01*
X286424Y206721D01*
X286499Y206628D01*
X286575Y206534D01*
X286687Y206383D01*
X286800Y206233D01*
X286932Y206026D01*
X287063Y205819D01*
X287176Y205575D01*
X287308Y205312D01*
X287420Y205011D01*
X287533Y204710D01*
X287608Y204372D01*
X287684Y204034D01*
X287721Y203658D01*
X287740Y203263D01*
Y203244D01*
Y203169D01*
Y203056D01*
X287721Y202906D01*
X287702Y202718D01*
X287665Y202511D01*
X287627Y202267D01*
X287571Y202022D01*
X287496Y201740D01*
X287402Y201459D01*
X287289Y201158D01*
X287157Y200857D01*
X286988Y200556D01*
X286800Y200274D01*
X286593Y199993D01*
X286349Y199711D01*
X286330Y199692D01*
X286293Y199654D01*
X286217Y199579D01*
X286105Y199485D01*
X285973Y199391D01*
X285804Y199278D01*
X285616Y199147D01*
X285409Y199015D01*
X285165Y198883D01*
X284902Y198752D01*
X284620Y198639D01*
X284300Y198545D01*
X283981Y198451D01*
X283624Y198376D01*
X283267Y198338D01*
X282872Y198320D01*
X282740D01*
X282646Y198338D01*
X282533D01*
X282402Y198357D01*
X282082Y198395D01*
X281688Y198470D01*
X281274Y198564D01*
X280842Y198714D01*
X280391Y198902D01*
X280372D01*
X280334Y198921D01*
X280278Y198959D01*
X280203Y199015D01*
X279996Y199147D01*
X279733Y199335D01*
X279451Y199579D01*
X279150Y199880D01*
X278868Y200218D01*
X278605Y200613D01*
Y200632D01*
X278586Y200669D01*
X278549Y200725D01*
X278511Y200819D01*
X278473Y200932D01*
X278417Y201064D01*
X278361Y201214D01*
X278304Y201383D01*
X278248Y201571D01*
X278192Y201778D01*
X278098Y202248D01*
X278022Y202793D01*
X278004Y203376D01*
Y203395D01*
Y203432D01*
Y203507D01*
X278022Y203582D01*
Y203695D01*
X278041Y203827D01*
X278079Y204146D01*
X278154Y204503D01*
X278267Y204898D01*
X278398Y205331D01*
X278605Y205763D01*
Y205782D01*
X278643Y205819D01*
X278661Y205876D01*
X278718Y205951D01*
X278868Y206158D01*
X279056Y206421D01*
X279300Y206703D01*
X279601Y207003D01*
X279940Y207285D01*
X280334Y207549D01*
X280353D01*
X280391Y207567D01*
X280447Y207605D01*
X280541Y207642D01*
X280635Y207699D01*
X280767Y207736D01*
X280917Y207793D01*
X281067Y207868D01*
X281443Y207981D01*
X281876Y208075D01*
X282346Y208150D01*
X282853Y208169D01*
X283060D01*
X283210Y208150D01*
D02*
G37*
G36*
X208928Y208150D02*
X209116Y208131D01*
X209323Y208093D01*
X209567Y208056D01*
X209812Y207999D01*
X210094Y207924D01*
X210376Y207830D01*
X210658Y207718D01*
X210958Y207586D01*
X211259Y207417D01*
X211541Y207229D01*
X211823Y207022D01*
X212086Y206778D01*
X212105Y206759D01*
X212142Y206721D01*
X212218Y206627D01*
X212293Y206533D01*
X212405Y206383D01*
X212518Y206233D01*
X212650Y206026D01*
X212782Y205819D01*
X212894Y205575D01*
X213026Y205312D01*
X213139Y205011D01*
X213251Y204710D01*
X213326Y204372D01*
X213402Y204034D01*
X213439Y203658D01*
X213458Y203263D01*
Y203244D01*
Y203169D01*
Y203056D01*
X213439Y202906D01*
X213421Y202718D01*
X213383Y202511D01*
X213345Y202267D01*
X213289Y202022D01*
X213214Y201740D01*
X213120Y201458D01*
X213007Y201158D01*
X212875Y200857D01*
X212706Y200556D01*
X212518Y200274D01*
X212312Y199992D01*
X212067Y199711D01*
X212048Y199692D01*
X212011Y199654D01*
X211936Y199579D01*
X211823Y199485D01*
X211691Y199391D01*
X211522Y199278D01*
X211334Y199147D01*
X211127Y199015D01*
X210883Y198883D01*
X210620Y198752D01*
X210338Y198639D01*
X210019Y198545D01*
X209699Y198451D01*
X209342Y198376D01*
X208985Y198338D01*
X208590Y198320D01*
X208458D01*
X208364Y198338D01*
X208252D01*
X208120Y198357D01*
X207801Y198395D01*
X207406Y198470D01*
X206992Y198564D01*
X206560Y198714D01*
X206109Y198902D01*
X206090D01*
X206052Y198921D01*
X205996Y198959D01*
X205921Y199015D01*
X205714Y199147D01*
X205451Y199335D01*
X205169Y199579D01*
X204868Y199880D01*
X204586Y200218D01*
X204323Y200613D01*
Y200632D01*
X204305Y200669D01*
X204267Y200725D01*
X204229Y200819D01*
X204192Y200932D01*
X204135Y201064D01*
X204079Y201214D01*
X204023Y201383D01*
X203966Y201571D01*
X203910Y201778D01*
X203816Y202248D01*
X203741Y202793D01*
X203722Y203376D01*
Y203395D01*
Y203432D01*
Y203507D01*
X203741Y203582D01*
Y203695D01*
X203759Y203827D01*
X203797Y204146D01*
X203872Y204503D01*
X203985Y204898D01*
X204116Y205331D01*
X204323Y205763D01*
Y205782D01*
X204361Y205819D01*
X204380Y205876D01*
X204436Y205951D01*
X204586Y206157D01*
X204774Y206421D01*
X205019Y206703D01*
X205319Y207003D01*
X205658Y207285D01*
X206052Y207548D01*
X206071D01*
X206109Y207567D01*
X206165Y207605D01*
X206259Y207642D01*
X206353Y207699D01*
X206485Y207736D01*
X206635Y207793D01*
X206786Y207868D01*
X207162Y207981D01*
X207594Y208075D01*
X208064Y208150D01*
X208571Y208169D01*
X208778D01*
X208928Y208150D01*
D02*
G37*
%LPC*%
G36*
X192200Y206252D02*
X192162D01*
X192050Y206233D01*
X191880Y206214D01*
X191692Y206157D01*
X191448Y206082D01*
X191204Y205951D01*
X190959Y205782D01*
X190715Y205537D01*
X190696Y205500D01*
X190621Y205406D01*
X190527Y205236D01*
X190433Y205011D01*
X190320Y204710D01*
X190226Y204353D01*
X190151Y203921D01*
X190132Y203432D01*
Y203413D01*
Y203376D01*
Y203282D01*
Y203188D01*
X190151Y203056D01*
Y202925D01*
X190189Y202605D01*
X190226Y202248D01*
X190301Y201872D01*
X190414Y201534D01*
X190471Y201383D01*
X190546Y201252D01*
Y201233D01*
X190583Y201214D01*
X190659Y201101D01*
X190790Y200951D01*
X190978Y200782D01*
X191222Y200594D01*
X191504Y200443D01*
X191843Y200331D01*
X192031Y200312D01*
X192219Y200293D01*
X192256D01*
X192369Y200312D01*
X192519Y200331D01*
X192726Y200387D01*
X192952Y200462D01*
X193196Y200594D01*
X193440Y200763D01*
X193685Y201007D01*
X193703Y201045D01*
X193779Y201139D01*
X193873Y201308D01*
X193986Y201553D01*
X194098Y201853D01*
X194192Y202229D01*
X194267Y202680D01*
X194286Y203188D01*
Y203207D01*
Y203263D01*
Y203338D01*
Y203451D01*
X194267Y203582D01*
X194249Y203752D01*
X194211Y204090D01*
X194136Y204485D01*
X194042Y204861D01*
X193892Y205236D01*
X193797Y205387D01*
X193685Y205537D01*
X193666Y205575D01*
X193572Y205650D01*
X193459Y205763D01*
X193290Y205894D01*
X193064Y206026D01*
X192820Y206139D01*
X192519Y206214D01*
X192200Y206252D01*
D02*
G37*
G36*
X266012Y209334D02*
X264057D01*
Y205631D01*
X265861D01*
X265993Y205650D01*
X266331D01*
X266670Y205669D01*
X267008Y205706D01*
X267309Y205763D01*
X267440Y205782D01*
X267553Y205819D01*
X267572Y205838D01*
X267647Y205857D01*
X267741Y205913D01*
X267854Y205970D01*
X267985Y206064D01*
X268117Y206176D01*
X268267Y206308D01*
X268380Y206458D01*
X268399Y206477D01*
X268436Y206534D01*
X268474Y206628D01*
X268530Y206759D01*
X268587Y206909D01*
X268643Y207079D01*
X268662Y207267D01*
X268681Y207473D01*
Y207511D01*
Y207586D01*
X268662Y207718D01*
X268624Y207887D01*
X268568Y208075D01*
X268493Y208281D01*
X268399Y208470D01*
X268249Y208657D01*
X268230Y208676D01*
X268173Y208733D01*
X268079Y208808D01*
X267966Y208902D01*
X267816Y209014D01*
X267628Y209109D01*
X267421Y209184D01*
X267196Y209240D01*
X267177D01*
X267102Y209259D01*
X266970Y209278D01*
X266782Y209296D01*
X266538D01*
X266369Y209315D01*
X266200D01*
X266012Y209334D01*
D02*
G37*
G36*
X231709Y203037D02*
X231690D01*
X231615Y203000D01*
X231502Y202981D01*
X231333Y202925D01*
X231126Y202868D01*
X230844Y202793D01*
X230544Y202718D01*
X230168Y202643D01*
X230130D01*
X230074Y202624D01*
X229999Y202605D01*
X229829Y202568D01*
X229604Y202511D01*
X229378Y202455D01*
X229153Y202380D01*
X228965Y202286D01*
X228815Y202210D01*
X228796Y202192D01*
X228739Y202154D01*
X228664Y202079D01*
X228589Y201985D01*
X228495Y201853D01*
X228420Y201703D01*
X228363Y201534D01*
X228345Y201346D01*
Y201327D01*
Y201252D01*
X228363Y201158D01*
X228401Y201045D01*
X228438Y200895D01*
X228495Y200744D01*
X228589Y200594D01*
X228720Y200444D01*
X228739Y200425D01*
X228796Y200387D01*
X228871Y200331D01*
X229002Y200256D01*
X229134Y200180D01*
X229303Y200124D01*
X229510Y200086D01*
X229717Y200068D01*
X229829D01*
X229961Y200086D01*
X230130Y200124D01*
X230337Y200180D01*
X230544Y200256D01*
X230788Y200350D01*
X231014Y200500D01*
X231032Y200519D01*
X231089Y200556D01*
X231164Y200632D01*
X231258Y200725D01*
X231352Y200857D01*
X231446Y200989D01*
X231540Y201158D01*
X231596Y201327D01*
Y201346D01*
X231615Y201383D01*
X231634Y201477D01*
X231653Y201590D01*
X231671Y201759D01*
X231690Y201966D01*
X231709Y202229D01*
Y202530D01*
Y203037D01*
D02*
G37*
G36*
X173103Y203037D02*
X173084D01*
X173009Y203000D01*
X172896Y202981D01*
X172727Y202925D01*
X172520Y202868D01*
X172239Y202793D01*
X171938Y202718D01*
X171562Y202643D01*
X171524D01*
X171468Y202624D01*
X171393Y202605D01*
X171224Y202568D01*
X170998Y202511D01*
X170772Y202455D01*
X170547Y202379D01*
X170359Y202285D01*
X170208Y202210D01*
X170190Y202192D01*
X170133Y202154D01*
X170058Y202079D01*
X169983Y201985D01*
X169889Y201853D01*
X169814Y201703D01*
X169757Y201534D01*
X169739Y201346D01*
Y201327D01*
Y201252D01*
X169757Y201158D01*
X169795Y201045D01*
X169833Y200895D01*
X169889Y200744D01*
X169983Y200594D01*
X170114Y200443D01*
X170133Y200425D01*
X170190Y200387D01*
X170265Y200331D01*
X170396Y200256D01*
X170528Y200180D01*
X170697Y200124D01*
X170904Y200086D01*
X171111Y200068D01*
X171224D01*
X171355Y200086D01*
X171524Y200124D01*
X171731Y200180D01*
X171938Y200256D01*
X172182Y200350D01*
X172408Y200500D01*
X172426Y200519D01*
X172483Y200556D01*
X172558Y200632D01*
X172652Y200725D01*
X172746Y200857D01*
X172840Y200989D01*
X172934Y201158D01*
X172990Y201327D01*
Y201346D01*
X173009Y201383D01*
X173028Y201477D01*
X173047Y201590D01*
X173065Y201759D01*
X173084Y201966D01*
X173103Y202229D01*
Y202530D01*
Y203037D01*
D02*
G37*
G36*
X316629Y206252D02*
X316498D01*
X316347Y206214D01*
X316159Y206176D01*
X315953Y206101D01*
X315727Y206007D01*
X315502Y205857D01*
X315295Y205650D01*
X315276Y205631D01*
X315220Y205537D01*
X315126Y205406D01*
X315032Y205218D01*
X314919Y204992D01*
X314844Y204710D01*
X314787Y204391D01*
X314769Y204034D01*
X318490D01*
Y204052D01*
Y204090D01*
Y204128D01*
X318471Y204203D01*
X318453Y204410D01*
X318415Y204635D01*
X318340Y204898D01*
X318246Y205180D01*
X318095Y205443D01*
X317926Y205669D01*
X317908Y205688D01*
X317832Y205763D01*
X317719Y205857D01*
X317569Y205970D01*
X317381Y206064D01*
X317156Y206158D01*
X316911Y206233D01*
X316629Y206252D01*
D02*
G37*
G36*
X282872Y206139D02*
X282778D01*
X282703Y206120D01*
X282533Y206101D01*
X282308Y206045D01*
X282045Y205951D01*
X281763Y205819D01*
X281481Y205631D01*
X281218Y205387D01*
X281199Y205349D01*
X281124Y205255D01*
X281011Y205067D01*
X280898Y204842D01*
X280767Y204541D01*
X280673Y204165D01*
X280597Y203733D01*
X280560Y203244D01*
Y203225D01*
Y203188D01*
Y203113D01*
X280579Y203019D01*
Y202887D01*
X280597Y202756D01*
X280635Y202455D01*
X280729Y202098D01*
X280842Y201740D01*
X280992Y201383D01*
X281218Y201083D01*
X281255Y201045D01*
X281331Y200970D01*
X281481Y200857D01*
X281688Y200725D01*
X281913Y200575D01*
X282195Y200462D01*
X282515Y200387D01*
X282872Y200350D01*
X282966D01*
X283041Y200368D01*
X283210Y200387D01*
X283436Y200444D01*
X283699Y200537D01*
X283981Y200650D01*
X284244Y200838D01*
X284507Y201083D01*
X284545Y201120D01*
X284620Y201214D01*
X284714Y201402D01*
X284845Y201628D01*
X284977Y201947D01*
X285071Y202304D01*
X285146Y202756D01*
X285184Y203244D01*
Y203263D01*
Y203301D01*
Y203376D01*
X285165Y203470D01*
Y203582D01*
X285146Y203733D01*
X285109Y204034D01*
X285014Y204372D01*
X284902Y204729D01*
X284733Y205086D01*
X284507Y205387D01*
X284469Y205424D01*
X284394Y205500D01*
X284244Y205631D01*
X284056Y205763D01*
X283811Y205894D01*
X283548Y206026D01*
X283229Y206101D01*
X282872Y206139D01*
D02*
G37*
G36*
X208590Y206139D02*
X208496D01*
X208421Y206120D01*
X208252Y206101D01*
X208026Y206045D01*
X207763Y205951D01*
X207481Y205819D01*
X207199Y205631D01*
X206936Y205387D01*
X206917Y205349D01*
X206842Y205255D01*
X206729Y205067D01*
X206616Y204842D01*
X206485Y204541D01*
X206391Y204165D01*
X206316Y203733D01*
X206278Y203244D01*
Y203225D01*
Y203188D01*
Y203113D01*
X206297Y203019D01*
Y202887D01*
X206316Y202755D01*
X206353Y202455D01*
X206447Y202098D01*
X206560Y201740D01*
X206710Y201383D01*
X206936Y201083D01*
X206973Y201045D01*
X207049Y200970D01*
X207199Y200857D01*
X207406Y200725D01*
X207631Y200575D01*
X207913Y200462D01*
X208233Y200387D01*
X208590Y200350D01*
X208684D01*
X208759Y200368D01*
X208928Y200387D01*
X209154Y200443D01*
X209417Y200537D01*
X209699Y200650D01*
X209962Y200838D01*
X210225Y201083D01*
X210263Y201120D01*
X210338Y201214D01*
X210432Y201402D01*
X210564Y201628D01*
X210695Y201947D01*
X210789Y202304D01*
X210864Y202755D01*
X210902Y203244D01*
Y203263D01*
Y203300D01*
Y203376D01*
X210883Y203470D01*
Y203582D01*
X210864Y203733D01*
X210827Y204034D01*
X210733Y204372D01*
X210620Y204729D01*
X210451Y205086D01*
X210225Y205387D01*
X210188Y205424D01*
X210112Y205500D01*
X209962Y205631D01*
X209774Y205763D01*
X209530Y205894D01*
X209267Y206026D01*
X208947Y206101D01*
X208590Y206139D01*
D02*
G37*
%LPD*%
D103*
X48641Y112141D02*
D03*
D113*
X50000Y50000D02*
D03*
X1093000D02*
D03*
Y521500D02*
D03*
X50000D02*
D03*
D115*
X63500Y403860D02*
D03*
D116*
X40640Y310388D02*
D03*
Y284988D02*
D03*
Y272288D02*
D03*
D118*
X1072090Y247230D02*
D03*
Y321730D02*
D03*
D119*
X1110090Y245730D02*
D03*
Y323230D02*
D03*
D121*
X56013Y275236D02*
D03*
X690880Y551180D02*
D03*
X88900Y231140D02*
D03*
X462750Y70500D02*
D03*
X591250Y544250D02*
D03*
X90250Y387750D02*
D03*
X399000Y356000D02*
D03*
X411500Y285000D02*
D03*
X418000Y177750D02*
D03*
X548640Y149860D02*
D03*
X723250Y256000D02*
D03*
X617750Y386750D02*
D03*
X779000Y405750D02*
D03*
X868500Y378500D02*
D03*
X933500Y439250D02*
D03*
X986250Y412750D02*
D03*
X985000Y342250D02*
D03*
X871250Y160750D02*
D03*
X980750Y63750D02*
D03*
X929500Y64250D02*
D03*
X878750Y64500D02*
D03*
X828250Y63500D02*
D03*
X605750Y39250D02*
D03*
X648250Y133250D02*
D03*
X517000Y43000D02*
D03*
X447250Y27500D02*
D03*
X163250Y49250D02*
D03*
X401250Y441000D02*
D03*
X428750Y520750D02*
D03*
D122*
X538480Y415290D02*
D03*
M02*
