G04*
G04 #@! TF.GenerationSoftware,Altium Limited,Altium Designer,22.9.1 (49)*
G04*
G04 Layer_Color=16711935*
%FSLAX44Y44*%
%MOMM*%
G71*
G04*
G04 #@! TF.SameCoordinates,A2259558-2793-4ACD-BA26-FD92625B8348*
G04*
G04*
G04 #@! TF.FilePolarity,Negative*
G04*
G01*
G75*
%ADD94C,5.9420*%
%ADD95C,1.5080*%
%ADD96C,2.7940*%
%ADD97C,1.1160*%
%ADD98R,1.1160X1.1160*%
%ADD99O,2.1000X1.5500*%
%ADD100O,1.9000X1.2500*%
%ADD101C,0.9000*%
%ADD102C,1.9954*%
%ADD103C,1.5406*%
%ADD104R,1.5406X1.5406*%
%ADD105C,0.7096*%
%ADD106C,1.3700*%
D94*
X50000Y50000D02*
D03*
X1093000D02*
D03*
Y521500D02*
D03*
X50000D02*
D03*
D95*
X1025120Y200660D02*
D03*
X960120D02*
D03*
D96*
X63500Y403860D02*
D03*
Y454660D02*
D03*
X811530Y507746D02*
D03*
X862330D02*
D03*
X927100Y508000D02*
D03*
X977900D02*
D03*
D97*
X40640Y297688D02*
D03*
X27940D02*
D03*
X40640Y310388D02*
D03*
X27940D02*
D03*
Y284988D02*
D03*
X40640D02*
D03*
X27940Y272288D02*
D03*
X40640D02*
D03*
X27940Y259588D02*
D03*
D98*
X40640D02*
D03*
D99*
X1072090Y247230D02*
D03*
Y321730D02*
D03*
D100*
X1110090Y245730D02*
D03*
Y323230D02*
D03*
D101*
X1082590Y259480D02*
D03*
Y309480D02*
D03*
D102*
X73533Y102108D02*
D03*
Y172212D02*
D03*
D103*
X48641Y112141D02*
D03*
D104*
Y162179D02*
D03*
D105*
X415191Y107950D02*
D03*
X576940Y139429D02*
D03*
X452120Y116840D02*
D03*
Y96520D02*
D03*
X22860Y208280D02*
D03*
X412000Y297588D02*
D03*
X15535Y220422D02*
D03*
X32335Y198032D02*
D03*
X107263Y326487D02*
D03*
X56013Y275236D02*
D03*
X513000Y341304D02*
D03*
X1045250Y280833D02*
D03*
X475000Y249000D02*
D03*
X411000Y212750D02*
D03*
X491490Y124460D02*
D03*
X476378Y109220D02*
D03*
X690880Y551180D02*
D03*
X88900Y231140D02*
D03*
X631250Y122500D02*
D03*
X462750Y70500D02*
D03*
X591250Y544250D02*
D03*
X90250Y387750D02*
D03*
X399000Y356000D02*
D03*
X411500Y285000D02*
D03*
X418000Y177750D02*
D03*
X548640Y149860D02*
D03*
X723250Y256000D02*
D03*
X617750Y386750D02*
D03*
X633000Y402000D02*
D03*
X779000Y405750D02*
D03*
X868500Y378500D02*
D03*
X933500Y439250D02*
D03*
X986250Y412750D02*
D03*
X985000Y342250D02*
D03*
X871250Y160750D02*
D03*
X980750Y63750D02*
D03*
X929500Y64250D02*
D03*
X878750Y64500D02*
D03*
X828250Y63500D02*
D03*
X605750Y39250D02*
D03*
X648250Y133250D02*
D03*
X517000Y43000D02*
D03*
X447250Y27500D02*
D03*
X163250Y49250D02*
D03*
X170750Y18250D02*
D03*
X401250Y441000D02*
D03*
X428750Y520750D02*
D03*
X866000Y214000D02*
D03*
X679000Y336000D02*
D03*
X652000Y26000D02*
D03*
X570000Y369000D02*
D03*
X684000Y294000D02*
D03*
X548000Y308000D02*
D03*
X561009Y316897D02*
D03*
X581000Y318000D02*
D03*
X583000Y257000D02*
D03*
X598524Y55880D02*
D03*
X571000Y243000D02*
D03*
X604000Y370000D02*
D03*
X246493Y45607D02*
D03*
X245872Y73048D02*
D03*
X230632Y60348D02*
D03*
X933201Y362399D02*
D03*
X815750Y307000D02*
D03*
X1035500Y68000D02*
D03*
X39250Y361500D02*
D03*
X393700Y81280D02*
D03*
Y27940D02*
D03*
X464820Y43180D02*
D03*
X393700Y55880D02*
D03*
X356870Y92710D02*
D03*
D106*
X538480Y415290D02*
D03*
M02*
