G04*
G04 #@! TF.GenerationSoftware,Altium Limited,Altium Designer,22.9.1 (49)*
G04*
G04 Layer_Color=65535*
%FSLAX44Y44*%
%MOMM*%
G71*
G04*
G04 #@! TF.SameCoordinates,A2259558-2793-4ACD-BA26-FD92625B8348*
G04*
G04*
G04 #@! TF.FilePolarity,Positive*
G04*
G01*
G75*
%ADD10C,0.2500*%
%ADD11C,0.6000*%
%ADD12C,0.1270*%
%ADD13C,0.2000*%
%ADD14C,0.2540*%
%ADD15C,0.1500*%
D10*
X428090Y38480D02*
G03*
X428090Y38480I-1250J0D01*
G01*
X563094Y355544D02*
G03*
X563094Y355544I-1250J0D01*
G01*
X706500Y522000D02*
G03*
X706500Y522000I-1250J0D01*
G01*
X61789Y312010D02*
G03*
X61789Y312010I-1250J0D01*
G01*
X176862Y74018D02*
G03*
X176862Y74018I-1250J0D01*
G01*
X630030Y78350D02*
G03*
X630030Y78350I-1250J0D01*
G01*
X531180Y500380D02*
G03*
X531180Y500380I-1250J0D01*
G01*
X49960Y188660D02*
G03*
X49960Y188660I-1250J0D01*
G01*
D11*
X572976Y329028D02*
G03*
X572976Y329028I-3000J0D01*
G01*
D12*
X1052620Y200660D02*
G03*
X1052620Y200660I-60000J0D01*
G01*
X548500Y515700D02*
Y517300D01*
X540500Y515700D02*
Y517300D01*
X572500Y515700D02*
Y517300D01*
X564500Y515700D02*
Y517300D01*
X523639Y407110D02*
X553691Y377058D01*
X528942Y352309D02*
X553691Y377058D01*
X498890Y382361D02*
X528942Y352309D01*
X498890Y382361D02*
X523639Y407110D01*
X463842Y228871D02*
X470666Y222046D01*
X467434Y218813D02*
X470666Y222046D01*
X460609Y225638D02*
X463842Y228871D01*
X681714Y270174D02*
X681714Y279826D01*
X686286D01*
X681714Y270174D02*
X686286D01*
X588396Y390929D02*
X595221Y384104D01*
X588396Y390929D02*
X591629Y394162D01*
X595221Y384104D02*
X598454Y387337D01*
X680576Y94964D02*
Y99536D01*
X670924Y94964D02*
Y99536D01*
Y94964D02*
X680576D01*
X1043420Y143510D02*
Y156210D01*
X935470Y149860D02*
X948170D01*
X941820Y143510D02*
Y156210D01*
X450221Y314639D02*
X455609Y320027D01*
X457405Y307455D02*
X462793Y312843D01*
X407450Y509750D02*
X409550D01*
X383950D02*
X386050D01*
X407450Y466450D02*
X409550D01*
X383950D02*
X386050D01*
X383950D02*
Y509750D01*
X409550Y466450D02*
Y509750D01*
X141516Y68194D02*
Y77846D01*
X136944Y68194D02*
X141516D01*
X136944Y77846D02*
X141516D01*
X488540Y68580D02*
X496160D01*
X488540Y78740D02*
X496160D01*
X490474Y58166D02*
X495046D01*
X490474Y48514D02*
X495046D01*
Y58166D01*
X490474Y37846D02*
X495046D01*
X490474Y28194D02*
X495046D01*
Y37846D01*
X491744Y98806D02*
X496316D01*
X491744Y89154D02*
X496316D01*
Y98806D01*
X472273Y296012D02*
X475506Y299245D01*
X465448Y302837D02*
X468681Y306070D01*
X465448Y302837D02*
X472273Y296012D01*
X564798Y161225D02*
X568031Y164458D01*
X571623Y154401D02*
X574856Y157633D01*
X568031Y164458D02*
X574856Y157633D01*
X1012222Y33180D02*
Y53180D01*
X986840D02*
X1024840D01*
Y33180D02*
Y53180D01*
X986840Y33180D02*
X1024840D01*
X986840D02*
Y53180D01*
X961422Y33180D02*
Y53180D01*
X936040D02*
X974040D01*
Y33180D02*
Y53180D01*
X936040Y33180D02*
X974040D01*
X936040D02*
Y53180D01*
X910622Y33180D02*
Y53180D01*
X885240D02*
X923240D01*
Y33180D02*
Y53180D01*
X885240Y33180D02*
X923240D01*
X885240D02*
Y53180D01*
X859822Y33180D02*
Y53180D01*
X834440D02*
X872440D01*
Y33180D02*
Y53180D01*
X834440Y33180D02*
X872440D01*
X834440D02*
Y53180D01*
X809022Y33180D02*
Y53180D01*
X783640D02*
X821640D01*
Y33180D02*
Y53180D01*
X783640Y33180D02*
X821640D01*
X783640D02*
Y53180D01*
X640200Y498350D02*
X642300D01*
X663700D02*
X665800D01*
X640200Y541650D02*
X642300D01*
X663700D02*
X665800D01*
Y498350D02*
Y541650D01*
X640200Y498350D02*
Y541650D01*
D13*
X397750Y528100D02*
G03*
X397750Y528100I-1000J0D01*
G01*
X654000Y480000D02*
G03*
X654000Y480000I-1000J0D01*
G01*
X418590Y43980D02*
Y80480D01*
X450090D01*
Y43980D02*
Y80480D01*
X418590Y43980D02*
X450090D01*
X501936Y375235D02*
X514311Y362861D01*
X489802Y363177D02*
X502177Y350802D01*
X511286Y284480D02*
X569976Y343170D01*
Y225790D02*
X628666Y284480D01*
X569976Y343170D02*
X628666Y284480D01*
X511286D02*
X569976Y225790D01*
X638138Y390513D02*
X652692Y405066D01*
X650512Y378138D02*
X665066Y392692D01*
X664711Y245500D02*
X684833D01*
X664711Y262500D02*
X684833D01*
X707500Y534750D02*
Y542750D01*
X716250D01*
X738500Y534750D02*
Y542750D01*
X729750D02*
X738500D01*
X167660Y493740D02*
Y553240D01*
X360660Y493740D02*
Y553240D01*
X167660Y366240D02*
Y425740D01*
X360660Y366240D02*
Y425740D01*
X167660Y553240D02*
X360660D01*
X167660Y366240D02*
X360660D01*
X604000Y511750D02*
Y519750D01*
X628000Y511750D02*
Y519750D01*
X84341Y287760D02*
Y316760D01*
X83299Y287760D02*
X84341D01*
X83299D02*
Y316760D01*
X84341D01*
X359855Y48127D02*
X380437D01*
X359855Y30627D02*
X380437D01*
X821436Y329184D02*
Y331184D01*
X811784Y329184D02*
Y331184D01*
X15240Y323088D02*
X53340D01*
Y246888D02*
Y323088D01*
X15240Y246888D02*
Y323088D01*
Y246888D02*
X53340D01*
X360549Y79870D02*
X381131D01*
X360549Y62370D02*
X381131D01*
X194452Y30268D02*
X200772D01*
X194452Y80268D02*
X200772D01*
X1028750Y271500D02*
X1032250D01*
Y285750D02*
Y288500D01*
Y271500D02*
Y274250D01*
X1028750Y288500D02*
X1032250D01*
X861202Y185408D02*
Y187408D01*
X870854Y185408D02*
Y187408D01*
X643780Y25800D02*
X661780D01*
X643780Y75800D02*
X661780D01*
Y25800D02*
Y75800D01*
X643780Y25800D02*
Y75800D01*
X941830Y333820D02*
X973082D01*
Y341820D01*
X941830D02*
X973082D01*
X941830Y339320D02*
Y341820D01*
Y333820D02*
Y339070D01*
X937006Y404114D02*
Y406114D01*
X927354Y404114D02*
Y406114D01*
Y334296D02*
Y336296D01*
X937006Y334296D02*
Y336296D01*
X957866Y371856D02*
X959866D01*
X957866Y362204D02*
X959866D01*
X957834Y377444D02*
X959834D01*
X957834Y387096D02*
X959834D01*
X942078Y415480D02*
X973330D01*
X942078Y407480D02*
Y415480D01*
Y407480D02*
X973330D01*
Y409980D01*
Y410230D02*
Y415480D01*
X829048D02*
X860300D01*
X829048Y407480D02*
Y415480D01*
Y407480D02*
X860300D01*
Y409980D01*
Y410230D02*
Y415480D01*
X827530Y333820D02*
X858782D01*
Y341820D01*
X827530D02*
X858782D01*
X827530Y339320D02*
Y341820D01*
Y333820D02*
Y339070D01*
X843236Y371856D02*
X845236D01*
X843236Y362204D02*
X845236D01*
X843534Y377444D02*
X845534D01*
X843534Y387096D02*
X845534D01*
X553723Y157305D02*
X567951Y171533D01*
X541703Y169326D02*
X555930Y183554D01*
X480512Y173916D02*
X495065Y188470D01*
X492886Y161542D02*
X507440Y176096D01*
X903048Y170642D02*
Y201894D01*
X895048D02*
X903048D01*
X895048Y170642D02*
Y201894D01*
Y170642D02*
X897548D01*
X897798D02*
X903048D01*
X70269Y266052D02*
X90851D01*
X70269Y283552D02*
X90851D01*
X479609Y543930D02*
X495690D01*
X479609Y494930D02*
X495690D01*
X394000Y402500D02*
X408000D01*
X394000Y429500D02*
X408000D01*
X393000Y368500D02*
X407000D01*
X393000Y395500D02*
X407000D01*
X11510Y124660D02*
Y149660D01*
X26010D01*
X11510Y124660D02*
X26010D01*
Y100660D02*
Y124660D01*
Y149660D02*
Y173660D01*
Y100660D02*
X36960D01*
X26010Y173660D02*
X36960D01*
X85010Y115910D02*
Y158410D01*
D14*
X574096Y409484D02*
X581167Y416555D01*
X585232Y398349D02*
X592303Y405420D01*
X661874Y98580D02*
Y108580D01*
X646126Y98580D02*
Y108580D01*
X435596Y234979D02*
X442667Y242050D01*
X446731Y223844D02*
X453802Y230915D01*
X27940Y377190D02*
Y481076D01*
X14478Y481330D02*
X117094D01*
X14478Y377190D02*
Y481330D01*
Y377190D02*
X117094D01*
Y481330D01*
X143050Y35300D02*
Y45300D01*
X127302Y35300D02*
Y45300D01*
X286000Y285000D02*
Y309000D01*
Y333000D02*
Y357000D01*
X358000Y299850D02*
Y309000D01*
X343150Y285000D02*
X358000Y299850D01*
X286000Y285000D02*
X343150D01*
X358000Y333000D02*
Y342150D01*
X343150Y357000D02*
X358000Y342150D01*
X286000Y357000D02*
X343150D01*
X784860Y543306D02*
X888746D01*
X889000Y454152D02*
Y556768D01*
X784860D02*
X889000D01*
X784860Y454152D02*
Y556768D01*
Y454152D02*
X889000D01*
X900430Y543560D02*
X1004316D01*
X1004570Y454406D02*
Y557022D01*
X900430D02*
X1004570D01*
X900430Y454406D02*
Y557022D01*
Y454406D02*
X1004570D01*
X484172Y448402D02*
X481632Y445863D01*
Y440784D01*
X484172Y438245D01*
X494328D01*
X496867Y440784D01*
Y445863D01*
X494328Y448402D01*
X496867Y453480D02*
Y458559D01*
Y456020D01*
X481632D01*
X484172Y453480D01*
X496867Y466176D02*
Y471255D01*
Y468716D01*
X481632D01*
X484172Y466176D01*
X654053Y320037D02*
Y307342D01*
X656592Y304802D01*
X661671D01*
X664210Y307342D01*
Y320037D01*
X669288Y304802D02*
X674367D01*
X671828D01*
Y320037D01*
X669288Y317498D01*
X625382Y85304D02*
X640618D01*
Y95461D01*
X625382Y100539D02*
Y110696D01*
X627922D01*
X638078Y100539D01*
X640618D01*
X687922Y95843D02*
X685382Y93304D01*
Y88226D01*
X687922Y85687D01*
X698078D01*
X700618Y88226D01*
Y93304D01*
X698078Y95843D01*
X700618Y111078D02*
Y100922D01*
X690461Y111078D01*
X687922D01*
X685382Y108539D01*
Y103461D01*
X687922Y100922D01*
X700618Y126313D02*
Y116157D01*
X690461Y126313D01*
X687922D01*
X685382Y123774D01*
Y118696D01*
X687922Y116157D01*
X840744Y81283D02*
Y96517D01*
X848362D01*
X850901Y93978D01*
Y88900D01*
X848362Y86361D01*
X840744D01*
X845823D02*
X850901Y81283D01*
X855979Y93978D02*
X858518Y96517D01*
X863597D01*
X866136Y93978D01*
Y91439D01*
X863597Y88900D01*
X861058D01*
X863597D01*
X866136Y86361D01*
Y83822D01*
X863597Y81283D01*
X858518D01*
X855979Y83822D01*
X911862Y114306D02*
X927097D01*
Y124462D01*
X914402Y139698D02*
X911862Y137158D01*
Y132080D01*
X914402Y129541D01*
X916941D01*
X919480Y132080D01*
Y137158D01*
X922019Y139698D01*
X924558D01*
X927097Y137158D01*
Y132080D01*
X924558Y129541D01*
X927097Y144776D02*
Y149854D01*
Y147315D01*
X911862D01*
X914402Y144776D01*
X106309Y27934D02*
X121544D01*
Y38091D01*
X106309Y53326D02*
Y43169D01*
X113926D01*
X111387Y48248D01*
Y50787D01*
X113926Y53326D01*
X119005D01*
X121544Y50787D01*
Y45708D01*
X119005Y43169D01*
X136789Y96708D02*
X134250Y99248D01*
X129172D01*
X126633Y96708D01*
Y86552D01*
X129172Y84013D01*
X134250D01*
X136789Y86552D01*
X141868Y84013D02*
X146946D01*
X144407D01*
Y99248D01*
X141868Y96708D01*
X154564D02*
X157103Y99248D01*
X162181D01*
X164720Y96708D01*
Y94169D01*
X162181Y91630D01*
X164720Y89091D01*
Y86552D01*
X162181Y84013D01*
X157103D01*
X154564Y86552D01*
Y89091D01*
X157103Y91630D01*
X154564Y94169D01*
Y96708D01*
X157103Y91630D02*
X162181D01*
X183804Y25117D02*
Y12422D01*
X186343Y9883D01*
X191422D01*
X193961Y12422D01*
Y25117D01*
X209196D02*
X199039D01*
Y17500D01*
X204118Y20039D01*
X206657D01*
X209196Y17500D01*
Y12422D01*
X206657Y9883D01*
X201578D01*
X199039Y12422D01*
X710304Y505617D02*
Y492922D01*
X712843Y490382D01*
X717922D01*
X720461Y492922D01*
Y505617D01*
X725539D02*
X735696D01*
Y503078D01*
X725539Y492922D01*
Y490382D01*
X850898Y173997D02*
X835662D01*
Y181614D01*
X838202Y184153D01*
X843280D01*
X845819Y181614D01*
Y173997D01*
Y179075D02*
X850898Y184153D01*
Y199388D02*
Y189232D01*
X840741Y199388D01*
X838202D01*
X835662Y196849D01*
Y191771D01*
X838202Y189232D01*
X835662Y214623D02*
X838202Y209545D01*
X843280Y204467D01*
X848358D01*
X850898Y207006D01*
Y212084D01*
X848358Y214623D01*
X845819D01*
X843280Y212084D01*
Y204467D01*
X891541Y213362D02*
Y223518D01*
X889002Y226057D01*
X883923D01*
X881384Y223518D01*
Y213362D01*
X883923Y210823D01*
X889002D01*
X886462Y215901D02*
X891541Y210823D01*
X889002D02*
X891541Y213362D01*
X906776Y226057D02*
X896619D01*
Y218440D01*
X901697Y220979D01*
X904237D01*
X906776Y218440D01*
Y213362D01*
X904237Y210823D01*
X899158D01*
X896619Y213362D01*
X979177Y358143D02*
Y373377D01*
X986794D01*
X989333Y370838D01*
Y365760D01*
X986794Y363221D01*
X979177D01*
X984255D02*
X989333Y358143D01*
X1004568D02*
X994412D01*
X1004568Y368299D01*
Y370838D01*
X1002029Y373377D01*
X996951D01*
X994412Y370838D01*
X1009647D02*
X1012186Y373377D01*
X1017264D01*
X1019803Y370838D01*
Y368299D01*
X1017264Y365760D01*
X1014725D01*
X1017264D01*
X1019803Y363221D01*
Y360682D01*
X1017264Y358143D01*
X1012186D01*
X1009647Y360682D01*
X922018Y397517D02*
X906782D01*
Y405134D01*
X909322Y407673D01*
X914400D01*
X916939Y405134D01*
Y397517D01*
Y402595D02*
X922018Y407673D01*
Y422908D02*
Y412752D01*
X911861Y422908D01*
X909322D01*
X906782Y420369D01*
Y415291D01*
X909322Y412752D01*
X922018Y438143D02*
Y427987D01*
X911861Y438143D01*
X909322D01*
X906782Y435604D01*
Y430526D01*
X909322Y427987D01*
X979176Y378462D02*
Y393698D01*
X986793D01*
X989333Y391158D01*
Y386080D01*
X986793Y383541D01*
X979176D01*
X984254D02*
X989333Y378462D01*
X1004568D02*
X994411D01*
X1004568Y388619D01*
Y391158D01*
X1002028Y393698D01*
X996950D01*
X994411Y391158D01*
X1009646Y378462D02*
X1014724D01*
X1012185D01*
Y393698D01*
X1009646Y391158D01*
X922018Y322587D02*
X906783D01*
Y330204D01*
X909322Y332743D01*
X914400D01*
X916939Y330204D01*
Y322587D01*
Y327665D02*
X922018Y332743D01*
Y347978D02*
Y337822D01*
X911861Y347978D01*
X909322D01*
X906783Y345439D01*
Y340361D01*
X909322Y337822D01*
Y353057D02*
X906783Y355596D01*
Y360674D01*
X909322Y363213D01*
X919478D01*
X922018Y360674D01*
Y355596D01*
X919478Y353057D01*
X909322D01*
X786136Y358143D02*
Y373377D01*
X793754D01*
X796293Y370838D01*
Y365760D01*
X793754Y363221D01*
X786136D01*
X791215D02*
X796293Y358143D01*
X801371D02*
X806450D01*
X803910D01*
Y373377D01*
X801371Y370838D01*
X814067Y360682D02*
X816606Y358143D01*
X821685D01*
X824224Y360682D01*
Y370838D01*
X821685Y373377D01*
X816606D01*
X814067Y370838D01*
Y368299D01*
X816606Y365760D01*
X824224D01*
X786956Y378382D02*
Y393618D01*
X794574D01*
X797113Y391078D01*
Y386000D01*
X794574Y383461D01*
X786956D01*
X792035D02*
X797113Y378382D01*
X802191D02*
X807270D01*
X804730D01*
Y393618D01*
X802191Y391078D01*
X814887Y393618D02*
X825044D01*
Y391078D01*
X814887Y380922D01*
Y378382D01*
X800618Y305956D02*
X785383D01*
Y313574D01*
X787922Y316113D01*
X793000D01*
X795539Y313574D01*
Y305956D01*
Y311035D02*
X800618Y316113D01*
Y321191D02*
Y326270D01*
Y323730D01*
X785383D01*
X787922Y321191D01*
X785383Y344044D02*
X787922Y338965D01*
X793000Y333887D01*
X798078D01*
X800618Y336426D01*
Y341505D01*
X798078Y344044D01*
X795539D01*
X793000Y341505D01*
Y333887D01*
X956311Y302262D02*
Y312418D01*
X953772Y314958D01*
X948693D01*
X946154Y312418D01*
Y302262D01*
X948693Y299722D01*
X953772D01*
X951233Y304801D02*
X956311Y299722D01*
X953772D02*
X956311Y302262D01*
X969007Y299722D02*
Y314958D01*
X961389Y307340D01*
X971546D01*
X955041Y436432D02*
Y446588D01*
X952502Y449128D01*
X947423D01*
X944884Y446588D01*
Y436432D01*
X947423Y433893D01*
X952502D01*
X949962Y438971D02*
X955041Y433893D01*
X952502D02*
X955041Y436432D01*
X960119Y446588D02*
X962658Y449128D01*
X967737D01*
X970276Y446588D01*
Y444049D01*
X967737Y441510D01*
X965198D01*
X967737D01*
X970276Y438971D01*
Y436432D01*
X967737Y433893D01*
X962658D01*
X960119Y436432D01*
X840741Y303532D02*
Y313688D01*
X838202Y316227D01*
X833123D01*
X830584Y313688D01*
Y303532D01*
X833123Y300993D01*
X838202D01*
X835663Y306071D02*
X840741Y300993D01*
X838202D02*
X840741Y303532D01*
X855976Y300993D02*
X845819D01*
X855976Y311149D01*
Y313688D01*
X853437Y316227D01*
X848358D01*
X845819Y313688D01*
X842010Y436882D02*
Y447038D01*
X839471Y449577D01*
X834392D01*
X831853Y447038D01*
Y436882D01*
X834392Y434342D01*
X839471D01*
X836932Y439421D02*
X842010Y434342D01*
X839471D02*
X842010Y436882D01*
X847088Y434342D02*
X852167D01*
X849628D01*
Y449577D01*
X847088Y447038D01*
X416632Y455554D02*
X431867D01*
Y463172D01*
X429328Y465711D01*
X419172D01*
X416632Y463172D01*
Y455554D01*
Y470789D02*
Y480946D01*
X419172D01*
X429328Y470789D01*
X431867D01*
X672383Y489304D02*
X687617D01*
Y496922D01*
X685078Y499461D01*
X674922D01*
X672383Y496922D01*
Y489304D01*
Y514696D02*
X674922Y509618D01*
X680000Y504539D01*
X685078D01*
X687617Y507078D01*
Y512157D01*
X685078Y514696D01*
X682539D01*
X680000Y512157D01*
Y504539D01*
X513083Y426717D02*
Y424178D01*
X518162Y419100D01*
X523240Y424178D01*
Y426717D01*
X518162Y419100D02*
Y411483D01*
X528318D02*
X533397D01*
X530858D01*
Y426717D01*
X528318Y424178D01*
X511804Y80367D02*
Y65132D01*
X521961D01*
X537196Y80367D02*
X532118Y77828D01*
X527039Y72750D01*
Y67672D01*
X529578Y65132D01*
X534657D01*
X537196Y67672D01*
Y70211D01*
X534657Y72750D01*
X527039D01*
X591636Y430409D02*
X602409Y419636D01*
X609591Y426818D01*
X618568Y435795D02*
X607795Y446568D01*
Y435795D01*
X614977Y442977D01*
X406392Y205413D02*
X417164Y194640D01*
X424346Y201822D01*
X418960Y214390D02*
Y217981D01*
X422551Y221572D01*
X426142D01*
X427937Y219777D01*
Y216186D01*
X426142Y214390D01*
X427937Y216186D01*
X431528D01*
X433324Y214390D01*
Y210799D01*
X429733Y207208D01*
X426142D01*
X420534Y294891D02*
X431307Y284119D01*
X438489Y291301D01*
X442080Y294891D02*
X445671Y298482D01*
X443876Y296687D01*
X433103Y307460D01*
Y303869D01*
X906285Y582433D02*
X901206D01*
X903745D01*
Y569737D01*
X901206Y567198D01*
X898667D01*
X896128Y569737D01*
X921520Y582433D02*
X911363D01*
Y574815D01*
X916441Y577355D01*
X918981D01*
X921520Y574815D01*
Y569737D01*
X918981Y567198D01*
X913902D01*
X911363Y569737D01*
X102461Y502617D02*
X97382D01*
X99922D01*
Y489922D01*
X97382Y487383D01*
X94843D01*
X92304Y489922D01*
X115157Y487383D02*
Y502617D01*
X107539Y495000D01*
X117696D01*
X790715Y582179D02*
X785636D01*
X788176D01*
Y569483D01*
X785636Y566944D01*
X783097D01*
X780558Y569483D01*
X795793Y579640D02*
X798332Y582179D01*
X803411D01*
X805950Y579640D01*
Y577101D01*
X803411Y574562D01*
X800871D01*
X803411D01*
X805950Y572022D01*
Y569483D01*
X803411Y566944D01*
X798332D01*
X795793Y569483D01*
X25401Y347977D02*
X20322D01*
X22862D01*
Y335282D01*
X20322Y332743D01*
X17783D01*
X15244Y335282D01*
X40636Y332743D02*
X30479D01*
X40636Y342899D01*
Y345438D01*
X38097Y347977D01*
X33018D01*
X30479Y345438D01*
X993584Y27938D02*
Y12702D01*
X1001202D01*
X1003741Y15242D01*
Y25398D01*
X1001202Y27938D01*
X993584D01*
X1018976D02*
X1008819D01*
Y20320D01*
X1013897Y22859D01*
X1016437D01*
X1018976Y20320D01*
Y15242D01*
X1016437Y12702D01*
X1011358D01*
X1008819Y15242D01*
X942784Y27938D02*
Y12702D01*
X950402D01*
X952941Y15242D01*
Y25398D01*
X950402Y27938D01*
X942784D01*
X965637Y12702D02*
Y27938D01*
X958019Y20320D01*
X968176D01*
X891984Y27938D02*
Y12702D01*
X899602D01*
X902141Y15242D01*
Y25398D01*
X899602Y27938D01*
X891984D01*
X907219Y25398D02*
X909758Y27938D01*
X914837D01*
X917376Y25398D01*
Y22859D01*
X914837Y20320D01*
X912298D01*
X914837D01*
X917376Y17781D01*
Y15242D01*
X914837Y12702D01*
X909758D01*
X907219Y15242D01*
X840744Y27938D02*
Y12702D01*
X848362D01*
X850901Y15242D01*
Y25398D01*
X848362Y27938D01*
X840744D01*
X866136Y12702D02*
X855979D01*
X866136Y22859D01*
Y25398D01*
X863597Y27938D01*
X858518D01*
X855979Y25398D01*
X792483Y27938D02*
Y12702D01*
X800101D01*
X802640Y15242D01*
Y25398D01*
X800101Y27938D01*
X792483D01*
X807718Y12702D02*
X812797D01*
X810258D01*
Y27938D01*
X807718Y25398D01*
X538633Y57328D02*
X536093Y59868D01*
X531015D01*
X528476Y57328D01*
Y47172D01*
X531015Y44633D01*
X536093D01*
X538633Y47172D01*
X553868Y44633D02*
X543711D01*
X553868Y54789D01*
Y57328D01*
X551328Y59868D01*
X546250D01*
X543711Y57328D01*
X558946Y44633D02*
X564024D01*
X561485D01*
Y59868D01*
X558946Y57328D01*
X537843Y35078D02*
X535304Y37617D01*
X530226D01*
X527687Y35078D01*
Y24922D01*
X530226Y22383D01*
X535304D01*
X537843Y24922D01*
X553078Y22383D02*
X542922D01*
X553078Y32539D01*
Y35078D01*
X550539Y37617D01*
X545461D01*
X542922Y35078D01*
X558157D02*
X560696Y37617D01*
X565774D01*
X568313Y35078D01*
Y24922D01*
X565774Y22383D01*
X560696D01*
X558157Y24922D01*
Y35078D01*
X520703Y99058D02*
X518164Y101597D01*
X513085D01*
X510546Y99058D01*
Y88902D01*
X513085Y86362D01*
X518164D01*
X520703Y88902D01*
X525781Y86362D02*
X530860D01*
X528320D01*
Y101597D01*
X525781Y99058D01*
X538477Y88902D02*
X541016Y86362D01*
X546095D01*
X548634Y88902D01*
Y99058D01*
X546095Y101597D01*
X541016D01*
X538477Y99058D01*
Y96519D01*
X541016Y93980D01*
X548634D01*
X616125Y420307D02*
X612534D01*
X608943Y416716D01*
Y413125D01*
X616125Y405943D01*
X619716D01*
X623307Y409534D01*
Y413125D01*
X628693Y414920D02*
X632284Y418511D01*
X630489Y416716D01*
X619716Y427489D01*
Y423898D01*
X634080Y441852D02*
X626898Y434671D01*
X632284Y429284D01*
X634080Y434671D01*
X635875Y436466D01*
X639466D01*
X643057Y432875D01*
Y429284D01*
X639466Y425693D01*
X635875D01*
X710113Y281078D02*
X707574Y283617D01*
X702495D01*
X699956Y281078D01*
Y270922D01*
X702495Y268382D01*
X707574D01*
X710113Y270922D01*
X715191Y268382D02*
X720270D01*
X717730D01*
Y283617D01*
X715191Y281078D01*
X735505Y268382D02*
Y283617D01*
X727887Y276000D01*
X738044D01*
X536452Y130486D02*
X532861D01*
X529270Y126895D01*
Y123304D01*
X536452Y116122D01*
X540043D01*
X543634Y119713D01*
Y123304D01*
X549020Y125100D02*
X552611Y128691D01*
X550816Y126895D01*
X540043Y137668D01*
Y134077D01*
X549020Y143054D02*
Y146645D01*
X552611Y150236D01*
X556202D01*
X557998Y148441D01*
Y144850D01*
X556202Y143054D01*
X557998Y144850D01*
X561589D01*
X563384Y143054D01*
Y139463D01*
X559793Y135872D01*
X556202D01*
X429934Y195847D02*
X426343D01*
X422752Y192256D01*
Y188665D01*
X429934Y181483D01*
X433525D01*
X437116Y185074D01*
Y188665D01*
X442502Y190460D02*
X446093Y194051D01*
X444298Y192256D01*
X433525Y203029D01*
Y199438D01*
X458662Y206619D02*
X451480Y199438D01*
Y213801D01*
X449684Y215597D01*
X446093D01*
X442502Y212006D01*
Y208415D01*
X254461Y355078D02*
X251922Y357617D01*
X246843D01*
X244304Y355078D01*
Y344922D01*
X246843Y342383D01*
X251922D01*
X254461Y344922D01*
X259539Y355078D02*
X262078Y357617D01*
X267157D01*
X269696Y355078D01*
Y352539D01*
X267157Y350000D01*
X269696Y347461D01*
Y344922D01*
X267157Y342383D01*
X262078D01*
X259539Y344922D01*
Y347461D01*
X262078Y350000D01*
X259539Y352539D01*
Y355078D01*
X262078Y350000D02*
X267157D01*
X444771Y282517D02*
X441180D01*
X437589Y278926D01*
Y275335D01*
X444771Y268153D01*
X448362D01*
X451952Y271744D01*
Y275335D01*
X446566Y287903D02*
X453748Y295085D01*
X455543Y293290D01*
X455543Y278926D01*
X457339Y277130D01*
X406304Y33117D02*
Y20422D01*
X408843Y17882D01*
X413922D01*
X416461Y20422D01*
Y33117D01*
X431696D02*
X426618Y30578D01*
X421539Y25500D01*
Y20422D01*
X424078Y17882D01*
X429157D01*
X431696Y20422D01*
Y22961D01*
X429157Y25500D01*
X421539D01*
X694304Y28617D02*
Y15922D01*
X696843Y13383D01*
X701922D01*
X704461Y15922D01*
Y28617D01*
X717157Y13383D02*
Y28617D01*
X709539Y21000D01*
X719696D01*
X445774Y485137D02*
Y472442D01*
X448313Y469902D01*
X453392D01*
X455931Y472442D01*
Y485137D01*
X461009Y482598D02*
X463548Y485137D01*
X468627D01*
X471166Y482598D01*
Y480059D01*
X468627Y477520D01*
X466087D01*
X468627D01*
X471166Y474981D01*
Y472442D01*
X468627Y469902D01*
X463548D01*
X461009Y472442D01*
X106912Y309878D02*
Y297182D01*
X109452Y294643D01*
X114530D01*
X117069Y297182D01*
Y309878D01*
X132304Y294643D02*
X122148D01*
X132304Y304799D01*
Y307339D01*
X129765Y309878D01*
X124687D01*
X122148Y307339D01*
X102882Y125578D02*
X100343Y128118D01*
X95265D01*
X92726Y125578D01*
Y123039D01*
X95265Y120500D01*
X100343D01*
X102882Y117961D01*
Y115422D01*
X100343Y112882D01*
X95265D01*
X92726Y115422D01*
X107961Y128118D02*
Y112882D01*
X113039Y117961D01*
X118118Y112882D01*
Y128118D01*
X123196Y112882D02*
X128274D01*
X125735D01*
Y128118D01*
X123196Y125578D01*
X313538Y63502D02*
Y78738D01*
X321156D01*
X323695Y76198D01*
Y71120D01*
X321156Y68581D01*
X313538D01*
X318616D02*
X323695Y63502D01*
X338930D02*
X328773D01*
X338930Y73659D01*
Y76198D01*
X336391Y78738D01*
X331312D01*
X328773Y76198D01*
X354165Y78738D02*
X344008D01*
Y71120D01*
X349086Y73659D01*
X351626D01*
X354165Y71120D01*
Y66042D01*
X351626Y63502D01*
X346547D01*
X344008Y66042D01*
X313002Y31760D02*
Y46995D01*
X320620D01*
X323159Y44456D01*
Y39377D01*
X320620Y36838D01*
X313002D01*
X318081D02*
X323159Y31760D01*
X338394D02*
X328238D01*
X338394Y41916D01*
Y44456D01*
X335855Y46995D01*
X330777D01*
X328238Y44456D01*
X351090Y31760D02*
Y46995D01*
X343473Y39377D01*
X353629D01*
X807718Y400056D02*
X792483D01*
Y407674D01*
X795022Y410213D01*
X800100D01*
X802639Y407674D01*
Y400056D01*
Y405135D02*
X807718Y410213D01*
Y415291D02*
Y420370D01*
Y417830D01*
X792483D01*
X795022Y415291D01*
Y427987D02*
X792483Y430526D01*
Y435605D01*
X795022Y438144D01*
X797561D01*
X800100Y435605D01*
X802639Y438144D01*
X805178D01*
X807718Y435605D01*
Y430526D01*
X805178Y427987D01*
X802639D01*
X800100Y430526D01*
X797561Y427987D01*
X795022D01*
X800100Y430526D02*
Y435605D01*
X576118Y460256D02*
X560882D01*
Y467874D01*
X563422Y470413D01*
X568500D01*
X571039Y467874D01*
Y460256D01*
Y465335D02*
X576118Y470413D01*
Y475491D02*
Y480570D01*
Y478030D01*
X560882D01*
X563422Y475491D01*
X560882Y498344D02*
Y488187D01*
X568500D01*
X565961Y493265D01*
Y495805D01*
X568500Y498344D01*
X573578D01*
X576118Y495805D01*
Y490726D01*
X573578Y488187D01*
X596387Y460006D02*
X581152D01*
Y467624D01*
X583692Y470163D01*
X588770D01*
X591309Y467624D01*
Y460006D01*
Y465084D02*
X596387Y470163D01*
Y475241D02*
Y480320D01*
Y477780D01*
X581152D01*
X583692Y475241D01*
X596387Y495555D02*
X581152D01*
X588770Y487937D01*
Y498094D01*
X553387Y460256D02*
X538152D01*
Y467874D01*
X540692Y470413D01*
X545770D01*
X548309Y467874D01*
Y460256D01*
Y465335D02*
X553387Y470413D01*
Y475491D02*
Y480570D01*
Y478030D01*
X538152D01*
X540692Y475491D01*
Y488187D02*
X538152Y490726D01*
Y495805D01*
X540692Y498344D01*
X543231D01*
X545770Y495805D01*
Y493265D01*
Y495805D01*
X548309Y498344D01*
X550848D01*
X553387Y495805D01*
Y490726D01*
X550848Y488187D01*
X986796Y78742D02*
Y93977D01*
X994414D01*
X996953Y91438D01*
Y86360D01*
X994414Y83821D01*
X986796D01*
X991874D02*
X996953Y78742D01*
X1002031D02*
X1007110D01*
X1004570D01*
Y93977D01*
X1002031Y91438D01*
X1024884Y78742D02*
X1014727D01*
X1024884Y88899D01*
Y91438D01*
X1022345Y93977D01*
X1017266D01*
X1014727Y91438D01*
X467943Y357284D02*
X478716Y368057D01*
X484102Y362671D01*
Y359080D01*
X480511Y355489D01*
X476920D01*
X471534Y360875D01*
X475125Y357284D02*
Y350102D01*
X478716Y346511D02*
X482307Y342920D01*
X480511Y344716D01*
X491284Y355489D01*
X487693D01*
Y337534D02*
X491284Y333943D01*
X489489Y335738D01*
X500261Y346511D01*
X496671D01*
X630730Y332938D02*
X619958Y343710D01*
X625344Y349097D01*
X628935D01*
X632526Y345506D01*
Y341915D01*
X627140Y336529D01*
X630730Y340119D02*
X637912D01*
X641503Y343710D02*
X645094Y347301D01*
X643299Y345506D01*
X632526Y356279D01*
Y352688D01*
X641503Y361665D02*
Y365256D01*
X645094Y368847D01*
X648685D01*
X655867Y361665D01*
Y358074D01*
X652276Y354483D01*
X648685D01*
X641503Y361665D01*
X527269Y167246D02*
X516496Y178019D01*
X521883Y183405D01*
X525474D01*
X529064Y179814D01*
Y176224D01*
X523678Y170837D01*
X527269Y174428D02*
X534451D01*
X536246Y179814D02*
X539837D01*
X543428Y183405D01*
Y186996D01*
X536246Y194178D01*
X532655D01*
X529064Y190587D01*
Y186996D01*
X530860Y185201D01*
X534451D01*
X539837Y190587D01*
X62118Y330804D02*
X46883D01*
Y338422D01*
X49422Y340961D01*
X54500D01*
X57039Y338422D01*
Y330804D01*
Y335882D02*
X62118Y340961D01*
X49422Y346039D02*
X46883Y348578D01*
Y353657D01*
X49422Y356196D01*
X51961D01*
X54500Y353657D01*
X57039Y356196D01*
X59578D01*
X62118Y353657D01*
Y348578D01*
X59578Y346039D01*
X57039D01*
X54500Y348578D01*
X51961Y346039D01*
X49422D01*
X54500Y348578D02*
Y353657D01*
X942344Y81283D02*
Y96517D01*
X949962D01*
X952501Y93978D01*
Y88900D01*
X949962Y86361D01*
X942344D01*
X947422D02*
X952501Y81283D01*
X957579Y96517D02*
X967736D01*
Y93978D01*
X957579Y83822D01*
Y81283D01*
X505885Y146392D02*
X495112Y157165D01*
X500498Y162551D01*
X504089D01*
X507680Y158960D01*
Y155369D01*
X502294Y149983D01*
X505885Y153574D02*
X513067D01*
Y175120D02*
X511271Y169733D01*
Y162551D01*
X514862Y158960D01*
X518453D01*
X522044Y162551D01*
Y166142D01*
X520248Y167938D01*
X516658D01*
X511271Y162551D01*
X664409Y364386D02*
X653636Y375159D01*
X659023Y380546D01*
X662614D01*
X666205Y376954D01*
Y373364D01*
X660818Y367977D01*
X664409Y371568D02*
X671591D01*
Y393114D02*
X664409Y385932D01*
X669796Y380546D01*
X671591Y385932D01*
X673386Y387727D01*
X676977D01*
X680568Y384136D01*
Y380546D01*
X676977Y376954D01*
X673386D01*
X891544Y81283D02*
Y96517D01*
X899162D01*
X901701Y93978D01*
Y88900D01*
X899162Y86361D01*
X891544D01*
X896622D02*
X901701Y81283D01*
X914397D02*
Y96517D01*
X906779Y88900D01*
X916936D01*
X106684Y266702D02*
Y281938D01*
X114302D01*
X116841Y279398D01*
Y274320D01*
X114302Y271781D01*
X106684D01*
X111763D02*
X116841Y266702D01*
X132076D02*
X121919D01*
X132076Y276859D01*
Y279398D01*
X129537Y281938D01*
X124458D01*
X121919Y279398D01*
X792483Y81283D02*
Y96517D01*
X800101D01*
X802640Y93978D01*
Y88900D01*
X800101Y86361D01*
X792483D01*
X797562D02*
X802640Y81283D01*
X807718D02*
X812797D01*
X810258D01*
Y96517D01*
X807718Y93978D01*
X161304Y358618D02*
Y343382D01*
X171461D01*
X186696D02*
X176539D01*
X186696Y353539D01*
Y356078D01*
X184157Y358618D01*
X179078D01*
X176539Y356078D01*
X1119250Y234118D02*
X1114172D01*
X1116711D01*
Y221422D01*
X1114172Y218883D01*
X1111633D01*
X1109093Y221422D01*
X1124328Y218883D02*
X1129407D01*
X1126868D01*
Y234118D01*
X1124328Y231578D01*
X1016304Y309618D02*
Y294382D01*
X1023922D01*
X1026461Y296922D01*
Y307078D01*
X1023922Y309618D01*
X1016304D01*
X1031539Y307078D02*
X1034078Y309618D01*
X1039157D01*
X1041696Y307078D01*
Y304539D01*
X1039157Y302000D01*
X1041696Y299461D01*
Y296922D01*
X1039157Y294382D01*
X1034078D01*
X1031539Y296922D01*
Y299461D01*
X1034078Y302000D01*
X1031539Y304539D01*
Y307078D01*
X1034078Y302000D02*
X1039157D01*
X441113Y421078D02*
X438574Y423618D01*
X433495D01*
X430956Y421078D01*
Y410922D01*
X433495Y408382D01*
X438574D01*
X441113Y410922D01*
X446191Y408382D02*
X451270D01*
X448730D01*
Y423618D01*
X446191Y421078D01*
X458887Y423618D02*
X469044D01*
Y421078D01*
X458887Y410922D01*
Y408382D01*
X440113Y389078D02*
X437574Y391618D01*
X432495D01*
X429956Y389078D01*
Y378922D01*
X432495Y376382D01*
X437574D01*
X440113Y378922D01*
X445191Y376382D02*
X450270D01*
X447730D01*
Y391618D01*
X445191Y389078D01*
X468044Y391618D02*
X462966Y389078D01*
X457887Y384000D01*
Y378922D01*
X460426Y376382D01*
X465505D01*
X468044Y378922D01*
Y381461D01*
X465505Y384000D01*
X457887D01*
X609652Y463683D02*
X607113Y461144D01*
Y456065D01*
X609652Y453526D01*
X619808D01*
X622347Y456065D01*
Y461144D01*
X619808Y463683D01*
X622347Y468761D02*
Y473840D01*
Y471300D01*
X607113D01*
X609652Y468761D01*
Y481457D02*
X607113Y483996D01*
Y489075D01*
X609652Y491614D01*
X619808D01*
X622347Y489075D01*
Y483996D01*
X619808Y481457D01*
X609652D01*
X374922Y260441D02*
X372382Y257902D01*
Y252823D01*
X374922Y250284D01*
X385078D01*
X387617Y252823D01*
Y257902D01*
X385078Y260441D01*
Y265519D02*
X387617Y268058D01*
Y273137D01*
X385078Y275676D01*
X374922D01*
X372382Y273137D01*
Y268058D01*
X374922Y265519D01*
X377461D01*
X380000Y268058D01*
Y275676D01*
X109222Y345441D02*
X106683Y342902D01*
Y337823D01*
X109222Y335284D01*
X119378D01*
X121917Y337823D01*
Y342902D01*
X119378Y345441D01*
X106683Y360676D02*
X109222Y355597D01*
X114300Y350519D01*
X119378D01*
X121917Y353058D01*
Y358137D01*
X119378Y360676D01*
X116839D01*
X114300Y358137D01*
Y350519D01*
X556614Y421796D02*
X553023D01*
X549432Y418204D01*
Y414614D01*
X556614Y407432D01*
X560205D01*
X563796Y411023D01*
Y414614D01*
X565591Y434364D02*
X558409Y427182D01*
X563796Y421796D01*
X565591Y427182D01*
X567386Y428977D01*
X570977D01*
X574568Y425386D01*
Y421796D01*
X570977Y418204D01*
X567386D01*
X484834Y410736D02*
X481243D01*
X477652Y407145D01*
Y403554D01*
X484834Y396372D01*
X488425D01*
X492015Y399963D01*
Y403554D01*
X502788Y410736D02*
X492015Y421508D01*
Y410736D01*
X499197Y417917D01*
X116841Y256538D02*
X114302Y259077D01*
X109223D01*
X106684Y256538D01*
Y246382D01*
X109223Y243843D01*
X114302D01*
X116841Y246382D01*
X121919Y256538D02*
X124458Y259077D01*
X129537D01*
X132076Y256538D01*
Y253999D01*
X129537Y251460D01*
X126997D01*
X129537D01*
X132076Y248921D01*
Y246382D01*
X129537Y243843D01*
X124458D01*
X121919Y246382D01*
X529441Y152225D02*
X525850D01*
X522259Y148634D01*
Y145043D01*
X529441Y137861D01*
X533032D01*
X536623Y141452D01*
Y145043D01*
X549191Y154020D02*
X542009Y146838D01*
Y161202D01*
X540213Y162998D01*
X536623D01*
X533032Y159407D01*
Y155816D01*
X700544Y258078D02*
X698005Y260618D01*
X692926D01*
X690387Y258078D01*
Y247922D01*
X692926Y245382D01*
X698005D01*
X700544Y247922D01*
X705622Y245382D02*
X710701D01*
X708161D01*
Y260618D01*
X705622Y258078D01*
D15*
X1122090Y244480D02*
Y247480D01*
X1134090D01*
Y321480D01*
X1122090D02*
X1134090D01*
X1122090D02*
Y324480D01*
X1084090Y244480D02*
X1098590D01*
X1084090Y324480D02*
X1098590D01*
X1068090Y256980D02*
Y266480D01*
Y302480D02*
Y311980D01*
M02*
