G04*
G04 #@! TF.GenerationSoftware,Altium Limited,Altium Designer,22.9.1 (49)*
G04*
G04 Layer_Color=2752767*
%FSLAX44Y44*%
%MOMM*%
G71*
G04*
G04 #@! TF.SameCoordinates,A2259558-2793-4ACD-BA26-FD92625B8348*
G04*
G04*
G04 #@! TF.FilePolarity,Positive*
G04*
G01*
G75*
%ADD14C,0.2540*%
%ADD109C,0.3810*%
%ADD124C,0.0508*%
%ADD125C,0.4064*%
%ADD126C,0.3556*%
D14*
X-1003862Y1120987D02*
G03*
X-1003862Y1120987I-8467J0D01*
G01*
X-1007249Y892387D02*
G03*
X-1007249Y892387I-5080J0D01*
G01*
X-1003862D02*
G03*
X-1003862Y892387I-8467J0D01*
G01*
X-1017409Y1154007D02*
X-1007249D01*
Y1164167D01*
X-1017409D02*
X-1007249D01*
X-1017409Y1154007D02*
Y1164167D01*
X-1020796Y1150620D02*
X-1003862D01*
Y1167553D01*
X-1020796D02*
X-1003862D01*
X-1020796Y1150620D02*
Y1167553D01*
X-1012329Y1074420D02*
X-1003862Y1091353D01*
X-1020796D02*
X-1003862D01*
X-1020796D02*
X-1012329Y1074420D01*
X-1020796Y1036320D02*
X-1003862D01*
Y1053253D01*
X-1020796D02*
X-1003862D01*
X-1020796Y1036320D02*
Y1053253D01*
Y1006687D02*
X-1012329Y998220D01*
X-1003862Y1006687D01*
X-1012329Y1015153D02*
X-1003862Y1006687D01*
X-1020796D02*
X-1012329Y1015153D01*
X-1020796Y960120D02*
X-1012329Y964353D01*
X-1003862Y960120D01*
X-1008096Y968587D02*
X-1003862Y960120D01*
X-1008096Y968587D02*
X-1003862Y977053D01*
X-1012329Y972820D02*
X-1003862Y977053D01*
X-1020796D02*
X-1012329Y972820D01*
X-1020796Y977053D02*
X-1016562Y968587D01*
X-1020796Y960120D02*
X-1016562Y968587D01*
Y926254D02*
X-1012329Y922020D01*
X-1020796Y926254D02*
X-1016562D01*
X-1020796D02*
X-1016562Y930487D01*
X-1020796Y934720D02*
X-1016562Y930487D01*
X-1020796Y934720D02*
X-1016562D01*
X-1012329Y938953D01*
X-1008096Y934720D01*
X-1003862D01*
X-1008096Y930487D02*
X-1003862Y934720D01*
X-1008096Y930487D02*
X-1003862Y926254D01*
X-1008096D02*
X-1003862D01*
X-1012329Y922020D02*
X-1008096Y926254D01*
X-1020796Y845820D02*
Y850053D01*
X-1016562Y854287D01*
X-1020796Y858520D02*
X-1016562Y854287D01*
X-1020796Y858520D02*
Y862753D01*
X-1016562D01*
X-1012329Y858520D01*
X-1008096Y862753D01*
X-1003862D01*
Y858520D02*
Y862753D01*
X-1008096Y854287D02*
X-1003862Y858520D01*
X-1008096Y854287D02*
X-1003862Y850053D01*
Y845820D02*
Y850053D01*
X-1008096Y845820D02*
X-1003862D01*
X-1012329Y850053D02*
X-1008096Y845820D01*
X-1016562D02*
X-1012329Y850053D01*
X-1020796Y845820D02*
X-1016562D01*
X-1020796Y811954D02*
X-1016562D01*
X-1020796D02*
Y820420D01*
X-1016562D01*
Y824653D01*
X-1008096D01*
Y820420D02*
Y824653D01*
Y820420D02*
X-1003862D01*
Y811954D02*
Y820420D01*
X-1008096Y811954D02*
X-1003862D01*
X-1008096Y807720D02*
Y811954D01*
X-1016562Y807720D02*
X-1008096D01*
X-1016562D02*
Y811954D01*
X-1012329Y773007D02*
X-1007249Y783167D01*
X-1017409D02*
X-1007249D01*
X-1017409D02*
X-1012329Y773007D01*
Y769620D02*
X-1003862Y786553D01*
X-1020796D02*
X-1003862D01*
X-1020796D02*
X-1012329Y769620D01*
X2065502Y1158238D02*
X2075659D01*
Y1112520D02*
X2065502D01*
X2075659Y1122677D01*
Y1125216D01*
X2073120Y1127755D01*
X2068042D01*
X2065502Y1125216D01*
X2090894Y1127755D02*
X2080737D01*
Y1120138D01*
X2085816Y1122677D01*
X2088355D01*
X2090894Y1120138D01*
Y1115059D01*
X2088355Y1112520D01*
X2083277D01*
X2080737Y1115059D01*
X2095972Y1112520D02*
Y1115059D01*
X2098512D01*
Y1112520D01*
X2095972D01*
X2118825Y1127755D02*
X2108668D01*
Y1120138D01*
X2113747Y1122677D01*
X2116286D01*
X2118825Y1120138D01*
Y1115059D01*
X2116286Y1112520D01*
X2111208D01*
X2108668Y1115059D01*
X2123903D02*
X2126443Y1112520D01*
X2131521D01*
X2134060Y1115059D01*
Y1125216D01*
X2131521Y1127755D01*
X2126443D01*
X2123903Y1125216D01*
Y1122677D01*
X2126443Y1120138D01*
X2134060D01*
X2139138Y1112520D02*
Y1122677D01*
X2141678D01*
X2144217Y1120138D01*
Y1112520D01*
Y1120138D01*
X2146756Y1122677D01*
X2149295Y1120138D01*
Y1112520D01*
X2154374D02*
X2159452D01*
X2156913D01*
Y1122677D01*
X2154374D01*
X2167070Y1112520D02*
X2172148D01*
X2169609D01*
Y1127755D01*
X2167070D01*
X2200079Y1112520D02*
X2195000Y1117598D01*
Y1122677D01*
X2200079Y1127755D01*
X2207696Y1125216D02*
X2210235Y1127755D01*
X2215314D01*
X2217853Y1125216D01*
Y1115059D01*
X2215314Y1112520D01*
X2210235D01*
X2207696Y1115059D01*
Y1125216D01*
X2222931Y1112520D02*
Y1115059D01*
X2225471D01*
Y1112520D01*
X2222931D01*
X2245784Y1127755D02*
X2240706Y1125216D01*
X2235627Y1120138D01*
Y1115059D01*
X2238167Y1112520D01*
X2243245D01*
X2245784Y1115059D01*
Y1117598D01*
X2243245Y1120138D01*
X2235627D01*
X2261019Y1127755D02*
X2250862D01*
Y1120138D01*
X2255941Y1122677D01*
X2258480D01*
X2261019Y1120138D01*
Y1115059D01*
X2258480Y1112520D01*
X2253401D01*
X2250862Y1115059D01*
X2266097Y1125216D02*
X2268637Y1127755D01*
X2273715D01*
X2276254Y1125216D01*
Y1115059D01*
X2273715Y1112520D01*
X2268637D01*
X2266097Y1115059D01*
Y1125216D01*
X2281333Y1112520D02*
Y1122677D01*
X2283872D01*
X2286411Y1120138D01*
Y1112520D01*
Y1120138D01*
X2288950Y1122677D01*
X2291489Y1120138D01*
Y1112520D01*
X2296568D02*
Y1122677D01*
X2299107D01*
X2301646Y1120138D01*
Y1112520D01*
Y1120138D01*
X2304185Y1122677D01*
X2306724Y1120138D01*
Y1112520D01*
X2311803D02*
X2316881Y1117598D01*
Y1122677D01*
X2311803Y1127755D01*
X2065502Y1082038D02*
X2075659D01*
Y1036320D02*
X2065502D01*
X2075659Y1046477D01*
Y1049016D01*
X2073120Y1051555D01*
X2068042D01*
X2065502Y1049016D01*
X2080737Y1036320D02*
X2085816D01*
X2083277D01*
Y1051555D01*
X2080737Y1049016D01*
X2093433Y1036320D02*
Y1038859D01*
X2095972D01*
Y1036320D01*
X2093433D01*
X2116286Y1051555D02*
X2111207Y1049016D01*
X2106129Y1043938D01*
Y1038859D01*
X2108668Y1036320D01*
X2113747D01*
X2116286Y1038859D01*
Y1041398D01*
X2113747Y1043938D01*
X2106129D01*
X2131521Y1051555D02*
X2121364D01*
Y1043938D01*
X2126443Y1046477D01*
X2128982D01*
X2131521Y1043938D01*
Y1038859D01*
X2128982Y1036320D01*
X2123903D01*
X2121364Y1038859D01*
X2136599Y1036320D02*
Y1046477D01*
X2139138D01*
X2141678Y1043938D01*
Y1036320D01*
Y1043938D01*
X2144217Y1046477D01*
X2146756Y1043938D01*
Y1036320D01*
X2151834D02*
X2156913D01*
X2154374D01*
Y1046477D01*
X2151834D01*
X2164530Y1036320D02*
X2169609D01*
X2167070D01*
Y1051555D01*
X2164530D01*
X2197540Y1036320D02*
X2192461Y1041398D01*
Y1046477D01*
X2197540Y1051555D01*
X2205157Y1049016D02*
X2207696Y1051555D01*
X2212775D01*
X2215314Y1049016D01*
Y1038859D01*
X2212775Y1036320D01*
X2207696D01*
X2205157Y1038859D01*
Y1049016D01*
X2220392Y1036320D02*
Y1038859D01*
X2222931D01*
Y1036320D01*
X2220392D01*
X2243245Y1051555D02*
X2233088D01*
Y1043938D01*
X2238166Y1046477D01*
X2240706D01*
X2243245Y1043938D01*
Y1038859D01*
X2240706Y1036320D01*
X2235627D01*
X2233088Y1038859D01*
X2258480Y1051555D02*
X2248323D01*
Y1043938D01*
X2253401Y1046477D01*
X2255941D01*
X2258480Y1043938D01*
Y1038859D01*
X2255941Y1036320D01*
X2250862D01*
X2248323Y1038859D01*
X2263558Y1049016D02*
X2266097Y1051555D01*
X2271176D01*
X2273715Y1049016D01*
Y1038859D01*
X2271176Y1036320D01*
X2266097D01*
X2263558Y1038859D01*
Y1049016D01*
X2278793Y1036320D02*
Y1046477D01*
X2281333D01*
X2283872Y1043938D01*
Y1036320D01*
Y1043938D01*
X2286411Y1046477D01*
X2288950Y1043938D01*
Y1036320D01*
X2294028D02*
Y1046477D01*
X2296568D01*
X2299107Y1043938D01*
Y1036320D01*
Y1043938D01*
X2301646Y1046477D01*
X2304185Y1043938D01*
Y1036320D01*
X2309263D02*
X2314342Y1041398D01*
Y1046477D01*
X2309263Y1051555D01*
X2065502Y1005838D02*
X2075659D01*
X2065502Y967738D02*
X2075659D01*
X2065502Y929638D02*
X2075659D01*
X2065502Y891538D02*
X2075659D01*
X2065502Y853438D02*
X2075659D01*
X2065502Y815338D02*
X2075659D01*
X2065502Y777238D02*
X2075659D01*
X1788723Y1158238D02*
X1798880D01*
X1796340Y1112520D02*
Y1127755D01*
X1788723Y1120138D01*
X1798880D01*
X1803958Y1127755D02*
X1814115D01*
Y1125216D01*
X1803958Y1115059D01*
Y1112520D01*
X1819193D02*
Y1115059D01*
X1821732D01*
Y1112520D01*
X1819193D01*
X1842046D02*
X1831889D01*
X1842046Y1122677D01*
Y1125216D01*
X1839507Y1127755D01*
X1834428D01*
X1831889Y1125216D01*
X1854742Y1112520D02*
Y1127755D01*
X1847124Y1120138D01*
X1857281D01*
X1862359Y1112520D02*
Y1122677D01*
X1864898D01*
X1867437Y1120138D01*
Y1112520D01*
Y1120138D01*
X1869977Y1122677D01*
X1872516Y1120138D01*
Y1112520D01*
X1877594D02*
X1882672D01*
X1880133D01*
Y1122677D01*
X1877594D01*
X1890290Y1112520D02*
X1895368D01*
X1892829D01*
Y1127755D01*
X1890290D01*
X1923299Y1112520D02*
X1918221Y1117598D01*
Y1122677D01*
X1923299Y1127755D01*
X1930917Y1112520D02*
X1935995D01*
X1933456D01*
Y1127755D01*
X1930917Y1125216D01*
X1943613Y1112520D02*
Y1115059D01*
X1946152D01*
Y1112520D01*
X1943613D01*
X1966465D02*
X1956309D01*
X1966465Y1122677D01*
Y1125216D01*
X1963926Y1127755D01*
X1958848D01*
X1956309Y1125216D01*
X1971544D02*
X1974083Y1127755D01*
X1979161D01*
X1981700Y1125216D01*
Y1115059D01*
X1979161Y1112520D01*
X1974083D01*
X1971544Y1115059D01*
Y1125216D01*
X1986779D02*
X1989318Y1127755D01*
X1994396D01*
X1996935Y1125216D01*
Y1115059D01*
X1994396Y1112520D01*
X1989318D01*
X1986779Y1115059D01*
Y1125216D01*
X2002014Y1112520D02*
Y1122677D01*
X2004553D01*
X2007092Y1120138D01*
Y1112520D01*
Y1120138D01*
X2009631Y1122677D01*
X2012171Y1120138D01*
Y1112520D01*
X2017249D02*
Y1122677D01*
X2019788D01*
X2022327Y1120138D01*
Y1112520D01*
Y1120138D01*
X2024866Y1122677D01*
X2027406Y1120138D01*
Y1112520D01*
X2032484D02*
X2037562Y1117598D01*
Y1122677D01*
X2032484Y1127755D01*
X1788723Y1082038D02*
X1798880D01*
Y1051555D02*
X1788723D01*
Y1043938D01*
X1793801Y1046477D01*
X1796340D01*
X1798880Y1043938D01*
Y1038859D01*
X1796340Y1036320D01*
X1791262D01*
X1788723Y1038859D01*
X1814115Y1051555D02*
X1803958D01*
Y1043938D01*
X1809036Y1046477D01*
X1811575D01*
X1814115Y1043938D01*
Y1038859D01*
X1811575Y1036320D01*
X1806497D01*
X1803958Y1038859D01*
X1819193Y1036320D02*
Y1038859D01*
X1821732D01*
Y1036320D01*
X1819193D01*
X1831889D02*
X1836967D01*
X1834428D01*
Y1051555D01*
X1831889Y1049016D01*
X1854742Y1036320D02*
X1844585D01*
X1854742Y1046477D01*
Y1049016D01*
X1852202Y1051555D01*
X1847124D01*
X1844585Y1049016D01*
X1859820Y1036320D02*
Y1046477D01*
X1862359D01*
X1864898Y1043938D01*
Y1036320D01*
Y1043938D01*
X1867437Y1046477D01*
X1869977Y1043938D01*
Y1036320D01*
X1875055D02*
X1880133D01*
X1877594D01*
Y1046477D01*
X1875055D01*
X1887751Y1036320D02*
X1892829D01*
X1890290D01*
Y1051555D01*
X1887751D01*
X1920760Y1036320D02*
X1915682Y1041398D01*
Y1046477D01*
X1920760Y1051555D01*
X1928378Y1036320D02*
X1933456D01*
X1930917D01*
Y1051555D01*
X1928378Y1049016D01*
X1941074Y1036320D02*
Y1038859D01*
X1943613D01*
Y1036320D01*
X1941074D01*
X1961387D02*
Y1051555D01*
X1953769Y1043938D01*
X1963926D01*
X1969005Y1049016D02*
X1971544Y1051555D01*
X1976622D01*
X1979161Y1049016D01*
Y1038859D01*
X1976622Y1036320D01*
X1971544D01*
X1969005Y1038859D01*
Y1049016D01*
X1984240D02*
X1986779Y1051555D01*
X1991857D01*
X1994396Y1049016D01*
Y1038859D01*
X1991857Y1036320D01*
X1986779D01*
X1984240Y1038859D01*
Y1049016D01*
X1999475Y1036320D02*
Y1046477D01*
X2002014D01*
X2004553Y1043938D01*
Y1036320D01*
Y1043938D01*
X2007092Y1046477D01*
X2009631Y1043938D01*
Y1036320D01*
X2014710D02*
Y1046477D01*
X2017249D01*
X2019788Y1043938D01*
Y1036320D01*
Y1043938D01*
X2022327Y1046477D01*
X2024866Y1043938D01*
Y1036320D01*
X2029945D02*
X2035023Y1041398D01*
Y1046477D01*
X2029945Y1051555D01*
X1788723Y1005838D02*
X1798880D01*
X1788723Y967738D02*
X1798880D01*
X1788723Y929638D02*
X1798880D01*
X1788723Y891538D02*
X1798880D01*
X1788723Y853438D02*
X1798880D01*
X1788723Y815338D02*
X1798880D01*
X1788723Y777238D02*
X1798880D01*
X589684Y1160777D02*
X594762Y1150620D01*
X599841Y1160777D01*
X604919Y1150620D02*
X609997D01*
X607458D01*
Y1165855D01*
X604919Y1163316D01*
X627771Y1150620D02*
X617615D01*
X627771Y1160777D01*
Y1163316D01*
X625232Y1165855D01*
X620154D01*
X617615Y1163316D01*
X632850Y1165855D02*
X643007D01*
Y1163316D01*
X632850Y1153159D01*
Y1150620D01*
X648085Y1165855D02*
Y1150620D01*
Y1158238D01*
X650624Y1160777D01*
X655702D01*
X658242Y1158238D01*
Y1150620D01*
X663320Y1165855D02*
X673477D01*
Y1163316D01*
X663320Y1153159D01*
Y1150620D01*
X678555D02*
X683633D01*
X681094D01*
Y1165855D01*
X678555Y1163316D01*
X589684Y1122677D02*
Y1112520D01*
Y1117598D01*
X592223Y1120138D01*
X594762Y1122677D01*
X597301D01*
X604919Y1112520D02*
X609997D01*
X607458D01*
Y1127755D01*
X604919Y1125216D01*
X617615Y1112520D02*
X622693D01*
X620154D01*
Y1127755D01*
X617615Y1125216D01*
X640467Y1127755D02*
X630311D01*
Y1120138D01*
X635389Y1122677D01*
X637928D01*
X640467Y1120138D01*
Y1115059D01*
X637928Y1112520D01*
X632850D01*
X630311Y1115059D01*
X645546Y1109981D02*
X655702D01*
X660781Y1112520D02*
X665859D01*
X663320D01*
Y1127755D01*
X660781Y1125216D01*
X673477D02*
X676016Y1127755D01*
X681094D01*
X683633Y1125216D01*
Y1122677D01*
X681094Y1120138D01*
X683633Y1117598D01*
Y1115059D01*
X681094Y1112520D01*
X676016D01*
X673477Y1115059D01*
Y1117598D01*
X676016Y1120138D01*
X673477Y1122677D01*
Y1125216D01*
X676016Y1120138D02*
X681094D01*
X688712Y1125216D02*
X691251Y1127755D01*
X696329D01*
X698868Y1125216D01*
Y1115059D01*
X696329Y1112520D01*
X691251D01*
X688712Y1115059D01*
Y1125216D01*
X703947Y1127755D02*
Y1112520D01*
Y1120138D01*
X706486Y1122677D01*
X711564D01*
X714104Y1120138D01*
Y1112520D01*
X729339Y1127755D02*
X719182D01*
Y1120138D01*
X724260Y1122677D01*
X726799D01*
X729339Y1120138D01*
Y1115059D01*
X726799Y1112520D01*
X721721D01*
X719182Y1115059D01*
X744574Y1127755D02*
X734417D01*
Y1120138D01*
X739495Y1122677D01*
X742035D01*
X744574Y1120138D01*
Y1115059D01*
X742035Y1112520D01*
X736956D01*
X734417Y1115059D01*
X749652Y1109981D02*
X759809D01*
X764887Y1112520D02*
X769966D01*
X767426D01*
Y1127755D01*
X764887Y1125216D01*
X787740Y1112520D02*
X777583D01*
X787740Y1122677D01*
Y1125216D01*
X785201Y1127755D01*
X780122D01*
X777583Y1125216D01*
X792818D02*
X795357Y1127755D01*
X800436D01*
X802975Y1125216D01*
Y1115059D01*
X800436Y1112520D01*
X795357D01*
X792818Y1115059D01*
Y1125216D01*
X808053Y1122677D02*
Y1112520D01*
Y1117598D01*
X810592Y1120138D01*
X813131Y1122677D01*
X815671D01*
X823288Y1112520D02*
X828367D01*
X825827D01*
Y1127755D01*
X823288Y1125216D01*
X835984D02*
X838523Y1127755D01*
X843602D01*
X846141Y1125216D01*
Y1115059D01*
X843602Y1112520D01*
X838523D01*
X835984Y1115059D01*
Y1125216D01*
X851219D02*
X853758Y1127755D01*
X858837D01*
X861376Y1125216D01*
Y1115059D01*
X858837Y1112520D01*
X853758D01*
X851219Y1115059D01*
Y1125216D01*
X599841Y1084577D02*
X592223D01*
X589684Y1082038D01*
Y1076959D01*
X592223Y1074420D01*
X599841D01*
X604919Y1087116D02*
X607458Y1089655D01*
X612536D01*
X615076Y1087116D01*
Y1084577D01*
X612536Y1082038D01*
X615076Y1079499D01*
Y1076959D01*
X612536Y1074420D01*
X607458D01*
X604919Y1076959D01*
Y1079499D01*
X607458Y1082038D01*
X604919Y1084577D01*
Y1087116D01*
X607458Y1082038D02*
X612536D01*
X620154Y1087116D02*
X622693Y1089655D01*
X627771D01*
X630311Y1087116D01*
Y1076959D01*
X627771Y1074420D01*
X622693D01*
X620154Y1076959D01*
Y1087116D01*
X635389Y1089655D02*
Y1074420D01*
Y1082038D01*
X637928Y1084577D01*
X643007D01*
X645546Y1082038D01*
Y1074420D01*
X650624D02*
Y1084577D01*
X658242D01*
X660781Y1082038D01*
Y1074420D01*
X665859Y1087116D02*
X668398Y1089655D01*
X673477D01*
X676016Y1087116D01*
Y1084577D01*
X673477Y1082038D01*
X676016Y1079499D01*
Y1076959D01*
X673477Y1074420D01*
X668398D01*
X665859Y1076959D01*
Y1079499D01*
X668398Y1082038D01*
X665859Y1084577D01*
Y1087116D01*
X668398Y1082038D02*
X673477D01*
X681094Y1087116D02*
X683633Y1089655D01*
X688712D01*
X691251Y1087116D01*
Y1076959D01*
X688712Y1074420D01*
X683633D01*
X681094Y1076959D01*
Y1087116D01*
X589684Y1046477D02*
Y1036320D01*
Y1041398D01*
X592223Y1043938D01*
X594762Y1046477D01*
X597301D01*
X604919Y1036320D02*
X609997D01*
X607458D01*
Y1051555D01*
X604919Y1049016D01*
X625232Y1036320D02*
Y1051555D01*
X617615Y1043938D01*
X627771D01*
X643007Y1051555D02*
X632850D01*
Y1043938D01*
X637928Y1046477D01*
X640467D01*
X643007Y1043938D01*
Y1038859D01*
X640467Y1036320D01*
X635389D01*
X632850Y1038859D01*
X648085Y1033781D02*
X658242D01*
X673477Y1036320D02*
X663320D01*
X673477Y1046477D01*
Y1049016D01*
X670938Y1051555D01*
X665859D01*
X663320Y1049016D01*
X678555D02*
X681094Y1051555D01*
X686173D01*
X688712Y1049016D01*
Y1038859D01*
X686173Y1036320D01*
X681094D01*
X678555Y1038859D01*
Y1049016D01*
X693790D02*
X696329Y1051555D01*
X701408D01*
X703947Y1049016D01*
Y1038859D01*
X701408Y1036320D01*
X696329D01*
X693790Y1038859D01*
Y1049016D01*
X709025Y1051555D02*
Y1036320D01*
Y1043938D01*
X711564Y1046477D01*
X716643D01*
X719182Y1043938D01*
Y1036320D01*
X724260Y1049016D02*
X726799Y1051555D01*
X731878D01*
X734417Y1049016D01*
Y1046477D01*
X731878Y1043938D01*
X734417Y1041398D01*
Y1038859D01*
X731878Y1036320D01*
X726799D01*
X724260Y1038859D01*
Y1041398D01*
X726799Y1043938D01*
X724260Y1046477D01*
Y1049016D01*
X726799Y1043938D02*
X731878D01*
X749652Y1051555D02*
X739495D01*
Y1043938D01*
X744574Y1046477D01*
X747113D01*
X749652Y1043938D01*
Y1038859D01*
X747113Y1036320D01*
X742035D01*
X739495Y1038859D01*
X754730Y1033781D02*
X764887D01*
X769966Y1036320D02*
X775044D01*
X772505D01*
Y1051555D01*
X769966Y1049016D01*
X790279Y1036320D02*
Y1051555D01*
X782661Y1043938D01*
X792818D01*
X797896Y1049016D02*
X800436Y1051555D01*
X805514D01*
X808053Y1049016D01*
Y1038859D01*
X805514Y1036320D01*
X800436D01*
X797896Y1038859D01*
Y1049016D01*
X813131Y1046477D02*
Y1036320D01*
Y1041398D01*
X815671Y1043938D01*
X818210Y1046477D01*
X820749D01*
X828367Y1036320D02*
X833445D01*
X830906D01*
Y1051555D01*
X828367Y1049016D01*
X841062D02*
X843602Y1051555D01*
X848680D01*
X851219Y1049016D01*
Y1038859D01*
X848680Y1036320D01*
X843602D01*
X841062Y1038859D01*
Y1049016D01*
X856298D02*
X858837Y1051555D01*
X863915D01*
X866454Y1049016D01*
Y1038859D01*
X863915Y1036320D01*
X858837D01*
X856298Y1038859D01*
Y1049016D01*
X599841Y1008377D02*
X592223D01*
X589684Y1005838D01*
Y1000759D01*
X592223Y998220D01*
X599841D01*
X604919D02*
X609997D01*
X607458D01*
Y1013455D01*
X604919Y1010916D01*
X625232Y998220D02*
Y1013455D01*
X617615Y1005838D01*
X627771D01*
X632850Y998220D02*
X637928D01*
X635389D01*
Y1013455D01*
X632850Y1010916D01*
X645546Y1013455D02*
Y998220D01*
Y1005838D01*
X648085Y1008377D01*
X653163D01*
X655702Y1005838D01*
Y998220D01*
X660781Y1000759D02*
X663320Y998220D01*
X668398D01*
X670938Y1000759D01*
Y1010916D01*
X668398Y1013455D01*
X663320D01*
X660781Y1010916D01*
Y1008377D01*
X663320Y1005838D01*
X670938D01*
X676016Y1010916D02*
X678555Y1013455D01*
X683633D01*
X686173Y1010916D01*
Y1000759D01*
X683633Y998220D01*
X678555D01*
X676016Y1000759D01*
Y1010916D01*
X594762Y960120D02*
X589684Y965199D01*
Y970277D01*
X594762Y975355D01*
X602380Y960120D02*
Y975355D01*
X607458Y970277D01*
X612536Y975355D01*
Y960120D01*
X617615D02*
X622693D01*
X620154D01*
Y970277D01*
X617615D01*
X630311D02*
X640467Y960120D01*
X635389Y965199D01*
X640467Y970277D01*
X630311Y960120D01*
X653163D02*
X648085D01*
X645546Y962659D01*
Y967738D01*
X648085Y970277D01*
X653163D01*
X655702Y967738D01*
Y965199D01*
X645546D01*
X670938Y975355D02*
Y960120D01*
X663320D01*
X660781Y962659D01*
Y967738D01*
X663320Y970277D01*
X670938D01*
X676016Y960120D02*
X681094Y965199D01*
Y970277D01*
X676016Y975355D01*
X599841Y932177D02*
X592223D01*
X589684Y929638D01*
Y924559D01*
X592223Y922020D01*
X599841D01*
X615076D02*
X604919D01*
X615076Y932177D01*
Y934716D01*
X612536Y937255D01*
X607458D01*
X604919Y934716D01*
X620154D02*
X622693Y937255D01*
X627771D01*
X630311Y934716D01*
Y924559D01*
X627771Y922020D01*
X622693D01*
X620154Y924559D01*
Y934716D01*
X635389D02*
X637928Y937255D01*
X643007D01*
X645546Y934716D01*
Y924559D01*
X643007Y922020D01*
X637928D01*
X635389Y924559D01*
Y934716D01*
X650624Y937255D02*
Y922020D01*
Y929638D01*
X653163Y932177D01*
X658242D01*
X660781Y929638D01*
Y922020D01*
X665859D02*
X670938D01*
X668398D01*
Y937255D01*
X665859Y934716D01*
X678555D02*
X681094Y937255D01*
X686173D01*
X688712Y934716D01*
Y932177D01*
X686173Y929638D01*
X683633D01*
X686173D01*
X688712Y927098D01*
Y924559D01*
X686173Y922020D01*
X681094D01*
X678555Y924559D01*
X693790Y934716D02*
X696329Y937255D01*
X701408D01*
X703947Y934716D01*
Y924559D01*
X701408Y922020D01*
X696329D01*
X693790Y924559D01*
Y934716D01*
X709025Y922020D02*
Y932177D01*
X711564D01*
X714104Y929638D01*
Y922020D01*
Y929638D01*
X716643Y932177D01*
X719182Y929638D01*
Y922020D01*
X734417D02*
X724260D01*
X734417Y932177D01*
Y934716D01*
X731878Y937255D01*
X726799D01*
X724260Y934716D01*
X739495D02*
X742035Y937255D01*
X747113D01*
X749652Y934716D01*
Y924559D01*
X747113Y922020D01*
X742035D01*
X739495Y924559D01*
Y934716D01*
X754730D02*
X757270Y937255D01*
X762348D01*
X764887Y934716D01*
Y924559D01*
X762348Y922020D01*
X757270D01*
X754730Y924559D01*
Y934716D01*
X769966Y916942D02*
Y932177D01*
X777583D01*
X780122Y929638D01*
Y924559D01*
X777583Y922020D01*
X769966D01*
X785201Y929638D02*
X795357D01*
X800436Y922020D02*
X805514D01*
X802975D01*
Y937255D01*
X800436Y934716D01*
X599841Y894077D02*
X592223D01*
X589684Y891538D01*
Y886459D01*
X592223Y883920D01*
X599841D01*
X615076Y899155D02*
X604919D01*
Y891538D01*
X609997Y894077D01*
X612536D01*
X615076Y891538D01*
Y886459D01*
X612536Y883920D01*
X607458D01*
X604919Y886459D01*
X620154Y896616D02*
X622693Y899155D01*
X627771D01*
X630311Y896616D01*
Y894077D01*
X627771Y891538D01*
X630311Y888998D01*
Y886459D01*
X627771Y883920D01*
X622693D01*
X620154Y886459D01*
Y888998D01*
X622693Y891538D01*
X620154Y894077D01*
Y896616D01*
X622693Y891538D02*
X627771D01*
X643007Y883920D02*
Y899155D01*
X635389Y891538D01*
X645546D01*
X650624Y899155D02*
Y883920D01*
Y891538D01*
X653163Y894077D01*
X658242D01*
X660781Y891538D01*
Y883920D01*
X673477D02*
Y899155D01*
X665859Y891538D01*
X676016D01*
X691251Y899155D02*
X681094D01*
Y891538D01*
X686173Y894077D01*
X688712D01*
X691251Y891538D01*
Y886459D01*
X688712Y883920D01*
X683633D01*
X681094Y886459D01*
X696329Y896616D02*
X698868Y899155D01*
X703947D01*
X706486Y896616D01*
Y886459D01*
X703947Y883920D01*
X698868D01*
X696329Y886459D01*
Y896616D01*
X599841Y855977D02*
X592223D01*
X589684Y853438D01*
Y848359D01*
X592223Y845820D01*
X599841D01*
X615076D02*
X604919D01*
X615076Y855977D01*
Y858516D01*
X612536Y861055D01*
X607458D01*
X604919Y858516D01*
X630311Y861055D02*
X620154D01*
Y853438D01*
X625232Y855977D01*
X627771D01*
X630311Y853438D01*
Y848359D01*
X627771Y845820D01*
X622693D01*
X620154Y848359D01*
X643007Y845820D02*
Y861055D01*
X635389Y853438D01*
X645546D01*
X650624Y861055D02*
Y845820D01*
Y853438D01*
X653163Y855977D01*
X658242D01*
X660781Y853438D01*
Y845820D01*
X665859D02*
X670938D01*
X668398D01*
Y861055D01*
X665859Y858516D01*
X688712Y861055D02*
X678555D01*
Y853438D01*
X683633Y855977D01*
X686173D01*
X688712Y853438D01*
Y848359D01*
X686173Y845820D01*
X681094D01*
X678555Y848359D01*
X703947Y845820D02*
X693790D01*
X703947Y855977D01*
Y858516D01*
X701408Y861055D01*
X696329D01*
X693790Y858516D01*
X709025Y845820D02*
Y855977D01*
X711564D01*
X714104Y853438D01*
Y845820D01*
Y853438D01*
X716643Y855977D01*
X719182Y853438D01*
Y845820D01*
X734417D02*
X724260D01*
X734417Y855977D01*
Y858516D01*
X731878Y861055D01*
X726799D01*
X724260Y858516D01*
X749652Y861055D02*
X744574Y858516D01*
X739495Y853438D01*
Y848359D01*
X742035Y845820D01*
X747113D01*
X749652Y848359D01*
Y850899D01*
X747113Y853438D01*
X739495D01*
X754730Y861055D02*
X764887D01*
Y858516D01*
X754730Y848359D01*
Y845820D01*
X594762Y807720D02*
X589684Y812798D01*
Y817877D01*
X594762Y822955D01*
X602380Y807720D02*
Y822955D01*
X607458Y817877D01*
X612536Y822955D01*
Y807720D01*
X617615D02*
X622693D01*
X620154D01*
Y817877D01*
X617615D01*
X630311D02*
X640467Y807720D01*
X635389Y812798D01*
X640467Y817877D01*
X630311Y807720D01*
X653163D02*
X648085D01*
X645546Y810259D01*
Y815338D01*
X648085Y817877D01*
X653163D01*
X655702Y815338D01*
Y812798D01*
X645546D01*
X670938Y822955D02*
Y807720D01*
X663320D01*
X660781Y810259D01*
Y815338D01*
X663320Y817877D01*
X670938D01*
X676016Y807720D02*
X681094Y812798D01*
Y817877D01*
X676016Y822955D01*
X589684Y779777D02*
X594762Y769620D01*
X599841Y779777D01*
X615076Y784855D02*
X609997Y782316D01*
X604919Y777238D01*
Y772159D01*
X607458Y769620D01*
X612536D01*
X615076Y772159D01*
Y774698D01*
X612536Y777238D01*
X604919D01*
X620154Y769620D02*
X625232D01*
X622693D01*
Y784855D01*
X620154Y782316D01*
X632850Y784855D02*
Y769620D01*
Y777238D01*
X635389Y779777D01*
X640467D01*
X643007Y777238D01*
Y769620D01*
X648085Y782316D02*
X650624Y784855D01*
X655702D01*
X658242Y782316D01*
Y779777D01*
X655702Y777238D01*
X653163D01*
X655702D01*
X658242Y774698D01*
Y772159D01*
X655702Y769620D01*
X650624D01*
X648085Y772159D01*
X663320Y782316D02*
X665859Y784855D01*
X670938D01*
X673477Y782316D01*
Y772159D01*
X670938Y769620D01*
X665859D01*
X663320Y772159D01*
Y782316D01*
X400251Y1150620D02*
Y1165855D01*
X407869D01*
X410408Y1163316D01*
Y1158238D01*
X407869Y1155698D01*
X400251D01*
X405329D02*
X410408Y1150620D01*
X418025D02*
X423104D01*
X425643Y1153159D01*
Y1158238D01*
X423104Y1160777D01*
X418025D01*
X415486Y1158238D01*
Y1153159D01*
X418025Y1150620D01*
X430721Y1160777D02*
Y1153159D01*
X433260Y1150620D01*
X440878D01*
Y1160777D01*
X445956Y1150620D02*
Y1160777D01*
X453574D01*
X456113Y1158238D01*
Y1150620D01*
X471348Y1165855D02*
Y1150620D01*
X463731D01*
X461191Y1153159D01*
Y1158238D01*
X463731Y1160777D01*
X471348D01*
X484044Y1150620D02*
X478966D01*
X476427Y1153159D01*
Y1158238D01*
X478966Y1160777D01*
X484044D01*
X486583Y1158238D01*
Y1155698D01*
X476427D01*
X501818Y1165855D02*
Y1150620D01*
X494201D01*
X491661Y1153159D01*
Y1158238D01*
X494201Y1160777D01*
X501818D01*
X400251Y1112520D02*
Y1127755D01*
X407869D01*
X410408Y1125216D01*
Y1120138D01*
X407869Y1117598D01*
X400251D01*
X405329D02*
X410408Y1112520D01*
X418025D02*
X423104D01*
X425643Y1115059D01*
Y1120138D01*
X423104Y1122677D01*
X418025D01*
X415486Y1120138D01*
Y1115059D01*
X418025Y1112520D01*
X430721Y1122677D02*
Y1115059D01*
X433260Y1112520D01*
X440878D01*
Y1122677D01*
X445956Y1112520D02*
Y1122677D01*
X453574D01*
X456113Y1120138D01*
Y1112520D01*
X471348Y1127755D02*
Y1112520D01*
X463731D01*
X461191Y1115059D01*
Y1120138D01*
X463731Y1122677D01*
X471348D01*
X484044Y1112520D02*
X478966D01*
X476427Y1115059D01*
Y1120138D01*
X478966Y1122677D01*
X484044D01*
X486583Y1120138D01*
Y1117598D01*
X476427D01*
X501818Y1127755D02*
Y1112520D01*
X494201D01*
X491661Y1115059D01*
Y1120138D01*
X494201Y1122677D01*
X501818D01*
X400251Y1074420D02*
Y1089655D01*
X407869D01*
X410408Y1087116D01*
Y1082038D01*
X407869Y1079499D01*
X400251D01*
X405329D02*
X410408Y1074420D01*
X418025D02*
X423104D01*
X425643Y1076959D01*
Y1082038D01*
X423104Y1084577D01*
X418025D01*
X415486Y1082038D01*
Y1076959D01*
X418025Y1074420D01*
X430721Y1084577D02*
Y1076959D01*
X433260Y1074420D01*
X440878D01*
Y1084577D01*
X445956Y1074420D02*
Y1084577D01*
X453574D01*
X456113Y1082038D01*
Y1074420D01*
X471348Y1089655D02*
Y1074420D01*
X463731D01*
X461191Y1076959D01*
Y1082038D01*
X463731Y1084577D01*
X471348D01*
X484044Y1074420D02*
X478966D01*
X476427Y1076959D01*
Y1082038D01*
X478966Y1084577D01*
X484044D01*
X486583Y1082038D01*
Y1079499D01*
X476427D01*
X501818Y1089655D02*
Y1074420D01*
X494201D01*
X491661Y1076959D01*
Y1082038D01*
X494201Y1084577D01*
X501818D01*
X400251Y1036320D02*
Y1051555D01*
X407869D01*
X410408Y1049016D01*
Y1043938D01*
X407869Y1041398D01*
X400251D01*
X405329D02*
X410408Y1036320D01*
X418025D02*
X423104D01*
X425643Y1038859D01*
Y1043938D01*
X423104Y1046477D01*
X418025D01*
X415486Y1043938D01*
Y1038859D01*
X418025Y1036320D01*
X430721Y1046477D02*
Y1038859D01*
X433260Y1036320D01*
X440878D01*
Y1046477D01*
X445956Y1036320D02*
Y1046477D01*
X453574D01*
X456113Y1043938D01*
Y1036320D01*
X471348Y1051555D02*
Y1036320D01*
X463731D01*
X461191Y1038859D01*
Y1043938D01*
X463731Y1046477D01*
X471348D01*
X484044Y1036320D02*
X478966D01*
X476427Y1038859D01*
Y1043938D01*
X478966Y1046477D01*
X484044D01*
X486583Y1043938D01*
Y1041398D01*
X476427D01*
X501818Y1051555D02*
Y1036320D01*
X494201D01*
X491661Y1038859D01*
Y1043938D01*
X494201Y1046477D01*
X501818D01*
X400251Y998220D02*
Y1013455D01*
X407869D01*
X410408Y1010916D01*
Y1005838D01*
X407869Y1003298D01*
X400251D01*
X405329D02*
X410408Y998220D01*
X418025D02*
X423104D01*
X425643Y1000759D01*
Y1005838D01*
X423104Y1008377D01*
X418025D01*
X415486Y1005838D01*
Y1000759D01*
X418025Y998220D01*
X430721Y1008377D02*
Y1000759D01*
X433260Y998220D01*
X440878D01*
Y1008377D01*
X445956Y998220D02*
Y1008377D01*
X453574D01*
X456113Y1005838D01*
Y998220D01*
X471348Y1013455D02*
Y998220D01*
X463731D01*
X461191Y1000759D01*
Y1005838D01*
X463731Y1008377D01*
X471348D01*
X484044Y998220D02*
X478966D01*
X476427Y1000759D01*
Y1005838D01*
X478966Y1008377D01*
X484044D01*
X486583Y1005838D01*
Y1003298D01*
X476427D01*
X501818Y1013455D02*
Y998220D01*
X494201D01*
X491661Y1000759D01*
Y1005838D01*
X494201Y1008377D01*
X501818D01*
X405329Y960120D02*
X400251Y965199D01*
Y970277D01*
X405329Y975355D01*
X412947Y960120D02*
Y975355D01*
X418025Y970277D01*
X423104Y975355D01*
Y960120D01*
X428182D02*
X433260D01*
X430721D01*
Y970277D01*
X428182D01*
X440878D02*
X451035Y960120D01*
X445956Y965199D01*
X451035Y970277D01*
X440878Y960120D01*
X463731D02*
X458652D01*
X456113Y962659D01*
Y967738D01*
X458652Y970277D01*
X463731D01*
X466270Y967738D01*
Y965199D01*
X456113D01*
X481505Y975355D02*
Y960120D01*
X473887D01*
X471348Y962659D01*
Y967738D01*
X473887Y970277D01*
X481505D01*
X486583Y960120D02*
X491661Y965199D01*
Y970277D01*
X486583Y975355D01*
X400251Y922020D02*
Y937255D01*
X407869D01*
X410408Y934716D01*
Y929638D01*
X407869Y927098D01*
X400251D01*
X405329D02*
X410408Y922020D01*
X418025D02*
X423104D01*
X425643Y924559D01*
Y929638D01*
X423104Y932177D01*
X418025D01*
X415486Y929638D01*
Y924559D01*
X418025Y922020D01*
X430721Y932177D02*
Y924559D01*
X433260Y922020D01*
X440878D01*
Y932177D01*
X445956Y922020D02*
Y932177D01*
X453574D01*
X456113Y929638D01*
Y922020D01*
X471348Y937255D02*
Y922020D01*
X463731D01*
X461191Y924559D01*
Y929638D01*
X463731Y932177D01*
X471348D01*
X484044Y922020D02*
X478966D01*
X476427Y924559D01*
Y929638D01*
X478966Y932177D01*
X484044D01*
X486583Y929638D01*
Y927098D01*
X476427D01*
X501818Y937255D02*
Y922020D01*
X494201D01*
X491661Y924559D01*
Y929638D01*
X494201Y932177D01*
X501818D01*
X400251Y883920D02*
Y899155D01*
X407869D01*
X410408Y896616D01*
Y891538D01*
X407869Y888998D01*
X400251D01*
X405329D02*
X410408Y883920D01*
X418025D02*
X423104D01*
X425643Y886459D01*
Y891538D01*
X423104Y894077D01*
X418025D01*
X415486Y891538D01*
Y886459D01*
X418025Y883920D01*
X430721Y894077D02*
Y886459D01*
X433260Y883920D01*
X440878D01*
Y894077D01*
X445956Y883920D02*
Y894077D01*
X453574D01*
X456113Y891538D01*
Y883920D01*
X471348Y899155D02*
Y883920D01*
X463731D01*
X461191Y886459D01*
Y891538D01*
X463731Y894077D01*
X471348D01*
X484044Y883920D02*
X478966D01*
X476427Y886459D01*
Y891538D01*
X478966Y894077D01*
X484044D01*
X486583Y891538D01*
Y888998D01*
X476427D01*
X501818Y899155D02*
Y883920D01*
X494201D01*
X491661Y886459D01*
Y891538D01*
X494201Y894077D01*
X501818D01*
X400251Y845820D02*
Y861055D01*
X407869D01*
X410408Y858516D01*
Y853438D01*
X407869Y850899D01*
X400251D01*
X405329D02*
X410408Y845820D01*
X418025D02*
X423104D01*
X425643Y848359D01*
Y853438D01*
X423104Y855977D01*
X418025D01*
X415486Y853438D01*
Y848359D01*
X418025Y845820D01*
X430721Y855977D02*
Y848359D01*
X433260Y845820D01*
X440878D01*
Y855977D01*
X445956Y845820D02*
Y855977D01*
X453574D01*
X456113Y853438D01*
Y845820D01*
X471348Y861055D02*
Y845820D01*
X463731D01*
X461191Y848359D01*
Y853438D01*
X463731Y855977D01*
X471348D01*
X484044Y845820D02*
X478966D01*
X476427Y848359D01*
Y853438D01*
X478966Y855977D01*
X484044D01*
X486583Y853438D01*
Y850899D01*
X476427D01*
X501818Y861055D02*
Y845820D01*
X494201D01*
X491661Y848359D01*
Y853438D01*
X494201Y855977D01*
X501818D01*
X405329Y807720D02*
X400251Y812798D01*
Y817877D01*
X405329Y822955D01*
X412947Y807720D02*
Y822955D01*
X418025Y817877D01*
X423104Y822955D01*
Y807720D01*
X428182D02*
X433260D01*
X430721D01*
Y817877D01*
X428182D01*
X440878D02*
X451035Y807720D01*
X445956Y812798D01*
X451035Y817877D01*
X440878Y807720D01*
X463731D02*
X458652D01*
X456113Y810259D01*
Y815338D01*
X458652Y817877D01*
X463731D01*
X466270Y815338D01*
Y812798D01*
X456113D01*
X481505Y822955D02*
Y807720D01*
X473887D01*
X471348Y810259D01*
Y815338D01*
X473887Y817877D01*
X481505D01*
X486583Y807720D02*
X491661Y812798D01*
Y817877D01*
X486583Y822955D01*
X400251Y769620D02*
Y784855D01*
X407869D01*
X410408Y782316D01*
Y777238D01*
X407869Y774698D01*
X400251D01*
X405329D02*
X410408Y769620D01*
X418025D02*
X423104D01*
X425643Y772159D01*
Y777238D01*
X423104Y779777D01*
X418025D01*
X415486Y777238D01*
Y772159D01*
X418025Y769620D01*
X430721Y779777D02*
Y772159D01*
X433260Y769620D01*
X440878D01*
Y779777D01*
X445956Y769620D02*
Y779777D01*
X453574D01*
X456113Y777238D01*
Y769620D01*
X471348Y784855D02*
Y769620D01*
X463731D01*
X461191Y772159D01*
Y777238D01*
X463731Y779777D01*
X471348D01*
X484044Y769620D02*
X478966D01*
X476427Y772159D01*
Y777238D01*
X478966Y779777D01*
X484044D01*
X486583Y777238D01*
Y774698D01*
X476427D01*
X501818Y784855D02*
Y769620D01*
X494201D01*
X491661Y772159D01*
Y777238D01*
X494201Y779777D01*
X501818D01*
X250429Y1165855D02*
Y1155698D01*
X255508Y1150620D01*
X260586Y1155698D01*
Y1165855D01*
X265665Y1150620D02*
X270743D01*
X268204D01*
Y1160777D01*
X265665D01*
X280900D02*
X285978D01*
X288517Y1158238D01*
Y1150620D01*
X280900D01*
X278361Y1153159D01*
X280900Y1155698D01*
X288517D01*
X250429Y1112520D02*
Y1127755D01*
X258047D01*
X260586Y1125216D01*
Y1120138D01*
X258047Y1117598D01*
X250429D01*
X268204Y1122677D02*
X273282D01*
X275821Y1120138D01*
Y1112520D01*
X268204D01*
X265665Y1115059D01*
X268204Y1117598D01*
X275821D01*
X291056Y1127755D02*
Y1112520D01*
X283439D01*
X280900Y1115059D01*
Y1120138D01*
X283439Y1122677D01*
X291056D01*
X250429Y1074420D02*
Y1089655D01*
X258047D01*
X260586Y1087116D01*
Y1082038D01*
X258047Y1079499D01*
X250429D01*
X268204Y1084577D02*
X273282D01*
X275821Y1082038D01*
Y1074420D01*
X268204D01*
X265665Y1076959D01*
X268204Y1079499D01*
X275821D01*
X291056Y1089655D02*
Y1074420D01*
X283439D01*
X280900Y1076959D01*
Y1082038D01*
X283439Y1084577D01*
X291056D01*
X250429Y1036320D02*
Y1051555D01*
X258047D01*
X260586Y1049016D01*
Y1043938D01*
X258047Y1041398D01*
X250429D01*
X268204Y1046477D02*
X273282D01*
X275821Y1043938D01*
Y1036320D01*
X268204D01*
X265665Y1038859D01*
X268204Y1041398D01*
X275821D01*
X291056Y1051555D02*
Y1036320D01*
X283439D01*
X280900Y1038859D01*
Y1043938D01*
X283439Y1046477D01*
X291056D01*
X250429Y998220D02*
Y1013455D01*
X258047D01*
X260586Y1010916D01*
Y1005838D01*
X258047Y1003298D01*
X250429D01*
X268204Y1008377D02*
X273282D01*
X275821Y1005838D01*
Y998220D01*
X268204D01*
X265665Y1000759D01*
X268204Y1003298D01*
X275821D01*
X291056Y1013455D02*
Y998220D01*
X283439D01*
X280900Y1000759D01*
Y1005838D01*
X283439Y1008377D01*
X291056D01*
X250429Y960120D02*
Y975355D01*
X258047D01*
X260586Y972816D01*
Y967738D01*
X258047Y965199D01*
X250429D01*
X268204Y970277D02*
X273282D01*
X275821Y967738D01*
Y960120D01*
X268204D01*
X265665Y962659D01*
X268204Y965199D01*
X275821D01*
X291056Y975355D02*
Y960120D01*
X283439D01*
X280900Y962659D01*
Y967738D01*
X283439Y970277D01*
X291056D01*
X250429Y922020D02*
Y937255D01*
X258047D01*
X260586Y934716D01*
Y929638D01*
X258047Y927098D01*
X250429D01*
X268204Y932177D02*
X273282D01*
X275821Y929638D01*
Y922020D01*
X268204D01*
X265665Y924559D01*
X268204Y927098D01*
X275821D01*
X291056Y937255D02*
Y922020D01*
X283439D01*
X280900Y924559D01*
Y929638D01*
X283439Y932177D01*
X291056D01*
X250429Y883920D02*
Y899155D01*
X258047D01*
X260586Y896616D01*
Y891538D01*
X258047Y888998D01*
X250429D01*
X268204Y894077D02*
X273282D01*
X275821Y891538D01*
Y883920D01*
X268204D01*
X265665Y886459D01*
X268204Y888998D01*
X275821D01*
X291056Y899155D02*
Y883920D01*
X283439D01*
X280900Y886459D01*
Y891538D01*
X283439Y894077D01*
X291056D01*
X250429Y845820D02*
Y861055D01*
X258047D01*
X260586Y858516D01*
Y853438D01*
X258047Y850899D01*
X250429D01*
X268204Y855977D02*
X273282D01*
X275821Y853438D01*
Y845820D01*
X268204D01*
X265665Y848359D01*
X268204Y850899D01*
X275821D01*
X291056Y861055D02*
Y845820D01*
X283439D01*
X280900Y848359D01*
Y853438D01*
X283439Y855977D01*
X291056D01*
X250429Y807720D02*
Y822955D01*
X258047D01*
X260586Y820416D01*
Y815338D01*
X258047Y812798D01*
X250429D01*
X268204Y817877D02*
X273282D01*
X275821Y815338D01*
Y807720D01*
X268204D01*
X265665Y810259D01*
X268204Y812798D01*
X275821D01*
X291056Y822955D02*
Y807720D01*
X283439D01*
X280900Y810259D01*
Y815338D01*
X283439Y817877D01*
X291056D01*
X250429Y784855D02*
Y774698D01*
X255508Y769620D01*
X260586Y774698D01*
Y784855D01*
X265665Y769620D02*
X270743D01*
X268204D01*
Y779777D01*
X265665D01*
X280900D02*
X285978D01*
X288517Y777238D01*
Y769620D01*
X280900D01*
X278361Y772159D01*
X280900Y774698D01*
X288517D01*
X-130456Y1165855D02*
X-120300D01*
X-125378D01*
Y1150620D01*
X-112682D02*
X-107604D01*
X-105064Y1153159D01*
Y1158238D01*
X-107604Y1160777D01*
X-112682D01*
X-115221Y1158238D01*
Y1153159D01*
X-112682Y1150620D01*
X-99986Y1145542D02*
Y1160777D01*
X-92369D01*
X-89829Y1158238D01*
Y1153159D01*
X-92369Y1150620D01*
X-99986D01*
X-69516Y1165855D02*
Y1150620D01*
X-59359D01*
X-51742Y1160777D02*
X-46663D01*
X-44124Y1158238D01*
Y1150620D01*
X-51742D01*
X-54281Y1153159D01*
X-51742Y1155698D01*
X-44124D01*
X-39046Y1160777D02*
Y1153159D01*
X-36507Y1150620D01*
X-28889D01*
Y1148081D01*
X-31428Y1145542D01*
X-33967D01*
X-28889Y1150620D02*
Y1160777D01*
X-16193Y1150620D02*
X-21272D01*
X-23811Y1153159D01*
Y1158238D01*
X-21272Y1160777D01*
X-16193D01*
X-13654Y1158238D01*
Y1155698D01*
X-23811D01*
X-8576Y1160777D02*
Y1150620D01*
Y1155698D01*
X-6036Y1158238D01*
X-3497Y1160777D01*
X-958D01*
X21894Y1158238D02*
X32051D01*
X52365Y1165855D02*
Y1150620D01*
X59982D01*
X62521Y1153159D01*
Y1155698D01*
X59982Y1158238D01*
X52365D01*
X59982D01*
X62521Y1160777D01*
Y1163316D01*
X59982Y1165855D01*
X52365D01*
X70139Y1150620D02*
X75217D01*
X77756Y1153159D01*
Y1158238D01*
X75217Y1160777D01*
X70139D01*
X67600Y1158238D01*
Y1153159D01*
X70139Y1150620D01*
X85374Y1163316D02*
Y1160777D01*
X82835D01*
X87913D01*
X85374D01*
Y1153159D01*
X87913Y1150620D01*
X98070Y1163316D02*
Y1160777D01*
X95531D01*
X100609D01*
X98070D01*
Y1153159D01*
X100609Y1150620D01*
X110766D02*
X115844D01*
X118383Y1153159D01*
Y1158238D01*
X115844Y1160777D01*
X110766D01*
X108226Y1158238D01*
Y1153159D01*
X110766Y1150620D01*
X123462D02*
Y1160777D01*
X126001D01*
X128540Y1158238D01*
Y1150620D01*
Y1158238D01*
X131079Y1160777D01*
X133618Y1158238D01*
Y1150620D01*
X153932Y1165855D02*
Y1150620D01*
X164088D01*
X171706Y1160777D02*
X176784D01*
X179324Y1158238D01*
Y1150620D01*
X171706D01*
X169167Y1153159D01*
X171706Y1155698D01*
X179324D01*
X184402Y1160777D02*
Y1153159D01*
X186941Y1150620D01*
X194559D01*
Y1148081D01*
X192019Y1145542D01*
X189480D01*
X194559Y1150620D02*
Y1160777D01*
X207255Y1150620D02*
X202176D01*
X199637Y1153159D01*
Y1158238D01*
X202176Y1160777D01*
X207255D01*
X209794Y1158238D01*
Y1155698D01*
X199637D01*
X214872Y1160777D02*
Y1150620D01*
Y1155698D01*
X217411Y1158238D01*
X219950Y1160777D01*
X222489D01*
X-130456Y1127755D02*
X-120300D01*
X-125378D01*
Y1112520D01*
X-112682D02*
X-107604D01*
X-105064Y1115059D01*
Y1120138D01*
X-107604Y1122677D01*
X-112682D01*
X-115221Y1120138D01*
Y1115059D01*
X-112682Y1112520D01*
X-99986Y1107442D02*
Y1122677D01*
X-92369D01*
X-89829Y1120138D01*
Y1115059D01*
X-92369Y1112520D01*
X-99986D01*
X-69516Y1127755D02*
Y1112520D01*
X-59359D01*
X-51742Y1122677D02*
X-46663D01*
X-44124Y1120138D01*
Y1112520D01*
X-51742D01*
X-54281Y1115059D01*
X-51742Y1117598D01*
X-44124D01*
X-39046Y1122677D02*
Y1115059D01*
X-36507Y1112520D01*
X-28889D01*
Y1109981D01*
X-31428Y1107442D01*
X-33967D01*
X-28889Y1112520D02*
Y1122677D01*
X-16193Y1112520D02*
X-21272D01*
X-23811Y1115059D01*
Y1120138D01*
X-21272Y1122677D01*
X-16193D01*
X-13654Y1120138D01*
Y1117598D01*
X-23811D01*
X-8576Y1122677D02*
Y1112520D01*
Y1117598D01*
X-6036Y1120138D01*
X-3497Y1122677D01*
X-958D01*
X21894Y1120138D02*
X32051D01*
X52365Y1127755D02*
Y1112520D01*
X59982D01*
X62521Y1115059D01*
Y1117598D01*
X59982Y1120138D01*
X52365D01*
X59982D01*
X62521Y1122677D01*
Y1125216D01*
X59982Y1127755D01*
X52365D01*
X70139Y1112520D02*
X75217D01*
X77756Y1115059D01*
Y1120138D01*
X75217Y1122677D01*
X70139D01*
X67600Y1120138D01*
Y1115059D01*
X70139Y1112520D01*
X85374Y1125216D02*
Y1122677D01*
X82835D01*
X87913D01*
X85374D01*
Y1115059D01*
X87913Y1112520D01*
X98070Y1125216D02*
Y1122677D01*
X95531D01*
X100609D01*
X98070D01*
Y1115059D01*
X100609Y1112520D01*
X110766D02*
X115844D01*
X118383Y1115059D01*
Y1120138D01*
X115844Y1122677D01*
X110766D01*
X108226Y1120138D01*
Y1115059D01*
X110766Y1112520D01*
X123462D02*
Y1122677D01*
X126001D01*
X128540Y1120138D01*
Y1112520D01*
Y1120138D01*
X131079Y1122677D01*
X133618Y1120138D01*
Y1112520D01*
X153932Y1127755D02*
Y1112520D01*
X164088D01*
X171706Y1122677D02*
X176784D01*
X179324Y1120138D01*
Y1112520D01*
X171706D01*
X169167Y1115059D01*
X171706Y1117598D01*
X179324D01*
X184402Y1122677D02*
Y1115059D01*
X186941Y1112520D01*
X194559D01*
Y1109981D01*
X192019Y1107442D01*
X189480D01*
X194559Y1112520D02*
Y1122677D01*
X207255Y1112520D02*
X202176D01*
X199637Y1115059D01*
Y1120138D01*
X202176Y1122677D01*
X207255D01*
X209794Y1120138D01*
Y1117598D01*
X199637D01*
X214872Y1122677D02*
Y1112520D01*
Y1117598D01*
X217411Y1120138D01*
X219950Y1122677D01*
X222489D01*
X-130456Y1089655D02*
X-120300D01*
X-125378D01*
Y1074420D01*
X-112682D02*
X-107604D01*
X-105064Y1076959D01*
Y1082038D01*
X-107604Y1084577D01*
X-112682D01*
X-115221Y1082038D01*
Y1076959D01*
X-112682Y1074420D01*
X-99986Y1069342D02*
Y1084577D01*
X-92369D01*
X-89829Y1082038D01*
Y1076959D01*
X-92369Y1074420D01*
X-99986D01*
X-69516Y1089655D02*
Y1074420D01*
X-59359D01*
X-51742Y1084577D02*
X-46663D01*
X-44124Y1082038D01*
Y1074420D01*
X-51742D01*
X-54281Y1076959D01*
X-51742Y1079499D01*
X-44124D01*
X-39046Y1084577D02*
Y1076959D01*
X-36507Y1074420D01*
X-28889D01*
Y1071881D01*
X-31428Y1069342D01*
X-33967D01*
X-28889Y1074420D02*
Y1084577D01*
X-16193Y1074420D02*
X-21272D01*
X-23811Y1076959D01*
Y1082038D01*
X-21272Y1084577D01*
X-16193D01*
X-13654Y1082038D01*
Y1079499D01*
X-23811D01*
X-8576Y1084577D02*
Y1074420D01*
Y1079499D01*
X-6036Y1082038D01*
X-3497Y1084577D01*
X-958D01*
X21894Y1082038D02*
X32051D01*
X52365Y1089655D02*
Y1074420D01*
X59982D01*
X62521Y1076959D01*
Y1079499D01*
X59982Y1082038D01*
X52365D01*
X59982D01*
X62521Y1084577D01*
Y1087116D01*
X59982Y1089655D01*
X52365D01*
X70139Y1074420D02*
X75217D01*
X77756Y1076959D01*
Y1082038D01*
X75217Y1084577D01*
X70139D01*
X67600Y1082038D01*
Y1076959D01*
X70139Y1074420D01*
X85374Y1087116D02*
Y1084577D01*
X82835D01*
X87913D01*
X85374D01*
Y1076959D01*
X87913Y1074420D01*
X98070Y1087116D02*
Y1084577D01*
X95531D01*
X100609D01*
X98070D01*
Y1076959D01*
X100609Y1074420D01*
X110766D02*
X115844D01*
X118383Y1076959D01*
Y1082038D01*
X115844Y1084577D01*
X110766D01*
X108226Y1082038D01*
Y1076959D01*
X110766Y1074420D01*
X123462D02*
Y1084577D01*
X126001D01*
X128540Y1082038D01*
Y1074420D01*
Y1082038D01*
X131079Y1084577D01*
X133618Y1082038D01*
Y1074420D01*
X153932Y1089655D02*
Y1074420D01*
X164088D01*
X171706Y1084577D02*
X176784D01*
X179324Y1082038D01*
Y1074420D01*
X171706D01*
X169167Y1076959D01*
X171706Y1079499D01*
X179324D01*
X184402Y1084577D02*
Y1076959D01*
X186941Y1074420D01*
X194559D01*
Y1071881D01*
X192019Y1069342D01*
X189480D01*
X194559Y1074420D02*
Y1084577D01*
X207255Y1074420D02*
X202176D01*
X199637Y1076959D01*
Y1082038D01*
X202176Y1084577D01*
X207255D01*
X209794Y1082038D01*
Y1079499D01*
X199637D01*
X214872Y1084577D02*
Y1074420D01*
Y1079499D01*
X217411Y1082038D01*
X219950Y1084577D01*
X222489D01*
X-130456Y1051555D02*
X-120300D01*
X-125378D01*
Y1036320D01*
X-112682D02*
X-107604D01*
X-105064Y1038859D01*
Y1043938D01*
X-107604Y1046477D01*
X-112682D01*
X-115221Y1043938D01*
Y1038859D01*
X-112682Y1036320D01*
X-99986Y1031242D02*
Y1046477D01*
X-92369D01*
X-89829Y1043938D01*
Y1038859D01*
X-92369Y1036320D01*
X-99986D01*
X-69516Y1051555D02*
Y1036320D01*
X-59359D01*
X-51742Y1046477D02*
X-46663D01*
X-44124Y1043938D01*
Y1036320D01*
X-51742D01*
X-54281Y1038859D01*
X-51742Y1041398D01*
X-44124D01*
X-39046Y1046477D02*
Y1038859D01*
X-36507Y1036320D01*
X-28889D01*
Y1033781D01*
X-31428Y1031242D01*
X-33967D01*
X-28889Y1036320D02*
Y1046477D01*
X-16193Y1036320D02*
X-21272D01*
X-23811Y1038859D01*
Y1043938D01*
X-21272Y1046477D01*
X-16193D01*
X-13654Y1043938D01*
Y1041398D01*
X-23811D01*
X-8576Y1046477D02*
Y1036320D01*
Y1041398D01*
X-6036Y1043938D01*
X-3497Y1046477D01*
X-958D01*
X21894Y1043938D02*
X32051D01*
X52365Y1051555D02*
Y1036320D01*
X59982D01*
X62521Y1038859D01*
Y1041398D01*
X59982Y1043938D01*
X52365D01*
X59982D01*
X62521Y1046477D01*
Y1049016D01*
X59982Y1051555D01*
X52365D01*
X70139Y1036320D02*
X75217D01*
X77756Y1038859D01*
Y1043938D01*
X75217Y1046477D01*
X70139D01*
X67600Y1043938D01*
Y1038859D01*
X70139Y1036320D01*
X85374Y1049016D02*
Y1046477D01*
X82835D01*
X87913D01*
X85374D01*
Y1038859D01*
X87913Y1036320D01*
X98070Y1049016D02*
Y1046477D01*
X95531D01*
X100609D01*
X98070D01*
Y1038859D01*
X100609Y1036320D01*
X110766D02*
X115844D01*
X118383Y1038859D01*
Y1043938D01*
X115844Y1046477D01*
X110766D01*
X108226Y1043938D01*
Y1038859D01*
X110766Y1036320D01*
X123462D02*
Y1046477D01*
X126001D01*
X128540Y1043938D01*
Y1036320D01*
Y1043938D01*
X131079Y1046477D01*
X133618Y1043938D01*
Y1036320D01*
X153932Y1051555D02*
Y1036320D01*
X164088D01*
X171706Y1046477D02*
X176784D01*
X179324Y1043938D01*
Y1036320D01*
X171706D01*
X169167Y1038859D01*
X171706Y1041398D01*
X179324D01*
X184402Y1046477D02*
Y1038859D01*
X186941Y1036320D01*
X194559D01*
Y1033781D01*
X192019Y1031242D01*
X189480D01*
X194559Y1036320D02*
Y1046477D01*
X207255Y1036320D02*
X202176D01*
X199637Y1038859D01*
Y1043938D01*
X202176Y1046477D01*
X207255D01*
X209794Y1043938D01*
Y1041398D01*
X199637D01*
X214872Y1046477D02*
Y1036320D01*
Y1041398D01*
X217411Y1043938D01*
X219950Y1046477D01*
X222489D01*
X-130456Y1013455D02*
X-120300D01*
X-125378D01*
Y998220D01*
X-112682D02*
X-107604D01*
X-105064Y1000759D01*
Y1005838D01*
X-107604Y1008377D01*
X-112682D01*
X-115221Y1005838D01*
Y1000759D01*
X-112682Y998220D01*
X-99986Y993142D02*
Y1008377D01*
X-92369D01*
X-89829Y1005838D01*
Y1000759D01*
X-92369Y998220D01*
X-99986D01*
X-69516Y1013455D02*
Y998220D01*
X-59359D01*
X-51742Y1008377D02*
X-46663D01*
X-44124Y1005838D01*
Y998220D01*
X-51742D01*
X-54281Y1000759D01*
X-51742Y1003298D01*
X-44124D01*
X-39046Y1008377D02*
Y1000759D01*
X-36507Y998220D01*
X-28889D01*
Y995681D01*
X-31428Y993142D01*
X-33967D01*
X-28889Y998220D02*
Y1008377D01*
X-16193Y998220D02*
X-21272D01*
X-23811Y1000759D01*
Y1005838D01*
X-21272Y1008377D01*
X-16193D01*
X-13654Y1005838D01*
Y1003298D01*
X-23811D01*
X-8576Y1008377D02*
Y998220D01*
Y1003298D01*
X-6036Y1005838D01*
X-3497Y1008377D01*
X-958D01*
X21894Y1005838D02*
X32051D01*
X52365Y1013455D02*
Y998220D01*
X59982D01*
X62521Y1000759D01*
Y1003298D01*
X59982Y1005838D01*
X52365D01*
X59982D01*
X62521Y1008377D01*
Y1010916D01*
X59982Y1013455D01*
X52365D01*
X70139Y998220D02*
X75217D01*
X77756Y1000759D01*
Y1005838D01*
X75217Y1008377D01*
X70139D01*
X67600Y1005838D01*
Y1000759D01*
X70139Y998220D01*
X85374Y1010916D02*
Y1008377D01*
X82835D01*
X87913D01*
X85374D01*
Y1000759D01*
X87913Y998220D01*
X98070Y1010916D02*
Y1008377D01*
X95531D01*
X100609D01*
X98070D01*
Y1000759D01*
X100609Y998220D01*
X110766D02*
X115844D01*
X118383Y1000759D01*
Y1005838D01*
X115844Y1008377D01*
X110766D01*
X108226Y1005838D01*
Y1000759D01*
X110766Y998220D01*
X123462D02*
Y1008377D01*
X126001D01*
X128540Y1005838D01*
Y998220D01*
Y1005838D01*
X131079Y1008377D01*
X133618Y1005838D01*
Y998220D01*
X153932Y1013455D02*
Y998220D01*
X164088D01*
X171706Y1008377D02*
X176784D01*
X179324Y1005838D01*
Y998220D01*
X171706D01*
X169167Y1000759D01*
X171706Y1003298D01*
X179324D01*
X184402Y1008377D02*
Y1000759D01*
X186941Y998220D01*
X194559D01*
Y995681D01*
X192019Y993142D01*
X189480D01*
X194559Y998220D02*
Y1008377D01*
X207255Y998220D02*
X202176D01*
X199637Y1000759D01*
Y1005838D01*
X202176Y1008377D01*
X207255D01*
X209794Y1005838D01*
Y1003298D01*
X199637D01*
X214872Y1008377D02*
Y998220D01*
Y1003298D01*
X217411Y1005838D01*
X219950Y1008377D01*
X222489D01*
X-130456Y975355D02*
X-120300D01*
X-125378D01*
Y960120D01*
X-112682D02*
X-107604D01*
X-105064Y962659D01*
Y967738D01*
X-107604Y970277D01*
X-112682D01*
X-115221Y967738D01*
Y962659D01*
X-112682Y960120D01*
X-99986Y955042D02*
Y970277D01*
X-92369D01*
X-89829Y967738D01*
Y962659D01*
X-92369Y960120D01*
X-99986D01*
X-69516Y975355D02*
Y960120D01*
X-59359D01*
X-51742Y970277D02*
X-46663D01*
X-44124Y967738D01*
Y960120D01*
X-51742D01*
X-54281Y962659D01*
X-51742Y965199D01*
X-44124D01*
X-39046Y970277D02*
Y962659D01*
X-36507Y960120D01*
X-28889D01*
Y957581D01*
X-31428Y955042D01*
X-33967D01*
X-28889Y960120D02*
Y970277D01*
X-16193Y960120D02*
X-21272D01*
X-23811Y962659D01*
Y967738D01*
X-21272Y970277D01*
X-16193D01*
X-13654Y967738D01*
Y965199D01*
X-23811D01*
X-8576Y970277D02*
Y960120D01*
Y965199D01*
X-6036Y967738D01*
X-3497Y970277D01*
X-958D01*
X21894Y967738D02*
X32051D01*
X52365Y975355D02*
Y960120D01*
X59982D01*
X62521Y962659D01*
Y965199D01*
X59982Y967738D01*
X52365D01*
X59982D01*
X62521Y970277D01*
Y972816D01*
X59982Y975355D01*
X52365D01*
X70139Y960120D02*
X75217D01*
X77756Y962659D01*
Y967738D01*
X75217Y970277D01*
X70139D01*
X67600Y967738D01*
Y962659D01*
X70139Y960120D01*
X85374Y972816D02*
Y970277D01*
X82835D01*
X87913D01*
X85374D01*
Y962659D01*
X87913Y960120D01*
X98070Y972816D02*
Y970277D01*
X95531D01*
X100609D01*
X98070D01*
Y962659D01*
X100609Y960120D01*
X110766D02*
X115844D01*
X118383Y962659D01*
Y967738D01*
X115844Y970277D01*
X110766D01*
X108226Y967738D01*
Y962659D01*
X110766Y960120D01*
X123462D02*
Y970277D01*
X126001D01*
X128540Y967738D01*
Y960120D01*
Y967738D01*
X131079Y970277D01*
X133618Y967738D01*
Y960120D01*
X153932Y975355D02*
Y960120D01*
X164088D01*
X171706Y970277D02*
X176784D01*
X179324Y967738D01*
Y960120D01*
X171706D01*
X169167Y962659D01*
X171706Y965199D01*
X179324D01*
X184402Y970277D02*
Y962659D01*
X186941Y960120D01*
X194559D01*
Y957581D01*
X192019Y955042D01*
X189480D01*
X194559Y960120D02*
Y970277D01*
X207255Y960120D02*
X202176D01*
X199637Y962659D01*
Y967738D01*
X202176Y970277D01*
X207255D01*
X209794Y967738D01*
Y965199D01*
X199637D01*
X214872Y970277D02*
Y960120D01*
Y965199D01*
X217411Y967738D01*
X219950Y970277D01*
X222489D01*
X-130456Y937255D02*
X-120300D01*
X-125378D01*
Y922020D01*
X-112682D02*
X-107604D01*
X-105064Y924559D01*
Y929638D01*
X-107604Y932177D01*
X-112682D01*
X-115221Y929638D01*
Y924559D01*
X-112682Y922020D01*
X-99986Y916942D02*
Y932177D01*
X-92369D01*
X-89829Y929638D01*
Y924559D01*
X-92369Y922020D01*
X-99986D01*
X-69516Y937255D02*
Y922020D01*
X-59359D01*
X-51742Y932177D02*
X-46663D01*
X-44124Y929638D01*
Y922020D01*
X-51742D01*
X-54281Y924559D01*
X-51742Y927098D01*
X-44124D01*
X-39046Y932177D02*
Y924559D01*
X-36507Y922020D01*
X-28889D01*
Y919481D01*
X-31428Y916942D01*
X-33967D01*
X-28889Y922020D02*
Y932177D01*
X-16193Y922020D02*
X-21272D01*
X-23811Y924559D01*
Y929638D01*
X-21272Y932177D01*
X-16193D01*
X-13654Y929638D01*
Y927098D01*
X-23811D01*
X-8576Y932177D02*
Y922020D01*
Y927098D01*
X-6036Y929638D01*
X-3497Y932177D01*
X-958D01*
X21894Y929638D02*
X32051D01*
X52365Y937255D02*
Y922020D01*
X59982D01*
X62521Y924559D01*
Y927098D01*
X59982Y929638D01*
X52365D01*
X59982D01*
X62521Y932177D01*
Y934716D01*
X59982Y937255D01*
X52365D01*
X70139Y922020D02*
X75217D01*
X77756Y924559D01*
Y929638D01*
X75217Y932177D01*
X70139D01*
X67600Y929638D01*
Y924559D01*
X70139Y922020D01*
X85374Y934716D02*
Y932177D01*
X82835D01*
X87913D01*
X85374D01*
Y924559D01*
X87913Y922020D01*
X98070Y934716D02*
Y932177D01*
X95531D01*
X100609D01*
X98070D01*
Y924559D01*
X100609Y922020D01*
X110766D02*
X115844D01*
X118383Y924559D01*
Y929638D01*
X115844Y932177D01*
X110766D01*
X108226Y929638D01*
Y924559D01*
X110766Y922020D01*
X123462D02*
Y932177D01*
X126001D01*
X128540Y929638D01*
Y922020D01*
Y929638D01*
X131079Y932177D01*
X133618Y929638D01*
Y922020D01*
X153932Y937255D02*
Y922020D01*
X164088D01*
X171706Y932177D02*
X176784D01*
X179324Y929638D01*
Y922020D01*
X171706D01*
X169167Y924559D01*
X171706Y927098D01*
X179324D01*
X184402Y932177D02*
Y924559D01*
X186941Y922020D01*
X194559D01*
Y919481D01*
X192019Y916942D01*
X189480D01*
X194559Y922020D02*
Y932177D01*
X207255Y922020D02*
X202176D01*
X199637Y924559D01*
Y929638D01*
X202176Y932177D01*
X207255D01*
X209794Y929638D01*
Y927098D01*
X199637D01*
X214872Y932177D02*
Y922020D01*
Y927098D01*
X217411Y929638D01*
X219950Y932177D01*
X222489D01*
X-130456Y899155D02*
X-120300D01*
X-125378D01*
Y883920D01*
X-112682D02*
X-107604D01*
X-105064Y886459D01*
Y891538D01*
X-107604Y894077D01*
X-112682D01*
X-115221Y891538D01*
Y886459D01*
X-112682Y883920D01*
X-99986Y878842D02*
Y894077D01*
X-92369D01*
X-89829Y891538D01*
Y886459D01*
X-92369Y883920D01*
X-99986D01*
X-69516Y899155D02*
Y883920D01*
X-59359D01*
X-51742Y894077D02*
X-46663D01*
X-44124Y891538D01*
Y883920D01*
X-51742D01*
X-54281Y886459D01*
X-51742Y888998D01*
X-44124D01*
X-39046Y894077D02*
Y886459D01*
X-36507Y883920D01*
X-28889D01*
Y881381D01*
X-31428Y878842D01*
X-33967D01*
X-28889Y883920D02*
Y894077D01*
X-16193Y883920D02*
X-21272D01*
X-23811Y886459D01*
Y891538D01*
X-21272Y894077D01*
X-16193D01*
X-13654Y891538D01*
Y888998D01*
X-23811D01*
X-8576Y894077D02*
Y883920D01*
Y888998D01*
X-6036Y891538D01*
X-3497Y894077D01*
X-958D01*
X21894Y891538D02*
X32051D01*
X52365Y899155D02*
Y883920D01*
X59982D01*
X62521Y886459D01*
Y888998D01*
X59982Y891538D01*
X52365D01*
X59982D01*
X62521Y894077D01*
Y896616D01*
X59982Y899155D01*
X52365D01*
X70139Y883920D02*
X75217D01*
X77756Y886459D01*
Y891538D01*
X75217Y894077D01*
X70139D01*
X67600Y891538D01*
Y886459D01*
X70139Y883920D01*
X85374Y896616D02*
Y894077D01*
X82835D01*
X87913D01*
X85374D01*
Y886459D01*
X87913Y883920D01*
X98070Y896616D02*
Y894077D01*
X95531D01*
X100609D01*
X98070D01*
Y886459D01*
X100609Y883920D01*
X110766D02*
X115844D01*
X118383Y886459D01*
Y891538D01*
X115844Y894077D01*
X110766D01*
X108226Y891538D01*
Y886459D01*
X110766Y883920D01*
X123462D02*
Y894077D01*
X126001D01*
X128540Y891538D01*
Y883920D01*
Y891538D01*
X131079Y894077D01*
X133618Y891538D01*
Y883920D01*
X153932Y899155D02*
Y883920D01*
X164088D01*
X171706Y894077D02*
X176784D01*
X179324Y891538D01*
Y883920D01*
X171706D01*
X169167Y886459D01*
X171706Y888998D01*
X179324D01*
X184402Y894077D02*
Y886459D01*
X186941Y883920D01*
X194559D01*
Y881381D01*
X192019Y878842D01*
X189480D01*
X194559Y883920D02*
Y894077D01*
X207255Y883920D02*
X202176D01*
X199637Y886459D01*
Y891538D01*
X202176Y894077D01*
X207255D01*
X209794Y891538D01*
Y888998D01*
X199637D01*
X214872Y894077D02*
Y883920D01*
Y888998D01*
X217411Y891538D01*
X219950Y894077D01*
X222489D01*
X-130456Y861055D02*
X-120300D01*
X-125378D01*
Y845820D01*
X-112682D02*
X-107604D01*
X-105064Y848359D01*
Y853438D01*
X-107604Y855977D01*
X-112682D01*
X-115221Y853438D01*
Y848359D01*
X-112682Y845820D01*
X-99986Y840742D02*
Y855977D01*
X-92369D01*
X-89829Y853438D01*
Y848359D01*
X-92369Y845820D01*
X-99986D01*
X-69516Y861055D02*
Y845820D01*
X-59359D01*
X-51742Y855977D02*
X-46663D01*
X-44124Y853438D01*
Y845820D01*
X-51742D01*
X-54281Y848359D01*
X-51742Y850899D01*
X-44124D01*
X-39046Y855977D02*
Y848359D01*
X-36507Y845820D01*
X-28889D01*
Y843281D01*
X-31428Y840742D01*
X-33967D01*
X-28889Y845820D02*
Y855977D01*
X-16193Y845820D02*
X-21272D01*
X-23811Y848359D01*
Y853438D01*
X-21272Y855977D01*
X-16193D01*
X-13654Y853438D01*
Y850899D01*
X-23811D01*
X-8576Y855977D02*
Y845820D01*
Y850899D01*
X-6036Y853438D01*
X-3497Y855977D01*
X-958D01*
X21894Y853438D02*
X32051D01*
X52365Y861055D02*
Y845820D01*
X59982D01*
X62521Y848359D01*
Y850899D01*
X59982Y853438D01*
X52365D01*
X59982D01*
X62521Y855977D01*
Y858516D01*
X59982Y861055D01*
X52365D01*
X70139Y845820D02*
X75217D01*
X77756Y848359D01*
Y853438D01*
X75217Y855977D01*
X70139D01*
X67600Y853438D01*
Y848359D01*
X70139Y845820D01*
X85374Y858516D02*
Y855977D01*
X82835D01*
X87913D01*
X85374D01*
Y848359D01*
X87913Y845820D01*
X98070Y858516D02*
Y855977D01*
X95531D01*
X100609D01*
X98070D01*
Y848359D01*
X100609Y845820D01*
X110766D02*
X115844D01*
X118383Y848359D01*
Y853438D01*
X115844Y855977D01*
X110766D01*
X108226Y853438D01*
Y848359D01*
X110766Y845820D01*
X123462D02*
Y855977D01*
X126001D01*
X128540Y853438D01*
Y845820D01*
Y853438D01*
X131079Y855977D01*
X133618Y853438D01*
Y845820D01*
X153932Y861055D02*
Y845820D01*
X164088D01*
X171706Y855977D02*
X176784D01*
X179324Y853438D01*
Y845820D01*
X171706D01*
X169167Y848359D01*
X171706Y850899D01*
X179324D01*
X184402Y855977D02*
Y848359D01*
X186941Y845820D01*
X194559D01*
Y843281D01*
X192019Y840742D01*
X189480D01*
X194559Y845820D02*
Y855977D01*
X207255Y845820D02*
X202176D01*
X199637Y848359D01*
Y853438D01*
X202176Y855977D01*
X207255D01*
X209794Y853438D01*
Y850899D01*
X199637D01*
X214872Y855977D02*
Y845820D01*
Y850899D01*
X217411Y853438D01*
X219950Y855977D01*
X222489D01*
X-130456Y822955D02*
X-120300D01*
X-125378D01*
Y807720D01*
X-112682D02*
X-107604D01*
X-105064Y810259D01*
Y815338D01*
X-107604Y817877D01*
X-112682D01*
X-115221Y815338D01*
Y810259D01*
X-112682Y807720D01*
X-99986Y802642D02*
Y817877D01*
X-92369D01*
X-89829Y815338D01*
Y810259D01*
X-92369Y807720D01*
X-99986D01*
X-69516Y822955D02*
Y807720D01*
X-59359D01*
X-51742Y817877D02*
X-46663D01*
X-44124Y815338D01*
Y807720D01*
X-51742D01*
X-54281Y810259D01*
X-51742Y812798D01*
X-44124D01*
X-39046Y817877D02*
Y810259D01*
X-36507Y807720D01*
X-28889D01*
Y805181D01*
X-31428Y802642D01*
X-33967D01*
X-28889Y807720D02*
Y817877D01*
X-16193Y807720D02*
X-21272D01*
X-23811Y810259D01*
Y815338D01*
X-21272Y817877D01*
X-16193D01*
X-13654Y815338D01*
Y812798D01*
X-23811D01*
X-8576Y817877D02*
Y807720D01*
Y812798D01*
X-6036Y815338D01*
X-3497Y817877D01*
X-958D01*
X21894Y815338D02*
X32051D01*
X52365Y822955D02*
Y807720D01*
X59982D01*
X62521Y810259D01*
Y812798D01*
X59982Y815338D01*
X52365D01*
X59982D01*
X62521Y817877D01*
Y820416D01*
X59982Y822955D01*
X52365D01*
X70139Y807720D02*
X75217D01*
X77756Y810259D01*
Y815338D01*
X75217Y817877D01*
X70139D01*
X67600Y815338D01*
Y810259D01*
X70139Y807720D01*
X85374Y820416D02*
Y817877D01*
X82835D01*
X87913D01*
X85374D01*
Y810259D01*
X87913Y807720D01*
X98070Y820416D02*
Y817877D01*
X95531D01*
X100609D01*
X98070D01*
Y810259D01*
X100609Y807720D01*
X110766D02*
X115844D01*
X118383Y810259D01*
Y815338D01*
X115844Y817877D01*
X110766D01*
X108226Y815338D01*
Y810259D01*
X110766Y807720D01*
X123462D02*
Y817877D01*
X126001D01*
X128540Y815338D01*
Y807720D01*
Y815338D01*
X131079Y817877D01*
X133618Y815338D01*
Y807720D01*
X153932Y822955D02*
Y807720D01*
X164088D01*
X171706Y817877D02*
X176784D01*
X179324Y815338D01*
Y807720D01*
X171706D01*
X169167Y810259D01*
X171706Y812798D01*
X179324D01*
X184402Y817877D02*
Y810259D01*
X186941Y807720D01*
X194559D01*
Y805181D01*
X192019Y802642D01*
X189480D01*
X194559Y807720D02*
Y817877D01*
X207255Y807720D02*
X202176D01*
X199637Y810259D01*
Y815338D01*
X202176Y817877D01*
X207255D01*
X209794Y815338D01*
Y812798D01*
X199637D01*
X214872Y817877D02*
Y807720D01*
Y812798D01*
X217411Y815338D01*
X219950Y817877D01*
X222489D01*
X-130456Y784855D02*
X-120300D01*
X-125378D01*
Y769620D01*
X-112682D02*
X-107604D01*
X-105064Y772159D01*
Y777238D01*
X-107604Y779777D01*
X-112682D01*
X-115221Y777238D01*
Y772159D01*
X-112682Y769620D01*
X-99986Y764542D02*
Y779777D01*
X-92369D01*
X-89829Y777238D01*
Y772159D01*
X-92369Y769620D01*
X-99986D01*
X-69516Y784855D02*
Y769620D01*
X-59359D01*
X-51742Y779777D02*
X-46663D01*
X-44124Y777238D01*
Y769620D01*
X-51742D01*
X-54281Y772159D01*
X-51742Y774698D01*
X-44124D01*
X-39046Y779777D02*
Y772159D01*
X-36507Y769620D01*
X-28889D01*
Y767081D01*
X-31428Y764542D01*
X-33967D01*
X-28889Y769620D02*
Y779777D01*
X-16193Y769620D02*
X-21272D01*
X-23811Y772159D01*
Y777238D01*
X-21272Y779777D01*
X-16193D01*
X-13654Y777238D01*
Y774698D01*
X-23811D01*
X-8576Y779777D02*
Y769620D01*
Y774698D01*
X-6036Y777238D01*
X-3497Y779777D01*
X-958D01*
X21894Y777238D02*
X32051D01*
X52365Y784855D02*
Y769620D01*
X59982D01*
X62521Y772159D01*
Y774698D01*
X59982Y777238D01*
X52365D01*
X59982D01*
X62521Y779777D01*
Y782316D01*
X59982Y784855D01*
X52365D01*
X70139Y769620D02*
X75217D01*
X77756Y772159D01*
Y777238D01*
X75217Y779777D01*
X70139D01*
X67600Y777238D01*
Y772159D01*
X70139Y769620D01*
X85374Y782316D02*
Y779777D01*
X82835D01*
X87913D01*
X85374D01*
Y772159D01*
X87913Y769620D01*
X98070Y782316D02*
Y779777D01*
X95531D01*
X100609D01*
X98070D01*
Y772159D01*
X100609Y769620D01*
X110766D02*
X115844D01*
X118383Y772159D01*
Y777238D01*
X115844Y779777D01*
X110766D01*
X108226Y777238D01*
Y772159D01*
X110766Y769620D01*
X123462D02*
Y779777D01*
X126001D01*
X128540Y777238D01*
Y769620D01*
Y777238D01*
X131079Y779777D01*
X133618Y777238D01*
Y769620D01*
X153932Y784855D02*
Y769620D01*
X164088D01*
X171706Y779777D02*
X176784D01*
X179324Y777238D01*
Y769620D01*
X171706D01*
X169167Y772159D01*
X171706Y774698D01*
X179324D01*
X184402Y779777D02*
Y772159D01*
X186941Y769620D01*
X194559D01*
Y767081D01*
X192019Y764542D01*
X189480D01*
X194559Y769620D02*
Y779777D01*
X207255Y769620D02*
X202176D01*
X199637Y772159D01*
Y777238D01*
X202176Y779777D01*
X207255D01*
X209794Y777238D01*
Y774698D01*
X199637D01*
X214872Y779777D02*
Y769620D01*
Y774698D01*
X217411Y777238D01*
X219950Y779777D01*
X222489D01*
X-316842Y1150620D02*
Y1165855D01*
X-309224D01*
X-306685Y1163316D01*
Y1158238D01*
X-309224Y1155698D01*
X-316842D01*
X-311764D02*
X-306685Y1150620D01*
X-299068D02*
X-293989D01*
X-291450Y1153159D01*
Y1158238D01*
X-293989Y1160777D01*
X-299068D01*
X-301607Y1158238D01*
Y1153159D01*
X-299068Y1150620D01*
X-286372Y1160777D02*
Y1153159D01*
X-283833Y1150620D01*
X-276215D01*
Y1160777D01*
X-271137Y1150620D02*
Y1160777D01*
X-263519D01*
X-260980Y1158238D01*
Y1150620D01*
X-245745Y1165855D02*
Y1150620D01*
X-253363D01*
X-255902Y1153159D01*
Y1158238D01*
X-253363Y1160777D01*
X-245745D01*
X-306685Y1125216D02*
X-309224Y1127755D01*
X-314303D01*
X-316842Y1125216D01*
Y1122677D01*
X-314303Y1120138D01*
X-309224D01*
X-306685Y1117598D01*
Y1115059D01*
X-309224Y1112520D01*
X-314303D01*
X-316842Y1115059D01*
X-301607Y1112520D02*
X-296529D01*
X-299068D01*
Y1127755D01*
X-301607D01*
X-286372Y1112520D02*
X-281294D01*
X-278754Y1115059D01*
Y1120138D01*
X-281294Y1122677D01*
X-286372D01*
X-288911Y1120138D01*
Y1115059D01*
X-286372Y1112520D01*
X-271137Y1125216D02*
Y1122677D01*
X-273676D01*
X-268598D01*
X-271137D01*
Y1115059D01*
X-268598Y1112520D01*
X-316842Y1074420D02*
Y1089655D01*
X-309224D01*
X-306685Y1087116D01*
Y1082038D01*
X-309224Y1079499D01*
X-316842D01*
X-311764D02*
X-306685Y1074420D01*
X-299068D02*
X-293989D01*
X-291450Y1076959D01*
Y1082038D01*
X-293989Y1084577D01*
X-299068D01*
X-301607Y1082038D01*
Y1076959D01*
X-299068Y1074420D01*
X-286372Y1084577D02*
Y1076959D01*
X-283833Y1074420D01*
X-276215D01*
Y1084577D01*
X-271137Y1074420D02*
Y1084577D01*
X-263519D01*
X-260980Y1082038D01*
Y1074420D01*
X-245745Y1089655D02*
Y1074420D01*
X-253363D01*
X-255902Y1076959D01*
Y1082038D01*
X-253363Y1084577D01*
X-245745D01*
X-306685Y1049016D02*
X-309224Y1051555D01*
X-314303D01*
X-316842Y1049016D01*
Y1046477D01*
X-314303Y1043938D01*
X-309224D01*
X-306685Y1041398D01*
Y1038859D01*
X-309224Y1036320D01*
X-314303D01*
X-316842Y1038859D01*
X-301607Y1036320D02*
X-296529D01*
X-299068D01*
Y1051555D01*
X-301607D01*
X-286372Y1036320D02*
X-281294D01*
X-278754Y1038859D01*
Y1043938D01*
X-281294Y1046477D01*
X-286372D01*
X-288911Y1043938D01*
Y1038859D01*
X-286372Y1036320D01*
X-271137Y1049016D02*
Y1046477D01*
X-273676D01*
X-268598D01*
X-271137D01*
Y1038859D01*
X-268598Y1036320D01*
X-316842Y998220D02*
Y1013455D01*
X-309224D01*
X-306685Y1010916D01*
Y1005838D01*
X-309224Y1003298D01*
X-316842D01*
X-311764D02*
X-306685Y998220D01*
X-299068D02*
X-293989D01*
X-291450Y1000759D01*
Y1005838D01*
X-293989Y1008377D01*
X-299068D01*
X-301607Y1005838D01*
Y1000759D01*
X-299068Y998220D01*
X-286372Y1008377D02*
Y1000759D01*
X-283833Y998220D01*
X-276215D01*
Y1008377D01*
X-271137Y998220D02*
Y1008377D01*
X-263519D01*
X-260980Y1005838D01*
Y998220D01*
X-245745Y1013455D02*
Y998220D01*
X-253363D01*
X-255902Y1000759D01*
Y1005838D01*
X-253363Y1008377D01*
X-245745D01*
X-316842Y960120D02*
Y975355D01*
X-309224D01*
X-306685Y972816D01*
Y967738D01*
X-309224Y965199D01*
X-316842D01*
X-311764D02*
X-306685Y960120D01*
X-299068D02*
X-293989D01*
X-291450Y962659D01*
Y967738D01*
X-293989Y970277D01*
X-299068D01*
X-301607Y967738D01*
Y962659D01*
X-299068Y960120D01*
X-286372Y970277D02*
Y962659D01*
X-283833Y960120D01*
X-276215D01*
Y970277D01*
X-271137Y960120D02*
Y970277D01*
X-263519D01*
X-260980Y967738D01*
Y960120D01*
X-245745Y975355D02*
Y960120D01*
X-253363D01*
X-255902Y962659D01*
Y967738D01*
X-253363Y970277D01*
X-245745D01*
X-316842Y922020D02*
Y937255D01*
X-309224D01*
X-306685Y934716D01*
Y929638D01*
X-309224Y927098D01*
X-316842D01*
X-311764D02*
X-306685Y922020D01*
X-299068D02*
X-293989D01*
X-291450Y924559D01*
Y929638D01*
X-293989Y932177D01*
X-299068D01*
X-301607Y929638D01*
Y924559D01*
X-299068Y922020D01*
X-286372Y932177D02*
Y924559D01*
X-283833Y922020D01*
X-276215D01*
Y932177D01*
X-271137Y922020D02*
Y932177D01*
X-263519D01*
X-260980Y929638D01*
Y922020D01*
X-245745Y937255D02*
Y922020D01*
X-253363D01*
X-255902Y924559D01*
Y929638D01*
X-253363Y932177D01*
X-245745D01*
X-316842Y883920D02*
Y899155D01*
X-309224D01*
X-306685Y896616D01*
Y891538D01*
X-309224Y888998D01*
X-316842D01*
X-311764D02*
X-306685Y883920D01*
X-299068D02*
X-293989D01*
X-291450Y886459D01*
Y891538D01*
X-293989Y894077D01*
X-299068D01*
X-301607Y891538D01*
Y886459D01*
X-299068Y883920D01*
X-286372Y894077D02*
Y886459D01*
X-283833Y883920D01*
X-276215D01*
Y894077D01*
X-271137Y883920D02*
Y894077D01*
X-263519D01*
X-260980Y891538D01*
Y883920D01*
X-245745Y899155D02*
Y883920D01*
X-253363D01*
X-255902Y886459D01*
Y891538D01*
X-253363Y894077D01*
X-245745D01*
X-316842Y845820D02*
Y861055D01*
X-309224D01*
X-306685Y858516D01*
Y853438D01*
X-309224Y850899D01*
X-316842D01*
X-311764D02*
X-306685Y845820D01*
X-299068D02*
X-293989D01*
X-291450Y848359D01*
Y853438D01*
X-293989Y855977D01*
X-299068D01*
X-301607Y853438D01*
Y848359D01*
X-299068Y845820D01*
X-286372Y855977D02*
Y848359D01*
X-283833Y845820D01*
X-276215D01*
Y855977D01*
X-271137Y845820D02*
Y855977D01*
X-263519D01*
X-260980Y853438D01*
Y845820D01*
X-245745Y861055D02*
Y845820D01*
X-253363D01*
X-255902Y848359D01*
Y853438D01*
X-253363Y855977D01*
X-245745D01*
X-316842Y807720D02*
Y822955D01*
X-309224D01*
X-306685Y820416D01*
Y815338D01*
X-309224Y812798D01*
X-316842D01*
X-311764D02*
X-306685Y807720D01*
X-299068D02*
X-293989D01*
X-291450Y810259D01*
Y815338D01*
X-293989Y817877D01*
X-299068D01*
X-301607Y815338D01*
Y810259D01*
X-299068Y807720D01*
X-286372Y817877D02*
Y810259D01*
X-283833Y807720D01*
X-276215D01*
Y817877D01*
X-271137Y807720D02*
Y817877D01*
X-263519D01*
X-260980Y815338D01*
Y807720D01*
X-245745Y822955D02*
Y807720D01*
X-253363D01*
X-255902Y810259D01*
Y815338D01*
X-253363Y817877D01*
X-245745D01*
X-316842Y769620D02*
Y784855D01*
X-309224D01*
X-306685Y782316D01*
Y777238D01*
X-309224Y774698D01*
X-316842D01*
X-311764D02*
X-306685Y769620D01*
X-299068D02*
X-293989D01*
X-291450Y772159D01*
Y777238D01*
X-293989Y779777D01*
X-299068D01*
X-301607Y777238D01*
Y772159D01*
X-299068Y769620D01*
X-286372Y779777D02*
Y772159D01*
X-283833Y769620D01*
X-276215D01*
Y779777D01*
X-271137Y769620D02*
Y779777D01*
X-263519D01*
X-260980Y777238D01*
Y769620D01*
X-245745Y784855D02*
Y769620D01*
X-253363D01*
X-255902Y772159D01*
Y777238D01*
X-253363Y779777D01*
X-245745D01*
X-445334Y1150620D02*
Y1165855D01*
X-437717D01*
X-435178Y1163316D01*
Y1158238D01*
X-437717Y1155698D01*
X-445334D01*
X-430099Y1165855D02*
X-419943D01*
X-425021D01*
Y1150620D01*
X-414864Y1165855D02*
Y1150620D01*
Y1158238D01*
X-404708D01*
Y1165855D01*
Y1150620D01*
X-445334Y1112520D02*
Y1127755D01*
X-437717D01*
X-435178Y1125216D01*
Y1120138D01*
X-437717Y1117598D01*
X-445334D01*
X-430099Y1127755D02*
X-419943D01*
X-425021D01*
Y1112520D01*
X-414864Y1127755D02*
Y1112520D01*
Y1120138D01*
X-404708D01*
Y1127755D01*
Y1112520D01*
X-445334Y1074420D02*
Y1089655D01*
X-435178Y1074420D01*
Y1089655D01*
X-430099Y1074420D02*
Y1089655D01*
X-422482D01*
X-419943Y1087116D01*
Y1082038D01*
X-422482Y1079499D01*
X-430099D01*
X-414864Y1089655D02*
X-404708D01*
X-409786D01*
Y1074420D01*
X-399629Y1089655D02*
Y1074420D01*
Y1082038D01*
X-389473D01*
Y1089655D01*
Y1074420D01*
X-445334Y1036320D02*
Y1051555D01*
X-437717D01*
X-435178Y1049016D01*
Y1043938D01*
X-437717Y1041398D01*
X-445334D01*
X-430099Y1051555D02*
X-419943D01*
X-425021D01*
Y1036320D01*
X-414864Y1051555D02*
Y1036320D01*
Y1043938D01*
X-404708D01*
Y1051555D01*
Y1036320D01*
X-445334Y998220D02*
Y1013455D01*
X-437717D01*
X-435178Y1010916D01*
Y1005838D01*
X-437717Y1003298D01*
X-445334D01*
X-430099Y1013455D02*
X-419943D01*
X-425021D01*
Y998220D01*
X-414864Y1013455D02*
Y998220D01*
Y1005838D01*
X-404708D01*
Y1013455D01*
Y998220D01*
X-445334Y960120D02*
Y975355D01*
X-437717D01*
X-435178Y972816D01*
Y967738D01*
X-437717Y965199D01*
X-445334D01*
X-430099Y975355D02*
X-419943D01*
X-425021D01*
Y960120D01*
X-414864Y975355D02*
Y960120D01*
Y967738D01*
X-404708D01*
Y975355D01*
Y960120D01*
X-445334Y922020D02*
Y937255D01*
X-437717D01*
X-435178Y934716D01*
Y929638D01*
X-437717Y927098D01*
X-445334D01*
X-430099Y937255D02*
X-419943D01*
X-425021D01*
Y922020D01*
X-414864Y937255D02*
Y922020D01*
Y929638D01*
X-404708D01*
Y937255D01*
Y922020D01*
X-445334Y883920D02*
Y899155D01*
X-437717D01*
X-435178Y896616D01*
Y891538D01*
X-437717Y888998D01*
X-445334D01*
X-430099Y899155D02*
X-419943D01*
X-425021D01*
Y883920D01*
X-414864Y899155D02*
Y883920D01*
Y891538D01*
X-404708D01*
Y899155D01*
Y883920D01*
X-445334Y845820D02*
Y861055D01*
X-437717D01*
X-435178Y858516D01*
Y853438D01*
X-437717Y850899D01*
X-445334D01*
X-430099Y861055D02*
X-419943D01*
X-425021D01*
Y845820D01*
X-414864Y861055D02*
Y845820D01*
Y853438D01*
X-404708D01*
Y861055D01*
Y845820D01*
X-445334Y807720D02*
Y822955D01*
X-437717D01*
X-435178Y820416D01*
Y815338D01*
X-437717Y812798D01*
X-445334D01*
X-430099Y822955D02*
X-419943D01*
X-425021D01*
Y807720D01*
X-414864Y822955D02*
Y807720D01*
Y815338D01*
X-404708D01*
Y822955D01*
Y807720D01*
X-445334Y769620D02*
Y784855D01*
X-437717D01*
X-435178Y782316D01*
Y777238D01*
X-437717Y774698D01*
X-445334D01*
X-430099Y784855D02*
X-419943D01*
X-425021D01*
Y769620D01*
X-414864Y784855D02*
Y769620D01*
Y777238D01*
X-404708D01*
Y784855D01*
Y769620D01*
X-724653Y1150620D02*
X-734810D01*
X-724653Y1160777D01*
Y1163316D01*
X-727192Y1165855D01*
X-732271D01*
X-734810Y1163316D01*
X-719575D02*
X-717036Y1165855D01*
X-711957D01*
X-709418Y1163316D01*
Y1160777D01*
X-711957Y1158238D01*
X-709418Y1155698D01*
Y1153159D01*
X-711957Y1150620D01*
X-717036D01*
X-719575Y1153159D01*
Y1155698D01*
X-717036Y1158238D01*
X-719575Y1160777D01*
Y1163316D01*
X-717036Y1158238D02*
X-711957D01*
X-704340Y1150620D02*
Y1153159D01*
X-701801D01*
Y1150620D01*
X-704340D01*
X-691644Y1163316D02*
X-689105Y1165855D01*
X-684026D01*
X-681487Y1163316D01*
Y1153159D01*
X-684026Y1150620D01*
X-689105D01*
X-691644Y1153159D01*
Y1163316D01*
X-676409D02*
X-673869Y1165855D01*
X-668791D01*
X-666252Y1163316D01*
Y1153159D01*
X-668791Y1150620D01*
X-673869D01*
X-676409Y1153159D01*
Y1163316D01*
X-661174Y1150620D02*
Y1160777D01*
X-658634D01*
X-656095Y1158238D01*
Y1150620D01*
Y1158238D01*
X-653556Y1160777D01*
X-651017Y1158238D01*
Y1150620D01*
X-645938D02*
X-640860D01*
X-643399D01*
Y1160777D01*
X-645938D01*
X-633243Y1150620D02*
X-628164D01*
X-630704D01*
Y1165855D01*
X-633243D01*
X-600233Y1150620D02*
X-605312Y1155698D01*
Y1160777D01*
X-600233Y1165855D01*
X-592616Y1163316D02*
X-590077Y1165855D01*
X-584998D01*
X-582459Y1163316D01*
Y1153159D01*
X-584998Y1150620D01*
X-590077D01*
X-592616Y1153159D01*
Y1163316D01*
X-577381Y1150620D02*
Y1153159D01*
X-574841D01*
Y1150620D01*
X-577381D01*
X-564685Y1165855D02*
X-554528D01*
Y1163316D01*
X-564685Y1153159D01*
Y1150620D01*
X-549450D02*
X-544371D01*
X-546911D01*
Y1165855D01*
X-549450Y1163316D01*
X-536754Y1150620D02*
X-531675D01*
X-534215D01*
Y1165855D01*
X-536754Y1163316D01*
X-524058Y1150620D02*
Y1160777D01*
X-521519D01*
X-518980Y1158238D01*
Y1150620D01*
Y1158238D01*
X-516441Y1160777D01*
X-513901Y1158238D01*
Y1150620D01*
X-508823D02*
Y1160777D01*
X-506284D01*
X-503745Y1158238D01*
Y1150620D01*
Y1158238D01*
X-501205Y1160777D01*
X-498666Y1158238D01*
Y1150620D01*
X-493588D02*
X-488509Y1155698D01*
Y1160777D01*
X-493588Y1165855D01*
X-724653Y1112520D02*
X-734810D01*
X-724653Y1122677D01*
Y1125216D01*
X-727192Y1127755D01*
X-732271D01*
X-734810Y1125216D01*
X-719575Y1112520D02*
X-714496D01*
X-717036D01*
Y1127755D01*
X-719575Y1125216D01*
X-706879Y1112520D02*
Y1115059D01*
X-704340D01*
Y1112520D01*
X-706879D01*
X-684026Y1127755D02*
X-689105Y1125216D01*
X-694183Y1120138D01*
Y1115059D01*
X-691644Y1112520D01*
X-686565D01*
X-684026Y1115059D01*
Y1117598D01*
X-686565Y1120138D01*
X-694183D01*
X-668791Y1127755D02*
X-678948D01*
Y1120138D01*
X-673869Y1122677D01*
X-671330D01*
X-668791Y1120138D01*
Y1115059D01*
X-671330Y1112520D01*
X-676409D01*
X-678948Y1115059D01*
X-663713Y1112520D02*
Y1122677D01*
X-661174D01*
X-658634Y1120138D01*
Y1112520D01*
Y1120138D01*
X-656095Y1122677D01*
X-653556Y1120138D01*
Y1112520D01*
X-648478D02*
X-643399D01*
X-645938D01*
Y1122677D01*
X-648478D01*
X-635782Y1112520D02*
X-630704D01*
X-633243D01*
Y1127755D01*
X-635782D01*
X-602772Y1112520D02*
X-607851Y1117598D01*
Y1122677D01*
X-602772Y1127755D01*
X-595155Y1125216D02*
X-592616Y1127755D01*
X-587537D01*
X-584998Y1125216D01*
Y1115059D01*
X-587537Y1112520D01*
X-592616D01*
X-595155Y1115059D01*
Y1125216D01*
X-579920Y1112520D02*
Y1115059D01*
X-577381D01*
Y1112520D01*
X-579920D01*
X-557067Y1127755D02*
X-567224D01*
Y1120138D01*
X-562146Y1122677D01*
X-559607D01*
X-557067Y1120138D01*
Y1115059D01*
X-559607Y1112520D01*
X-564685D01*
X-567224Y1115059D01*
X-541832Y1127755D02*
X-551989D01*
Y1120138D01*
X-546911Y1122677D01*
X-544371D01*
X-541832Y1120138D01*
Y1115059D01*
X-544371Y1112520D01*
X-549450D01*
X-551989Y1115059D01*
X-536754Y1125216D02*
X-534215Y1127755D01*
X-529136D01*
X-526597Y1125216D01*
Y1115059D01*
X-529136Y1112520D01*
X-534215D01*
X-536754Y1115059D01*
Y1125216D01*
X-521519Y1112520D02*
Y1122677D01*
X-518980D01*
X-516441Y1120138D01*
Y1112520D01*
Y1120138D01*
X-513901Y1122677D01*
X-511362Y1120138D01*
Y1112520D01*
X-506284D02*
Y1122677D01*
X-503745D01*
X-501205Y1120138D01*
Y1112520D01*
Y1120138D01*
X-498666Y1122677D01*
X-496127Y1120138D01*
Y1112520D01*
X-491049D02*
X-485970Y1117598D01*
Y1122677D01*
X-491049Y1127755D01*
X-734810Y1087116D02*
X-732271Y1089655D01*
X-727192D01*
X-724653Y1087116D01*
Y1084577D01*
X-727192Y1082038D01*
X-729731D01*
X-727192D01*
X-724653Y1079499D01*
Y1076959D01*
X-727192Y1074420D01*
X-732271D01*
X-734810Y1076959D01*
X-719575Y1074420D02*
X-714496D01*
X-717036D01*
Y1089655D01*
X-719575Y1087116D01*
X-706879Y1074420D02*
Y1076959D01*
X-704340D01*
Y1074420D01*
X-706879D01*
X-684026Y1089655D02*
X-694183D01*
Y1082038D01*
X-689105Y1084577D01*
X-686565D01*
X-684026Y1082038D01*
Y1076959D01*
X-686565Y1074420D01*
X-691644D01*
X-694183Y1076959D01*
X-678948Y1087116D02*
X-676409Y1089655D01*
X-671330D01*
X-668791Y1087116D01*
Y1076959D01*
X-671330Y1074420D01*
X-676409D01*
X-678948Y1076959D01*
Y1087116D01*
X-663713Y1074420D02*
Y1084577D01*
X-661174D01*
X-658634Y1082038D01*
Y1074420D01*
Y1082038D01*
X-656095Y1084577D01*
X-653556Y1082038D01*
Y1074420D01*
X-648478D02*
X-643399D01*
X-645938D01*
Y1084577D01*
X-648478D01*
X-635782Y1074420D02*
X-630704D01*
X-633243D01*
Y1089655D01*
X-635782D01*
X-602772Y1074420D02*
X-607851Y1079499D01*
Y1084577D01*
X-602772Y1089655D01*
X-595155Y1087116D02*
X-592616Y1089655D01*
X-587537D01*
X-584998Y1087116D01*
Y1076959D01*
X-587537Y1074420D01*
X-592616D01*
X-595155Y1076959D01*
Y1087116D01*
X-579920Y1074420D02*
Y1076959D01*
X-577381D01*
Y1074420D01*
X-579920D01*
X-567224Y1087116D02*
X-564685Y1089655D01*
X-559607D01*
X-557067Y1087116D01*
Y1084577D01*
X-559607Y1082038D01*
X-557067Y1079499D01*
Y1076959D01*
X-559607Y1074420D01*
X-564685D01*
X-567224Y1076959D01*
Y1079499D01*
X-564685Y1082038D01*
X-567224Y1084577D01*
Y1087116D01*
X-564685Y1082038D02*
X-559607D01*
X-551989Y1087116D02*
X-549450Y1089655D01*
X-544371D01*
X-541832Y1087116D01*
Y1076959D01*
X-544371Y1074420D01*
X-549450D01*
X-551989Y1076959D01*
Y1087116D01*
X-536754D02*
X-534215Y1089655D01*
X-529136D01*
X-526597Y1087116D01*
Y1076959D01*
X-529136Y1074420D01*
X-534215D01*
X-536754Y1076959D01*
Y1087116D01*
X-521519Y1074420D02*
Y1084577D01*
X-518980D01*
X-516441Y1082038D01*
Y1074420D01*
Y1082038D01*
X-513901Y1084577D01*
X-511362Y1082038D01*
Y1074420D01*
X-506284D02*
Y1084577D01*
X-503745D01*
X-501205Y1082038D01*
Y1074420D01*
Y1082038D01*
X-498666Y1084577D01*
X-496127Y1082038D01*
Y1074420D01*
X-491049D02*
X-485970Y1079499D01*
Y1084577D01*
X-491049Y1089655D01*
X-734810Y1049016D02*
X-732271Y1051555D01*
X-727192D01*
X-724653Y1049016D01*
Y1046477D01*
X-727192Y1043938D01*
X-729731D01*
X-727192D01*
X-724653Y1041398D01*
Y1038859D01*
X-727192Y1036320D01*
X-732271D01*
X-734810Y1038859D01*
X-719575Y1049016D02*
X-717036Y1051555D01*
X-711957D01*
X-709418Y1049016D01*
Y1046477D01*
X-711957Y1043938D01*
X-714496D01*
X-711957D01*
X-709418Y1041398D01*
Y1038859D01*
X-711957Y1036320D01*
X-717036D01*
X-719575Y1038859D01*
X-704340Y1036320D02*
Y1038859D01*
X-701801D01*
Y1036320D01*
X-704340D01*
X-684026D02*
Y1051555D01*
X-691644Y1043938D01*
X-681487D01*
X-676409Y1051555D02*
X-666252D01*
Y1049016D01*
X-676409Y1038859D01*
Y1036320D01*
X-661174D02*
Y1046477D01*
X-658634D01*
X-656095Y1043938D01*
Y1036320D01*
Y1043938D01*
X-653556Y1046477D01*
X-651017Y1043938D01*
Y1036320D01*
X-645938D02*
X-640860D01*
X-643399D01*
Y1046477D01*
X-645938D01*
X-633243Y1036320D02*
X-628164D01*
X-630704D01*
Y1051555D01*
X-633243D01*
X-600233Y1036320D02*
X-605312Y1041398D01*
Y1046477D01*
X-600233Y1051555D01*
X-592616Y1049016D02*
X-590077Y1051555D01*
X-584998D01*
X-582459Y1049016D01*
Y1038859D01*
X-584998Y1036320D01*
X-590077D01*
X-592616Y1038859D01*
Y1049016D01*
X-577381Y1036320D02*
Y1038859D01*
X-574841D01*
Y1036320D01*
X-577381D01*
X-564685Y1049016D02*
X-562146Y1051555D01*
X-557067D01*
X-554528Y1049016D01*
Y1046477D01*
X-557067Y1043938D01*
X-554528Y1041398D01*
Y1038859D01*
X-557067Y1036320D01*
X-562146D01*
X-564685Y1038859D01*
Y1041398D01*
X-562146Y1043938D01*
X-564685Y1046477D01*
Y1049016D01*
X-562146Y1043938D02*
X-557067D01*
X-539293Y1051555D02*
X-549450D01*
Y1043938D01*
X-544371Y1046477D01*
X-541832D01*
X-539293Y1043938D01*
Y1038859D01*
X-541832Y1036320D01*
X-546911D01*
X-549450Y1038859D01*
X-534215Y1049016D02*
X-531675Y1051555D01*
X-526597D01*
X-524058Y1049016D01*
Y1038859D01*
X-526597Y1036320D01*
X-531675D01*
X-534215Y1038859D01*
Y1049016D01*
X-518980Y1036320D02*
Y1046477D01*
X-516440D01*
X-513901Y1043938D01*
Y1036320D01*
Y1043938D01*
X-511362Y1046477D01*
X-508823Y1043938D01*
Y1036320D01*
X-503745D02*
Y1046477D01*
X-501205D01*
X-498666Y1043938D01*
Y1036320D01*
Y1043938D01*
X-496127Y1046477D01*
X-493588Y1043938D01*
Y1036320D01*
X-488509D02*
X-483431Y1041398D01*
Y1046477D01*
X-488509Y1051555D01*
X-734810Y1010916D02*
X-732271Y1013455D01*
X-727192D01*
X-724653Y1010916D01*
Y1008377D01*
X-727192Y1005838D01*
X-729731D01*
X-727192D01*
X-724653Y1003298D01*
Y1000759D01*
X-727192Y998220D01*
X-732271D01*
X-734810Y1000759D01*
X-709418Y1013455D02*
X-719575D01*
Y1005838D01*
X-714496Y1008377D01*
X-711957D01*
X-709418Y1005838D01*
Y1000759D01*
X-711957Y998220D01*
X-717036D01*
X-719575Y1000759D01*
X-704340Y998220D02*
Y1000759D01*
X-701801D01*
Y998220D01*
X-704340D01*
X-684026D02*
Y1013455D01*
X-691644Y1005838D01*
X-681487D01*
X-676409Y1010916D02*
X-673869Y1013455D01*
X-668791D01*
X-666252Y1010916D01*
Y1008377D01*
X-668791Y1005838D01*
X-671330D01*
X-668791D01*
X-666252Y1003298D01*
Y1000759D01*
X-668791Y998220D01*
X-673869D01*
X-676409Y1000759D01*
X-661174Y998220D02*
Y1008377D01*
X-658634D01*
X-656095Y1005838D01*
Y998220D01*
Y1005838D01*
X-653556Y1008377D01*
X-651017Y1005838D01*
Y998220D01*
X-645938D02*
X-640860D01*
X-643399D01*
Y1008377D01*
X-645938D01*
X-633243Y998220D02*
X-628164D01*
X-630704D01*
Y1013455D01*
X-633243D01*
X-600233Y998220D02*
X-605312Y1003298D01*
Y1008377D01*
X-600233Y1013455D01*
X-592616Y1010916D02*
X-590077Y1013455D01*
X-584998D01*
X-582459Y1010916D01*
Y1000759D01*
X-584998Y998220D01*
X-590077D01*
X-592616Y1000759D01*
Y1010916D01*
X-577381Y998220D02*
Y1000759D01*
X-574841D01*
Y998220D01*
X-577381D01*
X-564685Y1000759D02*
X-562146Y998220D01*
X-557067D01*
X-554528Y1000759D01*
Y1010916D01*
X-557067Y1013455D01*
X-562146D01*
X-564685Y1010916D01*
Y1008377D01*
X-562146Y1005838D01*
X-554528D01*
X-549450Y1010916D02*
X-546911Y1013455D01*
X-541832D01*
X-539293Y1010916D01*
Y1000759D01*
X-541832Y998220D01*
X-546911D01*
X-549450Y1000759D01*
Y1010916D01*
X-534215D02*
X-531675Y1013455D01*
X-526597D01*
X-524058Y1010916D01*
Y1000759D01*
X-526597Y998220D01*
X-531675D01*
X-534215Y1000759D01*
Y1010916D01*
X-518980Y998220D02*
Y1008377D01*
X-516440D01*
X-513901Y1005838D01*
Y998220D01*
Y1005838D01*
X-511362Y1008377D01*
X-508823Y1005838D01*
Y998220D01*
X-503745D02*
Y1008377D01*
X-501205D01*
X-498666Y1005838D01*
Y998220D01*
Y1005838D01*
X-496127Y1008377D01*
X-493588Y1005838D01*
Y998220D01*
X-488509D02*
X-483431Y1003298D01*
Y1008377D01*
X-488509Y1013455D01*
X-734810Y972816D02*
X-732271Y975355D01*
X-727192D01*
X-724653Y972816D01*
Y970277D01*
X-727192Y967738D01*
X-729731D01*
X-727192D01*
X-724653Y965199D01*
Y962659D01*
X-727192Y960120D01*
X-732271D01*
X-734810Y962659D01*
X-719575D02*
X-717036Y960120D01*
X-711957D01*
X-709418Y962659D01*
Y972816D01*
X-711957Y975355D01*
X-717036D01*
X-719575Y972816D01*
Y970277D01*
X-717036Y967738D01*
X-709418D01*
X-704340Y960120D02*
Y962659D01*
X-701801D01*
Y960120D01*
X-704340D01*
X-691644Y972816D02*
X-689105Y975355D01*
X-684026D01*
X-681487Y972816D01*
Y962659D01*
X-684026Y960120D01*
X-689105D01*
X-691644Y962659D01*
Y972816D01*
X-676409D02*
X-673869Y975355D01*
X-668791D01*
X-666252Y972816D01*
Y962659D01*
X-668791Y960120D01*
X-673869D01*
X-676409Y962659D01*
Y972816D01*
X-661174Y960120D02*
Y970277D01*
X-658634D01*
X-656095Y967738D01*
Y960120D01*
Y967738D01*
X-653556Y970277D01*
X-651017Y967738D01*
Y960120D01*
X-645938D02*
X-640860D01*
X-643399D01*
Y970277D01*
X-645938D01*
X-633243Y960120D02*
X-628164D01*
X-630704D01*
Y975355D01*
X-633243D01*
X-600233Y960120D02*
X-605312Y965199D01*
Y970277D01*
X-600233Y975355D01*
X-592616Y972816D02*
X-590077Y975355D01*
X-584998D01*
X-582459Y972816D01*
Y962659D01*
X-584998Y960120D01*
X-590077D01*
X-592616Y962659D01*
Y972816D01*
X-577381Y960120D02*
Y962659D01*
X-574841D01*
Y960120D01*
X-577381D01*
X-564685Y962659D02*
X-562146Y960120D01*
X-557067D01*
X-554528Y962659D01*
Y972816D01*
X-557067Y975355D01*
X-562146D01*
X-564685Y972816D01*
Y970277D01*
X-562146Y967738D01*
X-554528D01*
X-549450Y962659D02*
X-546911Y960120D01*
X-541832D01*
X-539293Y962659D01*
Y972816D01*
X-541832Y975355D01*
X-546911D01*
X-549450Y972816D01*
Y970277D01*
X-546911Y967738D01*
X-539293D01*
X-534215Y960120D02*
X-529136D01*
X-531675D01*
Y975355D01*
X-534215Y972816D01*
X-521519Y960120D02*
Y970277D01*
X-518980D01*
X-516441Y967738D01*
Y960120D01*
Y967738D01*
X-513901Y970277D01*
X-511362Y967738D01*
Y960120D01*
X-506284D02*
Y970277D01*
X-503745D01*
X-501205Y967738D01*
Y960120D01*
Y967738D01*
X-498666Y970277D01*
X-496127Y967738D01*
Y960120D01*
X-491049D02*
X-485970Y965199D01*
Y970277D01*
X-491049Y975355D01*
X-724653Y937255D02*
X-734810D01*
Y929638D01*
X-729731Y932177D01*
X-727192D01*
X-724653Y929638D01*
Y924559D01*
X-727192Y922020D01*
X-732271D01*
X-734810Y924559D01*
X-719575Y922020D02*
X-714496D01*
X-717036D01*
Y937255D01*
X-719575Y934716D01*
X-706879Y922020D02*
Y924559D01*
X-704340D01*
Y922020D01*
X-706879D01*
X-694183Y934716D02*
X-691644Y937255D01*
X-686565D01*
X-684026Y934716D01*
Y924559D01*
X-686565Y922020D01*
X-691644D01*
X-694183Y924559D01*
Y934716D01*
X-678948D02*
X-676409Y937255D01*
X-671330D01*
X-668791Y934716D01*
Y924559D01*
X-671330Y922020D01*
X-676409D01*
X-678948Y924559D01*
Y934716D01*
X-663713Y922020D02*
Y932177D01*
X-661174D01*
X-658634Y929638D01*
Y922020D01*
Y929638D01*
X-656095Y932177D01*
X-653556Y929638D01*
Y922020D01*
X-648478D02*
X-643399D01*
X-645938D01*
Y932177D01*
X-648478D01*
X-635782Y922020D02*
X-630704D01*
X-633243D01*
Y937255D01*
X-635782D01*
X-602772Y922020D02*
X-607851Y927098D01*
Y932177D01*
X-602772Y937255D01*
X-595155Y922020D02*
X-590077D01*
X-592616D01*
Y937255D01*
X-595155Y934716D01*
X-582459Y922020D02*
Y924559D01*
X-579920D01*
Y922020D01*
X-582459D01*
X-559607D02*
X-569763D01*
X-559607Y932177D01*
Y934716D01*
X-562146Y937255D01*
X-567224D01*
X-569763Y934716D01*
X-554528Y924559D02*
X-551989Y922020D01*
X-546911D01*
X-544371Y924559D01*
Y934716D01*
X-546911Y937255D01*
X-551989D01*
X-554528Y934716D01*
Y932177D01*
X-551989Y929638D01*
X-544371D01*
X-529136Y937255D02*
X-539293D01*
Y929638D01*
X-534215Y932177D01*
X-531675D01*
X-529136Y929638D01*
Y924559D01*
X-531675Y922020D01*
X-536754D01*
X-539293Y924559D01*
X-524058Y922020D02*
Y932177D01*
X-521519D01*
X-518980Y929638D01*
Y922020D01*
Y929638D01*
X-516441Y932177D01*
X-513901Y929638D01*
Y922020D01*
X-508823D02*
Y932177D01*
X-506284D01*
X-503745Y929638D01*
Y922020D01*
Y929638D01*
X-501205Y932177D01*
X-498666Y929638D01*
Y922020D01*
X-493588D02*
X-488509Y927098D01*
Y932177D01*
X-493588Y937255D01*
X-734810Y883920D02*
X-729731D01*
X-732271D01*
Y899155D01*
X-734810Y896616D01*
X-722114Y899155D02*
X-711957D01*
Y896616D01*
X-722114Y886459D01*
Y883920D01*
X-706879Y899155D02*
X-696722D01*
Y896616D01*
X-706879Y886459D01*
Y883920D01*
X-691644D02*
Y886459D01*
X-689105D01*
Y883920D01*
X-691644D01*
X-678948Y896616D02*
X-676409Y899155D01*
X-671330D01*
X-668791Y896616D01*
Y886459D01*
X-671330Y883920D01*
X-676409D01*
X-678948Y886459D01*
Y896616D01*
X-663713Y883920D02*
X-658634D01*
X-661174D01*
Y899155D01*
X-663713Y896616D01*
X-651017Y883920D02*
Y894077D01*
X-648478D01*
X-645939Y891538D01*
Y883920D01*
Y891538D01*
X-643399Y894077D01*
X-640860Y891538D01*
Y883920D01*
X-635782D02*
X-630704D01*
X-633243D01*
Y894077D01*
X-635782D01*
X-623086Y883920D02*
X-618008D01*
X-620547D01*
Y899155D01*
X-623086D01*
X-590077Y883920D02*
X-595155Y888998D01*
Y894077D01*
X-590077Y899155D01*
X-574842Y883920D02*
Y899155D01*
X-582459Y891538D01*
X-572302D01*
X-567224Y883920D02*
Y886459D01*
X-564685D01*
Y883920D01*
X-567224D01*
X-546911D02*
Y899155D01*
X-554528Y891538D01*
X-544371D01*
X-539293Y886459D02*
X-536754Y883920D01*
X-531675D01*
X-529136Y886459D01*
Y896616D01*
X-531675Y899155D01*
X-536754D01*
X-539293Y896616D01*
Y894077D01*
X-536754Y891538D01*
X-529136D01*
X-513901Y899155D02*
X-518980Y896616D01*
X-524058Y891538D01*
Y886459D01*
X-521519Y883920D01*
X-516441D01*
X-513901Y886459D01*
Y888998D01*
X-516441Y891538D01*
X-524058D01*
X-508823Y883920D02*
Y894077D01*
X-506284D01*
X-503745Y891538D01*
Y883920D01*
Y891538D01*
X-501205Y894077D01*
X-498666Y891538D01*
Y883920D01*
X-493588D02*
Y894077D01*
X-491049D01*
X-488509Y891538D01*
Y883920D01*
Y891538D01*
X-485970Y894077D01*
X-483431Y891538D01*
Y883920D01*
X-478353D02*
X-473274Y888998D01*
Y894077D01*
X-478353Y899155D01*
X-724653Y861055D02*
X-729731Y858516D01*
X-734810Y853438D01*
Y848359D01*
X-732271Y845820D01*
X-727192D01*
X-724653Y848359D01*
Y850899D01*
X-727192Y853438D01*
X-734810D01*
X-719575Y858516D02*
X-717036Y861055D01*
X-711957D01*
X-709418Y858516D01*
Y848359D01*
X-711957Y845820D01*
X-717036D01*
X-719575Y848359D01*
Y858516D01*
X-704340Y845820D02*
Y848359D01*
X-701801D01*
Y845820D01*
X-704340D01*
X-691644Y858516D02*
X-689105Y861055D01*
X-684026D01*
X-681487Y858516D01*
Y848359D01*
X-684026Y845820D01*
X-689105D01*
X-691644Y848359D01*
Y858516D01*
X-676409D02*
X-673869Y861055D01*
X-668791D01*
X-666252Y858516D01*
Y848359D01*
X-668791Y845820D01*
X-673869D01*
X-676409Y848359D01*
Y858516D01*
X-661174Y845820D02*
Y855977D01*
X-658634D01*
X-656095Y853438D01*
Y845820D01*
Y853438D01*
X-653556Y855977D01*
X-651017Y853438D01*
Y845820D01*
X-645938D02*
X-640860D01*
X-643399D01*
Y855977D01*
X-645938D01*
X-633243Y845820D02*
X-628164D01*
X-630704D01*
Y861055D01*
X-633243D01*
X-600233Y845820D02*
X-605312Y850899D01*
Y855977D01*
X-600233Y861055D01*
X-592616Y845820D02*
X-587537D01*
X-590077D01*
Y861055D01*
X-592616Y858516D01*
X-579920Y845820D02*
Y848359D01*
X-577381D01*
Y845820D01*
X-579920D01*
X-557067Y861055D02*
X-567224D01*
Y853438D01*
X-562146Y855977D01*
X-559607D01*
X-557067Y853438D01*
Y848359D01*
X-559607Y845820D01*
X-564685D01*
X-567224Y848359D01*
X-541832Y845820D02*
X-551989D01*
X-541832Y855977D01*
Y858516D01*
X-544371Y861055D01*
X-549450D01*
X-551989Y858516D01*
X-529136Y845820D02*
Y861055D01*
X-536754Y853438D01*
X-526597D01*
X-521519Y845820D02*
Y855977D01*
X-518980D01*
X-516441Y853438D01*
Y845820D01*
Y853438D01*
X-513901Y855977D01*
X-511362Y853438D01*
Y845820D01*
X-506284D02*
Y855977D01*
X-503745D01*
X-501205Y853438D01*
Y845820D01*
Y853438D01*
X-498666Y855977D01*
X-496127Y853438D01*
Y845820D01*
X-491049D02*
X-485970Y850899D01*
Y855977D01*
X-491049Y861055D01*
X-724653Y807720D02*
X-734810D01*
X-724653Y817877D01*
Y820416D01*
X-727192Y822955D01*
X-732271D01*
X-734810Y820416D01*
X-709418Y822955D02*
X-714496Y820416D01*
X-719575Y815338D01*
Y810259D01*
X-717036Y807720D01*
X-711957D01*
X-709418Y810259D01*
Y812798D01*
X-711957Y815338D01*
X-719575D01*
X-704340Y807720D02*
Y810259D01*
X-701801D01*
Y807720D01*
X-704340D01*
X-691644Y820416D02*
X-689105Y822955D01*
X-684026D01*
X-681487Y820416D01*
Y810259D01*
X-684026Y807720D01*
X-689105D01*
X-691644Y810259D01*
Y820416D01*
X-676409D02*
X-673869Y822955D01*
X-668791D01*
X-666252Y820416D01*
Y810259D01*
X-668791Y807720D01*
X-673869D01*
X-676409Y810259D01*
Y820416D01*
X-661174Y807720D02*
Y817877D01*
X-658634D01*
X-656095Y815338D01*
Y807720D01*
Y815338D01*
X-653556Y817877D01*
X-651017Y815338D01*
Y807720D01*
X-645938D02*
X-640860D01*
X-643399D01*
Y817877D01*
X-645938D01*
X-633243Y807720D02*
X-628164D01*
X-630704D01*
Y822955D01*
X-633243D01*
X-600233Y807720D02*
X-605312Y812798D01*
Y817877D01*
X-600233Y822955D01*
X-592616Y820416D02*
X-590077Y822955D01*
X-584998D01*
X-582459Y820416D01*
Y810259D01*
X-584998Y807720D01*
X-590077D01*
X-592616Y810259D01*
Y820416D01*
X-577381Y807720D02*
Y810259D01*
X-574841D01*
Y807720D01*
X-577381D01*
X-554528Y822955D02*
X-559607Y820416D01*
X-564685Y815338D01*
Y810259D01*
X-562146Y807720D01*
X-557067D01*
X-554528Y810259D01*
Y812798D01*
X-557067Y815338D01*
X-564685D01*
X-539293Y822955D02*
X-544371Y820416D01*
X-549450Y815338D01*
Y810259D01*
X-546911Y807720D01*
X-541832D01*
X-539293Y810259D01*
Y812798D01*
X-541832Y815338D01*
X-549450D01*
X-534215Y820416D02*
X-531675Y822955D01*
X-526597D01*
X-524058Y820416D01*
Y810259D01*
X-526597Y807720D01*
X-531675D01*
X-534215Y810259D01*
Y820416D01*
X-518980Y807720D02*
Y817877D01*
X-516440D01*
X-513901Y815338D01*
Y807720D01*
Y815338D01*
X-511362Y817877D01*
X-508823Y815338D01*
Y807720D01*
X-503745D02*
Y817877D01*
X-501205D01*
X-498666Y815338D01*
Y807720D01*
Y815338D01*
X-496127Y817877D01*
X-493588Y815338D01*
Y807720D01*
X-488509D02*
X-483431Y812798D01*
Y817877D01*
X-488509Y822955D01*
X-734810Y769620D02*
X-729731D01*
X-732271D01*
Y784855D01*
X-734810Y782316D01*
X-711957Y769620D02*
X-722114D01*
X-711957Y779777D01*
Y782316D01*
X-714496Y784855D01*
X-719575D01*
X-722114Y782316D01*
X-706879Y769620D02*
Y772159D01*
X-704340D01*
Y769620D01*
X-706879D01*
X-694183Y782316D02*
X-691644Y784855D01*
X-686565D01*
X-684026Y782316D01*
Y772159D01*
X-686565Y769620D01*
X-691644D01*
X-694183Y772159D01*
Y782316D01*
X-678948D02*
X-676409Y784855D01*
X-671330D01*
X-668791Y782316D01*
Y772159D01*
X-671330Y769620D01*
X-676409D01*
X-678948Y772159D01*
Y782316D01*
X-663713Y769620D02*
Y779777D01*
X-661174D01*
X-658634Y777238D01*
Y769620D01*
Y777238D01*
X-656095Y779777D01*
X-653556Y777238D01*
Y769620D01*
X-648478D02*
X-643399D01*
X-645938D01*
Y779777D01*
X-648478D01*
X-635782Y769620D02*
X-630704D01*
X-633243D01*
Y784855D01*
X-635782D01*
X-602772Y769620D02*
X-607851Y774698D01*
Y779777D01*
X-602772Y784855D01*
X-595155Y782316D02*
X-592616Y784855D01*
X-587537D01*
X-584998Y782316D01*
Y772159D01*
X-587537Y769620D01*
X-592616D01*
X-595155Y772159D01*
Y782316D01*
X-579920Y769620D02*
Y772159D01*
X-577381D01*
Y769620D01*
X-579920D01*
X-567224Y782316D02*
X-564685Y784855D01*
X-559607D01*
X-557067Y782316D01*
Y779777D01*
X-559607Y777238D01*
X-562146D01*
X-559607D01*
X-557067Y774698D01*
Y772159D01*
X-559607Y769620D01*
X-564685D01*
X-567224Y772159D01*
X-551989Y782316D02*
X-549450Y784855D01*
X-544371D01*
X-541832Y782316D01*
Y772159D01*
X-544371Y769620D01*
X-549450D01*
X-551989Y772159D01*
Y782316D01*
X-526597Y784855D02*
X-536754D01*
Y777238D01*
X-531675Y779777D01*
X-529136D01*
X-526597Y777238D01*
Y772159D01*
X-529136Y769620D01*
X-534215D01*
X-536754Y772159D01*
X-521519Y769620D02*
Y779777D01*
X-518980D01*
X-516441Y777238D01*
Y769620D01*
Y777238D01*
X-513901Y779777D01*
X-511362Y777238D01*
Y769620D01*
X-506284D02*
Y779777D01*
X-503745D01*
X-501205Y777238D01*
Y769620D01*
Y777238D01*
X-498666Y779777D01*
X-496127Y777238D01*
Y769620D01*
X-491049D02*
X-485970Y774698D01*
Y779777D01*
X-491049Y784855D01*
X-884630Y731520D02*
X-879552D01*
X-882091D01*
Y746755D01*
X-884630Y744216D01*
X-871935D02*
X-869395Y746755D01*
X-864317D01*
X-861778Y744216D01*
Y734059D01*
X-864317Y731520D01*
X-869395D01*
X-871935Y734059D01*
Y744216D01*
X-849082Y731520D02*
Y746755D01*
X-856699Y739138D01*
X-846543D01*
X-826229Y746755D02*
X-816072D01*
X-821151D01*
Y731520D01*
X-808455D02*
X-803377D01*
X-800837Y734059D01*
Y739138D01*
X-803377Y741677D01*
X-808455D01*
X-810994Y739138D01*
Y734059D01*
X-808455Y731520D01*
X-793220Y744216D02*
Y741677D01*
X-795759D01*
X-790681D01*
X-793220D01*
Y734059D01*
X-790681Y731520D01*
X-780524Y741677D02*
X-775446D01*
X-772906Y739138D01*
Y731520D01*
X-780524D01*
X-783063Y734059D01*
X-780524Y736599D01*
X-772906D01*
X-767828Y731520D02*
X-762750D01*
X-765289D01*
Y746755D01*
X-767828D01*
X-884630Y1150620D02*
X-879552D01*
X-882091D01*
Y1165855D01*
X-884630Y1163316D01*
X-874474Y1112520D02*
X-884630D01*
X-874474Y1122677D01*
Y1125216D01*
X-877013Y1127755D01*
X-882091D01*
X-884630Y1125216D01*
X-874474Y1074420D02*
X-884630D01*
X-874474Y1084577D01*
Y1087116D01*
X-877013Y1089655D01*
X-882091D01*
X-884630Y1087116D01*
X-874474Y1036320D02*
X-884630D01*
X-874474Y1046477D01*
Y1049016D01*
X-877013Y1051555D01*
X-882091D01*
X-884630Y1049016D01*
X-874474Y998220D02*
X-884630D01*
X-874474Y1008377D01*
Y1010916D01*
X-877013Y1013455D01*
X-882091D01*
X-884630Y1010916D01*
X-874474Y960120D02*
X-884630D01*
X-874474Y970277D01*
Y972816D01*
X-877013Y975355D01*
X-882091D01*
X-884630Y972816D01*
X-874474Y922020D02*
X-884630D01*
X-874474Y932177D01*
Y934716D01*
X-877013Y937255D01*
X-882091D01*
X-884630Y934716D01*
X-877013Y883920D02*
Y899155D01*
X-884630Y891538D01*
X-874474D01*
Y861055D02*
X-879552Y858516D01*
X-884630Y853438D01*
Y848359D01*
X-882091Y845820D01*
X-877013D01*
X-874474Y848359D01*
Y850899D01*
X-877013Y853438D01*
X-884630D01*
Y807720D02*
X-879552D01*
X-882091D01*
Y822955D01*
X-884630Y820416D01*
X-871935D02*
X-869395Y822955D01*
X-864317D01*
X-861778Y820416D01*
Y810259D01*
X-864317Y807720D01*
X-869395D01*
X-871935Y810259D01*
Y820416D01*
X-884630Y784855D02*
X-874474D01*
Y782316D01*
X-884630Y772159D01*
Y769620D01*
X-869395D02*
X-864317D01*
X-866856D01*
Y784855D01*
X-869395Y782316D01*
X-559613Y674382D02*
X-549457D01*
X-559613Y679460D02*
X-549457D01*
X-529143Y669303D02*
Y684538D01*
X-521526D01*
X-518987Y681999D01*
Y676921D01*
X-521526Y674382D01*
X-529143D01*
X-524065D02*
X-518987Y669303D01*
X-511369D02*
X-506291D01*
X-503752Y671842D01*
Y676921D01*
X-506291Y679460D01*
X-511369D01*
X-513908Y676921D01*
Y671842D01*
X-511369Y669303D01*
X-498673Y679460D02*
Y671842D01*
X-496134Y669303D01*
X-488517D01*
Y679460D01*
X-480899Y681999D02*
Y679460D01*
X-483438D01*
X-478360D01*
X-480899D01*
Y671842D01*
X-478360Y669303D01*
X-463125D02*
X-468203D01*
X-470742Y671842D01*
Y676921D01*
X-468203Y679460D01*
X-463125D01*
X-460586Y676921D01*
Y674382D01*
X-470742D01*
X-445350Y684538D02*
Y669303D01*
X-452968D01*
X-455507Y671842D01*
Y676921D01*
X-452968Y679460D01*
X-445350D01*
X-425037Y669303D02*
Y684538D01*
X-417420D01*
X-414880Y681999D01*
Y676921D01*
X-417420Y674382D01*
X-425037D01*
X-407263Y679460D02*
X-402184D01*
X-399645Y676921D01*
Y669303D01*
X-407263D01*
X-409802Y671842D01*
X-407263Y674382D01*
X-399645D01*
X-392028Y681999D02*
Y679460D01*
X-394567D01*
X-389489D01*
X-392028D01*
Y671842D01*
X-389489Y669303D01*
X-381871Y684538D02*
Y669303D01*
Y676921D01*
X-379332Y679460D01*
X-374254D01*
X-371714Y676921D01*
Y669303D01*
X-351401Y684538D02*
Y669303D01*
X-341244D01*
X-328548D02*
X-333627D01*
X-336166Y671842D01*
Y676921D01*
X-333627Y679460D01*
X-328548D01*
X-326009Y676921D01*
Y674382D01*
X-336166D01*
X-320931Y669303D02*
Y679460D01*
X-313313D01*
X-310774Y676921D01*
Y669303D01*
X-300617Y664225D02*
X-298078D01*
X-295539Y666764D01*
Y679460D01*
X-303157D01*
X-305696Y676921D01*
Y671842D01*
X-303157Y669303D01*
X-295539D01*
X-287921Y681999D02*
Y679460D01*
X-290461D01*
X-285382D01*
X-287921D01*
Y671842D01*
X-285382Y669303D01*
X-277765Y684538D02*
Y669303D01*
Y676921D01*
X-275226Y679460D01*
X-270147D01*
X-267608Y676921D01*
Y669303D01*
X-247295Y676921D02*
X-237138D01*
X-242216Y681999D02*
Y671842D01*
X-216824Y684538D02*
X-206668D01*
X-211746D01*
Y669303D01*
X-199050D02*
X-193972D01*
X-191433Y671842D01*
Y676921D01*
X-193972Y679460D01*
X-199050D01*
X-201589Y676921D01*
Y671842D01*
X-199050Y669303D01*
X-183815D02*
X-178737D01*
X-176197Y671842D01*
Y676921D01*
X-178737Y679460D01*
X-183815D01*
X-186354Y676921D01*
Y671842D01*
X-183815Y669303D01*
X-171119D02*
X-166041D01*
X-168580D01*
Y684538D01*
X-171119D01*
X-133032Y681999D02*
X-135571Y684538D01*
X-140649D01*
X-143188Y681999D01*
Y679460D01*
X-140649Y676921D01*
X-135571D01*
X-133032Y674382D01*
Y671842D01*
X-135571Y669303D01*
X-140649D01*
X-143188Y671842D01*
X-127953Y669303D02*
X-122875D01*
X-125414D01*
Y679460D01*
X-127953D01*
X-115257D02*
X-105101D01*
X-115257Y669303D01*
X-105101D01*
X-92405D02*
X-97483D01*
X-100022Y671842D01*
Y676921D01*
X-97483Y679460D01*
X-92405D01*
X-89866Y676921D01*
Y674382D01*
X-100022D01*
X-69552D02*
X-59395D01*
X-69552Y679460D02*
X-59395D01*
X-28925Y681999D02*
X-31464Y684538D01*
X-36543D01*
X-39082Y681999D01*
Y679460D01*
X-36543Y676921D01*
X-31464D01*
X-28925Y674382D01*
Y671842D01*
X-31464Y669303D01*
X-36543D01*
X-39082Y671842D01*
X-23847Y669303D02*
X-18769D01*
X-21308D01*
Y684538D01*
X-23847D01*
X-8612Y669303D02*
X-3533D01*
X-994Y671842D01*
Y676921D01*
X-3533Y679460D01*
X-8612D01*
X-11151Y676921D01*
Y671842D01*
X-8612Y669303D01*
X6623Y681999D02*
Y679460D01*
X4084D01*
X9162D01*
X6623D01*
Y671842D01*
X9162Y669303D01*
X32015D02*
X37093D01*
X34554D01*
Y684538D01*
X32015D01*
X52329Y669303D02*
X47250D01*
X44711Y671842D01*
Y676921D01*
X47250Y679460D01*
X52329D01*
X54868Y676921D01*
Y674382D01*
X44711D01*
X59946Y669303D02*
Y679460D01*
X67564D01*
X70103Y676921D01*
Y669303D01*
X80260Y664225D02*
X82799D01*
X85338Y666764D01*
Y679460D01*
X77720D01*
X75181Y676921D01*
Y671842D01*
X77720Y669303D01*
X85338D01*
X92955Y681999D02*
Y679460D01*
X90416D01*
X95494D01*
X92955D01*
Y671842D01*
X95494Y669303D01*
X103112Y684538D02*
Y669303D01*
Y676921D01*
X105651Y679460D01*
X110730D01*
X113269Y676921D01*
Y669303D01*
X136121Y679460D02*
X141200D01*
X143739Y676921D01*
Y669303D01*
X136121D01*
X133582Y671842D01*
X136121Y674382D01*
X143739D01*
X148817Y669303D02*
X156435D01*
X158974Y671842D01*
X156435Y674382D01*
X151356D01*
X148817Y676921D01*
X151356Y679460D01*
X158974D01*
X189444Y684538D02*
Y669303D01*
X181827D01*
X179287Y671842D01*
Y676921D01*
X181827Y679460D01*
X189444D01*
X202140Y669303D02*
X197062D01*
X194522Y671842D01*
Y676921D01*
X197062Y679460D01*
X202140D01*
X204679Y676921D01*
Y674382D01*
X194522D01*
X212297Y669303D02*
Y681999D01*
Y676921D01*
X209758D01*
X214836D01*
X212297D01*
Y681999D01*
X214836Y684538D01*
X222453Y669303D02*
X227532D01*
X224993D01*
Y679460D01*
X222453D01*
X235149Y669303D02*
Y679460D01*
X242767D01*
X245306Y676921D01*
Y669303D01*
X258002D02*
X252924D01*
X250384Y671842D01*
Y676921D01*
X252924Y679460D01*
X258002D01*
X260541Y676921D01*
Y674382D01*
X250384D01*
X275776Y684538D02*
Y669303D01*
X268159D01*
X265620Y671842D01*
Y676921D01*
X268159Y679460D01*
X275776D01*
X296090Y669303D02*
X301168D01*
X298629D01*
Y679460D01*
X296090D01*
X308785Y669303D02*
Y679460D01*
X316403D01*
X318942Y676921D01*
Y669303D01*
X341795Y681999D02*
Y679460D01*
X339256D01*
X344334D01*
X341795D01*
Y671842D01*
X344334Y669303D01*
X351951Y684538D02*
Y669303D01*
Y676921D01*
X354491Y679460D01*
X359569D01*
X362108Y676921D01*
Y669303D01*
X374804D02*
X369726D01*
X367187Y671842D01*
Y676921D01*
X369726Y679460D01*
X374804D01*
X377343Y676921D01*
Y674382D01*
X367187D01*
X397657Y669303D02*
Y684538D01*
X405274D01*
X407813Y681999D01*
Y676921D01*
X405274Y674382D01*
X397657D01*
X423049Y681999D02*
X420509Y684538D01*
X415431D01*
X412892Y681999D01*
Y671842D01*
X415431Y669303D01*
X420509D01*
X423049Y671842D01*
X428127Y684538D02*
Y669303D01*
X435744D01*
X438284Y671842D01*
Y674382D01*
X435744Y676921D01*
X428127D01*
X435744D01*
X438284Y679460D01*
Y681999D01*
X435744Y684538D01*
X428127D01*
X458597Y669303D02*
X463675D01*
X461136D01*
Y684538D01*
X458597D01*
X473832Y679460D02*
X478910D01*
X481450Y676921D01*
Y669303D01*
X473832D01*
X471293Y671842D01*
X473832Y674382D01*
X481450D01*
X486528Y679460D02*
Y671842D01*
X489067Y669303D01*
X496685D01*
Y666764D01*
X494146Y664225D01*
X491606D01*
X496685Y669303D02*
Y679460D01*
X504302Y669303D02*
X509381D01*
X511920Y671842D01*
Y676921D01*
X509381Y679460D01*
X504302D01*
X501763Y676921D01*
Y671842D01*
X504302Y669303D01*
X516998Y679460D02*
Y671842D01*
X519537Y669303D01*
X527155D01*
Y679460D01*
X534772Y681999D02*
Y679460D01*
X532233D01*
X537312D01*
X534772D01*
Y671842D01*
X537312Y669303D01*
X-470742Y699775D02*
X-460586D01*
X-470742Y704853D02*
X-460586D01*
X-430115Y707393D02*
X-432655Y709932D01*
X-437733D01*
X-440272Y707393D01*
Y697236D01*
X-437733Y694697D01*
X-432655D01*
X-430115Y697236D01*
X-422498Y704853D02*
X-417420D01*
X-414880Y702314D01*
Y694697D01*
X-422498D01*
X-425037Y697236D01*
X-422498Y699775D01*
X-414880D01*
X-409802Y694697D02*
X-404724D01*
X-407263D01*
Y709932D01*
X-409802D01*
X-386949Y704853D02*
X-394567D01*
X-397106Y702314D01*
Y697236D01*
X-394567Y694697D01*
X-386949D01*
X-381871Y704853D02*
Y697236D01*
X-379332Y694697D01*
X-371714D01*
Y704853D01*
X-366636Y694697D02*
X-361558D01*
X-364097D01*
Y709932D01*
X-366636D01*
X-351401Y704853D02*
X-346323D01*
X-343783Y702314D01*
Y694697D01*
X-351401D01*
X-353940Y697236D01*
X-351401Y699775D01*
X-343783D01*
X-336166Y707393D02*
Y704853D01*
X-338705D01*
X-333627D01*
X-336166D01*
Y697236D01*
X-333627Y694697D01*
X-318392D02*
X-323470D01*
X-326009Y697236D01*
Y702314D01*
X-323470Y704853D01*
X-318392D01*
X-315852Y702314D01*
Y699775D01*
X-326009D01*
X-300617Y709932D02*
Y694697D01*
X-308235D01*
X-310774Y697236D01*
Y702314D01*
X-308235Y704853D01*
X-300617D01*
X-277765Y694697D02*
Y707393D01*
Y702314D01*
X-280304D01*
X-275226D01*
X-277765D01*
Y707393D01*
X-275226Y709932D01*
X-267608Y704853D02*
Y694697D01*
Y699775D01*
X-265069Y702314D01*
X-262530Y704853D01*
X-259991D01*
X-249834Y694697D02*
X-244755D01*
X-242216Y697236D01*
Y702314D01*
X-244755Y704853D01*
X-249834D01*
X-252373Y702314D01*
Y697236D01*
X-249834Y694697D01*
X-237138D02*
Y704853D01*
X-234599D01*
X-232059Y702314D01*
Y694697D01*
Y702314D01*
X-229520Y704853D01*
X-226981Y702314D01*
Y694697D01*
X-204128Y707393D02*
Y704853D01*
X-206668D01*
X-201589D01*
X-204128D01*
Y697236D01*
X-201589Y694697D01*
X-191433D02*
X-186354D01*
X-183815Y697236D01*
Y702314D01*
X-186354Y704853D01*
X-191433D01*
X-193972Y702314D01*
Y697236D01*
X-191433Y694697D01*
X-176198D02*
X-171119D01*
X-168580Y697236D01*
Y702314D01*
X-171119Y704853D01*
X-176198D01*
X-178737Y702314D01*
Y697236D01*
X-176198Y694697D01*
X-163502D02*
X-158423D01*
X-160963D01*
Y709932D01*
X-163502D01*
X-135571Y694697D02*
X-127953D01*
X-125414Y697236D01*
X-127953Y699775D01*
X-133032D01*
X-135571Y702314D01*
X-133032Y704853D01*
X-125414D01*
X-117796Y707393D02*
Y704853D01*
X-120336D01*
X-115257D01*
X-117796D01*
Y697236D01*
X-115257Y694697D01*
X-105101Y704853D02*
X-100022D01*
X-97483Y702314D01*
Y694697D01*
X-105101D01*
X-107640Y697236D01*
X-105101Y699775D01*
X-97483D01*
X-92405Y704853D02*
Y694697D01*
Y699775D01*
X-89866Y702314D01*
X-87326Y704853D01*
X-84787D01*
X-74630Y707393D02*
Y704853D01*
X-77170D01*
X-72091D01*
X-74630D01*
Y697236D01*
X-72091Y694697D01*
X-39082Y704853D02*
X-46700D01*
X-49239Y702314D01*
Y697236D01*
X-46700Y694697D01*
X-39082D01*
X-26386D02*
X-31464D01*
X-34004Y697236D01*
Y702314D01*
X-31464Y704853D01*
X-26386D01*
X-23847Y702314D01*
Y699775D01*
X-34004D01*
X-18769Y694697D02*
Y704853D01*
X-11151D01*
X-8612Y702314D01*
Y694697D01*
X-994Y707393D02*
Y704853D01*
X-3533D01*
X1545D01*
X-994D01*
Y697236D01*
X1545Y694697D01*
X9162Y704853D02*
Y694697D01*
Y699775D01*
X11702Y702314D01*
X14241Y704853D01*
X16780D01*
X32015Y694697D02*
X26937D01*
X24397Y697236D01*
Y702314D01*
X26937Y704853D01*
X32015D01*
X34554Y702314D01*
Y699775D01*
X24397D01*
X54868Y689618D02*
Y704853D01*
X62485D01*
X65024Y702314D01*
Y697236D01*
X62485Y694697D01*
X54868D01*
X72642D02*
X77720D01*
X80260Y697236D01*
Y702314D01*
X77720Y704853D01*
X72642D01*
X70103Y702314D01*
Y697236D01*
X72642Y694697D01*
X85338D02*
X92955D01*
X95494Y697236D01*
X92955Y699775D01*
X87877D01*
X85338Y702314D01*
X87877Y704853D01*
X95494D01*
X100573Y694697D02*
X105651D01*
X103112D01*
Y704853D01*
X100573D01*
X115808Y707393D02*
Y704853D01*
X113269D01*
X118347D01*
X115808D01*
Y697236D01*
X118347Y694697D01*
X125965D02*
X131043D01*
X128504D01*
Y704853D01*
X125965D01*
X141200Y694697D02*
X146278D01*
X148817Y697236D01*
Y702314D01*
X146278Y704853D01*
X141200D01*
X138660Y702314D01*
Y697236D01*
X141200Y694697D01*
X153896D02*
Y704853D01*
X161513D01*
X164052Y702314D01*
Y694697D01*
X186905Y707393D02*
Y704853D01*
X184366D01*
X189444D01*
X186905D01*
Y697236D01*
X189444Y694697D01*
X199601D02*
X204679D01*
X207218Y697236D01*
Y702314D01*
X204679Y704853D01*
X199601D01*
X197062Y702314D01*
Y697236D01*
X199601Y694697D01*
X230071Y707393D02*
Y704853D01*
X227532D01*
X232610D01*
X230071D01*
Y697236D01*
X232610Y694697D01*
X242767D02*
X247845D01*
X250384Y697236D01*
Y702314D01*
X247845Y704853D01*
X242767D01*
X240228Y702314D01*
Y697236D01*
X242767Y694697D01*
X258002D02*
X263080D01*
X265620Y697236D01*
Y702314D01*
X263080Y704853D01*
X258002D01*
X255463Y702314D01*
Y697236D01*
X258002Y694697D01*
X270698D02*
X275776D01*
X273237D01*
Y709932D01*
X270698D01*
X306246Y694697D02*
X301168D01*
X298629Y697236D01*
Y702314D01*
X301168Y704853D01*
X306246D01*
X308785Y702314D01*
Y699775D01*
X298629D01*
X313864Y694697D02*
Y704853D01*
X321481D01*
X324021Y702314D01*
Y694697D01*
X339256Y709932D02*
Y694697D01*
X331638D01*
X329099Y697236D01*
Y702314D01*
X331638Y704853D01*
X339256D01*
X369726D02*
X362108D01*
X359569Y702314D01*
Y697236D01*
X362108Y694697D01*
X369726D01*
X382422D02*
X377343D01*
X374804Y697236D01*
Y702314D01*
X377343Y704853D01*
X382422D01*
X384961Y702314D01*
Y699775D01*
X374804D01*
X390039Y694697D02*
Y704853D01*
X397657D01*
X400196Y702314D01*
Y694697D01*
X407813Y707393D02*
Y704853D01*
X405274D01*
X410353D01*
X407813D01*
Y697236D01*
X410353Y694697D01*
X417970Y704853D02*
Y694697D01*
Y699775D01*
X420509Y702314D01*
X423049Y704853D01*
X425588D01*
X440823Y694697D02*
X435744D01*
X433205Y697236D01*
Y702314D01*
X435744Y704853D01*
X440823D01*
X443362Y702314D01*
Y699775D01*
X433205D01*
X463675Y689618D02*
Y704853D01*
X471293D01*
X473832Y702314D01*
Y697236D01*
X471293Y694697D01*
X463675D01*
X481450D02*
X486528D01*
X489067Y697236D01*
Y702314D01*
X486528Y704853D01*
X481450D01*
X478910Y702314D01*
Y697236D01*
X481450Y694697D01*
X494146D02*
X501763D01*
X504302Y697236D01*
X501763Y699775D01*
X496685D01*
X494146Y702314D01*
X496685Y704853D01*
X504302D01*
X509381Y694697D02*
X514459D01*
X511920D01*
Y704853D01*
X509381D01*
X524616Y707393D02*
Y704853D01*
X522076D01*
X527155D01*
X524616D01*
Y697236D01*
X527155Y694697D01*
X534772D02*
X539851D01*
X537312D01*
Y704853D01*
X534772D01*
X550007Y694697D02*
X555086D01*
X557625Y697236D01*
Y702314D01*
X555086Y704853D01*
X550007D01*
X547468Y702314D01*
Y697236D01*
X550007Y694697D01*
X562703D02*
Y704853D01*
X570321D01*
X572860Y702314D01*
Y694697D01*
X577938D02*
Y697236D01*
X580478D01*
Y694697D01*
X577938D01*
D109*
X-1035983Y1177290D02*
X2410333D01*
X-1035983Y758190D02*
X2410333D01*
X-1035983Y720090D02*
X2410333D01*
Y1215390D01*
X-1035983D02*
X2410333D01*
X-1035983Y720090D02*
Y1215390D01*
X2054072Y720090D02*
Y1215390D01*
X1777293Y720090D02*
Y1215390D01*
X1438557Y720090D02*
Y1215390D01*
X1099820Y720090D02*
Y1215390D01*
X882964Y720090D02*
Y1215390D01*
X578254Y720090D02*
Y1215390D01*
X388821Y720090D02*
Y1215390D01*
X239000Y720090D02*
Y1215390D01*
X-141886Y720090D02*
Y1215390D01*
X-328272Y720090D02*
Y1215390D01*
X-456764Y720090D02*
Y1215390D01*
X-746240Y720090D02*
Y1215390D01*
X-896060Y720090D02*
Y1215390D01*
D124*
X1112630Y323230D02*
G03*
X1112630Y323230I-2540J0D01*
G01*
Y245730D02*
G03*
X1112630Y245730I-2540J0D01*
G01*
X51524Y521500D02*
G03*
X51524Y521500I-1524J0D01*
G01*
X52540D02*
G03*
X52540Y521500I-2540J0D01*
G01*
X1094524D02*
G03*
X1094524Y521500I-1524J0D01*
G01*
X1095540D02*
G03*
X1095540Y521500I-2540J0D01*
G01*
X1094524Y50000D02*
G03*
X1094524Y50000I-1524J0D01*
G01*
X1095540D02*
G03*
X1095540Y50000I-2540J0D01*
G01*
X51524D02*
G03*
X51524Y50000I-1524J0D01*
G01*
X52540D02*
G03*
X52540Y50000I-2540J0D01*
G01*
X356870Y91186D02*
X358394Y94234D01*
X355346D02*
X358394D01*
X355346D02*
X356870Y91186D01*
Y90170D02*
X359410Y95250D01*
X354330D02*
X359410D01*
X354330D02*
X356870Y90170D01*
X393700Y54356D02*
X395224Y57404D01*
X392176D02*
X395224D01*
X392176D02*
X393700Y54356D01*
Y53340D02*
X396240Y58420D01*
X391160D02*
X396240D01*
X391160D02*
X393700Y53340D01*
X464820Y41656D02*
X466344Y44704D01*
X463296D02*
X466344D01*
X463296D02*
X464820Y41656D01*
Y40640D02*
X467360Y45720D01*
X462280D02*
X467360D01*
X462280D02*
X464820Y40640D01*
X393700Y26416D02*
X395224Y29464D01*
X392176D02*
X395224D01*
X392176D02*
X393700Y26416D01*
Y25400D02*
X396240Y30480D01*
X391160D02*
X396240D01*
X391160D02*
X393700Y25400D01*
Y79756D02*
X395224Y82804D01*
X392176D02*
X395224D01*
X392176D02*
X393700Y79756D01*
Y78740D02*
X396240Y83820D01*
X391160D02*
X396240D01*
X391160D02*
X393700Y78740D01*
X39250Y359976D02*
X40774Y363024D01*
X37726D02*
X40774D01*
X37726D02*
X39250Y359976D01*
Y358960D02*
X41790Y364040D01*
X36710D02*
X41790D01*
X36710D02*
X39250Y358960D01*
X1035500Y66476D02*
X1037024Y69524D01*
X1033976D02*
X1037024D01*
X1033976D02*
X1035500Y66476D01*
Y65460D02*
X1038040Y70540D01*
X1032960D02*
X1038040D01*
X1032960D02*
X1035500Y65460D01*
X815750Y305476D02*
X817274Y308524D01*
X814226D02*
X817274D01*
X814226D02*
X815750Y305476D01*
Y304460D02*
X818290Y309540D01*
X813210D02*
X818290D01*
X813210D02*
X815750Y304460D01*
X933201Y360876D02*
X934725Y363923D01*
X931676D02*
X934725D01*
X931676D02*
X933201Y360876D01*
Y359860D02*
X935741Y364939D01*
X930660D02*
X935741D01*
X930660D02*
X933201Y359860D01*
X230632Y58824D02*
X232156Y61872D01*
X229108D02*
X232156D01*
X229108D02*
X230632Y58824D01*
Y57808D02*
X233172Y62888D01*
X228092D02*
X233172D01*
X228092D02*
X230632Y57808D01*
X245872Y71524D02*
X247396Y74572D01*
X244348D02*
X247396D01*
X244348D02*
X245872Y71524D01*
Y70508D02*
X248412Y75588D01*
X243332D02*
X248412D01*
X243332D02*
X245872Y70508D01*
X246493Y44083D02*
X248017Y47131D01*
X244969D02*
X248017D01*
X244969D02*
X246493Y44083D01*
Y43067D02*
X249033Y48147D01*
X243953D02*
X249033D01*
X243953D02*
X246493Y43067D01*
X604000Y368476D02*
X605524Y371524D01*
X602476D02*
X605524D01*
X602476D02*
X604000Y368476D01*
Y367460D02*
X606540Y372540D01*
X601460D02*
X606540D01*
X601460D02*
X604000Y367460D01*
X571000Y241476D02*
X572524Y244524D01*
X569476D02*
X572524D01*
X569476D02*
X571000Y241476D01*
Y240460D02*
X573540Y245540D01*
X568460D02*
X573540D01*
X568460D02*
X571000Y240460D01*
X598524Y54356D02*
X600048Y57404D01*
X597000D02*
X600048D01*
X597000D02*
X598524Y54356D01*
Y53340D02*
X601064Y58420D01*
X595984D02*
X601064D01*
X595984D02*
X598524Y53340D01*
X583000Y255476D02*
X584524Y258524D01*
X581476D02*
X584524D01*
X581476D02*
X583000Y255476D01*
Y254460D02*
X585540Y259540D01*
X580460D02*
X585540D01*
X580460D02*
X583000Y254460D01*
X581000Y316476D02*
X582524Y319524D01*
X579476D02*
X582524D01*
X579476D02*
X581000Y316476D01*
Y315460D02*
X583540Y320540D01*
X578460D02*
X583540D01*
X578460D02*
X581000Y315460D01*
X561009Y315373D02*
X562533Y318421D01*
X559486D02*
X562533D01*
X559486D02*
X561009Y315373D01*
Y314357D02*
X563549Y319437D01*
X558470D02*
X563549D01*
X558470D02*
X561009Y314357D01*
X548000Y306476D02*
X549524Y309524D01*
X546476D02*
X549524D01*
X546476D02*
X548000Y306476D01*
Y305460D02*
X550540Y310540D01*
X545460D02*
X550540D01*
X545460D02*
X548000Y305460D01*
X684000Y292476D02*
X685524Y295524D01*
X682476D02*
X685524D01*
X682476D02*
X684000Y292476D01*
Y291460D02*
X686540Y296540D01*
X681460D02*
X686540D01*
X681460D02*
X684000Y291460D01*
X570000Y367476D02*
X571524Y370524D01*
X568476D02*
X571524D01*
X568476D02*
X570000Y367476D01*
Y366460D02*
X572540Y371540D01*
X567460D02*
X572540D01*
X567460D02*
X570000Y366460D01*
X652000Y24476D02*
X653524Y27524D01*
X650476D02*
X653524D01*
X650476D02*
X652000Y24476D01*
Y23460D02*
X654540Y28540D01*
X649460D02*
X654540D01*
X649460D02*
X652000Y23460D01*
X679000Y334476D02*
X680524Y337524D01*
X677476D02*
X680524D01*
X677476D02*
X679000Y334476D01*
Y333460D02*
X681540Y338540D01*
X676460D02*
X681540D01*
X676460D02*
X679000Y333460D01*
X866000Y212476D02*
X867524Y215524D01*
X864476D02*
X867524D01*
X864476D02*
X866000Y212476D01*
Y211460D02*
X868540Y216540D01*
X863460D02*
X868540D01*
X863460D02*
X866000Y211460D01*
X428750Y519226D02*
X430274Y522274D01*
X427226D02*
X430274D01*
X427226D02*
X428750Y519226D01*
Y518210D02*
X431290Y523290D01*
X426210D02*
X431290D01*
X426210D02*
X428750Y518210D01*
X401250Y439476D02*
X402774Y442524D01*
X399726D02*
X402774D01*
X399726D02*
X401250Y439476D01*
Y438460D02*
X403790Y443540D01*
X398710D02*
X403790D01*
X398710D02*
X401250Y438460D01*
X170750Y16726D02*
X172274Y19774D01*
X169226D02*
X172274D01*
X169226D02*
X170750Y16726D01*
Y15710D02*
X173290Y20790D01*
X168210D02*
X173290D01*
X168210D02*
X170750Y15710D01*
X163250Y47726D02*
X164774Y50774D01*
X161726D02*
X164774D01*
X161726D02*
X163250Y47726D01*
Y46710D02*
X165790Y51790D01*
X160710D02*
X165790D01*
X160710D02*
X163250Y46710D01*
X447250Y25976D02*
X448774Y29024D01*
X445726D02*
X448774D01*
X445726D02*
X447250Y25976D01*
Y24960D02*
X449790Y30040D01*
X444710D02*
X449790D01*
X444710D02*
X447250Y24960D01*
X517000Y41476D02*
X518524Y44524D01*
X515476D02*
X518524D01*
X515476D02*
X517000Y41476D01*
Y40460D02*
X519540Y45540D01*
X514460D02*
X519540D01*
X514460D02*
X517000Y40460D01*
X648250Y131726D02*
X649774Y134774D01*
X646726D02*
X649774D01*
X646726D02*
X648250Y131726D01*
Y130710D02*
X650790Y135790D01*
X645710D02*
X650790D01*
X645710D02*
X648250Y130710D01*
X605750Y37726D02*
X607274Y40774D01*
X604226D02*
X607274D01*
X604226D02*
X605750Y37726D01*
Y36710D02*
X608290Y41790D01*
X603210D02*
X608290D01*
X603210D02*
X605750Y36710D01*
X828250Y61976D02*
X829774Y65024D01*
X826726D02*
X829774D01*
X826726D02*
X828250Y61976D01*
Y60960D02*
X830790Y66040D01*
X825710D02*
X830790D01*
X825710D02*
X828250Y60960D01*
X878750Y62976D02*
X880274Y66024D01*
X877226D02*
X880274D01*
X877226D02*
X878750Y62976D01*
Y61960D02*
X881290Y67040D01*
X876210D02*
X881290D01*
X876210D02*
X878750Y61960D01*
X929500Y62726D02*
X931024Y65774D01*
X927976D02*
X931024D01*
X927976D02*
X929500Y62726D01*
Y61710D02*
X932040Y66790D01*
X926960D02*
X932040D01*
X926960D02*
X929500Y61710D01*
X980750Y62226D02*
X982274Y65274D01*
X979226D02*
X982274D01*
X979226D02*
X980750Y62226D01*
Y61210D02*
X983290Y66290D01*
X978210D02*
X983290D01*
X978210D02*
X980750Y61210D01*
X871250Y159226D02*
X872774Y162274D01*
X869726D02*
X872774D01*
X869726D02*
X871250Y159226D01*
Y158210D02*
X873790Y163290D01*
X868710D02*
X873790D01*
X868710D02*
X871250Y158210D01*
X985000Y340726D02*
X986524Y343774D01*
X983476D02*
X986524D01*
X983476D02*
X985000Y340726D01*
Y339710D02*
X987540Y344790D01*
X982460D02*
X987540D01*
X982460D02*
X985000Y339710D01*
X986250Y411226D02*
X987774Y414274D01*
X984726D02*
X987774D01*
X984726D02*
X986250Y411226D01*
Y410210D02*
X988790Y415290D01*
X983710D02*
X988790D01*
X983710D02*
X986250Y410210D01*
X933500Y437726D02*
X935024Y440774D01*
X931976D02*
X935024D01*
X931976D02*
X933500Y437726D01*
Y436710D02*
X936040Y441790D01*
X930960D02*
X936040D01*
X930960D02*
X933500Y436710D01*
X868500Y376976D02*
X870024Y380024D01*
X866976D02*
X870024D01*
X866976D02*
X868500Y376976D01*
Y375960D02*
X871040Y381040D01*
X865960D02*
X871040D01*
X865960D02*
X868500Y375960D01*
X779000Y404226D02*
X780524Y407274D01*
X777476D02*
X780524D01*
X777476D02*
X779000Y404226D01*
Y403210D02*
X781540Y408290D01*
X776460D02*
X781540D01*
X776460D02*
X779000Y403210D01*
X633000Y400476D02*
X634524Y403524D01*
X631476D02*
X634524D01*
X631476D02*
X633000Y400476D01*
Y399460D02*
X635540Y404540D01*
X630460D02*
X635540D01*
X630460D02*
X633000Y399460D01*
X617750Y385226D02*
X619274Y388274D01*
X616226D02*
X619274D01*
X616226D02*
X617750Y385226D01*
Y384210D02*
X620290Y389290D01*
X615210D02*
X620290D01*
X615210D02*
X617750Y384210D01*
X723250Y254476D02*
X724774Y257524D01*
X721726D02*
X724774D01*
X721726D02*
X723250Y254476D01*
Y253460D02*
X725790Y258540D01*
X720710D02*
X725790D01*
X720710D02*
X723250Y253460D01*
X548640Y148336D02*
X550164Y151384D01*
X547116D02*
X550164D01*
X547116D02*
X548640Y148336D01*
Y147320D02*
X551180Y152400D01*
X546100D02*
X551180D01*
X546100D02*
X548640Y147320D01*
X418000Y176226D02*
X419524Y179274D01*
X416476D02*
X419524D01*
X416476D02*
X418000Y176226D01*
Y175210D02*
X420540Y180290D01*
X415460D02*
X420540D01*
X415460D02*
X418000Y175210D01*
X411500Y283476D02*
X413024Y286524D01*
X409976D02*
X413024D01*
X409976D02*
X411500Y283476D01*
Y282460D02*
X414040Y287540D01*
X408960D02*
X414040D01*
X408960D02*
X411500Y282460D01*
X399000Y354476D02*
X400524Y357524D01*
X397476D02*
X400524D01*
X397476D02*
X399000Y354476D01*
Y353460D02*
X401540Y358540D01*
X396460D02*
X401540D01*
X396460D02*
X399000Y353460D01*
X90250Y386226D02*
X91774Y389274D01*
X88726D02*
X91774D01*
X88726D02*
X90250Y386226D01*
Y385210D02*
X92790Y390290D01*
X87710D02*
X92790D01*
X87710D02*
X90250Y385210D01*
X591250Y542726D02*
X592774Y545774D01*
X589726D02*
X592774D01*
X589726D02*
X591250Y542726D01*
Y541710D02*
X593790Y546790D01*
X588710D02*
X593790D01*
X588710D02*
X591250Y541710D01*
X462750Y68976D02*
X464274Y72024D01*
X461226D02*
X464274D01*
X461226D02*
X462750Y68976D01*
Y67960D02*
X465290Y73040D01*
X460210D02*
X465290D01*
X460210D02*
X462750Y67960D01*
X631250Y120976D02*
X632774Y124024D01*
X629726D02*
X632774D01*
X629726D02*
X631250Y120976D01*
Y119960D02*
X633790Y125040D01*
X628710D02*
X633790D01*
X628710D02*
X631250Y119960D01*
X88900Y229616D02*
X90424Y232664D01*
X87376D02*
X90424D01*
X87376D02*
X88900Y229616D01*
Y228600D02*
X91440Y233680D01*
X86360D02*
X91440D01*
X86360D02*
X88900Y228600D01*
X690880Y549656D02*
X692404Y552704D01*
X689356D02*
X692404D01*
X689356D02*
X690880Y549656D01*
Y548640D02*
X693420Y553720D01*
X688340D02*
X693420D01*
X688340D02*
X690880Y548640D01*
X476378Y107696D02*
X477902Y110744D01*
X474854D02*
X477902D01*
X474854D02*
X476378Y107696D01*
Y106680D02*
X478918Y111760D01*
X473838D02*
X478918D01*
X473838D02*
X476378Y106680D01*
X491490Y122936D02*
X493014Y125984D01*
X489966D02*
X493014D01*
X489966D02*
X491490Y122936D01*
Y121920D02*
X494030Y127000D01*
X488950D02*
X494030D01*
X488950D02*
X491490Y121920D01*
X411000Y211226D02*
X412524Y214274D01*
X409476D02*
X412524D01*
X409476D02*
X411000Y211226D01*
Y210210D02*
X413540Y215290D01*
X408460D02*
X413540D01*
X408460D02*
X411000Y210210D01*
X475000Y247476D02*
X476524Y250524D01*
X473476D02*
X476524D01*
X473476D02*
X475000Y247476D01*
Y246460D02*
X477540Y251540D01*
X472460D02*
X477540D01*
X472460D02*
X475000Y246460D01*
X1045250Y279309D02*
X1046774Y282357D01*
X1043726D02*
X1046774D01*
X1043726D02*
X1045250Y279309D01*
Y278293D02*
X1047790Y283373D01*
X1042710D02*
X1047790D01*
X1042710D02*
X1045250Y278293D01*
X513000Y339780D02*
X514524Y342828D01*
X511476D02*
X514524D01*
X511476D02*
X513000Y339780D01*
Y338764D02*
X515540Y343844D01*
X510460D02*
X515540D01*
X510460D02*
X513000Y338764D01*
X56013Y273713D02*
X57537Y276761D01*
X54489D02*
X57537D01*
X54489D02*
X56013Y273713D01*
Y272696D02*
X58554Y277777D01*
X53474D02*
X58554D01*
X53474D02*
X56013Y272696D01*
X107263Y324963D02*
X108787Y328010D01*
X105739D02*
X108787D01*
X105739D02*
X107263Y324963D01*
Y323946D02*
X109803Y329026D01*
X104724D02*
X109803D01*
X104724D02*
X107263Y323946D01*
X32335Y196508D02*
X33859Y199556D01*
X30811D02*
X33859D01*
X30811D02*
X32335Y196508D01*
Y195492D02*
X34875Y200572D01*
X29795D02*
X34875D01*
X29795D02*
X32335Y195492D01*
X15535Y218898D02*
X17059Y221946D01*
X14011D02*
X17059D01*
X14011D02*
X15535Y218898D01*
Y217882D02*
X18075Y222962D01*
X12995D02*
X18075D01*
X12995D02*
X15535Y217882D01*
X412000Y296064D02*
X413524Y299112D01*
X410476D02*
X413524D01*
X410476D02*
X412000Y296064D01*
Y295048D02*
X414540Y300128D01*
X409460D02*
X414540D01*
X409460D02*
X412000Y295048D01*
X22860Y206756D02*
X24384Y209804D01*
X21336D02*
X24384D01*
X21336D02*
X22860Y206756D01*
Y205740D02*
X25400Y210820D01*
X20320D02*
X25400D01*
X20320D02*
X22860Y205740D01*
X452120Y94996D02*
X453644Y98044D01*
X450596D02*
X453644D01*
X450596D02*
X452120Y94996D01*
Y93980D02*
X454660Y99060D01*
X449580D02*
X454660D01*
X449580D02*
X452120Y93980D01*
Y115316D02*
X453644Y118364D01*
X450596D02*
X453644D01*
X450596D02*
X452120Y115316D01*
Y114300D02*
X454660Y119380D01*
X449580D02*
X454660D01*
X449580D02*
X452120Y114300D01*
X536956Y413766D02*
X540004D01*
Y416814D01*
X536956D02*
X540004D01*
X536956Y413766D02*
Y416814D01*
X535940Y412750D02*
X541020D01*
Y417830D01*
X535940D02*
X541020D01*
X535940Y412750D02*
Y417830D01*
X576940Y137905D02*
X578464Y140953D01*
X575416D02*
X578464D01*
X575416D02*
X576940Y137905D01*
Y136889D02*
X579480Y141969D01*
X574400D02*
X579480D01*
X574400D02*
X576940Y136889D01*
X415191Y106426D02*
X416715Y109474D01*
X413666D02*
X416715D01*
X413666D02*
X415191Y106426D01*
Y105410D02*
X417730Y110490D01*
X412650D02*
X417730D01*
X412650D02*
X415191Y105410D01*
X46101Y159639D02*
X48641Y160909D01*
X51181Y159639D01*
X49911Y162179D02*
X51181Y159639D01*
X49911Y162179D02*
X51181Y164719D01*
X48641Y163449D02*
X51181Y164719D01*
X46101D02*
X48641Y163449D01*
X46101Y164719D02*
X47371Y162179D01*
X46101Y159639D02*
X47371Y162179D01*
X46101Y109601D02*
X48641Y110871D01*
X51181Y109601D01*
X49911Y112141D02*
X51181Y109601D01*
X49911Y112141D02*
X51181Y114681D01*
X48641Y113411D02*
X51181Y114681D01*
X46101D02*
X48641Y113411D01*
X46101Y114681D02*
X47371Y112141D01*
X46101Y109601D02*
X47371Y112141D01*
X72263Y170942D02*
X73533Y169672D01*
X70993Y170942D02*
X72263D01*
X70993D02*
X72263Y172212D01*
X70993Y173482D02*
X72263Y172212D01*
X70993Y173482D02*
X72263D01*
X73533Y174752D01*
X74803Y173482D01*
X76073D01*
X74803Y172212D02*
X76073Y173482D01*
X74803Y172212D02*
X76073Y170942D01*
X74803D02*
X76073D01*
X73533Y169672D02*
X74803Y170942D01*
X72263Y100838D02*
X73533Y99568D01*
X70993Y100838D02*
X72263D01*
X70993D02*
X72263Y102108D01*
X70993Y103378D02*
X72263Y102108D01*
X70993Y103378D02*
X72263D01*
X73533Y104648D01*
X74803Y103378D01*
X76073D01*
X74803Y102108D02*
X76073Y103378D01*
X74803Y102108D02*
X76073Y100838D01*
X74803D02*
X76073D01*
X73533Y99568D02*
X74803Y100838D01*
X975360Y505460D02*
Y506730D01*
X976630Y508000D01*
X975360Y509270D02*
X976630Y508000D01*
X975360Y509270D02*
Y510540D01*
X976630D01*
X977900Y509270D01*
X979170Y510540D01*
X980440D01*
Y509270D02*
Y510540D01*
X979170Y508000D02*
X980440Y509270D01*
X979170Y508000D02*
X980440Y506730D01*
Y505460D02*
Y506730D01*
X979170Y505460D02*
X980440D01*
X977900Y506730D02*
X979170Y505460D01*
X976630D02*
X977900Y506730D01*
X975360Y505460D02*
X976630D01*
X924560D02*
Y506730D01*
X925830Y508000D01*
X924560Y509270D02*
X925830Y508000D01*
X924560Y509270D02*
Y510540D01*
X925830D01*
X927100Y509270D01*
X928370Y510540D01*
X929640D01*
Y509270D02*
Y510540D01*
X928370Y508000D02*
X929640Y509270D01*
X928370Y508000D02*
X929640Y506730D01*
Y505460D02*
Y506730D01*
X928370Y505460D02*
X929640D01*
X927100Y506730D02*
X928370Y505460D01*
X925830D02*
X927100Y506730D01*
X924560Y505460D02*
X925830D01*
X859790Y505206D02*
Y506476D01*
X861060Y507746D01*
X859790Y509016D02*
X861060Y507746D01*
X859790Y509016D02*
Y510286D01*
X861060D01*
X862330Y509016D01*
X863600Y510286D01*
X864870D01*
Y509016D02*
Y510286D01*
X863600Y507746D02*
X864870Y509016D01*
X863600Y507746D02*
X864870Y506476D01*
Y505206D02*
Y506476D01*
X863600Y505206D02*
X864870D01*
X862330Y506476D02*
X863600Y505206D01*
X861060D02*
X862330Y506476D01*
X859790Y505206D02*
X861060D01*
X808990D02*
Y506476D01*
X810260Y507746D01*
X808990Y509016D02*
X810260Y507746D01*
X808990Y509016D02*
Y510286D01*
X810260D01*
X811530Y509016D01*
X812800Y510286D01*
X814070D01*
Y509016D02*
Y510286D01*
X812800Y507746D02*
X814070Y509016D01*
X812800Y507746D02*
X814070Y506476D01*
Y505206D02*
Y506476D01*
X812800Y505206D02*
X814070D01*
X811530Y506476D02*
X812800Y505206D01*
X810260D02*
X811530Y506476D01*
X808990Y505206D02*
X810260D01*
X1082590Y306940D02*
X1085130Y312020D01*
X1080050D02*
X1085130D01*
X1080050D02*
X1082590Y306940D01*
Y256940D02*
X1085130Y262020D01*
X1080050D02*
X1085130D01*
X1080050D02*
X1082590Y256940D01*
X1069550Y319190D02*
X1074630D01*
Y324270D01*
X1069550D02*
X1074630D01*
X1069550Y319190D02*
Y324270D01*
Y244690D02*
X1074630D01*
Y249770D01*
X1069550D02*
X1074630D01*
X1069550Y244690D02*
Y249770D01*
X38100Y258318D02*
X39370D01*
X38100D02*
Y260858D01*
X39370D01*
Y262128D01*
X41910D01*
Y260858D02*
Y262128D01*
Y260858D02*
X43180D01*
Y258318D02*
Y260858D01*
X41910Y258318D02*
X43180D01*
X41910Y257048D02*
Y258318D01*
X39370Y257048D02*
X41910D01*
X39370D02*
Y258318D01*
X25400D02*
X26670D01*
X25400D02*
Y260858D01*
X26670D01*
Y262128D01*
X29210D01*
Y260858D02*
Y262128D01*
Y260858D02*
X30480D01*
Y258318D02*
Y260858D01*
X29210Y258318D02*
X30480D01*
X29210Y257048D02*
Y258318D01*
X26670Y257048D02*
X29210D01*
X26670D02*
Y258318D01*
X38100Y271018D02*
X39370D01*
X38100D02*
Y273558D01*
X39370D01*
Y274828D01*
X41910D01*
Y273558D02*
Y274828D01*
Y273558D02*
X43180D01*
Y271018D02*
Y273558D01*
X41910Y271018D02*
X43180D01*
X41910Y269748D02*
Y271018D01*
X39370Y269748D02*
X41910D01*
X39370D02*
Y271018D01*
X25400D02*
X26670D01*
X25400D02*
Y273558D01*
X26670D01*
Y274828D01*
X29210D01*
Y273558D02*
Y274828D01*
Y273558D02*
X30480D01*
Y271018D02*
Y273558D01*
X29210Y271018D02*
X30480D01*
X29210Y269748D02*
Y271018D01*
X26670Y269748D02*
X29210D01*
X26670D02*
Y271018D01*
X38100Y283718D02*
X39370D01*
X38100D02*
Y286258D01*
X39370D01*
Y287528D01*
X41910D01*
Y286258D02*
Y287528D01*
Y286258D02*
X43180D01*
Y283718D02*
Y286258D01*
X41910Y283718D02*
X43180D01*
X41910Y282448D02*
Y283718D01*
X39370Y282448D02*
X41910D01*
X39370D02*
Y283718D01*
X25400D02*
X26670D01*
X25400D02*
Y286258D01*
X26670D01*
Y287528D01*
X29210D01*
Y286258D02*
Y287528D01*
Y286258D02*
X30480D01*
Y283718D02*
Y286258D01*
X29210Y283718D02*
X30480D01*
X29210Y282448D02*
Y283718D01*
X26670Y282448D02*
X29210D01*
X26670D02*
Y283718D01*
X25400Y309118D02*
X26670D01*
X25400D02*
Y311658D01*
X26670D01*
Y312928D01*
X29210D01*
Y311658D02*
Y312928D01*
Y311658D02*
X30480D01*
Y309118D02*
Y311658D01*
X29210Y309118D02*
X30480D01*
X29210Y307848D02*
Y309118D01*
X26670Y307848D02*
X29210D01*
X26670D02*
Y309118D01*
X38100D02*
X39370D01*
X38100D02*
Y311658D01*
X39370D01*
Y312928D01*
X41910D01*
Y311658D02*
Y312928D01*
Y311658D02*
X43180D01*
Y309118D02*
Y311658D01*
X41910Y309118D02*
X43180D01*
X41910Y307848D02*
Y309118D01*
X39370Y307848D02*
X41910D01*
X39370D02*
Y309118D01*
X25400Y296418D02*
X26670D01*
X25400D02*
Y298958D01*
X26670D01*
Y300228D01*
X29210D01*
Y298958D02*
Y300228D01*
Y298958D02*
X30480D01*
Y296418D02*
Y298958D01*
X29210Y296418D02*
X30480D01*
X29210Y295148D02*
Y296418D01*
X26670Y295148D02*
X29210D01*
X26670D02*
Y296418D01*
X38100D02*
X39370D01*
X38100D02*
Y298958D01*
X39370D01*
Y300228D01*
X41910D01*
Y298958D02*
Y300228D01*
Y298958D02*
X43180D01*
Y296418D02*
Y298958D01*
X41910Y296418D02*
X43180D01*
X41910Y295148D02*
Y296418D01*
X39370Y295148D02*
X41910D01*
X39370D02*
Y296418D01*
X60960Y452120D02*
Y453390D01*
X62230Y454660D01*
X60960Y455930D02*
X62230Y454660D01*
X60960Y455930D02*
Y457200D01*
X62230D01*
X63500Y455930D01*
X64770Y457200D01*
X66040D01*
Y455930D02*
Y457200D01*
X64770Y454660D02*
X66040Y455930D01*
X64770Y454660D02*
X66040Y453390D01*
Y452120D02*
Y453390D01*
X64770Y452120D02*
X66040D01*
X63500Y453390D02*
X64770Y452120D01*
X62230D02*
X63500Y453390D01*
X60960Y452120D02*
X62230D01*
X60960Y401320D02*
Y402590D01*
X62230Y403860D01*
X60960Y405130D02*
X62230Y403860D01*
X60960Y405130D02*
Y406400D01*
X62230D01*
X63500Y405130D01*
X64770Y406400D01*
X66040D01*
Y405130D02*
Y406400D01*
X64770Y403860D02*
X66040Y405130D01*
X64770Y403860D02*
X66040Y402590D01*
Y401320D02*
Y402590D01*
X64770Y401320D02*
X66040D01*
X63500Y402590D02*
X64770Y401320D01*
X62230D02*
X63500Y402590D01*
X60960Y401320D02*
X62230D01*
X957580Y200660D02*
X960120Y198120D01*
X962660Y200660D01*
X960120Y203200D02*
X962660Y200660D01*
X957580D02*
X960120Y203200D01*
X1022580Y200660D02*
X1025120Y198120D01*
X1027660Y200660D01*
X1025120Y203200D02*
X1027660Y200660D01*
X1022580D02*
X1025120Y203200D01*
D125*
X2065502Y1188720D02*
Y1207002D01*
X2074643D01*
X2077690Y1203955D01*
Y1197861D01*
X2074643Y1194814D01*
X2065502D01*
X2071596D02*
X2077690Y1188720D01*
X2086831D02*
X2092926D01*
X2095972Y1191767D01*
Y1197861D01*
X2092926Y1200908D01*
X2086831D01*
X2083784Y1197861D01*
Y1191767D01*
X2086831Y1188720D01*
X2102066Y1200908D02*
Y1191767D01*
X2105114Y1188720D01*
X2114255D01*
Y1200908D01*
X2123396Y1203955D02*
Y1200908D01*
X2120349D01*
X2126443D01*
X2123396D01*
Y1191767D01*
X2126443Y1188720D01*
X2144725D02*
X2138631D01*
X2135584Y1191767D01*
Y1197861D01*
X2138631Y1200908D01*
X2144725D01*
X2147772Y1197861D01*
Y1194814D01*
X2135584D01*
X2166054Y1207002D02*
Y1188720D01*
X2156913D01*
X2153866Y1191767D01*
Y1197861D01*
X2156913Y1200908D01*
X2166054D01*
X2190430Y1188720D02*
Y1207002D01*
X2199571D01*
X2202618Y1203955D01*
Y1197861D01*
X2199571Y1194814D01*
X2190430D01*
X2211759Y1200908D02*
X2217853D01*
X2220900Y1197861D01*
Y1188720D01*
X2211759D01*
X2208712Y1191767D01*
X2211759Y1194814D01*
X2220900D01*
X2230041Y1203955D02*
Y1200908D01*
X2226994D01*
X2233088D01*
X2230041D01*
Y1191767D01*
X2233088Y1188720D01*
X2242229Y1207002D02*
Y1188720D01*
Y1197861D01*
X2245276Y1200908D01*
X2251370D01*
X2254417Y1197861D01*
Y1188720D01*
X2278793Y1207002D02*
Y1188720D01*
X2290981D01*
X2306216D02*
X2300122D01*
X2297075Y1191767D01*
Y1197861D01*
X2300122Y1200908D01*
X2306216D01*
X2309263Y1197861D01*
Y1194814D01*
X2297075D01*
X2315358Y1188720D02*
Y1200908D01*
X2324498D01*
X2327545Y1197861D01*
Y1188720D01*
X2339734Y1182626D02*
X2342781D01*
X2345828Y1185673D01*
Y1200908D01*
X2336687D01*
X2333640Y1197861D01*
Y1191767D01*
X2336687Y1188720D01*
X2345828D01*
X2354969Y1203955D02*
Y1200908D01*
X2351922D01*
X2358016D01*
X2354969D01*
Y1191767D01*
X2358016Y1188720D01*
X2367157Y1207002D02*
Y1188720D01*
Y1197861D01*
X2370204Y1200908D01*
X2376298D01*
X2379345Y1197861D01*
Y1188720D01*
X1788723Y1207002D02*
Y1188720D01*
Y1197861D01*
X1800911D01*
Y1207002D01*
Y1188720D01*
X1810052D02*
X1816146D01*
X1819193Y1191767D01*
Y1197861D01*
X1816146Y1200908D01*
X1810052D01*
X1807005Y1197861D01*
Y1191767D01*
X1810052Y1188720D01*
X1825287D02*
X1831381D01*
X1828334D01*
Y1207002D01*
X1825287D01*
X1849663Y1188720D02*
X1843569D01*
X1840522Y1191767D01*
Y1197861D01*
X1843569Y1200908D01*
X1849663D01*
X1852710Y1197861D01*
Y1194814D01*
X1840522D01*
X1877086Y1207002D02*
Y1188720D01*
X1889274D01*
X1904509D02*
X1898415D01*
X1895368Y1191767D01*
Y1197861D01*
X1898415Y1200908D01*
X1904509D01*
X1907556Y1197861D01*
Y1194814D01*
X1895368D01*
X1913651Y1188720D02*
Y1200908D01*
X1922791D01*
X1925838Y1197861D01*
Y1188720D01*
X1938027Y1182626D02*
X1941074D01*
X1944121Y1185673D01*
Y1200908D01*
X1934980D01*
X1931933Y1197861D01*
Y1191767D01*
X1934980Y1188720D01*
X1944121D01*
X1953262Y1203955D02*
Y1200908D01*
X1950215D01*
X1956309D01*
X1953262D01*
Y1191767D01*
X1956309Y1188720D01*
X1965450Y1207002D02*
Y1188720D01*
Y1197861D01*
X1968497Y1200908D01*
X1974591D01*
X1977638Y1197861D01*
Y1188720D01*
X1449987Y1207002D02*
Y1188720D01*
Y1197861D01*
X1462175D01*
Y1207002D01*
Y1188720D01*
X1471316D02*
X1477410D01*
X1480457Y1191767D01*
Y1197861D01*
X1477410Y1200908D01*
X1471316D01*
X1468269Y1197861D01*
Y1191767D01*
X1471316Y1188720D01*
X1486551D02*
X1492645D01*
X1489598D01*
Y1207002D01*
X1486551D01*
X1510927Y1188720D02*
X1504833D01*
X1501786Y1191767D01*
Y1197861D01*
X1504833Y1200908D01*
X1510927D01*
X1513974Y1197861D01*
Y1194814D01*
X1501786D01*
X1538350Y1207002D02*
X1550538D01*
X1544444D01*
Y1188720D01*
X1559679D02*
X1565773D01*
X1568820Y1191767D01*
Y1197861D01*
X1565773Y1200908D01*
X1559679D01*
X1556632Y1197861D01*
Y1191767D01*
X1559679Y1188720D01*
X1574914D02*
X1581008D01*
X1577961D01*
Y1207002D01*
X1574914D01*
X1599290Y1188720D02*
X1593196D01*
X1590149Y1191767D01*
Y1197861D01*
X1593196Y1200908D01*
X1599290D01*
X1602337Y1197861D01*
Y1194814D01*
X1590149D01*
X1608431Y1200908D02*
Y1188720D01*
Y1194814D01*
X1611478Y1197861D01*
X1614525Y1200908D01*
X1617572D01*
X1629760D02*
X1635854D01*
X1638901Y1197861D01*
Y1188720D01*
X1629760D01*
X1626713Y1191767D01*
X1629760Y1194814D01*
X1638901D01*
X1644995Y1188720D02*
Y1200908D01*
X1654136D01*
X1657184Y1197861D01*
Y1188720D01*
X1675466Y1200908D02*
X1666324D01*
X1663277Y1197861D01*
Y1191767D01*
X1666324Y1188720D01*
X1675466D01*
X1690701D02*
X1684607D01*
X1681560Y1191767D01*
Y1197861D01*
X1684607Y1200908D01*
X1690701D01*
X1693748Y1197861D01*
Y1194814D01*
X1681560D01*
X1724218Y1188720D02*
X1718124Y1194814D01*
Y1200908D01*
X1724218Y1207002D01*
X1733359Y1197861D02*
X1745547D01*
X1751641Y1188720D02*
X1757735Y1194814D01*
Y1200908D01*
X1751641Y1207002D01*
X1111250D02*
Y1188720D01*
Y1197861D01*
X1123438D01*
Y1207002D01*
Y1188720D01*
X1132579D02*
X1138673D01*
X1141720Y1191767D01*
Y1197861D01*
X1138673Y1200908D01*
X1132579D01*
X1129532Y1197861D01*
Y1191767D01*
X1132579Y1188720D01*
X1147814D02*
X1153908D01*
X1150861D01*
Y1207002D01*
X1147814D01*
X1172190Y1188720D02*
X1166096D01*
X1163049Y1191767D01*
Y1197861D01*
X1166096Y1200908D01*
X1172190D01*
X1175237Y1197861D01*
Y1194814D01*
X1163049D01*
X1199613Y1207002D02*
X1211802D01*
X1205707D01*
Y1188720D01*
X1220943D02*
X1227037D01*
X1230084Y1191767D01*
Y1197861D01*
X1227037Y1200908D01*
X1220943D01*
X1217896Y1197861D01*
Y1191767D01*
X1220943Y1188720D01*
X1236178D02*
X1242272D01*
X1239225D01*
Y1207002D01*
X1236178D01*
X1260554Y1188720D02*
X1254460D01*
X1251413Y1191767D01*
Y1197861D01*
X1254460Y1200908D01*
X1260554D01*
X1263601Y1197861D01*
Y1194814D01*
X1251413D01*
X1269695Y1200908D02*
Y1188720D01*
Y1194814D01*
X1272742Y1197861D01*
X1275789Y1200908D01*
X1278836D01*
X1291024D02*
X1297118D01*
X1300165Y1197861D01*
Y1188720D01*
X1291024D01*
X1287977Y1191767D01*
X1291024Y1194814D01*
X1300165D01*
X1306259Y1188720D02*
Y1200908D01*
X1315400D01*
X1318447Y1197861D01*
Y1188720D01*
X1336729Y1200908D02*
X1327588D01*
X1324541Y1197861D01*
Y1191767D01*
X1327588Y1188720D01*
X1336729D01*
X1351964D02*
X1345870D01*
X1342823Y1191767D01*
Y1197861D01*
X1345870Y1200908D01*
X1351964D01*
X1355011Y1197861D01*
Y1194814D01*
X1342823D01*
X1385481Y1188720D02*
X1379387Y1194814D01*
Y1200908D01*
X1385481Y1207002D01*
X1394622Y1197861D02*
X1406810D01*
X1400716Y1203955D02*
Y1191767D01*
X1412905Y1188720D02*
X1418999Y1194814D01*
Y1200908D01*
X1412905Y1207002D01*
X894394D02*
Y1188720D01*
X903535D01*
X906582Y1191767D01*
Y1203955D01*
X903535Y1207002D01*
X894394D01*
X921817Y1188720D02*
X915723D01*
X912676Y1191767D01*
Y1197861D01*
X915723Y1200908D01*
X921817D01*
X924864Y1197861D01*
Y1194814D01*
X912676D01*
X930958Y1188720D02*
X940099D01*
X943147Y1191767D01*
X940099Y1194814D01*
X934005D01*
X930958Y1197861D01*
X934005Y1200908D01*
X943147D01*
X961429D02*
X952288D01*
X949240Y1197861D01*
Y1191767D01*
X952288Y1188720D01*
X961429D01*
X967523Y1200908D02*
Y1188720D01*
Y1194814D01*
X970570Y1197861D01*
X973617Y1200908D01*
X976664D01*
X985805Y1188720D02*
X991899D01*
X988852D01*
Y1200908D01*
X985805D01*
X1001040Y1182626D02*
Y1200908D01*
X1010181D01*
X1013228Y1197861D01*
Y1191767D01*
X1010181Y1188720D01*
X1001040D01*
X1022369Y1203955D02*
Y1200908D01*
X1019322D01*
X1025416D01*
X1022369D01*
Y1191767D01*
X1025416Y1188720D01*
X1034557D02*
X1040651D01*
X1037604D01*
Y1200908D01*
X1034557D01*
X1052839Y1188720D02*
X1058933D01*
X1061980Y1191767D01*
Y1197861D01*
X1058933Y1200908D01*
X1052839D01*
X1049792Y1197861D01*
Y1191767D01*
X1052839Y1188720D01*
X1068074D02*
Y1200908D01*
X1077215D01*
X1080262Y1197861D01*
Y1188720D01*
X589684Y1207002D02*
X601872D01*
X595778D01*
Y1188720D01*
X617107D02*
X611013D01*
X607966Y1191767D01*
Y1197861D01*
X611013Y1200908D01*
X617107D01*
X620154Y1197861D01*
Y1194814D01*
X607966D01*
X626248Y1188720D02*
Y1200908D01*
X629295D01*
X632342Y1197861D01*
Y1188720D01*
Y1197861D01*
X635389Y1200908D01*
X638436Y1197861D01*
Y1188720D01*
X644530Y1182626D02*
Y1200908D01*
X653671D01*
X656718Y1197861D01*
Y1191767D01*
X653671Y1188720D01*
X644530D01*
X662812D02*
X668906D01*
X665859D01*
Y1207002D01*
X662812D01*
X681094Y1200908D02*
X687188D01*
X690235Y1197861D01*
Y1188720D01*
X681094D01*
X678047Y1191767D01*
X681094Y1194814D01*
X690235D01*
X699376Y1203955D02*
Y1200908D01*
X696329D01*
X702423D01*
X699376D01*
Y1191767D01*
X702423Y1188720D01*
X720705D02*
X714611D01*
X711564Y1191767D01*
Y1197861D01*
X714611Y1200908D01*
X720705D01*
X723752Y1197861D01*
Y1194814D01*
X711564D01*
X400251Y1188720D02*
Y1207002D01*
X409392D01*
X412439Y1203955D01*
Y1197861D01*
X409392Y1194814D01*
X400251D01*
X421580Y1200908D02*
X427674D01*
X430721Y1197861D01*
Y1188720D01*
X421580D01*
X418533Y1191767D01*
X421580Y1194814D01*
X430721D01*
X449003Y1207002D02*
Y1188720D01*
X439862D01*
X436815Y1191767D01*
Y1197861D01*
X439862Y1200908D01*
X449003D01*
X485568Y1203955D02*
X482520Y1207002D01*
X476426D01*
X473379Y1203955D01*
Y1200908D01*
X476426Y1197861D01*
X482520D01*
X485568Y1194814D01*
Y1191767D01*
X482520Y1188720D01*
X476426D01*
X473379Y1191767D01*
X491661Y1207002D02*
Y1188720D01*
Y1197861D01*
X494709Y1200908D01*
X500803D01*
X503850Y1197861D01*
Y1188720D01*
X512991Y1200908D02*
X519085D01*
X522132Y1197861D01*
Y1188720D01*
X512991D01*
X509944Y1191767D01*
X512991Y1194814D01*
X522132D01*
X528226Y1182626D02*
Y1200908D01*
X537367D01*
X540414Y1197861D01*
Y1191767D01*
X537367Y1188720D01*
X528226D01*
X555649D02*
X549555D01*
X546508Y1191767D01*
Y1197861D01*
X549555Y1200908D01*
X555649D01*
X558696Y1197861D01*
Y1194814D01*
X546508D01*
X250429Y1207002D02*
Y1194814D01*
X256524Y1188720D01*
X262618Y1194814D01*
Y1207002D01*
X268712Y1188720D02*
X274806D01*
X271759D01*
Y1200908D01*
X268712D01*
X286994D02*
X293088D01*
X296135Y1197861D01*
Y1188720D01*
X286994D01*
X283947Y1191767D01*
X286994Y1194814D01*
X296135D01*
X302229Y1188720D02*
X314417Y1200908D01*
X320511Y1188720D02*
Y1207002D01*
X329652D01*
X332699Y1203955D01*
Y1197861D01*
X329652Y1194814D01*
X320511D01*
X341840Y1200908D02*
X347934D01*
X350981Y1197861D01*
Y1188720D01*
X341840D01*
X338793Y1191767D01*
X341840Y1194814D01*
X350981D01*
X369263Y1207002D02*
Y1188720D01*
X360122D01*
X357075Y1191767D01*
Y1197861D01*
X360122Y1200908D01*
X369263D01*
X-130456Y1207002D02*
Y1188720D01*
X-121315D01*
X-118268Y1191767D01*
Y1203955D01*
X-121315Y1207002D01*
X-130456D01*
X-112174Y1200908D02*
Y1188720D01*
Y1194814D01*
X-109127Y1197861D01*
X-106080Y1200908D01*
X-103033D01*
X-93892Y1188720D02*
X-87798D01*
X-90845D01*
Y1200908D01*
X-93892D01*
X-78657Y1188720D02*
X-72563D01*
X-75610D01*
Y1207002D01*
X-78657D01*
X-63422Y1188720D02*
X-57328D01*
X-60375D01*
Y1207002D01*
X-63422D01*
X-29905D02*
Y1188720D01*
X-17717D01*
X-8576Y1200908D02*
X-2482D01*
X565Y1197861D01*
Y1188720D01*
X-8576D01*
X-11623Y1191767D01*
X-8576Y1194814D01*
X565D01*
X6659Y1200908D02*
Y1191767D01*
X9706Y1188720D01*
X18847D01*
Y1185673D01*
X15800Y1182626D01*
X12753D01*
X18847Y1188720D02*
Y1200908D01*
X34083Y1188720D02*
X27988D01*
X24941Y1191767D01*
Y1197861D01*
X27988Y1200908D01*
X34083D01*
X37129Y1197861D01*
Y1194814D01*
X24941D01*
X43224Y1200908D02*
Y1188720D01*
Y1194814D01*
X46270Y1197861D01*
X49317Y1200908D01*
X52365D01*
X79788Y1188720D02*
Y1207002D01*
X88929D01*
X91976Y1203955D01*
Y1197861D01*
X88929Y1194814D01*
X79788D01*
X101117Y1200908D02*
X107211D01*
X110258Y1197861D01*
Y1188720D01*
X101117D01*
X98070Y1191767D01*
X101117Y1194814D01*
X110258D01*
X116352Y1188720D02*
X122446D01*
X119399D01*
Y1200908D01*
X116352D01*
X131587D02*
Y1188720D01*
Y1194814D01*
X134634Y1197861D01*
X137681Y1200908D01*
X140728D01*
X-316842Y1207002D02*
Y1188720D01*
Y1197861D01*
X-304654D01*
Y1207002D01*
Y1188720D01*
X-295513D02*
X-289419D01*
X-286372Y1191767D01*
Y1197861D01*
X-289419Y1200908D01*
X-295513D01*
X-298560Y1197861D01*
Y1191767D01*
X-295513Y1188720D01*
X-280278D02*
X-274184D01*
X-277231D01*
Y1207002D01*
X-280278D01*
X-255902Y1188720D02*
X-261996D01*
X-265043Y1191767D01*
Y1197861D01*
X-261996Y1200908D01*
X-255902D01*
X-252855Y1197861D01*
Y1194814D01*
X-265043D01*
X-228479Y1207002D02*
X-216290D01*
X-222385D01*
Y1188720D01*
X-210196Y1200908D02*
Y1191767D01*
X-207150Y1188720D01*
X-198008D01*
Y1185673D01*
X-201056Y1182626D01*
X-204102D01*
X-198008Y1188720D02*
Y1200908D01*
X-191914Y1182626D02*
Y1200908D01*
X-182773D01*
X-179726Y1197861D01*
Y1191767D01*
X-182773Y1188720D01*
X-191914D01*
X-164491D02*
X-170585D01*
X-173632Y1191767D01*
Y1197861D01*
X-170585Y1200908D01*
X-164491D01*
X-161444Y1197861D01*
Y1194814D01*
X-173632D01*
X-445334Y1188720D02*
Y1207002D01*
X-436193D01*
X-433146Y1203955D01*
Y1197861D01*
X-436193Y1194814D01*
X-445334D01*
X-427052Y1188720D02*
X-420958D01*
X-424005D01*
Y1207002D01*
X-427052D01*
X-408770Y1200908D02*
X-402676D01*
X-399629Y1197861D01*
Y1188720D01*
X-408770D01*
X-411817Y1191767D01*
X-408770Y1194814D01*
X-399629D01*
X-390488Y1203955D02*
Y1200908D01*
X-393535D01*
X-387441D01*
X-390488D01*
Y1191767D01*
X-387441Y1188720D01*
X-369159D02*
X-375253D01*
X-378300Y1191767D01*
Y1197861D01*
X-375253Y1200908D01*
X-369159D01*
X-366112Y1197861D01*
Y1194814D01*
X-378300D01*
X-347830Y1207002D02*
Y1188720D01*
X-356971D01*
X-360018Y1191767D01*
Y1197861D01*
X-356971Y1200908D01*
X-347830D01*
X-734810Y1207002D02*
Y1188720D01*
Y1197861D01*
X-722622D01*
Y1207002D01*
Y1188720D01*
X-713481D02*
X-707387D01*
X-704340Y1191767D01*
Y1197861D01*
X-707387Y1200908D01*
X-713481D01*
X-716528Y1197861D01*
Y1191767D01*
X-713481Y1188720D01*
X-698246D02*
X-692152D01*
X-695199D01*
Y1207002D01*
X-698246D01*
X-673869Y1188720D02*
X-679964D01*
X-683010Y1191767D01*
Y1197861D01*
X-679964Y1200908D01*
X-673869D01*
X-670823Y1197861D01*
Y1194814D01*
X-683010D01*
X-634258Y1203955D02*
X-637305Y1207002D01*
X-643399D01*
X-646446Y1203955D01*
Y1200908D01*
X-643399Y1197861D01*
X-637305D01*
X-634258Y1194814D01*
Y1191767D01*
X-637305Y1188720D01*
X-643399D01*
X-646446Y1191767D01*
X-628164Y1188720D02*
X-622070D01*
X-625117D01*
Y1200908D01*
X-628164D01*
X-612929D02*
X-600741D01*
X-612929Y1188720D01*
X-600741D01*
X-585506D02*
X-591600D01*
X-594647Y1191767D01*
Y1197861D01*
X-591600Y1200908D01*
X-585506D01*
X-582459Y1197861D01*
Y1194814D01*
X-594647D01*
X-872442Y1203955D02*
X-875489Y1207002D01*
X-881583D01*
X-884630Y1203955D01*
Y1191767D01*
X-881583Y1188720D01*
X-875489D01*
X-872442Y1191767D01*
X-863301Y1188720D02*
X-857207D01*
X-854160Y1191767D01*
Y1197861D01*
X-857207Y1200908D01*
X-863301D01*
X-866348Y1197861D01*
Y1191767D01*
X-863301Y1188720D01*
X-848066Y1200908D02*
Y1191767D01*
X-845019Y1188720D01*
X-835878D01*
Y1200908D01*
X-829784Y1188720D02*
Y1200908D01*
X-820643D01*
X-817596Y1197861D01*
Y1188720D01*
X-808455Y1203955D02*
Y1200908D01*
X-811502D01*
X-805408D01*
X-808455D01*
Y1191767D01*
X-805408Y1188720D01*
X-1000935Y1203955D02*
X-1003982Y1207002D01*
X-1010076D01*
X-1013123Y1203955D01*
Y1200908D01*
X-1010076Y1197861D01*
X-1003982D01*
X-1000935Y1194814D01*
Y1191767D01*
X-1003982Y1188720D01*
X-1010076D01*
X-1013123Y1191767D01*
X-994841Y1200908D02*
Y1191767D01*
X-991794Y1188720D01*
X-982653D01*
Y1185673D01*
X-985700Y1182626D01*
X-988747D01*
X-982653Y1188720D02*
Y1200908D01*
X-976559Y1188720D02*
Y1200908D01*
X-973512D01*
X-970465Y1197861D01*
Y1188720D01*
Y1197861D01*
X-967418Y1200908D01*
X-964370Y1197861D01*
Y1188720D01*
X-958277Y1207002D02*
Y1188720D01*
X-949136D01*
X-946088Y1191767D01*
Y1194814D01*
Y1197861D01*
X-949136Y1200908D01*
X-958277D01*
X-936947Y1188720D02*
X-930853D01*
X-927806Y1191767D01*
Y1197861D01*
X-930853Y1200908D01*
X-936947D01*
X-939994Y1197861D01*
Y1191767D01*
X-936947Y1188720D01*
X-921712D02*
X-915618D01*
X-918665D01*
Y1207002D01*
X-921712D01*
D126*
X-750820Y684538D02*
Y669303D01*
Y676921D01*
X-740663D01*
Y684538D01*
Y669303D01*
X-733045D02*
X-727967D01*
X-725428Y671842D01*
Y676921D01*
X-727967Y679460D01*
X-733045D01*
X-735585Y676921D01*
Y671842D01*
X-733045Y669303D01*
X-720350D02*
X-715271D01*
X-717810D01*
Y684538D01*
X-720350D01*
X-700036Y669303D02*
X-705114D01*
X-707654Y671842D01*
Y676921D01*
X-705114Y679460D01*
X-700036D01*
X-697497Y676921D01*
Y674382D01*
X-707654D01*
X-677184Y684538D02*
Y669303D01*
X-667027D01*
X-654331D02*
X-659409D01*
X-661948Y671842D01*
Y676921D01*
X-659409Y679460D01*
X-654331D01*
X-651792Y676921D01*
Y674382D01*
X-661948D01*
X-646713Y669303D02*
Y679460D01*
X-639096D01*
X-636557Y676921D01*
Y669303D01*
X-626400Y664225D02*
X-623861D01*
X-621321Y666764D01*
Y679460D01*
X-628939D01*
X-631478Y676921D01*
Y671842D01*
X-628939Y669303D01*
X-621321D01*
X-613704Y681999D02*
Y679460D01*
X-616243D01*
X-611165D01*
X-613704D01*
Y671842D01*
X-611165Y669303D01*
X-603547Y684538D02*
Y669303D01*
Y676921D01*
X-601008Y679460D01*
X-595930D01*
X-593391Y676921D01*
Y669303D01*
X-750820Y694697D02*
Y709932D01*
X-743202D01*
X-740663Y707393D01*
Y702314D01*
X-743202Y699775D01*
X-750820D01*
X-745741D02*
X-740663Y694697D01*
X-733045D02*
X-727967D01*
X-725428Y697236D01*
Y702314D01*
X-727967Y704853D01*
X-733045D01*
X-735585Y702314D01*
Y697236D01*
X-733045Y694697D01*
X-720350Y704853D02*
Y697236D01*
X-717810Y694697D01*
X-710193D01*
Y704853D01*
X-702575Y707393D02*
Y704853D01*
X-705114D01*
X-700036D01*
X-702575D01*
Y697236D01*
X-700036Y694697D01*
X-684801D02*
X-689879D01*
X-692419Y697236D01*
Y702314D01*
X-689879Y704853D01*
X-684801D01*
X-682262Y702314D01*
Y699775D01*
X-692419D01*
X-667027Y709932D02*
Y694697D01*
X-674644D01*
X-677184Y697236D01*
Y702314D01*
X-674644Y704853D01*
X-667027D01*
X-646713Y694697D02*
Y709932D01*
X-639096D01*
X-636557Y707393D01*
Y702314D01*
X-639096Y699775D01*
X-646713D01*
X-628939Y704853D02*
X-623861D01*
X-621321Y702314D01*
Y694697D01*
X-628939D01*
X-631478Y697236D01*
X-628939Y699775D01*
X-621321D01*
X-613704Y707393D02*
Y704853D01*
X-616243D01*
X-611165D01*
X-613704D01*
Y697236D01*
X-611165Y694697D01*
X-603547Y709932D02*
Y694697D01*
Y702314D01*
X-601008Y704853D01*
X-595930D01*
X-593391Y702314D01*
Y694697D01*
X-573077Y709932D02*
Y694697D01*
X-562920D01*
X-550225D02*
X-555303D01*
X-557842Y697236D01*
Y702314D01*
X-555303Y704853D01*
X-550225D01*
X-547685Y702314D01*
Y699775D01*
X-557842D01*
X-542607Y694697D02*
Y704853D01*
X-534990D01*
X-532450Y702314D01*
Y694697D01*
X-522294Y689618D02*
X-519754D01*
X-517215Y692158D01*
Y704853D01*
X-524833D01*
X-527372Y702314D01*
Y697236D01*
X-524833Y694697D01*
X-517215D01*
X-509598Y707393D02*
Y704853D01*
X-512137D01*
X-507058D01*
X-509598D01*
Y697236D01*
X-507058Y694697D01*
X-499441Y709932D02*
Y694697D01*
Y702314D01*
X-496902Y704853D01*
X-491824D01*
X-489284Y702314D01*
Y694697D01*
X-1002966Y707393D02*
X-1005505Y709932D01*
X-1010584D01*
X-1013123Y707393D01*
Y704853D01*
X-1010584Y702314D01*
X-1005505D01*
X-1002966Y699775D01*
Y697236D01*
X-1005505Y694697D01*
X-1010584D01*
X-1013123Y697236D01*
X-997888Y694697D02*
X-992809D01*
X-995349D01*
Y709932D01*
X-997888D01*
X-982653Y694697D02*
X-977574D01*
X-975035Y697236D01*
Y702314D01*
X-977574Y704853D01*
X-982653D01*
X-985192Y702314D01*
Y697236D01*
X-982653Y694697D01*
X-967418Y707393D02*
Y704853D01*
X-969957D01*
X-964878D01*
X-967418D01*
Y697236D01*
X-964878Y694697D01*
X-931869Y709932D02*
Y694697D01*
X-939487D01*
X-942026Y697236D01*
Y702314D01*
X-939487Y704853D01*
X-931869D01*
X-919173Y694697D02*
X-924251D01*
X-926791Y697236D01*
Y702314D01*
X-924251Y704853D01*
X-919173D01*
X-916634Y702314D01*
Y699775D01*
X-926791D01*
X-909016Y694697D02*
Y707393D01*
Y702314D01*
X-911556D01*
X-906477D01*
X-909016D01*
Y707393D01*
X-906477Y709932D01*
X-898860Y694697D02*
X-893781D01*
X-896321D01*
Y704853D01*
X-898860D01*
X-886164Y694697D02*
Y704853D01*
X-878546D01*
X-876007Y702314D01*
Y694697D01*
X-870929D02*
X-865850D01*
X-868390D01*
Y704853D01*
X-870929D01*
X-855694Y707393D02*
Y704853D01*
X-858233D01*
X-853155D01*
X-855694D01*
Y697236D01*
X-853155Y694697D01*
X-845537D02*
X-840459D01*
X-842998D01*
Y704853D01*
X-845537D01*
X-830302Y694697D02*
X-825224D01*
X-822684Y697236D01*
Y702314D01*
X-825224Y704853D01*
X-830302D01*
X-832841Y702314D01*
Y697236D01*
X-830302Y694697D01*
X-817606D02*
Y704853D01*
X-809988D01*
X-807449Y702314D01*
Y694697D01*
X-802371D02*
X-794753D01*
X-792214Y697236D01*
X-794753Y699775D01*
X-799832D01*
X-802371Y702314D01*
X-799832Y704853D01*
X-792214D01*
X-771901D02*
X-769362D01*
Y702314D01*
X-771901D01*
Y704853D01*
Y697236D02*
X-769362D01*
Y694697D01*
X-771901D01*
Y697236D01*
M02*
