G04*
G04 #@! TF.GenerationSoftware,Altium Limited,Altium Designer,22.9.1 (49)*
G04*
G04 Layer_Physical_Order=1*
G04 Layer_Color=255*
%FSLAX44Y44*%
%MOMM*%
G71*
G04*
G04 #@! TF.SameCoordinates,A2259558-2793-4ACD-BA26-FD92625B8348*
G04*
G04*
G04 #@! TF.FilePolarity,Positive*
G04*
G01*
G75*
%ADD14C,0.2540*%
%ADD17R,0.9000X0.6500*%
%ADD18R,0.9800X0.8700*%
%ADD19R,0.3500X0.5750*%
%ADD20R,0.5750X0.3500*%
G04:AMPARAMS|DCode=21|XSize=1.3mm|YSize=1.1mm|CornerRadius=0mm|HoleSize=0mm|Usage=FLASHONLY|Rotation=315.000|XOffset=0mm|YOffset=0mm|HoleType=Round|Shape=Rectangle|*
%AMROTATEDRECTD21*
4,1,4,-0.8485,0.0707,-0.0707,0.8485,0.8485,-0.0707,0.0707,-0.8485,-0.8485,0.0707,0.0*
%
%ADD21ROTATEDRECTD21*%

G04:AMPARAMS|DCode=22|XSize=0.65mm|YSize=0.9mm|CornerRadius=0mm|HoleSize=0mm|Usage=FLASHONLY|Rotation=135.000|XOffset=0mm|YOffset=0mm|HoleType=Round|Shape=Rectangle|*
%AMROTATEDRECTD22*
4,1,4,0.5480,0.0884,-0.0884,-0.5480,-0.5480,-0.0884,0.0884,0.5480,0.5480,0.0884,0.0*
%
%ADD22ROTATEDRECTD22*%

G04:AMPARAMS|DCode=23|XSize=0.9mm|YSize=0.75mm|CornerRadius=0mm|HoleSize=0mm|Usage=FLASHONLY|Rotation=225.000|XOffset=0mm|YOffset=0mm|HoleType=Round|Shape=Rectangle|*
%AMROTATEDRECTD23*
4,1,4,0.0530,0.5834,0.5834,0.0530,-0.0530,-0.5834,-0.5834,-0.0530,0.0530,0.5834,0.0*
%
%ADD23ROTATEDRECTD23*%

G04:AMPARAMS|DCode=24|XSize=0.9mm|YSize=0.75mm|CornerRadius=0mm|HoleSize=0mm|Usage=FLASHONLY|Rotation=135.000|XOffset=0mm|YOffset=0mm|HoleType=Round|Shape=Rectangle|*
%AMROTATEDRECTD24*
4,1,4,0.5834,-0.0530,0.0530,-0.5834,-0.5834,0.0530,-0.0530,0.5834,0.5834,-0.0530,0.0*
%
%ADD24ROTATEDRECTD24*%

%ADD25R,0.5600X0.5200*%
G04:AMPARAMS|DCode=26|XSize=0.3mm|YSize=2.1mm|CornerRadius=0mm|HoleSize=0mm|Usage=FLASHONLY|Rotation=45.000|XOffset=0mm|YOffset=0mm|HoleType=Round|Shape=Round|*
%AMOVALD26*
21,1,1.8000,0.3000,0.0000,0.0000,135.0*
1,1,0.3000,0.6364,-0.6364*
1,1,0.3000,-0.6364,0.6364*
%
%ADD26OVALD26*%

G04:AMPARAMS|DCode=27|XSize=0.3mm|YSize=2.1mm|CornerRadius=0mm|HoleSize=0mm|Usage=FLASHONLY|Rotation=315.000|XOffset=0mm|YOffset=0mm|HoleType=Round|Shape=Round|*
%AMOVALD27*
21,1,1.8000,0.3000,0.0000,0.0000,45.0*
1,1,0.3000,-0.6364,-0.6364*
1,1,0.3000,0.6364,0.6364*
%
%ADD27OVALD27*%

G04:AMPARAMS|DCode=28|XSize=0.85mm|YSize=0.6mm|CornerRadius=0mm|HoleSize=0mm|Usage=FLASHONLY|Rotation=315.000|XOffset=0mm|YOffset=0mm|HoleType=Round|Shape=Rectangle|*
%AMROTATEDRECTD28*
4,1,4,-0.5127,0.0884,-0.0884,0.5127,0.5127,-0.0884,0.0884,-0.5127,-0.5127,0.0884,0.0*
%
%ADD28ROTATEDRECTD28*%

%ADD29R,0.6000X0.8500*%
G04:AMPARAMS|DCode=30|XSize=0.7565mm|YSize=0.8621mm|CornerRadius=0mm|HoleSize=0mm|Usage=FLASHONLY|Rotation=225.000|XOffset=0mm|YOffset=0mm|HoleType=Round|Shape=Rectangle|*
%AMROTATEDRECTD30*
4,1,4,-0.0374,0.5723,0.5723,-0.0374,0.0374,-0.5723,-0.5723,0.0374,-0.0374,0.5723,0.0*
%
%ADD30ROTATEDRECTD30*%

G04:AMPARAMS|DCode=31|XSize=1.6mm|YSize=0.85mm|CornerRadius=0mm|HoleSize=0mm|Usage=FLASHONLY|Rotation=315.000|XOffset=0mm|YOffset=0mm|HoleType=Round|Shape=Rectangle|*
%AMROTATEDRECTD31*
4,1,4,-0.8662,0.2652,-0.2652,0.8662,0.8662,-0.2652,0.2652,-0.8662,-0.8662,0.2652,0.0*
%
%ADD31ROTATEDRECTD31*%

G04:AMPARAMS|DCode=32|XSize=0.95mm|YSize=0.8mm|CornerRadius=0mm|HoleSize=0mm|Usage=FLASHONLY|Rotation=315.000|XOffset=0mm|YOffset=0mm|HoleType=Round|Shape=Rectangle|*
%AMROTATEDRECTD32*
4,1,4,-0.6187,0.0530,-0.0530,0.6187,0.6187,-0.0530,0.0530,-0.6187,-0.6187,0.0530,0.0*
%
%ADD32ROTATEDRECTD32*%

%ADD33R,0.8578X0.8121*%
%ADD34R,0.5500X1.8000*%
%ADD35R,6.0000X6.0000*%
%ADD36R,0.8500X0.6000*%
%ADD37R,1.6000X0.8500*%
%ADD38R,0.8000X0.9500*%
G04:AMPARAMS|DCode=39|XSize=1mm|YSize=0.7mm|CornerRadius=0mm|HoleSize=0mm|Usage=FLASHONLY|Rotation=135.000|XOffset=0mm|YOffset=0mm|HoleType=Round|Shape=Rectangle|*
%AMROTATEDRECTD39*
4,1,4,0.6010,-0.1061,0.1061,-0.6010,-0.6010,0.1061,-0.1061,0.6010,0.6010,-0.1061,0.0*
%
%ADD39ROTATEDRECTD39*%

%ADD40R,1.5000X2.1200*%
%ADD41R,2.6000X1.1000*%
G04:AMPARAMS|DCode=42|XSize=1.2052mm|YSize=0.5321mm|CornerRadius=0.2661mm|HoleSize=0mm|Usage=FLASHONLY|Rotation=0.000|XOffset=0mm|YOffset=0mm|HoleType=Round|Shape=RoundedRectangle|*
%AMROUNDEDRECTD42*
21,1,1.2052,0.0000,0,0,0.0*
21,1,0.6731,0.5321,0,0,0.0*
1,1,0.5321,0.3366,0.0000*
1,1,0.5321,-0.3366,0.0000*
1,1,0.5321,-0.3366,0.0000*
1,1,0.5321,0.3366,0.0000*
%
%ADD42ROUNDEDRECTD42*%
%ADD43R,1.2052X0.5321*%
%ADD44R,0.7565X0.8621*%
%ADD45R,1.1000X0.6000*%
%ADD46R,1.3000X0.4500*%
%ADD47R,0.8000X0.4000*%
%ADD48O,2.2000X0.6000*%
%ADD49R,0.7000X1.0000*%
%ADD50R,3.5000X1.6000*%
%ADD51R,1.4000X1.1000*%
%ADD52R,0.5500X1.0500*%
%ADD53R,0.8500X0.7000*%
%ADD54R,0.8500X1.6000*%
G04:AMPARAMS|DCode=55|XSize=0.8578mm|YSize=0.8121mm|CornerRadius=0mm|HoleSize=0mm|Usage=FLASHONLY|Rotation=225.000|XOffset=0mm|YOffset=0mm|HoleType=Round|Shape=Rectangle|*
%AMROTATEDRECTD55*
4,1,4,0.0161,0.5904,0.5904,0.0161,-0.0161,-0.5904,-0.5904,-0.0161,0.0161,0.5904,0.0*
%
%ADD55ROTATEDRECTD55*%

%ADD56R,1.0500X0.5500*%
%ADD57R,1.0000X1.0500*%
%ADD58R,1.0500X1.0000*%
G04:AMPARAMS|DCode=59|XSize=2.4741mm|YSize=0.6221mm|CornerRadius=0.3111mm|HoleSize=0mm|Usage=FLASHONLY|Rotation=180.000|XOffset=0mm|YOffset=0mm|HoleType=Round|Shape=RoundedRectangle|*
%AMROUNDEDRECTD59*
21,1,2.4741,0.0000,0,0,180.0*
21,1,1.8519,0.6221,0,0,180.0*
1,1,0.6221,-0.9260,0.0000*
1,1,0.6221,0.9260,0.0000*
1,1,0.6221,0.9260,0.0000*
1,1,0.6221,-0.9260,0.0000*
%
%ADD59ROUNDEDRECTD59*%
G04:AMPARAMS|DCode=60|XSize=2.3581mm|YSize=0.6221mm|CornerRadius=0.3111mm|HoleSize=0mm|Usage=FLASHONLY|Rotation=180.000|XOffset=0mm|YOffset=0mm|HoleType=Round|Shape=RoundedRectangle|*
%AMROUNDEDRECTD60*
21,1,2.3581,0.0000,0,0,180.0*
21,1,1.7360,0.6221,0,0,180.0*
1,1,0.6221,-0.8680,0.0000*
1,1,0.6221,0.8680,0.0000*
1,1,0.6221,0.8680,0.0000*
1,1,0.6221,-0.8680,0.0000*
%
%ADD60ROUNDEDRECTD60*%
%ADD61R,2.4741X0.6221*%
%ADD62R,1.2500X2.5000*%
%ADD93R,2.2900X2.2900*%
%ADD102C,1.9954*%
%ADD103C,1.5406*%
%ADD104R,1.5406X1.5406*%
%ADD107C,0.1724*%
%ADD108C,0.1724*%
%ADD109C,0.3810*%
%ADD110C,0.0254*%
%ADD111C,0.1506*%
%ADD112C,0.5080*%
%ADD113C,5.8420*%
%ADD114C,1.4080*%
%ADD115C,2.5400*%
%ADD116C,1.0160*%
%ADD117R,1.0160X1.0160*%
%ADD118O,2.0000X1.4500*%
%ADD119O,1.8000X1.1500*%
%ADD120C,0.8000*%
%ADD121C,0.6096*%
%ADD122C,1.2700*%
G36*
X1097732Y562719D02*
X1103169Y561638D01*
X1108419Y559856D01*
X1113391Y557404D01*
X1118000Y554324D01*
X1122168Y550668D01*
X1125824Y546500D01*
X1128904Y541891D01*
X1131356Y536919D01*
X1133138Y531669D01*
X1134219Y526232D01*
X1134500Y521951D01*
X1134546Y520700D01*
X1134546Y520700D01*
X1134546Y519452D01*
X1134546Y50800D01*
X1134546Y50800D01*
X1134546D01*
X1134500Y49549D01*
X1134219Y45268D01*
X1133138Y39831D01*
X1131356Y34581D01*
X1128904Y29609D01*
X1125824Y25000D01*
X1122168Y20832D01*
X1118000Y17176D01*
X1113391Y14096D01*
X1108419Y11644D01*
X1103169Y9862D01*
X1097732Y8781D01*
X1092383Y8430D01*
X1092200Y8454D01*
X52058D01*
X52048Y8454D01*
X50800Y8454D01*
X49549Y8500D01*
X45268Y8781D01*
X39831Y9862D01*
X34581Y11644D01*
X29609Y14096D01*
X25000Y17176D01*
X20832Y20832D01*
X17176Y25000D01*
X14096Y29609D01*
X11644Y34581D01*
X9862Y39831D01*
X8781Y45268D01*
X8430Y50617D01*
X8454Y50800D01*
Y519442D01*
X8454Y519452D01*
X8454Y520700D01*
X8500Y521951D01*
X8781Y526232D01*
X9862Y531669D01*
X11644Y536919D01*
X14096Y541891D01*
X17176Y546500D01*
X20832Y550668D01*
X25000Y554324D01*
X29609Y557404D01*
X34581Y559856D01*
X39831Y561638D01*
X45268Y562719D01*
X50617Y563070D01*
X50800Y563046D01*
X163634D01*
X164120Y561872D01*
X70090Y467842D01*
X69165Y468336D01*
X66388Y469179D01*
X63500Y469463D01*
X60612Y469179D01*
X57835Y468336D01*
X55276Y466968D01*
X53032Y465127D01*
X51192Y462884D01*
X49823Y460325D01*
X48981Y457548D01*
X48697Y454660D01*
X48981Y451772D01*
X49823Y448995D01*
X51192Y446436D01*
X53032Y444193D01*
X55276Y442351D01*
X57835Y440984D01*
X60612Y440141D01*
X63500Y439857D01*
X66388Y440141D01*
X69165Y440984D01*
X71724Y442351D01*
X73967Y444193D01*
X75809Y446436D01*
X77176Y448995D01*
X78019Y451772D01*
X78303Y454660D01*
X78019Y457548D01*
X77176Y460325D01*
X76682Y461250D01*
X170771Y555338D01*
X635319D01*
X643468Y547189D01*
Y528518D01*
X657510D01*
X657960Y528428D01*
X659129D01*
X662744Y524814D01*
X664256Y523803D01*
X666040Y523448D01*
X708718D01*
Y510968D01*
X718282D01*
Y533032D01*
X708718D01*
Y532772D01*
X667971D01*
X664356Y536386D01*
X662844Y537397D01*
X662532Y537459D01*
Y553782D01*
X650060D01*
X641970Y561872D01*
X642456Y563046D01*
X1092200D01*
X1092383Y563070D01*
X1097732Y562719D01*
D02*
G37*
%LPC*%
G36*
X728290Y557540D02*
X724270D01*
Y547270D01*
X728290D01*
Y557540D01*
D02*
G37*
G36*
X721730D02*
X717710D01*
Y547270D01*
X721730D01*
Y557540D01*
D02*
G37*
G36*
X728290Y544730D02*
X724270D01*
Y534460D01*
X728290D01*
Y544730D01*
D02*
G37*
G36*
X721730D02*
X717710D01*
Y534460D01*
X721730D01*
Y544730D01*
D02*
G37*
G36*
X521070Y543723D02*
X502550D01*
X500544Y543324D01*
X498843Y542188D01*
X497706Y540487D01*
X497307Y538480D01*
X497706Y536473D01*
X498843Y534772D01*
X499726Y534182D01*
X499341Y532912D01*
X475958D01*
X475573Y534182D01*
X476456Y534772D01*
X477593Y536473D01*
X477992Y538480D01*
X477593Y540487D01*
X476456Y542188D01*
X474755Y543324D01*
X472748Y543723D01*
X454229D01*
X452222Y543324D01*
X450521Y542188D01*
X450015Y541431D01*
X276400D01*
X276400Y541431D01*
X275271Y541206D01*
X274314Y540566D01*
X274314Y540566D01*
X225519Y491772D01*
X165628D01*
Y427708D01*
X225519D01*
X232404Y420824D01*
X232404Y420824D01*
X233361Y420184D01*
X234490Y419959D01*
X234490Y419959D01*
X375718D01*
Y401468D01*
X380050D01*
Y396532D01*
X374718D01*
Y367468D01*
X380050D01*
Y346722D01*
X364359Y331032D01*
X329468D01*
Y310968D01*
X364359D01*
X369275Y306052D01*
X369275Y306052D01*
X370233Y305412D01*
X370968Y305266D01*
Y296540D01*
X370460D01*
Y289770D01*
X380000D01*
X389540D01*
Y296540D01*
X389032D01*
Y300049D01*
X406124D01*
X407057Y298780D01*
X406820Y297588D01*
X407215Y295606D01*
X408338Y293926D01*
X410018Y292803D01*
X412000Y292409D01*
X413982Y292803D01*
X415662Y293926D01*
X416785Y295606D01*
X417179Y297588D01*
X416942Y298780D01*
X417876Y300049D01*
X439913D01*
X439913Y300049D01*
X441043Y300274D01*
X442000Y300914D01*
X444861Y303775D01*
X450673Y297963D01*
X458497Y305786D01*
X456565Y307718D01*
X462530Y313683D01*
X464462Y311751D01*
X465685Y312975D01*
X469606Y309054D01*
X468134Y307582D01*
X477018Y298698D01*
X481886Y303567D01*
X482128Y303728D01*
X490840Y312440D01*
X498911D01*
X499805Y311170D01*
X499670Y310791D01*
X499655Y310788D01*
X498487Y310007D01*
X497706Y308839D01*
X497443Y307516D01*
X496119Y307253D01*
X494951Y306472D01*
X494170Y305304D01*
X493896Y303925D01*
X494170Y302547D01*
X494951Y301379D01*
X507679Y288651D01*
X508847Y287871D01*
X510225Y287596D01*
X511604Y287871D01*
X512772Y288651D01*
X513553Y289819D01*
X513816Y291143D01*
X515139Y291406D01*
X516307Y292187D01*
X517088Y293355D01*
X517351Y294678D01*
X518675Y294942D01*
X519843Y295722D01*
X520624Y296890D01*
X520887Y298214D01*
X522210Y298477D01*
X523378Y299258D01*
X524159Y300426D01*
X524319Y301230D01*
X524368Y301220D01*
X525944Y301534D01*
X527280Y302427D01*
X528711Y302535D01*
X529179Y302121D01*
Y288290D01*
X529179Y288290D01*
X529404Y287161D01*
X530044Y286204D01*
X567935Y248312D01*
X567855Y247008D01*
X567337Y246663D01*
X566215Y244982D01*
X565821Y243000D01*
X565942Y242390D01*
X565484Y241947D01*
X564822Y241523D01*
X563880Y241710D01*
X563880Y241710D01*
X556421D01*
X556421Y241710D01*
X555292Y241486D01*
X554335Y240846D01*
X554335Y240846D01*
X553656Y240168D01*
X552243Y240550D01*
X551663Y241418D01*
X550494Y242199D01*
X549171Y242462D01*
X548908Y243785D01*
X548127Y244954D01*
X546959Y245734D01*
X545636Y245997D01*
X545372Y247321D01*
X544592Y248489D01*
X543423Y249270D01*
X542100Y249533D01*
X541837Y250856D01*
X541056Y252025D01*
X539888Y252805D01*
X538564Y253069D01*
X538301Y254392D01*
X537521Y255560D01*
X536352Y256341D01*
X535029Y256604D01*
X534766Y257927D01*
X533985Y259096D01*
X532817Y259876D01*
X531493Y260140D01*
X531230Y261463D01*
X530450Y262631D01*
X529281Y263412D01*
X527958Y263675D01*
X527695Y264998D01*
X526914Y266167D01*
X525746Y266947D01*
X524422Y267211D01*
X524159Y268534D01*
X523378Y269702D01*
X522210Y270483D01*
X520887Y270746D01*
X520624Y272070D01*
X519843Y273238D01*
X518675Y274018D01*
X517870Y274178D01*
X517880Y274227D01*
X517567Y275803D01*
X517393Y276063D01*
X508295Y266965D01*
X498903Y257573D01*
X499064Y256575D01*
X475200Y232711D01*
X470411Y237499D01*
X468939Y236028D01*
X465453Y239514D01*
X465483Y239545D01*
X460476Y244552D01*
X461996Y246071D01*
X470847D01*
X471338Y245338D01*
X473018Y244215D01*
X475000Y243820D01*
X476982Y244215D01*
X478662Y245338D01*
X479785Y247018D01*
X480179Y249000D01*
X479785Y250982D01*
X478662Y252663D01*
X476982Y253785D01*
X475000Y254179D01*
X473018Y253785D01*
X471338Y252663D01*
X470876Y251972D01*
X460774D01*
X460774Y251972D01*
X459644Y251748D01*
X458687Y251108D01*
X456303Y248724D01*
X451296Y253732D01*
X442412Y244848D01*
X444836Y242424D01*
X435335Y232923D01*
X432911Y235347D01*
X424027Y226463D01*
X428722Y221768D01*
X422655Y215700D01*
X415138D01*
X414663Y216413D01*
X412982Y217535D01*
X411000Y217929D01*
X409018Y217535D01*
X407337Y216413D01*
X406215Y214732D01*
X405821Y212750D01*
X406215Y210768D01*
X407337Y209088D01*
X409018Y207965D01*
X411000Y207570D01*
X412982Y207965D01*
X414663Y209088D01*
X415138Y209799D01*
X423877D01*
X423877Y209799D01*
X425006Y210024D01*
X425964Y210664D01*
X432895Y217595D01*
X438215Y212276D01*
X447099Y221160D01*
X444675Y223584D01*
X454175Y233084D01*
X456599Y230660D01*
X461280Y235341D01*
X464766Y231855D01*
X463294Y230383D01*
X472124Y221553D01*
X472892Y220524D01*
X469881Y217514D01*
X468699Y217301D01*
X468286Y217714D01*
X464796Y221204D01*
X460879Y217287D01*
X456961Y213369D01*
X460451Y209880D01*
X460652Y208284D01*
X413104Y160737D01*
X412465Y159780D01*
X412240Y158651D01*
X412240Y158650D01*
Y112088D01*
X411528Y111613D01*
X410405Y109932D01*
X410011Y107950D01*
X410405Y105968D01*
X411528Y104288D01*
X413208Y103165D01*
X415191Y102771D01*
X417173Y103165D01*
X418853Y104288D01*
X419976Y105968D01*
X420370Y107950D01*
X419976Y109932D01*
X418853Y111613D01*
X418141Y112088D01*
Y157428D01*
X423769Y163057D01*
X425039Y162531D01*
Y102822D01*
X420418Y98201D01*
X382270D01*
X382270Y98201D01*
X381141Y97976D01*
X380184Y97336D01*
X380184Y97336D01*
X377396Y94549D01*
X361684D01*
X361655Y94692D01*
X360532Y96372D01*
X358852Y97495D01*
X356870Y97889D01*
X354888Y97495D01*
X353208Y96372D01*
X352085Y94692D01*
X351690Y92710D01*
X352085Y90728D01*
X353208Y89047D01*
X354888Y87925D01*
X356870Y87530D01*
X358852Y87925D01*
X359935Y88648D01*
X375668D01*
Y77463D01*
X371534D01*
Y64777D01*
X379984D01*
X380269Y64721D01*
X397793D01*
X401738Y60775D01*
X401212Y59506D01*
X397387D01*
X397363Y59542D01*
X395682Y60665D01*
X393700Y61059D01*
X391718Y60665D01*
X390037Y59542D01*
X388915Y57862D01*
X388521Y55880D01*
X388915Y53898D01*
X390037Y52217D01*
X391718Y51095D01*
X393700Y50700D01*
X395682Y51095D01*
X397363Y52217D01*
X398289Y53604D01*
X403321D01*
X403825Y52334D01*
X397268Y45777D01*
X379575D01*
X379290Y45720D01*
X370840D01*
Y37712D01*
X369570Y37033D01*
X369452Y37112D01*
Y45720D01*
X368552D01*
Y64777D01*
X370146D01*
Y77463D01*
X358517D01*
Y64777D01*
X362651D01*
Y45720D01*
X357823D01*
Y33035D01*
X364113D01*
X386484Y10664D01*
X386484Y10664D01*
X387441Y10024D01*
X388570Y9800D01*
X388570Y9800D01*
X465740D01*
X465740Y9800D01*
X466869Y10024D01*
X467826Y10664D01*
X483900Y26738D01*
X489792D01*
Y39302D01*
X487710D01*
Y47058D01*
X489792D01*
Y59622D01*
X487230D01*
Y66628D01*
X488132D01*
Y69360D01*
X496568D01*
Y66628D01*
X507632D01*
Y80692D01*
X502637D01*
X502251Y81270D01*
X497600Y85920D01*
X498126Y87190D01*
X500760D01*
Y92710D01*
X496490D01*
Y88826D01*
X495220Y88300D01*
X491062Y92459D01*
Y94360D01*
X491390Y94579D01*
X493871Y97060D01*
X494600Y98152D01*
X494857Y99440D01*
Y120600D01*
X495153Y120798D01*
X496275Y122478D01*
X496670Y124460D01*
X496275Y126442D01*
X495153Y128123D01*
X493472Y129245D01*
X491490Y129640D01*
X490998Y129542D01*
X487722Y132819D01*
Y162173D01*
X488895Y162659D01*
X489747Y161807D01*
X497970Y170030D01*
X489000Y179000D01*
X485304Y175304D01*
X484771Y175410D01*
X483642Y175186D01*
X482685Y174546D01*
X482045Y173589D01*
X481821Y172460D01*
Y171821D01*
X480777Y170777D01*
X481821Y169733D01*
Y131597D01*
X481821Y131596D01*
X482045Y130467D01*
X482685Y129510D01*
X486547Y125648D01*
X486311Y124460D01*
X486705Y122478D01*
X487827Y120798D01*
X488123Y120600D01*
Y100835D01*
X487579Y100291D01*
X487434Y100262D01*
X480998D01*
Y87698D01*
X486300D01*
X494865Y79133D01*
X494379Y77960D01*
X488132D01*
Y80692D01*
X477068D01*
Y80514D01*
X475895Y80028D01*
X472086Y83836D01*
X472086Y83836D01*
X470586Y85336D01*
X469629Y85976D01*
X468500Y86201D01*
X467771Y87124D01*
Y176578D01*
X469780Y178588D01*
X470894Y178030D01*
X470958Y177969D01*
Y116975D01*
X470958Y116975D01*
X471183Y115846D01*
X471327Y115630D01*
Y111320D01*
X471327Y111320D01*
X471471Y110594D01*
X471198Y109220D01*
X471592Y107238D01*
X472715Y105557D01*
X474395Y104435D01*
X476378Y104040D01*
X478360Y104435D01*
X480040Y105557D01*
X481163Y107238D01*
X481557Y109220D01*
X481163Y111202D01*
X480040Y112882D01*
X478360Y114005D01*
X477228Y114230D01*
Y116606D01*
X477228Y116606D01*
X477003Y117735D01*
X476859Y117951D01*
Y176776D01*
X524056Y223974D01*
X524056Y223974D01*
X524696Y224931D01*
X524921Y226060D01*
X524921Y226060D01*
Y230100D01*
X525395Y230499D01*
X526771Y230668D01*
X527939Y229888D01*
X529263Y229625D01*
X529526Y228301D01*
X530307Y227133D01*
X530967Y226691D01*
X531269Y225197D01*
X530044Y223972D01*
X529404Y223014D01*
X529179Y221885D01*
X529179Y221885D01*
Y209502D01*
X523842Y204165D01*
X521133Y206874D01*
X515022Y200763D01*
X506632D01*
X506632Y200763D01*
X505503Y200539D01*
X504546Y199899D01*
X504546Y199899D01*
X496492Y191845D01*
X495852Y190888D01*
X495628Y189759D01*
X495628Y189758D01*
Y185627D01*
X489981Y179981D01*
X498951Y171012D01*
X507174Y179235D01*
X501528Y184881D01*
Y187811D01*
X502616Y188261D01*
X502962Y188174D01*
X506595Y184541D01*
X511219Y189165D01*
X512117Y188267D01*
X513015Y189165D01*
X518170Y184010D01*
X521896Y187737D01*
Y187737D01*
X522286Y188845D01*
X530724Y197283D01*
X528014Y199992D01*
X534216Y206194D01*
X534216Y206194D01*
X534856Y207151D01*
X535080Y208280D01*
Y219853D01*
X535793Y220454D01*
X537266Y220228D01*
X537378Y220062D01*
X538546Y219281D01*
X539869Y219018D01*
X540132Y217694D01*
X540913Y216526D01*
X541781Y215946D01*
X542164Y214533D01*
X537664Y210033D01*
X537024Y209076D01*
X536800Y207947D01*
X536800Y207946D01*
Y202293D01*
X536800Y202293D01*
X537024Y201164D01*
X537664Y200206D01*
X555921Y181949D01*
Y180140D01*
X551266Y175485D01*
X550907Y175844D01*
X546976Y171913D01*
X551644Y167246D01*
X556311Y162579D01*
X560242Y166509D01*
X559883Y166868D01*
X567686Y174672D01*
X562186Y180172D01*
X562267Y180765D01*
X563610Y181217D01*
X571650Y173178D01*
Y170136D01*
X567484Y165970D01*
X576368Y157086D01*
X577840Y158558D01*
X580065Y156333D01*
Y146149D01*
X578261Y144346D01*
X576940Y144609D01*
X574958Y144214D01*
X573278Y143092D01*
X572155Y141411D01*
X571761Y139429D01*
X572155Y137447D01*
X573278Y135767D01*
X574958Y134644D01*
X576940Y134250D01*
X578922Y134644D01*
X580603Y135767D01*
X581725Y137447D01*
X582120Y139429D01*
X582048Y139788D01*
X585101Y142841D01*
X585101Y142841D01*
X585741Y143798D01*
X585966Y144927D01*
Y157555D01*
X585966Y157555D01*
X585741Y158685D01*
X585101Y159642D01*
X585101Y159642D01*
X582012Y162731D01*
X583484Y164203D01*
X577551Y170136D01*
Y174400D01*
X577326Y175529D01*
X576686Y176486D01*
X576686Y176486D01*
X549050Y204122D01*
Y205759D01*
X552081Y208789D01*
X553077Y209455D01*
X562613Y218991D01*
X563786Y218505D01*
Y210503D01*
X563786Y210503D01*
X564011Y209374D01*
X564650Y208417D01*
X597760Y175308D01*
Y87630D01*
X597760Y87630D01*
X597984Y86501D01*
X598624Y85544D01*
X615585Y68582D01*
X615585Y68582D01*
X615950Y68338D01*
X616040Y67887D01*
X617152Y66222D01*
X618817Y65110D01*
X620780Y64719D01*
X636780D01*
X638743Y65110D01*
X640408Y66222D01*
X641520Y67887D01*
X641911Y69850D01*
X641640Y71212D01*
X642810Y71837D01*
X652325Y62322D01*
Y49054D01*
X652325Y49054D01*
X652550Y47924D01*
X653189Y46967D01*
X657380Y42777D01*
X656854Y41507D01*
X643896D01*
X641752Y43651D01*
X641911Y44450D01*
X641520Y46413D01*
X640408Y48078D01*
X638743Y49190D01*
X636780Y49581D01*
X620780D01*
X618817Y49190D01*
X617152Y48078D01*
X616040Y46413D01*
X615649Y44450D01*
X616040Y42487D01*
X617152Y40822D01*
X618817Y39710D01*
X620780Y39319D01*
X636780D01*
X637579Y39478D01*
X638757Y38300D01*
X638132Y37130D01*
X636780Y37399D01*
X630050D01*
Y33020D01*
X642176D01*
X641999Y33912D01*
X641587Y34527D01*
X642351Y35670D01*
X642674Y35606D01*
X657336D01*
X657454Y35289D01*
X657548Y34336D01*
X656800Y33836D01*
X656800Y33836D01*
X653788Y30824D01*
X652000Y31179D01*
X650018Y30785D01*
X648337Y29662D01*
X647215Y27982D01*
X646821Y26000D01*
X647215Y24018D01*
X648337Y22338D01*
X650018Y21215D01*
X652000Y20821D01*
X653982Y21215D01*
X655663Y22338D01*
X656785Y24018D01*
X657147Y25838D01*
X660108Y28800D01*
X664699D01*
X665152Y28122D01*
X666817Y27010D01*
X668780Y26619D01*
X684780D01*
X686743Y27010D01*
X688408Y28122D01*
X689520Y29787D01*
X689911Y31750D01*
X689520Y33713D01*
X688840Y34731D01*
X689089Y36279D01*
X689157Y36369D01*
X689308Y36470D01*
X706936Y54099D01*
X706936Y54099D01*
X707576Y55056D01*
X707801Y56185D01*
Y109724D01*
X709071Y110251D01*
X745207Y74114D01*
X745207Y74114D01*
X746164Y73474D01*
X747294Y73250D01*
X789858D01*
Y61798D01*
X792940D01*
Y54102D01*
X792049Y53212D01*
X783658D01*
Y33148D01*
X796222D01*
Y49039D01*
X797976Y50794D01*
X797976Y50794D01*
X798616Y51751D01*
X798840Y52880D01*
Y61798D01*
X801922D01*
Y68868D01*
X803192Y69547D01*
X803358Y69436D01*
Y61798D01*
X815422D01*
Y75362D01*
X806781D01*
X803856Y78286D01*
X802899Y78926D01*
X801770Y79151D01*
X801770Y79151D01*
X801208D01*
X801089Y79174D01*
X801088Y79174D01*
X790692D01*
X790691Y79174D01*
X790572Y79151D01*
X748516D01*
X746700Y80966D01*
X747186Y82140D01*
X820468D01*
X828494Y74114D01*
X828494Y74114D01*
X829451Y73474D01*
X830580Y73250D01*
X830580Y73250D01*
X840658D01*
Y61798D01*
X843739D01*
Y54102D01*
X842849Y53212D01*
X834458D01*
Y33148D01*
X847022D01*
Y49039D01*
X848776Y50794D01*
X848776Y50794D01*
X849416Y51751D01*
X849641Y52880D01*
Y61798D01*
X852722D01*
Y68868D01*
X853992Y69547D01*
X854158Y69436D01*
Y61798D01*
X866222D01*
Y75362D01*
X857581D01*
X854656Y78286D01*
X853699Y78926D01*
X852570Y79151D01*
X852570Y79151D01*
X852008D01*
X851889Y79174D01*
X851889Y79174D01*
X841491D01*
X841491Y79174D01*
X841372Y79151D01*
X831802D01*
X823776Y87176D01*
X822819Y87816D01*
X821690Y88041D01*
X821690Y88041D01*
X746697D01*
X744881Y89856D01*
X745367Y91030D01*
X867458D01*
X884374Y74114D01*
X884374Y74114D01*
X885331Y73474D01*
X886460Y73250D01*
X891458D01*
Y61798D01*
X894539D01*
Y54102D01*
X893649Y53212D01*
X885258D01*
Y33148D01*
X897822D01*
Y49039D01*
X899576Y50794D01*
X899576Y50794D01*
X900216Y51751D01*
X900441Y52880D01*
Y61798D01*
X903522D01*
Y68868D01*
X904792Y69547D01*
X904958Y69436D01*
Y61798D01*
X917022D01*
Y75362D01*
X908381D01*
X905456Y78286D01*
X904499Y78926D01*
X903370Y79151D01*
X903370Y79151D01*
X902808D01*
X902689Y79174D01*
X902689Y79174D01*
X892291D01*
X892291Y79174D01*
X892172Y79151D01*
X887682D01*
X870766Y96066D01*
X870702Y96110D01*
X871087Y97380D01*
X910964D01*
X934230Y74114D01*
X934230Y74114D01*
X935187Y73474D01*
X936316Y73250D01*
X936316Y73250D01*
X942258D01*
Y61798D01*
X945340D01*
Y54102D01*
X944449Y53212D01*
X936058D01*
Y33148D01*
X948622D01*
Y49039D01*
X950376Y50794D01*
X950376Y50794D01*
X951016Y51751D01*
X951240Y52880D01*
Y61798D01*
X954322D01*
Y68868D01*
X955592Y69547D01*
X955758Y69436D01*
Y61798D01*
X967822D01*
Y75362D01*
X959181D01*
X956256Y78286D01*
X955299Y78926D01*
X954170Y79151D01*
X954170Y79151D01*
X953608D01*
X953489Y79174D01*
X953488Y79174D01*
X943092D01*
X943091Y79174D01*
X942972Y79151D01*
X937538D01*
X914273Y102416D01*
X913315Y103056D01*
X912186Y103280D01*
X912186Y103280D01*
X745599D01*
X616409Y232471D01*
X616570Y234106D01*
X616717Y234204D01*
X617497Y235372D01*
X617761Y236695D01*
X619084Y236959D01*
X620252Y237739D01*
X621033Y238908D01*
X621296Y240231D01*
X622619Y240494D01*
X623788Y241275D01*
X624568Y242443D01*
X624832Y243767D01*
X626155Y244030D01*
X627323Y244811D01*
X627828Y245565D01*
X629285Y245904D01*
X637267Y237923D01*
X638188Y237307D01*
X639274Y237091D01*
X642201D01*
X642362Y237059D01*
X782899D01*
X783985Y237275D01*
X784906Y237891D01*
X822432Y275416D01*
X1014568D01*
X1014968Y275016D01*
Y270968D01*
X1027032D01*
Y272161D01*
X1048582D01*
X1049668Y272377D01*
X1050589Y272992D01*
X1052738Y275141D01*
X1063558D01*
Y267198D01*
X1080622D01*
Y273698D01*
Y280198D01*
Y292690D01*
X1081130D01*
Y296210D01*
X1072090D01*
X1063050D01*
Y292690D01*
X1063558D01*
Y287586D01*
X1051930D01*
X1050925Y288591D01*
X1050004Y289206D01*
X1048917Y289422D01*
X1048083D01*
X1047666Y289505D01*
X1042834D01*
X1041747Y289289D01*
X1040826Y288673D01*
X1039992Y287839D01*
X1027032D01*
Y289032D01*
X1014968D01*
Y284984D01*
X1014244Y284259D01*
X892768D01*
X892632Y285527D01*
X892819Y285564D01*
X893776Y286204D01*
X930071Y322498D01*
X938462D01*
Y322620D01*
X952798D01*
Y318288D01*
X962362D01*
Y332852D01*
X952798D01*
Y328521D01*
X938462D01*
Y332562D01*
X925898D01*
Y326671D01*
X890468Y291241D01*
X787352D01*
X764950Y313642D01*
Y360680D01*
X764950Y360680D01*
X764726Y361809D01*
X764086Y362766D01*
X764086Y362766D01*
X752656Y374196D01*
X751699Y374836D01*
X750570Y375061D01*
X750570Y375061D01*
X698208D01*
X697722Y376234D01*
X699538Y378050D01*
X760778D01*
X767940Y370888D01*
Y313690D01*
X767940Y313690D01*
X768164Y312561D01*
X768804Y311604D01*
X785314Y295094D01*
X785314Y295094D01*
X786271Y294454D01*
X787400Y294230D01*
X787400Y294230D01*
X861060D01*
X861060Y294230D01*
X862189Y294454D01*
X863146Y295094D01*
X904844Y336791D01*
X904844Y336792D01*
X905484Y337749D01*
X905708Y338878D01*
Y367786D01*
X930271Y392348D01*
X938462D01*
Y394430D01*
X943298D01*
Y391948D01*
X952862D01*
Y406512D01*
X943298D01*
Y400331D01*
X938462D01*
Y402412D01*
X925898D01*
Y398321D01*
X925841Y398036D01*
Y396264D01*
X900672Y371094D01*
X900032Y370137D01*
X899807Y369008D01*
X899807Y369008D01*
Y340100D01*
X859838Y300131D01*
X788622D01*
X773840Y314912D01*
Y372110D01*
X773840Y372110D01*
X773616Y373239D01*
X772976Y374196D01*
X772976Y374196D01*
X765313Y381860D01*
X765839Y383130D01*
X767128D01*
X775559Y374698D01*
Y359566D01*
X775559Y359565D01*
X775784Y358436D01*
X776424Y357479D01*
X782929Y350974D01*
X782929Y350974D01*
X783886Y350334D01*
X785015Y350109D01*
X809038D01*
X813660Y345488D01*
Y342982D01*
X810328D01*
Y332918D01*
X821259D01*
X830694Y323484D01*
X830694Y323484D01*
X831651Y322844D01*
X832780Y322620D01*
X838498D01*
Y318288D01*
X848062D01*
Y332852D01*
X838498D01*
Y328521D01*
X834002D01*
X822892Y339631D01*
Y342982D01*
X819560D01*
Y346710D01*
X819336Y347839D01*
X818696Y348796D01*
X818696Y348796D01*
X812346Y355146D01*
X811389Y355786D01*
X810260Y356011D01*
X810260Y356011D01*
X786238D01*
X781460Y360788D01*
Y375920D01*
X781236Y377049D01*
X780596Y378006D01*
X780596Y378006D01*
X770436Y388166D01*
X769479Y388806D01*
X768350Y389030D01*
X768350Y389030D01*
X698036D01*
X697550Y390204D01*
X723496Y416149D01*
X811598D01*
Y413700D01*
X811090Y412640D01*
X811090Y412640D01*
X811090Y412640D01*
Y407870D01*
X817880D01*
Y406600D01*
X819150D01*
Y400560D01*
X824670D01*
Y406530D01*
X825843Y407016D01*
X830211Y402648D01*
Y401118D01*
X830211Y401118D01*
X830268Y400833D01*
Y391948D01*
X839832D01*
Y406512D01*
X834693D01*
X824162Y417043D01*
Y424632D01*
X811598D01*
Y422051D01*
X722274D01*
X721145Y421826D01*
X720187Y421186D01*
X720187Y421186D01*
X625724Y326723D01*
X624229Y327024D01*
X623788Y327685D01*
X622619Y328466D01*
X621296Y328729D01*
X621033Y330052D01*
X620252Y331221D01*
X619084Y332001D01*
X617761Y332265D01*
X617497Y333588D01*
X616717Y334756D01*
X615548Y335537D01*
X614225Y335800D01*
X613962Y337123D01*
X613181Y338292D01*
X612013Y339072D01*
X610689Y339336D01*
X610426Y340659D01*
X609646Y341827D01*
X608985Y342269D01*
X608683Y343763D01*
X614852Y349932D01*
X617757Y347027D01*
X623337Y352607D01*
X627506D01*
X627507Y352607D01*
X628636Y352831D01*
X629593Y353471D01*
X640024Y363902D01*
X640024Y363902D01*
X640664Y364859D01*
X640888Y365988D01*
X640888Y365988D01*
Y371838D01*
X649460Y380410D01*
X649460Y380410D01*
X649621Y380651D01*
X655596Y386627D01*
X646627Y395596D01*
X638404Y387373D01*
X643241Y382536D01*
X635851Y375146D01*
X635212Y374189D01*
X634987Y373060D01*
X634987Y373060D01*
Y368464D01*
X633717Y367938D01*
X632295Y369360D01*
X627671Y364735D01*
X626773Y365634D01*
X625875Y364735D01*
X620720Y369890D01*
X616994Y366164D01*
Y366164D01*
X616604Y365055D01*
X608166Y356618D01*
X610679Y354105D01*
X604510Y347936D01*
X603016Y348237D01*
X602575Y348898D01*
X601406Y349679D01*
X600083Y349942D01*
X599820Y351265D01*
X599039Y352434D01*
X597871Y353214D01*
X597066Y353374D01*
X597076Y353423D01*
X596763Y354999D01*
X596589Y355259D01*
X587491Y346161D01*
X578393Y337063D01*
X578653Y336889D01*
X580229Y336576D01*
X580278Y336586D01*
X580438Y335781D01*
X581218Y334613D01*
X582387Y333832D01*
X583710Y333569D01*
X583973Y332246D01*
X584754Y331077D01*
X585922Y330297D01*
X587245Y330034D01*
X587509Y328710D01*
X588289Y327542D01*
X589458Y326761D01*
X590781Y326498D01*
X591044Y325175D01*
X591825Y324006D01*
X592993Y323226D01*
X594316Y322962D01*
X594580Y321639D01*
X595360Y320471D01*
X596529Y319690D01*
X597852Y319427D01*
X598115Y318104D01*
X598896Y316935D01*
X600064Y316155D01*
X600633Y316042D01*
X600973Y315088D01*
X600178Y313951D01*
X589222D01*
X586012Y317160D01*
X586180Y318000D01*
X585785Y319982D01*
X584663Y321662D01*
X582982Y322785D01*
X581000Y323180D01*
X579018Y322785D01*
X577337Y321662D01*
X576215Y319982D01*
X575821Y318000D01*
X576215Y316018D01*
X577337Y314338D01*
X579018Y313215D01*
X581000Y312820D01*
X581840Y312987D01*
X585914Y308914D01*
X585914Y308914D01*
X586871Y308274D01*
X588000Y308050D01*
X588000Y308050D01*
X606757D01*
X606757Y308050D01*
X607296Y308157D01*
X608618Y307554D01*
X608811Y307364D01*
X609502Y306329D01*
X610671Y305548D01*
X611994Y305285D01*
X612257Y303962D01*
X613038Y302793D01*
X614206Y302013D01*
X615530Y301749D01*
X615793Y300426D01*
X616573Y299258D01*
X617742Y298477D01*
X619065Y298214D01*
X619328Y296890D01*
X620109Y295722D01*
X621277Y294942D01*
X621596Y294878D01*
X621867Y294161D01*
X621011Y292950D01*
X590900D01*
X570270Y312742D01*
X570209Y312781D01*
X570165Y312838D01*
X566088Y316388D01*
X566189Y316897D01*
X565795Y318879D01*
X564672Y320560D01*
X562992Y321682D01*
X561009Y322077D01*
X559027Y321682D01*
X557347Y320560D01*
X556224Y318879D01*
X555830Y316897D01*
X556224Y314915D01*
X557347Y313235D01*
X559027Y312112D01*
X560112Y311896D01*
X559970Y310630D01*
X552213Y310838D01*
X551662Y311663D01*
X549982Y312785D01*
X548000Y313179D01*
X546018Y312785D01*
X544338Y311663D01*
X543215Y309982D01*
X542821Y308000D01*
X543215Y306018D01*
X544338Y304338D01*
X546018Y303215D01*
X548000Y302820D01*
X549982Y303215D01*
X551662Y304338D01*
X552065Y304939D01*
X559415Y304741D01*
X560681Y304698D01*
X561009Y304655D01*
X561815Y304761D01*
X561980Y304742D01*
X565835Y305049D01*
X565923D01*
X601509Y269463D01*
X602466Y268824D01*
X603595Y268599D01*
X603596Y268599D01*
X613462D01*
X614357Y267329D01*
X614221Y266950D01*
X614206Y266947D01*
X613038Y266167D01*
X612257Y264998D01*
X611994Y263675D01*
X610671Y263412D01*
X609502Y262631D01*
X608722Y261463D01*
X608459Y260140D01*
X607135Y259876D01*
X605967Y259096D01*
X605186Y257927D01*
X604923Y256604D01*
X603600Y256341D01*
X602431Y255560D01*
X601651Y254392D01*
X601387Y253069D01*
X600064Y252805D01*
X598896Y252025D01*
X598115Y250856D01*
X597852Y249533D01*
X596529Y249270D01*
X595360Y248489D01*
X594580Y247321D01*
X594316Y245998D01*
X592993Y245734D01*
X591825Y244954D01*
X591044Y243785D01*
X590781Y242462D01*
X589458Y242199D01*
X588289Y241418D01*
X587509Y240250D01*
X587245Y238926D01*
X585922Y238663D01*
X584754Y237882D01*
X583973Y236714D01*
X583710Y235391D01*
X582387Y235128D01*
X581218Y234347D01*
X580438Y233179D01*
X580174Y231855D01*
X578851Y231592D01*
X577683Y230811D01*
X576902Y229643D01*
X576899Y229628D01*
X576520Y229493D01*
X575256Y230337D01*
X575242Y230384D01*
X575026Y231469D01*
X574386Y232427D01*
X570110Y236703D01*
X570736Y237873D01*
X571000Y237820D01*
X572982Y238215D01*
X574663Y239338D01*
X575785Y241018D01*
X576180Y243000D01*
X575785Y244982D01*
X574663Y246663D01*
X573951Y247138D01*
Y249420D01*
X573951Y249420D01*
X573726Y250549D01*
X573086Y251506D01*
X573086Y251506D01*
X535080Y289512D01*
Y296180D01*
X536351Y296566D01*
X536670Y296087D01*
X577119Y255639D01*
X577119Y255639D01*
X578076Y254999D01*
X578251Y254964D01*
X579338Y253337D01*
X581018Y252215D01*
X583000Y251821D01*
X584982Y252215D01*
X586662Y253337D01*
X587785Y255018D01*
X588180Y257000D01*
X587785Y258982D01*
X586662Y260662D01*
X584982Y261785D01*
X583000Y262180D01*
X581018Y261785D01*
X579999Y261104D01*
X541707Y299396D01*
Y305093D01*
X541482Y306222D01*
X540843Y307180D01*
X540843Y307180D01*
X536558Y311464D01*
X536860Y312958D01*
X537521Y313400D01*
X538301Y314568D01*
X538564Y315891D01*
X539888Y316155D01*
X541056Y316935D01*
X541837Y318104D01*
X542100Y319427D01*
X543423Y319690D01*
X544592Y320471D01*
X545372Y321639D01*
X545636Y322963D01*
X546959Y323226D01*
X548127Y324006D01*
X548908Y325175D01*
X549171Y326498D01*
X550494Y326761D01*
X551663Y327542D01*
X552443Y328710D01*
X552707Y330034D01*
X554030Y330297D01*
X555198Y331077D01*
X555979Y332246D01*
X556242Y333569D01*
X557566Y333832D01*
X558734Y334613D01*
X559515Y335781D01*
X559778Y337105D01*
X561101Y337368D01*
X562269Y338148D01*
X563050Y339317D01*
X563313Y340640D01*
X564637Y340904D01*
X565805Y341684D01*
X566586Y342852D01*
X566860Y344231D01*
X566586Y345609D01*
X565805Y346777D01*
X553077Y359505D01*
X553070Y359509D01*
X552946Y360773D01*
X558222Y366049D01*
X565862D01*
X566338Y365337D01*
X568018Y364215D01*
X570000Y363820D01*
X571982Y364215D01*
X573662Y365337D01*
X574785Y367018D01*
X575179Y369000D01*
X574785Y370982D01*
X573662Y372663D01*
X571982Y373785D01*
X570000Y374179D01*
X568018Y373785D01*
X566338Y372663D01*
X565862Y371950D01*
X557000D01*
X557000Y371950D01*
X555871Y371726D01*
X554914Y371086D01*
X554914Y371086D01*
X546372Y362545D01*
X545733Y361587D01*
X545695Y361400D01*
X544444Y361617D01*
Y369533D01*
X549897Y374987D01*
X550139Y375149D01*
X550803Y375813D01*
X550867Y375856D01*
X556887Y381875D01*
X558889Y379873D01*
X568127Y389111D01*
X560396Y396841D01*
X560006Y397950D01*
X559560Y398396D01*
X556457Y401499D01*
X551479Y396521D01*
X546501Y391543D01*
X549604Y388440D01*
X550050Y387994D01*
X551159Y387604D01*
X552079Y386683D01*
Y385413D01*
X548023Y381357D01*
X540079Y389301D01*
X529427Y378649D01*
X538543Y369534D01*
Y367759D01*
X537369Y367273D01*
X534641Y370001D01*
X528956Y364316D01*
X523271Y358631D01*
X528765Y353137D01*
X529419Y353791D01*
X529682Y353751D01*
X530732Y352518D01*
X530732Y352518D01*
Y347234D01*
X529558Y346748D01*
X517463Y358844D01*
X516506Y359483D01*
X515376Y359708D01*
X515376Y359708D01*
X514530D01*
X508010Y366227D01*
X498773Y356990D01*
X506243Y349520D01*
X511103Y354380D01*
X511625Y354031D01*
X512755Y353807D01*
X512755Y353807D01*
X514154D01*
X522533Y345428D01*
X522047Y344255D01*
X517138D01*
X516662Y344967D01*
X514982Y346090D01*
X513000Y346484D01*
X511018Y346090D01*
X509338Y344967D01*
X508215Y343286D01*
X507821Y341304D01*
X508215Y339322D01*
X509338Y337642D01*
X511018Y336519D01*
X513000Y336125D01*
X514982Y336519D01*
X516662Y337642D01*
X517138Y338354D01*
X522536D01*
X524198Y336692D01*
X523896Y335198D01*
X523235Y334756D01*
X522455Y333588D01*
X522192Y332265D01*
X520868Y332001D01*
X519700Y331221D01*
X518919Y330052D01*
X518656Y328729D01*
X517333Y328466D01*
X516164Y327685D01*
X515384Y326517D01*
X515121Y325193D01*
X513797Y324930D01*
X512629Y324150D01*
X511848Y322981D01*
X511688Y322177D01*
X511640Y322187D01*
X510063Y321873D01*
X509804Y321700D01*
X518902Y312602D01*
X517106Y310806D01*
X508008Y319904D01*
X507834Y319644D01*
X507678Y318860D01*
X506900Y318341D01*
X506900Y318341D01*
X489618D01*
X488488Y318116D01*
X487531Y317477D01*
X487531Y317477D01*
X480002Y309947D01*
X475250Y314699D01*
X473778Y313227D01*
X469858Y317147D01*
X472285Y319575D01*
X462341Y329520D01*
X454517Y321696D01*
X456449Y319764D01*
X450484Y313799D01*
X448552Y315731D01*
X442976Y310155D01*
X442735Y309994D01*
X442735Y309994D01*
X438691Y305951D01*
X389032D01*
Y311032D01*
X375647D01*
X375362Y311089D01*
X375362Y311089D01*
X372584D01*
X368532Y315141D01*
Y326859D01*
X385086Y343414D01*
X385086Y343414D01*
X385726Y344371D01*
X385951Y345500D01*
X385951Y345500D01*
Y367468D01*
X391282D01*
Y396532D01*
X385951D01*
Y401468D01*
X392282D01*
Y430532D01*
X375718D01*
Y425860D01*
X235712D01*
X229692Y431881D01*
Y487599D01*
X277622Y535530D01*
X450015D01*
X450521Y534772D01*
X452222Y533636D01*
X454229Y533237D01*
X472574D01*
X473325Y532574D01*
X473605Y532253D01*
X473570Y531725D01*
X472417Y530859D01*
X471590Y531023D01*
X454230D01*
X452223Y530624D01*
X450522Y529488D01*
X449385Y527787D01*
X448986Y525780D01*
X449385Y523773D01*
X450522Y522072D01*
X452223Y520936D01*
X454230Y520537D01*
X471590D01*
X472103Y520639D01*
X473311Y519689D01*
X472153Y518729D01*
X471590Y518841D01*
X464180D01*
Y513080D01*
Y507319D01*
X471590D01*
X472216Y507443D01*
X473315Y506592D01*
X473245Y506472D01*
X472297Y505623D01*
X454229D01*
X452222Y505224D01*
X450521Y504088D01*
X450015Y503330D01*
X418492D01*
X410486Y511336D01*
X409529Y511976D01*
X408400Y512201D01*
X408400Y512201D01*
X406282D01*
Y521882D01*
X387218D01*
Y512201D01*
X380170D01*
X379041Y511976D01*
X378084Y511336D01*
X378084Y511336D01*
X358519Y491772D01*
X298628D01*
Y427708D01*
X362692D01*
Y487599D01*
X381392Y506300D01*
X387218D01*
Y496618D01*
X406282D01*
Y505399D01*
X407552Y505925D01*
X415184Y498294D01*
X415184Y498294D01*
X416141Y497654D01*
X417270Y497430D01*
X417270Y497430D01*
X450015D01*
X450521Y496672D01*
X452222Y495536D01*
X454229Y495137D01*
X468936D01*
Y491982D01*
X468936Y491982D01*
X469161Y490853D01*
X469800Y489896D01*
X480514Y479182D01*
Y474017D01*
X497778D01*
Y476905D01*
X513896Y493024D01*
X513896Y493024D01*
X514536Y493981D01*
X514761Y495110D01*
X515982Y495237D01*
X526212D01*
Y505523D01*
X502225D01*
X501131Y505948D01*
X501131Y507207D01*
X502401Y508097D01*
X503710Y507837D01*
X521070D01*
X523076Y508236D01*
X523753Y508688D01*
X537968D01*
Y503968D01*
X549649D01*
X554586Y499032D01*
X554586Y499032D01*
X555543Y498392D01*
X556672Y498167D01*
X581118D01*
X581118Y498167D01*
X582247Y498392D01*
X583204Y499032D01*
X585291Y501118D01*
X590259D01*
X591214Y500164D01*
X591214Y500164D01*
X592171Y499524D01*
X593300Y499300D01*
X593300Y499300D01*
X600968D01*
Y494718D01*
X631032D01*
Y495900D01*
X643468D01*
Y486218D01*
X662532D01*
Y511482D01*
X643468D01*
Y501800D01*
X631032D01*
Y509782D01*
X600968D01*
Y505201D01*
X594522D01*
X594432Y505291D01*
Y513882D01*
X580568D01*
Y504741D01*
X579896Y504068D01*
X575540D01*
Y507980D01*
X568500D01*
X561460D01*
Y504068D01*
X557894D01*
X551032Y510931D01*
Y512760D01*
X551962Y513549D01*
X553092Y513774D01*
X554049Y514414D01*
X560395Y520760D01*
X561968D01*
Y518468D01*
X575032D01*
Y520760D01*
X580568D01*
Y517118D01*
X594432D01*
Y529882D01*
X580568D01*
Y526660D01*
X575032D01*
Y529032D01*
X561968D01*
Y526660D01*
X559173D01*
X559172Y526660D01*
X558043Y526436D01*
X557086Y525796D01*
X557086Y525796D01*
X552205Y520915D01*
X551032Y521401D01*
Y529032D01*
X543244D01*
X542948Y529475D01*
X531856Y540566D01*
X530899Y541206D01*
X529770Y541431D01*
X529770Y541431D01*
X525283D01*
X524777Y542188D01*
X523076Y543324D01*
X521070Y543723D01*
D02*
G37*
G36*
X631540Y537290D02*
X617270D01*
Y530520D01*
X631540D01*
Y537290D01*
D02*
G37*
G36*
X614730D02*
X600460D01*
Y530520D01*
X614730D01*
Y537290D01*
D02*
G37*
G36*
X1094270Y553248D02*
Y522770D01*
X1124748D01*
X1124456Y526482D01*
X1123289Y531342D01*
X1121377Y535959D01*
X1118766Y540220D01*
X1115520Y544020D01*
X1111720Y547266D01*
X1107459Y549877D01*
X1102842Y551789D01*
X1097982Y552956D01*
X1094270Y553248D01*
D02*
G37*
G36*
X1091730D02*
X1088018Y552956D01*
X1083158Y551789D01*
X1078541Y549877D01*
X1074280Y547266D01*
X1070480Y544020D01*
X1067234Y540220D01*
X1064623Y535959D01*
X1062711Y531342D01*
X1061544Y526482D01*
X1061252Y522770D01*
X1091730D01*
Y553248D01*
D02*
G37*
G36*
X51270D02*
Y522770D01*
X81748D01*
X81456Y526482D01*
X80289Y531342D01*
X78377Y535959D01*
X75766Y540220D01*
X72520Y544020D01*
X68720Y547266D01*
X64459Y549877D01*
X59842Y551789D01*
X54982Y552956D01*
X51270Y553248D01*
D02*
G37*
G36*
X48730D02*
X45018Y552956D01*
X40158Y551789D01*
X35541Y549877D01*
X31280Y547266D01*
X27480Y544020D01*
X24234Y540220D01*
X21623Y535959D01*
X19711Y531342D01*
X18544Y526482D01*
X18252Y522770D01*
X48730D01*
Y553248D01*
D02*
G37*
G36*
X631540Y527980D02*
X617270D01*
Y521210D01*
X631540D01*
Y527980D01*
D02*
G37*
G36*
X614730D02*
X600460D01*
Y521210D01*
X614730D01*
Y527980D01*
D02*
G37*
G36*
X461640Y518841D02*
X454230D01*
X452025Y518403D01*
X450156Y517154D01*
X448907Y515285D01*
X448721Y514350D01*
X461640D01*
Y518841D01*
D02*
G37*
G36*
X575540Y515040D02*
X569770D01*
Y510520D01*
X575540D01*
Y515040D01*
D02*
G37*
G36*
X567230D02*
X561460D01*
Y510520D01*
X567230D01*
Y515040D01*
D02*
G37*
G36*
X461640Y511810D02*
X448721D01*
X448907Y510875D01*
X450156Y509006D01*
X452025Y507757D01*
X454230Y507319D01*
X461640D01*
Y511810D01*
D02*
G37*
G36*
X977900Y522803D02*
X975012Y522519D01*
X972235Y521676D01*
X969676Y520308D01*
X967432Y518467D01*
X965592Y516224D01*
X964223Y513665D01*
X963381Y510888D01*
X963097Y508000D01*
X963381Y505112D01*
X964223Y502335D01*
X964718Y501410D01*
X954284Y490976D01*
X953273Y489464D01*
X952918Y487680D01*
Y431012D01*
X952798D01*
Y416448D01*
X954630D01*
Y392540D01*
X954630Y392540D01*
X954854Y391411D01*
X955494Y390454D01*
X956125Y389822D01*
X955599Y388552D01*
X955083Y388552D01*
X946068D01*
Y375988D01*
X948149D01*
Y373312D01*
X946068D01*
Y360748D01*
X952953D01*
X953238Y360691D01*
X954786D01*
X962298Y353179D01*
Y342788D01*
X971862D01*
Y357352D01*
X966471D01*
X964756Y359067D01*
X965242Y360240D01*
X965330D01*
Y365760D01*
X961060D01*
Y364422D01*
X959887Y363936D01*
X958094Y365728D01*
X957137Y366368D01*
X956132Y366568D01*
Y373312D01*
X954051D01*
Y375988D01*
X956132D01*
Y387425D01*
X956132Y388019D01*
X957402Y388545D01*
X961568Y384379D01*
Y375988D01*
X971632D01*
Y388552D01*
X965741D01*
X964026Y390267D01*
X964512Y391440D01*
X965810D01*
Y399230D01*
Y407020D01*
X961790D01*
Y407020D01*
X960530Y407045D01*
Y416448D01*
X962362D01*
Y431012D01*
X962242D01*
Y485749D01*
X971310Y494818D01*
X972235Y494324D01*
X975012Y493481D01*
X977900Y493197D01*
X980788Y493481D01*
X983565Y494324D01*
X986124Y495691D01*
X988367Y497533D01*
X990209Y499776D01*
X991577Y502335D01*
X992419Y505112D01*
X992703Y508000D01*
X992419Y510888D01*
X991577Y513665D01*
X990209Y516224D01*
X988367Y518467D01*
X986124Y520308D01*
X983565Y521676D01*
X980788Y522519D01*
X977900Y522803D01*
D02*
G37*
G36*
X927100D02*
X924212Y522519D01*
X921435Y521676D01*
X918876Y520308D01*
X916633Y518467D01*
X914791Y516224D01*
X913423Y513665D01*
X912581Y510888D01*
X912297Y508000D01*
X912581Y505112D01*
X913423Y502335D01*
X914791Y499776D01*
X916633Y497533D01*
X918876Y495691D01*
X921435Y494324D01*
X924212Y493481D01*
X927100Y493197D01*
X929988Y493481D01*
X932765Y494324D01*
X935324Y495691D01*
X937568Y497533D01*
X939408Y499776D01*
X940777Y502335D01*
X941619Y505112D01*
X941903Y508000D01*
X941619Y510888D01*
X940777Y513665D01*
X939408Y516224D01*
X937568Y518467D01*
X935324Y520308D01*
X932765Y521676D01*
X929988Y522519D01*
X927100Y522803D01*
D02*
G37*
G36*
X862330Y522549D02*
X859442Y522265D01*
X856665Y521423D01*
X854106Y520055D01*
X851862Y518214D01*
X850022Y515970D01*
X848653Y513411D01*
X847811Y510634D01*
X847527Y507746D01*
X847811Y504858D01*
X848653Y502081D01*
X850022Y499522D01*
X851639Y497551D01*
X841254Y487166D01*
X840243Y485654D01*
X839888Y483870D01*
Y431012D01*
X839768D01*
Y416448D01*
X841600D01*
Y396638D01*
X841600Y396638D01*
X841824Y395508D01*
X842464Y394551D01*
X847215Y389800D01*
X847268Y388552D01*
X847268Y388552D01*
Y375988D01*
X857332D01*
Y388552D01*
X856292D01*
X855374Y389040D01*
X855066Y390302D01*
X855748Y391440D01*
X859340D01*
Y397960D01*
X854050D01*
Y399230D01*
X852780D01*
Y407020D01*
X848760D01*
Y407020D01*
X847501Y407045D01*
Y416448D01*
X849332D01*
Y431012D01*
X849212D01*
Y481939D01*
X860405Y493132D01*
X862330Y492943D01*
X865218Y493227D01*
X867995Y494070D01*
X870554Y495438D01*
X872797Y497279D01*
X874639Y499522D01*
X876006Y502081D01*
X876849Y504858D01*
X877133Y507746D01*
X876849Y510634D01*
X876006Y513411D01*
X874639Y515970D01*
X872797Y518214D01*
X870554Y520055D01*
X867995Y521423D01*
X865218Y522265D01*
X862330Y522549D01*
D02*
G37*
G36*
X737282Y533032D02*
X727718D01*
Y510968D01*
X737282D01*
Y517338D01*
X795345D01*
X798348Y514336D01*
X797853Y513411D01*
X797011Y510634D01*
X796727Y507746D01*
X797011Y504858D01*
X797853Y502081D01*
X799221Y499522D01*
X801062Y497279D01*
X803306Y495438D01*
X805865Y494070D01*
X808642Y493227D01*
X811530Y492943D01*
X814418Y493227D01*
X817195Y494070D01*
X819754Y495438D01*
X821998Y497279D01*
X823839Y499522D01*
X825207Y502081D01*
X826049Y504858D01*
X826333Y507746D01*
X826049Y510634D01*
X825207Y513411D01*
X823839Y515970D01*
X821998Y518214D01*
X819754Y520055D01*
X817195Y521423D01*
X814418Y522265D01*
X811530Y522549D01*
X808642Y522265D01*
X805865Y521423D01*
X804940Y520928D01*
X800572Y525296D01*
X799060Y526307D01*
X797276Y526662D01*
X737282D01*
Y533032D01*
D02*
G37*
G36*
X1124748Y520230D02*
X1094270D01*
Y489752D01*
X1097982Y490044D01*
X1102842Y491211D01*
X1107459Y493123D01*
X1111720Y495734D01*
X1115520Y498980D01*
X1118766Y502780D01*
X1121377Y507041D01*
X1123289Y511658D01*
X1124456Y516518D01*
X1124748Y520230D01*
D02*
G37*
G36*
X1091730D02*
X1061252D01*
X1061544Y516518D01*
X1062711Y511658D01*
X1064623Y507041D01*
X1067234Y502780D01*
X1070480Y498980D01*
X1074280Y495734D01*
X1078541Y493123D01*
X1083158Y491211D01*
X1088018Y490044D01*
X1091730Y489752D01*
Y520230D01*
D02*
G37*
G36*
X81748D02*
X51270D01*
Y489752D01*
X54982Y490044D01*
X59842Y491211D01*
X64459Y493123D01*
X68720Y495734D01*
X72520Y498980D01*
X75766Y502780D01*
X78377Y507041D01*
X80289Y511658D01*
X81456Y516518D01*
X81748Y520230D01*
D02*
G37*
G36*
X48730D02*
X18252D01*
X18544Y516518D01*
X19711Y511658D01*
X21623Y507041D01*
X24234Y502780D01*
X27480Y498980D01*
X31280Y495734D01*
X35541Y493123D01*
X40158Y491211D01*
X45018Y490044D01*
X48730Y489752D01*
Y520230D01*
D02*
G37*
G36*
X406790Y480090D02*
X398020D01*
Y468220D01*
X406790D01*
Y480090D01*
D02*
G37*
G36*
X395480D02*
X386710D01*
Y468220D01*
X395480D01*
Y480090D01*
D02*
G37*
G36*
X406790Y465680D02*
X398020D01*
Y453810D01*
X406790D01*
Y465680D01*
D02*
G37*
G36*
X395480D02*
X386710D01*
Y453810D01*
X395480D01*
Y465680D01*
D02*
G37*
G36*
X426790Y431040D02*
X419270D01*
Y417270D01*
X426790D01*
Y431040D01*
D02*
G37*
G36*
X416730D02*
X409210D01*
Y417270D01*
X416730D01*
Y431040D01*
D02*
G37*
G36*
X938970Y418420D02*
X933450D01*
Y414150D01*
X938970D01*
Y418420D01*
D02*
G37*
G36*
X930910D02*
X925390D01*
Y414150D01*
X930910D01*
Y418420D01*
D02*
G37*
G36*
X938970Y411610D02*
X933450D01*
Y407340D01*
X938970D01*
Y411610D01*
D02*
G37*
G36*
X930910D02*
X925390D01*
Y407340D01*
X930910D01*
Y411610D01*
D02*
G37*
G36*
X589683Y428123D02*
X580799Y419239D01*
X583223Y416815D01*
X573723Y407315D01*
X571299Y409739D01*
X562415Y400854D01*
X576602Y386667D01*
X578503Y388568D01*
X581239Y385832D01*
X579767Y384360D01*
X588652Y375476D01*
X590123Y376948D01*
X597853Y369218D01*
X589139Y360504D01*
X588043Y360285D01*
X586875Y359505D01*
X574147Y346777D01*
X573367Y345609D01*
X573092Y344230D01*
X573367Y342852D01*
X574147Y341684D01*
X575315Y340904D01*
X576120Y340743D01*
X576110Y340695D01*
X576423Y339119D01*
X576597Y338859D01*
X585695Y347957D01*
X595323Y357585D01*
X595255Y358274D01*
X602166Y365185D01*
X604000Y364821D01*
X605982Y365215D01*
X607663Y366338D01*
X608785Y368018D01*
X609179Y370000D01*
X608785Y371982D01*
X607663Y373662D01*
X605982Y374785D01*
X604000Y375179D01*
X602018Y374785D01*
X601186Y374230D01*
X594296Y381120D01*
X595768Y382592D01*
X586884Y391476D01*
X585412Y390004D01*
X582676Y392741D01*
X585486Y395551D01*
X583062Y397975D01*
X592563Y407476D01*
X594987Y405052D01*
X598381Y408446D01*
X606914Y399914D01*
X606914Y399914D01*
X607871Y399274D01*
X609000Y399049D01*
X628862D01*
X629338Y398338D01*
X631018Y397215D01*
X633000Y396820D01*
X634982Y397215D01*
X636662Y398338D01*
X637138Y399049D01*
X648284D01*
X648810Y397780D01*
X647608Y396578D01*
X656578Y387608D01*
X664801Y395831D01*
X655831Y404801D01*
X653806Y402776D01*
X652495Y404086D01*
X651538Y404726D01*
X650409Y404950D01*
X650409Y404950D01*
X637138D01*
X636662Y405662D01*
X634982Y406785D01*
X633000Y407179D01*
X631018Y406785D01*
X629338Y405662D01*
X628862Y404950D01*
X610222D01*
X602554Y412619D01*
X603871Y413936D01*
X589683Y428123D01*
D02*
G37*
G36*
X64770Y419049D02*
Y405130D01*
X78689D01*
X78520Y406848D01*
X77648Y409720D01*
X76233Y412368D01*
X74328Y414688D01*
X72008Y416593D01*
X69360Y418008D01*
X66488Y418880D01*
X64770Y419049D01*
D02*
G37*
G36*
X62230D02*
X60512Y418880D01*
X57640Y418008D01*
X54992Y416593D01*
X52671Y414688D01*
X50767Y412368D01*
X49352Y409720D01*
X48481Y406848D01*
X48311Y405130D01*
X62230D01*
Y419049D01*
D02*
G37*
G36*
X505154Y409580D02*
X501605Y406030D01*
X505685Y401950D01*
X509234Y405500D01*
X505154Y409580D01*
D02*
G37*
G36*
X426790Y414730D02*
X419270D01*
Y400960D01*
X426790D01*
Y414730D01*
D02*
G37*
G36*
X416730D02*
X409210D01*
Y400960D01*
X416730D01*
Y414730D01*
D02*
G37*
G36*
X499809Y404234D02*
X496259Y400685D01*
X496259Y400685D01*
Y400685D01*
X495869Y399576D01*
X488138Y391846D01*
X497376Y382608D01*
X501934Y387166D01*
X503675Y385424D01*
X500436Y382185D01*
X505097Y377523D01*
X500906Y373332D01*
X497757Y376480D01*
X488520Y367243D01*
X495990Y359773D01*
X505227Y369010D01*
X505079Y369159D01*
X509270Y373350D01*
X512502Y370118D01*
X523153Y380770D01*
X511087Y392836D01*
X507848Y389597D01*
X506465Y390979D01*
X509765Y394278D01*
X504787Y399256D01*
X499809Y404234D01*
D02*
G37*
G36*
X816610Y405330D02*
X811090D01*
Y400560D01*
X816610D01*
Y405330D01*
D02*
G37*
G36*
X972370Y407020D02*
X968350D01*
Y400500D01*
X972370D01*
Y407020D01*
D02*
G37*
G36*
X859340D02*
X855320D01*
Y400500D01*
X859340D01*
Y407020D01*
D02*
G37*
G36*
X551111Y406845D02*
X547031Y402765D01*
X550581Y399216D01*
X554661Y403296D01*
X551111Y406845D01*
D02*
G37*
G36*
X598198Y403509D02*
X595178Y400490D01*
X599081Y396587D01*
X602101Y399606D01*
X598198Y403509D01*
D02*
G37*
G36*
X511030Y403704D02*
X507481Y400154D01*
X511561Y396074D01*
X515110Y399624D01*
X511030Y403704D01*
D02*
G37*
G36*
X523815Y406283D02*
X519028Y401496D01*
X524523Y396002D01*
X529310Y400789D01*
X523815Y406283D01*
D02*
G37*
G36*
X545235Y400969D02*
X541155Y396889D01*
X544705Y393339D01*
X548785Y397419D01*
X545235Y400969D01*
D02*
G37*
G36*
X593382Y398694D02*
X590363Y395674D01*
X594266Y391771D01*
X597285Y394791D01*
X593382Y398694D01*
D02*
G37*
G36*
X972370Y397960D02*
X968350D01*
Y391440D01*
X972370D01*
Y397960D01*
D02*
G37*
G36*
X603897Y397810D02*
X600877Y394791D01*
X604781Y390887D01*
X607800Y393907D01*
X603897Y397810D01*
D02*
G37*
G36*
X517232Y399700D02*
X512445Y394912D01*
X517939Y389418D01*
X522727Y394205D01*
X517232Y399700D01*
D02*
G37*
G36*
X531106Y398993D02*
X526319Y394205D01*
X531813Y388711D01*
X536600Y393498D01*
X531106Y398993D01*
D02*
G37*
G36*
X78689Y402590D02*
X64770D01*
Y388671D01*
X66488Y388840D01*
X69360Y389712D01*
X72008Y391127D01*
X74328Y393032D01*
X76233Y395352D01*
X77648Y398000D01*
X78520Y400872D01*
X78689Y402590D01*
D02*
G37*
G36*
X62230D02*
X48311D01*
X48481Y400872D01*
X49352Y398000D01*
X50767Y395352D01*
X52671Y393032D01*
X54992Y391127D01*
X57640Y389712D01*
X60512Y388840D01*
X62230Y388671D01*
Y402590D01*
D02*
G37*
G36*
X599081Y392994D02*
X596062Y389975D01*
X599965Y386072D01*
X602985Y389091D01*
X599081Y392994D01*
D02*
G37*
G36*
X425790Y397040D02*
X418270D01*
Y383270D01*
X425790D01*
Y397040D01*
D02*
G37*
G36*
X415730D02*
X408210D01*
Y383270D01*
X415730D01*
Y397040D01*
D02*
G37*
G36*
X524523Y392409D02*
X519735Y387622D01*
X525230Y382128D01*
X530017Y386915D01*
X524523Y392409D01*
D02*
G37*
G36*
X972140Y373820D02*
X967870D01*
Y368300D01*
X972140D01*
Y373820D01*
D02*
G37*
G36*
X857510D02*
X853240D01*
Y368300D01*
X857510D01*
Y373820D01*
D02*
G37*
G36*
X965330D02*
X961060D01*
Y368300D01*
X965330D01*
Y373820D01*
D02*
G37*
G36*
X850700D02*
X846430D01*
Y368300D01*
X850700D01*
Y373820D01*
D02*
G37*
G36*
X626243Y375413D02*
X622516Y371686D01*
X626773Y367430D01*
X630499Y371156D01*
X626243Y375413D01*
D02*
G37*
G36*
X527351Y377291D02*
X522564Y372504D01*
X528058Y367010D01*
X532845Y371797D01*
X527351Y377291D01*
D02*
G37*
G36*
X425790Y380730D02*
X418270D01*
Y366960D01*
X425790D01*
Y380730D01*
D02*
G37*
G36*
X415730D02*
X408210D01*
Y366960D01*
X415730D01*
Y380730D01*
D02*
G37*
G36*
X520768Y370708D02*
X515981Y365921D01*
X521475Y360427D01*
X526262Y365214D01*
X520768Y370708D01*
D02*
G37*
G36*
X972140Y365760D02*
X967870D01*
Y360240D01*
X972140D01*
Y365760D01*
D02*
G37*
G36*
X857510D02*
X853240D01*
Y360240D01*
X857510D01*
Y365760D01*
D02*
G37*
G36*
X101770Y361900D02*
X95250D01*
Y355630D01*
X101770D01*
Y361900D01*
D02*
G37*
G36*
X92710D02*
X86190D01*
Y355630D01*
X92710D01*
Y361900D01*
D02*
G37*
G36*
X953370Y357860D02*
X949350D01*
Y351340D01*
X953370D01*
Y357860D01*
D02*
G37*
G36*
X946810D02*
X942790D01*
Y351340D01*
X946810D01*
Y357860D01*
D02*
G37*
G36*
X832510D02*
X828490D01*
Y351340D01*
X832510D01*
Y357860D01*
D02*
G37*
G36*
X841832Y388552D02*
X831768D01*
Y375988D01*
X833849D01*
Y373312D01*
X831438D01*
Y360748D01*
X837329D01*
X838947Y359130D01*
X838421Y357860D01*
X838069Y357860D01*
X835050D01*
Y351340D01*
X839070D01*
Y356849D01*
X839070Y357211D01*
X840340Y357737D01*
X845705Y352372D01*
X845705Y352372D01*
X846663Y351732D01*
X847792Y351508D01*
X847998Y350270D01*
Y342788D01*
X857562D01*
Y357352D01*
X851177D01*
X850892Y357409D01*
X850892Y357409D01*
X849014D01*
X847453Y358970D01*
X847979Y360240D01*
X850700D01*
Y365760D01*
X846430D01*
Y361789D01*
X845160Y361263D01*
X841502Y364921D01*
Y373312D01*
X839751D01*
Y375988D01*
X841832D01*
Y388552D01*
D02*
G37*
G36*
X953370Y348800D02*
X949350D01*
Y342280D01*
X953370D01*
Y348800D01*
D02*
G37*
G36*
X946810D02*
X942790D01*
Y342280D01*
X946810D01*
Y348800D01*
D02*
G37*
G36*
X839070D02*
X835050D01*
Y342280D01*
X839070D01*
Y348800D01*
D02*
G37*
G36*
X832510D02*
X828490D01*
Y342280D01*
X832510D01*
Y348800D01*
D02*
G37*
G36*
X933201Y367579D02*
X931218Y367185D01*
X929538Y366062D01*
X928415Y364382D01*
X928021Y362399D01*
X928415Y360417D01*
X929538Y358737D01*
X930250Y358261D01*
Y348062D01*
X925898D01*
Y337998D01*
X938462D01*
Y348062D01*
X936151D01*
Y358261D01*
X936863Y358737D01*
X937986Y360417D01*
X938380Y362399D01*
X937986Y364382D01*
X936863Y366062D01*
X935183Y367185D01*
X933201Y367579D01*
D02*
G37*
G36*
X1113340Y331591D02*
X1111360D01*
Y324500D01*
X1121534D01*
X1121417Y325394D01*
X1120581Y327411D01*
X1119252Y329142D01*
X1117521Y330471D01*
X1115504Y331307D01*
X1113340Y331591D01*
D02*
G37*
G36*
X1108820D02*
X1106840D01*
X1104676Y331307D01*
X1102659Y330471D01*
X1100928Y329142D01*
X1099599Y327411D01*
X1098763Y325394D01*
X1098646Y324500D01*
X1108820D01*
Y331591D01*
D02*
G37*
G36*
X1074840Y331604D02*
X1073360D01*
Y323000D01*
X1084547D01*
X1084378Y324286D01*
X1083392Y326667D01*
X1081822Y328712D01*
X1079777Y330281D01*
X1077396Y331268D01*
X1074840Y331604D01*
D02*
G37*
G36*
X1070820D02*
X1069340D01*
X1066784Y331268D01*
X1064403Y330281D01*
X1062358Y328712D01*
X1060788Y326667D01*
X1059802Y324286D01*
X1059633Y323000D01*
X1070820D01*
Y331604D01*
D02*
G37*
G36*
X315040Y331540D02*
X296270D01*
Y322270D01*
X315040D01*
Y331540D01*
D02*
G37*
G36*
X293730D02*
X274960D01*
Y322270D01*
X293730D01*
Y331540D01*
D02*
G37*
G36*
X39250Y366679D02*
X37268Y366285D01*
X35587Y365163D01*
X34465Y363482D01*
X34070Y361500D01*
X34465Y359518D01*
X35587Y357837D01*
X37268Y356715D01*
X39250Y356320D01*
X40624Y356594D01*
X41350Y356449D01*
X41350Y356449D01*
X51478D01*
X67378Y340549D01*
Y333658D01*
X70365D01*
Y317456D01*
X69095Y316929D01*
X65576Y320448D01*
X64619Y321088D01*
X63490Y321312D01*
X63490Y321312D01*
X35914D01*
X35914Y321312D01*
X34785Y321088D01*
X33828Y320448D01*
X33827Y320448D01*
X30433Y317053D01*
X29797Y317317D01*
X27940Y317561D01*
X26083Y317317D01*
X24353Y316600D01*
X22868Y315460D01*
X21728Y313975D01*
X21011Y312245D01*
X20767Y310388D01*
X21011Y308531D01*
X21728Y306801D01*
X22868Y305316D01*
X23490Y304838D01*
Y303238D01*
X22868Y302760D01*
X21728Y301275D01*
X21011Y299545D01*
X20767Y297688D01*
X21011Y295831D01*
X21728Y294101D01*
X22868Y292616D01*
X23490Y292138D01*
Y290538D01*
X22868Y290060D01*
X21728Y288575D01*
X21011Y286845D01*
X20767Y284988D01*
X21011Y283131D01*
X21275Y282495D01*
X10912Y272133D01*
X10272Y271175D01*
X10048Y270046D01*
X10048Y270046D01*
Y247094D01*
X10048Y247094D01*
X10272Y245965D01*
X10912Y245008D01*
X12584Y243335D01*
Y224560D01*
X11872Y224085D01*
X10749Y222404D01*
X10355Y220422D01*
X10749Y218440D01*
X11872Y216760D01*
X13553Y215637D01*
X15535Y215243D01*
X17517Y215637D01*
X18934Y216584D01*
X20204Y216155D01*
Y212615D01*
X19197Y211943D01*
X18075Y210262D01*
X17680Y208280D01*
X18075Y206298D01*
X19197Y204618D01*
X20878Y203495D01*
X22860Y203100D01*
X24842Y203495D01*
X26523Y204618D01*
X27645Y206298D01*
X28040Y208280D01*
X27645Y210262D01*
X26523Y211943D01*
X26105Y212221D01*
Y243443D01*
X26105Y243444D01*
X25881Y244573D01*
X25241Y245530D01*
X25241Y245530D01*
X23104Y247667D01*
Y252167D01*
X24374Y252881D01*
X24990Y252532D01*
Y249350D01*
X24990Y249350D01*
X25214Y248221D01*
X25854Y247264D01*
X29384Y243733D01*
Y202170D01*
X28672Y201695D01*
X27550Y200014D01*
X27155Y198032D01*
X27550Y196050D01*
X28672Y194370D01*
X30353Y193247D01*
X32335Y192853D01*
X34317Y193247D01*
X35997Y194370D01*
X37120Y196050D01*
X37514Y198032D01*
X37120Y200014D01*
X35997Y201695D01*
X35285Y202170D01*
Y244955D01*
X35285Y244956D01*
X35061Y246085D01*
X34421Y247042D01*
X34421Y247042D01*
X30891Y250572D01*
Y253112D01*
X31527Y253376D01*
X32258Y253937D01*
X33528Y253311D01*
Y252476D01*
X47752D01*
Y266700D01*
X47558D01*
X46932Y267970D01*
X47296Y268445D01*
X48064Y270299D01*
X48159Y271018D01*
X40640D01*
Y273558D01*
X48159D01*
X48064Y274277D01*
X47296Y276131D01*
X46075Y277723D01*
X45709Y278003D01*
Y279273D01*
X46075Y279553D01*
X47296Y281145D01*
X48064Y282999D01*
X48159Y283718D01*
X40640D01*
Y286258D01*
X48159D01*
X48064Y286977D01*
X47296Y288831D01*
X46075Y290423D01*
X45508Y290858D01*
Y292459D01*
X45712Y292616D01*
X46852Y294101D01*
X47569Y295831D01*
X47813Y297688D01*
X47569Y299545D01*
X46852Y301275D01*
X45712Y302760D01*
X45508Y302917D01*
Y304518D01*
X46075Y304953D01*
X47296Y306545D01*
X48064Y308399D01*
X48159Y309118D01*
X40640D01*
Y311658D01*
X48159D01*
X48064Y312377D01*
X47296Y314231D01*
X47264Y314272D01*
X47826Y315411D01*
X62268D01*
X65257Y312422D01*
Y307067D01*
X65672D01*
X66059Y305797D01*
X65051Y304289D01*
X64900Y303530D01*
X73315D01*
Y300990D01*
X64900D01*
X65051Y300231D01*
X66200Y298511D01*
X67012Y297968D01*
Y296441D01*
X66566Y296143D01*
X65529Y294591D01*
X65165Y292760D01*
X65529Y290929D01*
X66566Y289377D01*
X68119Y288340D01*
X69950Y287975D01*
X70365D01*
Y281144D01*
X68237D01*
Y268459D01*
X71101D01*
Y259224D01*
X67020D01*
Y244660D01*
X71101D01*
Y204814D01*
X56334Y190046D01*
X55694Y189089D01*
X55469Y187960D01*
X55469Y187960D01*
Y173180D01*
X54203Y171914D01*
X38906D01*
Y152444D01*
X58376D01*
Y167741D01*
X60454Y169820D01*
X60702Y169813D01*
X61779Y169490D01*
X61833Y169077D01*
X63043Y166156D01*
X64968Y163647D01*
X67477Y161722D01*
X70398Y160512D01*
X73533Y160099D01*
X76668Y160512D01*
X79589Y161722D01*
X82098Y163647D01*
X84023Y166156D01*
X85233Y169077D01*
X85646Y172212D01*
X85233Y175347D01*
X84023Y178268D01*
X82098Y180777D01*
X79589Y182702D01*
X76668Y183912D01*
X73533Y184325D01*
X70398Y183912D01*
X67477Y182702D01*
X64968Y180777D01*
X63043Y178268D01*
X62641Y177296D01*
X61371Y177549D01*
Y186738D01*
X76138Y201505D01*
X76138Y201505D01*
X76777Y202462D01*
X77002Y203591D01*
Y244660D01*
X80512D01*
Y244152D01*
X86782D01*
Y251942D01*
Y259732D01*
X80512D01*
Y259224D01*
X77002D01*
Y268459D01*
X79866D01*
Y281144D01*
X76266D01*
Y287975D01*
X76681D01*
X78512Y288340D01*
X80064Y289377D01*
X81101Y290929D01*
X81184Y291348D01*
X82454Y291223D01*
Y287488D01*
X82454Y287488D01*
X82679Y286359D01*
X83319Y285401D01*
X84118Y284602D01*
Y281144D01*
X81254D01*
Y268459D01*
X92883D01*
Y281144D01*
X90019D01*
Y285824D01*
X90019Y285824D01*
X89795Y286953D01*
X90590Y288049D01*
X90959Y287975D01*
X97690D01*
X99521Y288340D01*
X101074Y289377D01*
X102111Y290929D01*
X102475Y292760D01*
X102111Y294591D01*
X101074Y296143D01*
X99521Y297180D01*
X97690Y297545D01*
X90959D01*
X89625Y297279D01*
X88355Y298075D01*
Y304983D01*
X90449Y307077D01*
X90959Y306975D01*
X97690D01*
X99521Y307340D01*
X101074Y308377D01*
X102111Y309929D01*
X102475Y311760D01*
X102111Y313591D01*
X101074Y315143D01*
X99521Y316180D01*
X97690Y316545D01*
X97275D01*
Y331483D01*
X98449Y331969D01*
X102390Y328027D01*
X102084Y326487D01*
X102478Y324504D01*
X103601Y322824D01*
X105281Y321701D01*
X107263Y321307D01*
X109246Y321701D01*
X110926Y322824D01*
X112049Y324504D01*
X112443Y326487D01*
X112049Y328469D01*
X110926Y330149D01*
X109246Y331272D01*
X107263Y331666D01*
X107124Y331638D01*
X101262Y337501D01*
Y346820D01*
X101770D01*
Y353090D01*
X86190D01*
Y346820D01*
X86698D01*
Y345234D01*
X85525Y344748D01*
X79942Y350331D01*
Y357222D01*
X67378D01*
Y350554D01*
X66205Y350068D01*
X54787Y361486D01*
X53829Y362126D01*
X52700Y362350D01*
X52700Y362350D01*
X44260D01*
X44035Y363482D01*
X42913Y365163D01*
X41232Y366285D01*
X39250Y366679D01*
D02*
G37*
G36*
X1121534Y321960D02*
X1111360D01*
Y314869D01*
X1113340D01*
X1115504Y315153D01*
X1117521Y315989D01*
X1119252Y317318D01*
X1120581Y319049D01*
X1121417Y321066D01*
X1121534Y321960D01*
D02*
G37*
G36*
X1108820D02*
X1098646D01*
X1098763Y321066D01*
X1099599Y319049D01*
X1100928Y317318D01*
X1102659Y315989D01*
X1104676Y315153D01*
X1106840Y314869D01*
X1108820D01*
Y321960D01*
D02*
G37*
G36*
X1070820Y320460D02*
X1059633D01*
X1059802Y319174D01*
X1060788Y316793D01*
X1062358Y314748D01*
X1064403Y313178D01*
X1066784Y312192D01*
X1069340Y311856D01*
X1070820D01*
Y320460D01*
D02*
G37*
G36*
X315040Y319730D02*
X296270D01*
Y310460D01*
X315040D01*
Y319730D01*
D02*
G37*
G36*
X293730D02*
X274960D01*
Y310460D01*
X293730D01*
Y319730D01*
D02*
G37*
G36*
X1084547Y320460D02*
X1073360D01*
Y311856D01*
X1074840D01*
X1075638Y311961D01*
X1076706Y310820D01*
X1076440Y309480D01*
X1076908Y307126D01*
X1078241Y305131D01*
X1080236Y303798D01*
X1082590Y303330D01*
X1084944Y303798D01*
X1086939Y305131D01*
X1088272Y307126D01*
X1088740Y309480D01*
X1088272Y311834D01*
X1086939Y313829D01*
X1084944Y315162D01*
X1083900Y315369D01*
X1083373Y316769D01*
X1083392Y316793D01*
X1084378Y319174D01*
X1084547Y320460D01*
D02*
G37*
G36*
X822892Y327482D02*
X810328D01*
Y317418D01*
X812800D01*
Y311138D01*
X812087Y310662D01*
X810965Y308982D01*
X810571Y307000D01*
X810965Y305018D01*
X812087Y303337D01*
X813768Y302215D01*
X815750Y301821D01*
X817732Y302215D01*
X819413Y303337D01*
X820535Y305018D01*
X820929Y307000D01*
X820535Y308982D01*
X819413Y310662D01*
X818700Y311138D01*
Y317418D01*
X822892D01*
Y327482D01*
D02*
G37*
G36*
X1081130Y302270D02*
X1073360D01*
Y298750D01*
X1081130D01*
Y302270D01*
D02*
G37*
G36*
X1070820D02*
X1063050D01*
Y298750D01*
X1070820D01*
Y302270D01*
D02*
G37*
G36*
X463936Y304102D02*
X460917Y301083D01*
X464820Y297180D01*
X467839Y300199D01*
X463936Y304102D01*
D02*
G37*
G36*
X459121Y299287D02*
X456101Y296268D01*
X460005Y292365D01*
X463024Y295384D01*
X459121Y299287D01*
D02*
G37*
G36*
X469635Y298403D02*
X466616Y295384D01*
X470519Y291481D01*
X473539Y294500D01*
X469635Y298403D01*
D02*
G37*
G36*
X464820Y293588D02*
X461801Y290569D01*
X465704Y286665D01*
X468723Y289685D01*
X464820Y293588D01*
D02*
G37*
G36*
X389540Y287230D02*
X381270D01*
Y280460D01*
X389540D01*
Y287230D01*
D02*
G37*
G36*
X378730D02*
X370460D01*
Y280460D01*
X378730D01*
Y287230D01*
D02*
G37*
G36*
X510225Y281364D02*
X508847Y281089D01*
X507679Y280309D01*
X495355Y267985D01*
X446535D01*
X446535Y267985D01*
X445405Y267760D01*
X444448Y267121D01*
X444448Y267121D01*
X255914Y78586D01*
X255274Y77629D01*
X255049Y76500D01*
X255049Y76500D01*
Y41222D01*
X251056Y37229D01*
X216144D01*
Y41550D01*
X201080D01*
Y37229D01*
X194144D01*
Y41550D01*
X179080D01*
Y31486D01*
X185385D01*
X186182Y31328D01*
X252278D01*
X252278Y31328D01*
X253407Y31552D01*
X254364Y32192D01*
X260086Y37914D01*
X260086Y37914D01*
X260726Y38871D01*
X260951Y40000D01*
X260951Y40000D01*
Y75278D01*
X447757Y262084D01*
X495556D01*
X496119Y261707D01*
X496924Y261548D01*
X496914Y261499D01*
X497228Y259923D01*
X497401Y259663D01*
X506499Y268761D01*
X515597Y277859D01*
X515337Y278032D01*
X513761Y278346D01*
X513713Y278337D01*
X513553Y279141D01*
X512772Y280309D01*
X511604Y281089D01*
X510225Y281364D01*
D02*
G37*
G36*
X1082590Y265630D02*
X1080236Y265162D01*
X1078241Y263829D01*
X1076908Y261834D01*
X1076440Y259480D01*
X1076706Y258140D01*
X1075638Y256999D01*
X1074840Y257104D01*
X1073360D01*
Y248500D01*
X1084547D01*
X1084378Y249786D01*
X1083392Y252167D01*
X1083373Y252191D01*
X1083900Y253591D01*
X1084944Y253798D01*
X1086939Y255131D01*
X1088272Y257126D01*
X1088740Y259480D01*
X1088272Y261834D01*
X1086939Y263829D01*
X1084944Y265162D01*
X1082590Y265630D01*
D02*
G37*
G36*
X95591Y259732D02*
X89321D01*
Y253212D01*
X95591D01*
Y259732D01*
D02*
G37*
G36*
X1070820Y257104D02*
X1069340D01*
X1066784Y256768D01*
X1064403Y255782D01*
X1062358Y254212D01*
X1060788Y252167D01*
X1059802Y249786D01*
X1059633Y248500D01*
X1070820D01*
Y257104D01*
D02*
G37*
G36*
X1113340Y254091D02*
X1111360D01*
Y247000D01*
X1121534D01*
X1121417Y247894D01*
X1120581Y249911D01*
X1119252Y251642D01*
X1117521Y252971D01*
X1115504Y253807D01*
X1113340Y254091D01*
D02*
G37*
G36*
X1108820D02*
X1106840D01*
X1104676Y253807D01*
X1102659Y252971D01*
X1100928Y251642D01*
X1099599Y249911D01*
X1098763Y247894D01*
X1098646Y247000D01*
X1108820D01*
Y254091D01*
D02*
G37*
G36*
X95591Y250672D02*
X89321D01*
Y244152D01*
X95591D01*
Y250672D01*
D02*
G37*
G36*
X1121534Y244460D02*
X1111360D01*
Y237369D01*
X1113340D01*
X1115504Y237653D01*
X1117521Y238489D01*
X1119252Y239818D01*
X1120581Y241549D01*
X1121417Y243566D01*
X1121534Y244460D01*
D02*
G37*
G36*
X1108820D02*
X1098646D01*
X1098763Y243566D01*
X1099599Y241549D01*
X1100928Y239818D01*
X1102659Y238489D01*
X1104676Y237653D01*
X1106840Y237369D01*
X1108820D01*
Y244460D01*
D02*
G37*
G36*
X1084547Y245960D02*
X1073360D01*
Y237355D01*
X1074840D01*
X1077396Y237692D01*
X1079777Y238678D01*
X1081822Y240248D01*
X1083392Y242293D01*
X1084378Y244674D01*
X1084547Y245960D01*
D02*
G37*
G36*
X1070820D02*
X1059633D01*
X1059802Y244674D01*
X1060788Y242293D01*
X1062358Y240248D01*
X1064403Y238678D01*
X1066784Y237692D01*
X1069340Y237355D01*
X1070820D01*
Y245960D01*
D02*
G37*
G36*
X459097Y226903D02*
X456077Y223884D01*
X459981Y219981D01*
X463000Y223000D01*
X459097Y226903D01*
D02*
G37*
G36*
X454281Y222088D02*
X451262Y219069D01*
X455165Y215165D01*
X458185Y218185D01*
X454281Y222088D01*
D02*
G37*
G36*
X1025120Y209810D02*
X1022752Y209499D01*
X1020545Y208584D01*
X1018650Y207130D01*
X1017196Y205235D01*
X1016282Y203028D01*
X1015970Y200660D01*
X1016282Y198292D01*
X1016954Y196667D01*
X1009630Y189342D01*
X918580D01*
Y191174D01*
X904016D01*
Y181610D01*
X918580D01*
Y183442D01*
X1010852D01*
X1010852Y183442D01*
X1011981Y183666D01*
X1012938Y184306D01*
X1021127Y192495D01*
X1022752Y191821D01*
X1025120Y191510D01*
X1027488Y191821D01*
X1029695Y192736D01*
X1031590Y194190D01*
X1033044Y196085D01*
X1033959Y198292D01*
X1034270Y200660D01*
X1033959Y203028D01*
X1033044Y205235D01*
X1031590Y207130D01*
X1029695Y208584D01*
X1027488Y209499D01*
X1025120Y209810D01*
D02*
G37*
G36*
X960120D02*
X957752Y209499D01*
X955545Y208584D01*
X953650Y207130D01*
X952196Y205235D01*
X951282Y203028D01*
X950970Y200660D01*
X951282Y198292D01*
X952196Y196085D01*
X953650Y194190D01*
X955545Y192736D01*
X957752Y191821D01*
X960120Y191510D01*
X962488Y191821D01*
X964695Y192736D01*
X966590Y194190D01*
X968044Y196085D01*
X968959Y198292D01*
X969270Y200660D01*
X968959Y203028D01*
X968044Y205235D01*
X966590Y207130D01*
X964695Y208584D01*
X962488Y209499D01*
X960120Y209810D01*
D02*
G37*
G36*
X866000Y219179D02*
X864018Y218785D01*
X862337Y217663D01*
X861215Y215982D01*
X860820Y214000D01*
X861215Y212018D01*
X862337Y210338D01*
X863049Y209862D01*
Y199174D01*
X859746D01*
Y189110D01*
X872310D01*
Y192941D01*
X879516D01*
Y191110D01*
X894080D01*
Y200674D01*
X879516D01*
Y198842D01*
X872310D01*
Y199174D01*
X868951D01*
Y209862D01*
X869662Y210338D01*
X870785Y212018D01*
X871180Y214000D01*
X870785Y215982D01*
X869662Y217663D01*
X867982Y218785D01*
X866000Y219179D01*
D02*
G37*
G36*
X335280Y223682D02*
X132080D01*
Y187960D01*
X335280D01*
Y223682D01*
D02*
G37*
G36*
X872818Y184182D02*
X867298D01*
Y179912D01*
X872818D01*
Y184182D01*
D02*
G37*
G36*
X864758D02*
X859238D01*
Y179912D01*
X864758D01*
Y184182D01*
D02*
G37*
G36*
X512117Y186471D02*
X508391Y182745D01*
X512647Y178488D01*
X516374Y182214D01*
X512117Y186471D01*
D02*
G37*
G36*
X894588Y182182D02*
X888068D01*
Y178162D01*
X894588D01*
Y182182D01*
D02*
G37*
G36*
X885528D02*
X879008D01*
Y178162D01*
X885528D01*
Y182182D01*
D02*
G37*
G36*
X872818Y177372D02*
X867298D01*
Y173102D01*
X872818D01*
Y177372D01*
D02*
G37*
G36*
X864758D02*
X859238D01*
Y173102D01*
X864758D01*
Y177372D01*
D02*
G37*
G36*
X894588Y175622D02*
X888068D01*
Y171602D01*
X894588D01*
Y175622D01*
D02*
G37*
G36*
X885528D02*
X879008D01*
Y171602D01*
X885528D01*
Y175622D01*
D02*
G37*
G36*
X545180Y170117D02*
X541250Y166187D01*
X545019Y162417D01*
X548950Y166348D01*
X545180Y170117D01*
D02*
G37*
G36*
X550746Y164552D02*
X546815Y160621D01*
X550584Y156852D01*
X554515Y160783D01*
X550746Y164552D01*
D02*
G37*
G36*
X563286Y162491D02*
X560267Y159471D01*
X564170Y155568D01*
X567189Y158587D01*
X563286Y162491D01*
D02*
G37*
G36*
X558471Y157675D02*
X555451Y154656D01*
X559355Y150753D01*
X562374Y153772D01*
X558471Y157675D01*
D02*
G37*
G36*
X568985Y156791D02*
X565966Y153772D01*
X569869Y149869D01*
X572889Y152888D01*
X568985Y156791D01*
D02*
G37*
G36*
X564170Y151976D02*
X561151Y148957D01*
X565054Y145053D01*
X568073Y148073D01*
X564170Y151976D01*
D02*
G37*
G36*
X49911Y122305D02*
Y113411D01*
X58805D01*
X58620Y114815D01*
X57588Y117307D01*
X55946Y119446D01*
X53807Y121088D01*
X51315Y122120D01*
X49911Y122305D01*
D02*
G37*
G36*
X47371D02*
X45967Y122120D01*
X43475Y121088D01*
X41336Y119446D01*
X39694Y117307D01*
X38662Y114815D01*
X38477Y113411D01*
X47371D01*
Y122305D01*
D02*
G37*
G36*
X58805Y110871D02*
X49911D01*
Y101977D01*
X51315Y102162D01*
X53807Y103194D01*
X55946Y104836D01*
X57588Y106975D01*
X58620Y109467D01*
X58805Y110871D01*
D02*
G37*
G36*
X47371D02*
X38477D01*
X38662Y109467D01*
X39694Y106975D01*
X41336Y104836D01*
X43475Y103194D01*
X45967Y102162D01*
X47371Y101977D01*
Y110871D01*
D02*
G37*
G36*
X507570Y100770D02*
X503300D01*
Y95250D01*
X507570D01*
Y100770D01*
D02*
G37*
G36*
X500760D02*
X496490D01*
Y95250D01*
X500760D01*
Y100770D01*
D02*
G37*
G36*
X73533Y114221D02*
X70398Y113808D01*
X67477Y112598D01*
X64968Y110673D01*
X63043Y108164D01*
X61833Y105243D01*
X61420Y102108D01*
X61833Y98973D01*
X63043Y96052D01*
X64968Y93543D01*
X67477Y91618D01*
X70398Y90408D01*
X73533Y89995D01*
X76668Y90408D01*
X79589Y91618D01*
X82098Y93543D01*
X84023Y96052D01*
X85233Y98973D01*
X85646Y102108D01*
X85233Y105243D01*
X84023Y108164D01*
X82098Y110673D01*
X79589Y112598D01*
X76668Y113808D01*
X73533Y114221D01*
D02*
G37*
G36*
X507570Y92710D02*
X503300D01*
Y87190D01*
X507570D01*
Y92710D01*
D02*
G37*
G36*
X136770Y79810D02*
X132500D01*
Y74290D01*
X136770D01*
Y79810D01*
D02*
G37*
G36*
X129960D02*
X125690D01*
Y74290D01*
X129960D01*
Y79810D01*
D02*
G37*
G36*
X152263Y79302D02*
X142199D01*
Y66738D01*
X144280D01*
Y63363D01*
X140580Y59662D01*
X125144D01*
Y47098D01*
X128572D01*
Y33662D01*
X125144D01*
Y21098D01*
X140913D01*
X143748Y18264D01*
X143748Y18264D01*
X144705Y17624D01*
X145834Y17400D01*
X165740D01*
X165965Y16268D01*
X167087Y14588D01*
X168768Y13465D01*
X170750Y13070D01*
X172732Y13465D01*
X174412Y14588D01*
X175535Y16268D01*
X175930Y18250D01*
X175535Y20232D01*
X174412Y21913D01*
X172732Y23035D01*
X170750Y23430D01*
X169376Y23156D01*
X168650Y23301D01*
X168650Y23301D01*
X147056D01*
X145208Y25148D01*
Y33662D01*
X141780D01*
Y47098D01*
X145208D01*
Y55946D01*
X149317Y60054D01*
X149317Y60054D01*
X149957Y61012D01*
X150181Y62141D01*
X150181Y62141D01*
Y66738D01*
X152263D01*
Y70698D01*
X179080D01*
Y68986D01*
X194144D01*
Y79050D01*
X179080D01*
Y76599D01*
X152263D01*
Y79302D01*
D02*
G37*
G36*
X216144Y79050D02*
X201080D01*
Y68986D01*
X207385D01*
X208182Y68828D01*
X208979Y68986D01*
X216144D01*
Y70097D01*
X241734D01*
X242209Y69385D01*
X243890Y68263D01*
X245872Y67868D01*
X247854Y68263D01*
X249534Y69385D01*
X250657Y71066D01*
X251052Y73048D01*
X250657Y75030D01*
X249534Y76711D01*
X247854Y77833D01*
X245872Y78228D01*
X243890Y77833D01*
X242209Y76711D01*
X241734Y75999D01*
X216144D01*
Y79050D01*
D02*
G37*
G36*
X136770Y71750D02*
X132500D01*
Y66230D01*
X136770D01*
Y71750D01*
D02*
G37*
G36*
X129960D02*
X125690D01*
Y66230D01*
X129960D01*
Y71750D01*
D02*
G37*
G36*
X1018622Y75362D02*
X1006558D01*
Y61798D01*
X1018622D01*
Y65050D01*
X1031362D01*
X1031837Y64338D01*
X1033518Y63215D01*
X1035500Y62821D01*
X1037482Y63215D01*
X1039163Y64338D01*
X1040285Y66018D01*
X1040679Y68000D01*
X1040285Y69982D01*
X1039163Y71663D01*
X1037482Y72785D01*
X1035500Y73179D01*
X1033518Y72785D01*
X1031837Y71663D01*
X1031362Y70950D01*
X1018622D01*
Y75362D01*
D02*
G37*
G36*
X194652Y67058D02*
X187882D01*
Y62788D01*
X194652D01*
Y67058D01*
D02*
G37*
G36*
X185342D02*
X178572D01*
Y62788D01*
X185342D01*
Y67058D01*
D02*
G37*
G36*
X636780Y62281D02*
X620780D01*
X618817Y61890D01*
X617152Y60778D01*
X616275Y59465D01*
X602238D01*
X602186Y59542D01*
X600506Y60665D01*
X598524Y61059D01*
X596542Y60665D01*
X594861Y59542D01*
X593739Y57862D01*
X593344Y55880D01*
X593739Y53898D01*
X594861Y52217D01*
X596542Y51095D01*
X598524Y50700D01*
X600506Y51095D01*
X602186Y52217D01*
X603086Y53565D01*
X617124D01*
X617152Y53522D01*
X618817Y52410D01*
X620780Y52019D01*
X636780D01*
X638743Y52410D01*
X640408Y53522D01*
X641520Y55187D01*
X641911Y57150D01*
X641520Y59113D01*
X640408Y60778D01*
X638743Y61890D01*
X636780Y62281D01*
D02*
G37*
G36*
X194652Y60248D02*
X187882D01*
Y55978D01*
X194652D01*
Y60248D01*
D02*
G37*
G36*
X185342D02*
X178572D01*
Y55978D01*
X185342D01*
Y60248D01*
D02*
G37*
G36*
X216144Y66550D02*
X201080D01*
Y56486D01*
X207385D01*
X208182Y56328D01*
X208979Y56486D01*
X216144D01*
Y57397D01*
X226494D01*
X226970Y56686D01*
X228650Y55563D01*
X230632Y55168D01*
X232614Y55563D01*
X234294Y56686D01*
X235417Y58366D01*
X235812Y60348D01*
X235417Y62330D01*
X234294Y64011D01*
X232614Y65133D01*
X230632Y65528D01*
X228650Y65133D01*
X226970Y64011D01*
X226494Y63299D01*
X216144D01*
Y66550D01*
D02*
G37*
G36*
X506300Y60130D02*
X502030D01*
Y54610D01*
X506300D01*
Y60130D01*
D02*
G37*
G36*
X499490D02*
X495220D01*
Y54610D01*
X499490D01*
Y60130D01*
D02*
G37*
G36*
X1094270Y81748D02*
Y51270D01*
X1124748D01*
X1124456Y54982D01*
X1123289Y59842D01*
X1121377Y64459D01*
X1118766Y68720D01*
X1115520Y72520D01*
X1111720Y75766D01*
X1107459Y78377D01*
X1102842Y80289D01*
X1097982Y81456D01*
X1094270Y81748D01*
D02*
G37*
G36*
X1091730D02*
X1088018Y81456D01*
X1083158Y80289D01*
X1078541Y78377D01*
X1074280Y75766D01*
X1070480Y72520D01*
X1067234Y68720D01*
X1064623Y64459D01*
X1062711Y59842D01*
X1061544Y54982D01*
X1061252Y51270D01*
X1091730D01*
Y81748D01*
D02*
G37*
G36*
X51270D02*
Y51270D01*
X81748D01*
X81456Y54982D01*
X80289Y59842D01*
X78377Y64459D01*
X75766Y68720D01*
X72520Y72520D01*
X68720Y75766D01*
X64459Y78377D01*
X59842Y80289D01*
X54982Y81456D01*
X51270Y81748D01*
D02*
G37*
G36*
X48730D02*
X45018Y81456D01*
X40158Y80289D01*
X35541Y78377D01*
X31280Y75766D01*
X27480Y72520D01*
X24234Y68720D01*
X21623Y64459D01*
X19711Y59842D01*
X18544Y54982D01*
X18252Y51270D01*
X48730D01*
Y81748D01*
D02*
G37*
G36*
X194652Y54558D02*
X187882D01*
Y50288D01*
X194652D01*
Y54558D01*
D02*
G37*
G36*
X185342D02*
X178572D01*
Y50288D01*
X185342D01*
Y54558D01*
D02*
G37*
G36*
X506300Y52070D02*
X502030D01*
Y46550D01*
X506300D01*
Y52070D01*
D02*
G37*
G36*
X499490D02*
X495220D01*
Y46550D01*
X499490D01*
Y52070D01*
D02*
G37*
G36*
X1025330Y53720D02*
X1019810D01*
Y44450D01*
X1025330D01*
Y53720D01*
D02*
G37*
G36*
X974530D02*
X969010D01*
Y44450D01*
X974530D01*
Y53720D01*
D02*
G37*
G36*
X923730D02*
X918210D01*
Y44450D01*
X923730D01*
Y53720D01*
D02*
G37*
G36*
X872930D02*
X867410D01*
Y44450D01*
X872930D01*
Y53720D01*
D02*
G37*
G36*
X822130D02*
X816610D01*
Y44450D01*
X822130D01*
Y53720D01*
D02*
G37*
G36*
X1017270D02*
X1011750D01*
Y44450D01*
X1017270D01*
Y53720D01*
D02*
G37*
G36*
X966470D02*
X960950D01*
Y44450D01*
X966470D01*
Y53720D01*
D02*
G37*
G36*
X915670D02*
X910150D01*
Y44450D01*
X915670D01*
Y53720D01*
D02*
G37*
G36*
X864870D02*
X859350D01*
Y44450D01*
X864870D01*
Y53720D01*
D02*
G37*
G36*
X814070D02*
X808550D01*
Y44450D01*
X814070D01*
Y53720D01*
D02*
G37*
G36*
X194652Y47748D02*
X187882D01*
Y43478D01*
X194652D01*
Y47748D01*
D02*
G37*
G36*
X185342D02*
X178572D01*
Y43478D01*
X185342D01*
Y47748D01*
D02*
G37*
G36*
X216144Y54050D02*
X201080D01*
Y43986D01*
X207385D01*
X208182Y43828D01*
X208612D01*
X209409Y43986D01*
X210465D01*
X210750Y43929D01*
X237900D01*
X241912Y43320D01*
X242830Y41945D01*
X244510Y40822D01*
X246493Y40428D01*
X248475Y40822D01*
X250155Y41945D01*
X251278Y43625D01*
X251672Y45607D01*
X251278Y47590D01*
X250155Y49270D01*
X248475Y50393D01*
X246493Y50787D01*
X244510Y50393D01*
X242830Y49270D01*
X242757Y49160D01*
X238567Y49797D01*
X238343Y49787D01*
X238123Y49830D01*
X216144D01*
Y54050D01*
D02*
G37*
G36*
X506300Y39810D02*
X502030D01*
Y34290D01*
X506300D01*
Y39810D01*
D02*
G37*
G36*
X499490D02*
X495220D01*
Y34290D01*
X499490D01*
Y39810D01*
D02*
G37*
G36*
X1005122Y75362D02*
X993058D01*
Y61798D01*
X996140D01*
Y54102D01*
X995249Y53212D01*
X986858D01*
Y33148D01*
X999422D01*
Y49039D01*
X1001176Y50794D01*
X1001176Y50794D01*
X1001816Y51751D01*
X1002040Y52880D01*
Y61798D01*
X1005122D01*
Y75362D01*
D02*
G37*
G36*
X627510Y37399D02*
X620780D01*
X618618Y36969D01*
X616786Y35744D01*
X615561Y33912D01*
X615384Y33020D01*
X627510D01*
Y37399D01*
D02*
G37*
G36*
X1025330Y41910D02*
X1019810D01*
Y32640D01*
X1025330D01*
Y41910D01*
D02*
G37*
G36*
X1017270D02*
X1011750D01*
Y32640D01*
X1017270D01*
Y41910D01*
D02*
G37*
G36*
X974530D02*
X969010D01*
Y32640D01*
X974530D01*
Y41910D01*
D02*
G37*
G36*
X966470D02*
X960950D01*
Y32640D01*
X966470D01*
Y41910D01*
D02*
G37*
G36*
X923730D02*
X918210D01*
Y32640D01*
X923730D01*
Y41910D01*
D02*
G37*
G36*
X915670D02*
X910150D01*
Y32640D01*
X915670D01*
Y41910D01*
D02*
G37*
G36*
X872930D02*
X867410D01*
Y32640D01*
X872930D01*
Y41910D01*
D02*
G37*
G36*
X864870D02*
X859350D01*
Y32640D01*
X864870D01*
Y41910D01*
D02*
G37*
G36*
X822130D02*
X816610D01*
Y32640D01*
X822130D01*
Y41910D01*
D02*
G37*
G36*
X814070D02*
X808550D01*
Y32640D01*
X814070D01*
Y41910D01*
D02*
G37*
G36*
X506300Y31750D02*
X502030D01*
Y26230D01*
X506300D01*
Y31750D01*
D02*
G37*
G36*
X499490D02*
X495220D01*
Y26230D01*
X499490D01*
Y31750D01*
D02*
G37*
G36*
X642176Y30480D02*
X630050D01*
Y26102D01*
X636780D01*
X638942Y26531D01*
X640774Y27756D01*
X641999Y29588D01*
X642176Y30480D01*
D02*
G37*
G36*
X627510D02*
X615384D01*
X615561Y29588D01*
X616786Y27756D01*
X618618Y26531D01*
X620780Y26102D01*
X627510D01*
Y30480D01*
D02*
G37*
G36*
X1124748Y48730D02*
X1094270D01*
Y18252D01*
X1097982Y18544D01*
X1102842Y19711D01*
X1107459Y21623D01*
X1111720Y24234D01*
X1115520Y27480D01*
X1118766Y31280D01*
X1121377Y35541D01*
X1123289Y40158D01*
X1124456Y45018D01*
X1124748Y48730D01*
D02*
G37*
G36*
X1091730D02*
X1061252D01*
X1061544Y45018D01*
X1062711Y40158D01*
X1064623Y35541D01*
X1067234Y31280D01*
X1070480Y27480D01*
X1074280Y24234D01*
X1078541Y21623D01*
X1083158Y19711D01*
X1088018Y18544D01*
X1091730Y18252D01*
Y48730D01*
D02*
G37*
G36*
X81748D02*
X51270D01*
Y18252D01*
X54982Y18544D01*
X59842Y19711D01*
X64459Y21623D01*
X68720Y24234D01*
X72520Y27480D01*
X75766Y31280D01*
X78377Y35541D01*
X80289Y40158D01*
X81456Y45018D01*
X81748Y48730D01*
D02*
G37*
G36*
X48730D02*
X18252D01*
X18544Y45018D01*
X19711Y40158D01*
X21623Y35541D01*
X24234Y31280D01*
X27480Y27480D01*
X31280Y24234D01*
X35541Y21623D01*
X40158Y19711D01*
X45018Y18544D01*
X48730Y18252D01*
Y48730D01*
D02*
G37*
%LPD*%
G36*
X537911Y526166D02*
Y526138D01*
X537911Y526138D01*
X537968Y525853D01*
Y519450D01*
X531571D01*
X526135Y524887D01*
X526312Y525780D01*
X525913Y527787D01*
X524777Y529488D01*
X523076Y530624D01*
X521069Y531023D01*
X503709D01*
X502882Y530859D01*
X501729Y531725D01*
X501694Y532253D01*
X501974Y532574D01*
X502725Y533237D01*
X521070D01*
X523076Y533636D01*
X524777Y534772D01*
X525283Y535530D01*
X528548D01*
X537911Y526166D01*
D02*
G37*
G36*
X497408Y505523D02*
X497408Y504678D01*
Y495237D01*
X506105D01*
X506591Y494064D01*
X495808Y483281D01*
X484760D01*
X474837Y493204D01*
Y495591D01*
X476456Y496672D01*
X477593Y498373D01*
X477992Y500380D01*
X477593Y502387D01*
X476456Y504088D01*
X475573Y504678D01*
X475958Y505948D01*
X496314D01*
X497408Y505523D01*
D02*
G37*
G36*
X759050Y359458D02*
Y312420D01*
X759050Y312420D01*
X759274Y311291D01*
X759914Y310334D01*
X784044Y286204D01*
X784044Y286204D01*
X785001Y285564D01*
X786130Y285340D01*
X786130Y285340D01*
X819326D01*
X819451Y284069D01*
X819318Y284043D01*
X818397Y283427D01*
X780546Y245577D01*
X644714D01*
X636836Y253455D01*
X637175Y254913D01*
X637930Y255417D01*
X638371Y256078D01*
X639866Y256380D01*
X648142Y248104D01*
X648142Y248104D01*
X649099Y247464D01*
X650228Y247239D01*
X664962D01*
X664962Y247239D01*
X666091Y247464D01*
X666754Y247907D01*
X673715D01*
Y247399D01*
X679274D01*
Y254000D01*
Y260601D01*
X673715D01*
Y260093D01*
X668061D01*
X667535Y261363D01*
X674890Y268718D01*
X681032D01*
Y277109D01*
X684562Y280639D01*
X685571Y281254D01*
X685571D01*
Y281254D01*
X686460Y280984D01*
X686460Y280692D01*
X686460Y280692D01*
X686460Y280692D01*
Y276270D01*
X690730D01*
Y281790D01*
X687396Y281790D01*
X686875Y281790D01*
X686210Y282387D01*
D01*
X686210Y282387D01*
X685850Y283597D01*
Y289188D01*
X685982Y289215D01*
X687663Y290338D01*
X688785Y292018D01*
X689180Y294000D01*
X688785Y295982D01*
X687663Y297663D01*
X685982Y298785D01*
X684000Y299179D01*
X682018Y298785D01*
X680338Y297663D01*
X679215Y295982D01*
X678820Y294000D01*
X679215Y292018D01*
X679949Y290919D01*
Y284372D01*
X676859Y281282D01*
X670968D01*
Y273140D01*
X663668Y265840D01*
X646167D01*
X645828Y266179D01*
X645781Y266413D01*
X645001Y267581D01*
X632273Y280309D01*
X631105Y281089D01*
X629727Y281364D01*
X628348Y281089D01*
X627180Y280309D01*
X626399Y279141D01*
X626136Y277817D01*
X624813Y277554D01*
X623645Y276773D01*
X622864Y275605D01*
X622830Y275433D01*
X621452Y274500D01*
X621452Y274500D01*
X604818D01*
X593441Y285876D01*
X593927Y287050D01*
X628184D01*
X628184Y287050D01*
X629313Y287274D01*
X629824Y287616D01*
X631105Y287871D01*
X632273Y288651D01*
X645001Y301379D01*
X645781Y302547D01*
X646056Y303925D01*
X645781Y305304D01*
X645001Y306472D01*
X644854Y306570D01*
X644693Y308205D01*
X650937Y314450D01*
X660400D01*
X660400Y314450D01*
X661529Y314674D01*
X662486Y315314D01*
X678160Y330988D01*
X679000Y330821D01*
X680982Y331215D01*
X682663Y332337D01*
X683785Y334018D01*
X684180Y336000D01*
X683785Y337982D01*
X682663Y339663D01*
X680982Y340785D01*
X679000Y341180D01*
X677018Y340785D01*
X675338Y339663D01*
X674215Y337982D01*
X673820Y336000D01*
X673988Y335160D01*
X659178Y320350D01*
X650706D01*
X650180Y321620D01*
X697719Y369160D01*
X749348D01*
X759050Y359458D01*
D02*
G37*
G36*
X461806Y177832D02*
X461870Y177771D01*
Y88905D01*
X445222D01*
X444093Y88680D01*
X443136Y88041D01*
X443136Y88041D01*
X435110Y80015D01*
X434470Y79058D01*
X434412Y78762D01*
X423058D01*
Y74094D01*
X421885Y73608D01*
X412342Y83151D01*
X411384Y83791D01*
X410255Y84015D01*
X410255Y84015D01*
X403497D01*
X403497Y84015D01*
X403497Y84015D01*
X397982D01*
X397363Y84943D01*
X395682Y86065D01*
X393700Y86460D01*
X391718Y86065D01*
X390037Y84943D01*
X388915Y83262D01*
X388521Y81280D01*
X388915Y79298D01*
X390037Y77618D01*
X391718Y76495D01*
X393700Y76101D01*
X395682Y76495D01*
X397363Y77618D01*
X397694Y78114D01*
X403497D01*
X403497Y78114D01*
X409033D01*
X420308Y66839D01*
Y65181D01*
X405678D01*
X401101Y69757D01*
X400144Y70397D01*
X399015Y70622D01*
X399015Y70622D01*
X383163D01*
Y77463D01*
X381569D01*
Y90376D01*
X383492Y92299D01*
X421640D01*
X421640Y92299D01*
X422769Y92524D01*
X423726Y93164D01*
X430076Y99514D01*
X430076Y99514D01*
X430716Y100471D01*
X430941Y101600D01*
Y162608D01*
X432756Y164424D01*
X433929Y163938D01*
Y111760D01*
X433929Y111760D01*
X434154Y110631D01*
X434794Y109674D01*
X447108Y97360D01*
X446940Y96520D01*
X447335Y94538D01*
X448457Y92858D01*
X450138Y91735D01*
X452120Y91341D01*
X454102Y91735D01*
X455783Y92858D01*
X456905Y94538D01*
X457299Y96520D01*
X456905Y98502D01*
X455783Y100183D01*
X454102Y101305D01*
X452120Y101699D01*
X451280Y101532D01*
X439831Y112982D01*
Y165148D01*
X447900Y173217D01*
X449170Y172691D01*
Y120978D01*
X448457Y120503D01*
X447335Y118822D01*
X446940Y116840D01*
X447335Y114858D01*
X448457Y113177D01*
X450138Y112055D01*
X452120Y111660D01*
X454102Y112055D01*
X455783Y113177D01*
X456905Y114858D01*
X457299Y116840D01*
X456905Y118822D01*
X455783Y120503D01*
X455070Y120978D01*
Y172768D01*
X460692Y178389D01*
X461806Y177832D01*
D02*
G37*
G36*
X607920Y177848D02*
Y107950D01*
X607920Y107950D01*
X608144Y106821D01*
X608784Y105864D01*
X638767Y75880D01*
X638142Y74710D01*
X636780Y74981D01*
X620780D01*
X618817Y74590D01*
X618281Y74232D01*
X603661Y88852D01*
Y176530D01*
X603661Y176530D01*
X603436Y177659D01*
X602796Y178616D01*
X602796Y178616D01*
X569687Y211725D01*
Y214284D01*
X570957Y214810D01*
X607920Y177848D01*
D02*
G37*
G36*
X467914Y79664D02*
X467914Y79664D01*
X467914Y79664D01*
X472664Y74914D01*
Y60181D01*
X448880D01*
Y60960D01*
X448372D01*
Y61013D01*
X443465D01*
Y63500D01*
X448880D01*
Y65960D01*
X443465D01*
Y68500D01*
X448880D01*
Y71520D01*
X445622D01*
Y73570D01*
X445939Y73782D01*
X452457Y80300D01*
X467278D01*
X467914Y79664D01*
D02*
G37*
G36*
X586875Y209455D02*
X588043Y208675D01*
X589422Y208400D01*
X590800Y208675D01*
X591134Y208898D01*
X591729Y208008D01*
X692599Y107138D01*
Y64273D01*
X689042Y60715D01*
X688408Y60778D01*
X686743Y61890D01*
X684780Y62281D01*
X668780D01*
X666817Y61890D01*
X665152Y60778D01*
X664040Y59113D01*
X663649Y57150D01*
X664040Y55187D01*
X665152Y53522D01*
X666817Y52410D01*
X668780Y52019D01*
X684780D01*
X686743Y52410D01*
X688408Y53522D01*
X688860Y54200D01*
X689649D01*
X689649Y54200D01*
X690778Y54424D01*
X691735Y55064D01*
X697636Y60965D01*
X697636Y60965D01*
X698275Y61922D01*
X698500Y63051D01*
X698500Y63051D01*
Y108360D01*
X698500Y108361D01*
X698275Y109490D01*
X697636Y110447D01*
X697636Y110447D01*
X596771Y211312D01*
X596888Y212536D01*
X598036Y213011D01*
X701899Y109148D01*
Y57407D01*
X690748Y46255D01*
X689356Y46659D01*
X688408Y48078D01*
X686743Y49190D01*
X684780Y49581D01*
X668780D01*
X666817Y49190D01*
X665152Y48078D01*
X664699Y47400D01*
X661101D01*
X658226Y50276D01*
Y63544D01*
X658002Y64673D01*
X657362Y65631D01*
X657362Y65631D01*
X613820Y109172D01*
Y179070D01*
X613820Y179070D01*
X613596Y180199D01*
X612956Y181156D01*
X612956Y181156D01*
X575827Y218285D01*
X575895Y218640D01*
X577267Y219063D01*
X586875Y209455D01*
D02*
G37*
G36*
X478098Y51508D02*
X478098Y51508D01*
X479055Y50868D01*
X479728Y50735D01*
Y47058D01*
X481809D01*
Y39302D01*
X479728D01*
Y30910D01*
X464518Y15701D01*
X389792D01*
X373631Y31861D01*
X374117Y33035D01*
X378825D01*
X384215Y27644D01*
X384215Y27644D01*
X385172Y27005D01*
X386301Y26780D01*
X388751D01*
X388915Y25958D01*
X390037Y24278D01*
X391718Y23155D01*
X393700Y22761D01*
X395682Y23155D01*
X397363Y24278D01*
X398485Y25958D01*
X398880Y27940D01*
X398485Y29922D01*
X397363Y31602D01*
X395682Y32725D01*
X393700Y33119D01*
X391718Y32725D01*
X391652Y32681D01*
X387523D01*
X382469Y37735D01*
Y39876D01*
X398490D01*
X398490Y39876D01*
X399619Y40100D01*
X400576Y40740D01*
X407491Y47655D01*
X423058D01*
Y45698D01*
X427550D01*
Y45190D01*
X430570D01*
Y45697D01*
X430622D01*
Y50605D01*
X433110D01*
Y45190D01*
X435570D01*
Y50605D01*
X438058D01*
Y45697D01*
X438110D01*
Y45190D01*
X441130D01*
Y45698D01*
X442443D01*
X442607Y45665D01*
X447179Y41094D01*
X447179Y41094D01*
X448136Y40454D01*
X449265Y40230D01*
X449265Y40230D01*
X460682D01*
X461157Y39518D01*
X462838Y38395D01*
X464820Y38001D01*
X466802Y38395D01*
X468483Y39518D01*
X469605Y41198D01*
X470000Y43180D01*
X469605Y45162D01*
X468483Y46842D01*
X466802Y47965D01*
X464820Y48359D01*
X462838Y47965D01*
X461157Y46842D01*
X460682Y46130D01*
X450487D01*
X445939Y50678D01*
X445622Y50890D01*
Y53448D01*
X448372D01*
Y54279D01*
X475326D01*
X478098Y51508D01*
D02*
G37*
%LPC*%
G36*
X693270Y281790D02*
Y276270D01*
X697540D01*
Y281790D01*
X693270D01*
D02*
G37*
G36*
X697540Y273730D02*
X693270D01*
Y268210D01*
X697540D01*
Y273730D01*
D02*
G37*
G36*
X690730D02*
X686460D01*
Y268210D01*
X690730D01*
Y273730D01*
D02*
G37*
G36*
X687373Y260601D02*
X681814D01*
Y255270D01*
X687373D01*
Y260601D01*
D02*
G37*
G36*
Y252730D02*
X681814D01*
Y247399D01*
X687373D01*
Y252730D01*
D02*
G37*
G36*
X682540Y110790D02*
X677020D01*
Y106520D01*
X682540D01*
Y110790D01*
D02*
G37*
G36*
X674480D02*
X668960D01*
Y106520D01*
X674480D01*
Y110790D01*
D02*
G37*
G36*
X682540Y103980D02*
X677020D01*
Y99710D01*
X682540D01*
Y103980D01*
D02*
G37*
G36*
X674480D02*
X668960D01*
Y99710D01*
X674480D01*
Y103980D01*
D02*
G37*
G36*
X631250Y127680D02*
X629268Y127285D01*
X627588Y126163D01*
X626465Y124482D01*
X626071Y122500D01*
X626465Y120518D01*
X627588Y118837D01*
X629268Y117715D01*
X631250Y117320D01*
X632621Y117593D01*
X635800Y114414D01*
X635800Y114414D01*
X636757Y113774D01*
X637886Y113549D01*
X637887Y113549D01*
X643968D01*
Y110218D01*
X647396D01*
Y96782D01*
X643968D01*
Y84218D01*
X664032D01*
Y87549D01*
X669468D01*
Y84218D01*
X673829D01*
Y74981D01*
X668780D01*
X666817Y74590D01*
X665152Y73478D01*
X664040Y71813D01*
X663649Y69850D01*
X664040Y67887D01*
X665152Y66222D01*
X666817Y65110D01*
X668780Y64719D01*
X684780D01*
X686743Y65110D01*
X688408Y66222D01*
X689520Y67887D01*
X689911Y69850D01*
X689520Y71813D01*
X688408Y73478D01*
X686743Y74590D01*
X684780Y74981D01*
X679731D01*
Y84218D01*
X682032D01*
Y94282D01*
X669468D01*
Y93450D01*
X664032D01*
Y96782D01*
X660604D01*
Y110218D01*
X664032D01*
Y122782D01*
X643968D01*
Y119451D01*
X639109D01*
X636368Y122191D01*
X636429Y122500D01*
X636035Y124482D01*
X634912Y126163D01*
X633232Y127285D01*
X631250Y127680D01*
D02*
G37*
%LPD*%
G36*
X83654Y338274D02*
X83654Y338274D01*
X84611Y337634D01*
X85740Y337410D01*
X86698D01*
Y333328D01*
X91374D01*
Y316545D01*
X90959D01*
X89128Y316180D01*
X87576Y315143D01*
X86539Y313591D01*
X86175Y311760D01*
X86276Y311250D01*
X83319Y308292D01*
X82679Y307335D01*
X82642Y307147D01*
X81373Y307281D01*
Y316453D01*
X76266D01*
Y333658D01*
X79942D01*
Y340326D01*
X81115Y340812D01*
X83654Y338274D01*
D02*
G37*
D14*
X489010Y96960D02*
X491490Y99440D01*
X486030Y93980D02*
Y95230D01*
X487760Y96960D01*
X489010D01*
X491490Y99440D02*
Y124460D01*
X499870Y75890D02*
X502100Y73660D01*
X486030Y92730D02*
X499870Y78889D01*
Y75890D02*
Y78889D01*
X1803338Y173985D02*
X1798259Y171446D01*
X1793181Y166367D01*
Y161289D01*
X1795720Y158750D01*
X1800798D01*
X1803338Y161289D01*
Y163828D01*
X1800798Y166367D01*
X1793181D01*
X1808416Y171446D02*
X1810955Y173985D01*
X1816033D01*
X1818573Y171446D01*
Y168907D01*
X1816033Y166367D01*
X1813494D01*
X1816033D01*
X1818573Y163828D01*
Y161289D01*
X1816033Y158750D01*
X1810955D01*
X1808416Y161289D01*
X1823651Y158750D02*
Y161289D01*
X1826190D01*
Y158750D01*
X1823651D01*
X1836347Y161289D02*
X1838886Y158750D01*
X1843964D01*
X1846504Y161289D01*
Y171446D01*
X1843964Y173985D01*
X1838886D01*
X1836347Y171446D01*
Y168907D01*
X1838886Y166367D01*
X1846504D01*
X1859200Y158750D02*
Y173985D01*
X1851582Y166367D01*
X1861739D01*
X1866817Y158750D02*
Y168907D01*
X1869356D01*
X1871895Y166367D01*
Y158750D01*
Y166367D01*
X1874435Y168907D01*
X1876974Y166367D01*
Y158750D01*
X1882052D02*
X1887130D01*
X1884591D01*
Y168907D01*
X1882052D01*
X1894748Y158750D02*
X1899826D01*
X1897287D01*
Y173985D01*
X1894748D01*
X1234527D02*
X1244684D01*
X1239605D01*
Y158750D01*
X1252301D02*
X1257380D01*
X1259919Y161289D01*
Y166367D01*
X1257380Y168907D01*
X1252301D01*
X1249762Y166367D01*
Y161289D01*
X1252301Y158750D01*
X1267536Y171446D02*
Y168907D01*
X1264997D01*
X1270076D01*
X1267536D01*
Y161289D01*
X1270076Y158750D01*
X1280232Y168907D02*
X1285311D01*
X1287850Y166367D01*
Y158750D01*
X1280232D01*
X1277693Y161289D01*
X1280232Y163828D01*
X1287850D01*
X1292928Y158750D02*
X1298006D01*
X1295467D01*
Y173985D01*
X1292928D01*
X1320859D02*
Y158750D01*
X1328477D01*
X1331016Y161289D01*
Y163828D01*
Y166367D01*
X1328477Y168907D01*
X1320859D01*
X1338633Y158750D02*
X1343712D01*
X1346251Y161289D01*
Y166367D01*
X1343712Y168907D01*
X1338633D01*
X1336094Y166367D01*
Y161289D01*
X1338633Y158750D01*
X1353869Y168907D02*
X1358947D01*
X1361486Y166367D01*
Y158750D01*
X1353869D01*
X1351329Y161289D01*
X1353869Y163828D01*
X1361486D01*
X1366564Y168907D02*
Y158750D01*
Y163828D01*
X1369104Y166367D01*
X1371643Y168907D01*
X1374182D01*
X1391956Y173985D02*
Y158750D01*
X1384339D01*
X1381799Y161289D01*
Y166367D01*
X1384339Y168907D01*
X1391956D01*
X1414809Y171446D02*
Y168907D01*
X1412270D01*
X1417348D01*
X1414809D01*
Y161289D01*
X1417348Y158750D01*
X1424966Y173985D02*
Y158750D01*
Y166367D01*
X1427505Y168907D01*
X1432583D01*
X1435122Y166367D01*
Y158750D01*
X1440201D02*
X1445279D01*
X1442740D01*
Y168907D01*
X1440201D01*
X1463053D02*
X1455436D01*
X1452896Y166367D01*
Y161289D01*
X1455436Y158750D01*
X1463053D01*
X1468132D02*
Y173985D01*
Y163828D02*
X1475749Y168907D01*
X1468132Y163828D02*
X1475749Y158750D01*
X1483367D02*
Y168907D01*
X1490984D01*
X1493523Y166367D01*
Y158750D01*
X1506219D02*
X1501141D01*
X1498602Y161289D01*
Y166367D01*
X1501141Y168907D01*
X1506219D01*
X1508758Y166367D01*
Y163828D01*
X1498602D01*
X1513837Y158750D02*
X1521454D01*
X1523993Y161289D01*
X1521454Y163828D01*
X1516376D01*
X1513837Y166367D01*
X1516376Y168907D01*
X1523993D01*
X1529072Y158750D02*
X1536689D01*
X1539229Y161289D01*
X1536689Y163828D01*
X1531611D01*
X1529072Y166367D01*
X1531611Y168907D01*
X1539229D01*
X1544307D02*
X1546846D01*
Y166367D01*
X1544307D01*
Y168907D01*
Y161289D02*
X1546846D01*
Y158750D01*
X1544307D01*
Y161289D01*
X2102984Y539745D02*
Y524510D01*
X2110601D01*
X2113140Y527049D01*
Y529588D01*
X2110601Y532127D01*
X2102984D01*
X2110601D01*
X2113140Y534667D01*
Y537206D01*
X2110601Y539745D01*
X2102984D01*
X2120758Y524510D02*
X2125836D01*
X2128375Y527049D01*
Y532127D01*
X2125836Y534667D01*
X2120758D01*
X2118219Y532127D01*
Y527049D01*
X2120758Y524510D01*
X2135993Y534667D02*
X2141071D01*
X2143611Y532127D01*
Y524510D01*
X2135993D01*
X2133454Y527049D01*
X2135993Y529588D01*
X2143611D01*
X2148689Y534667D02*
Y524510D01*
Y529588D01*
X2151228Y532127D01*
X2153767Y534667D01*
X2156306D01*
X2174081Y539745D02*
Y524510D01*
X2166463D01*
X2163924Y527049D01*
Y532127D01*
X2166463Y534667D01*
X2174081D01*
X2194394Y539745D02*
Y524510D01*
X2204551D01*
X2212168Y534667D02*
X2217247D01*
X2219786Y532127D01*
Y524510D01*
X2212168D01*
X2209629Y527049D01*
X2212168Y529588D01*
X2219786D01*
X2224864Y534667D02*
Y527049D01*
X2227403Y524510D01*
X2235021D01*
Y521971D01*
X2232482Y519432D01*
X2229943D01*
X2235021Y524510D02*
Y534667D01*
X2247717Y524510D02*
X2242639D01*
X2240099Y527049D01*
Y532127D01*
X2242639Y534667D01*
X2247717D01*
X2250256Y532127D01*
Y529588D01*
X2240099D01*
X2255334Y534667D02*
Y524510D01*
Y529588D01*
X2257874Y532127D01*
X2260413Y534667D01*
X2262952D01*
X2295961Y537206D02*
X2293422Y539745D01*
X2288344D01*
X2285804Y537206D01*
Y534667D01*
X2288344Y532127D01*
X2293422D01*
X2295961Y529588D01*
Y527049D01*
X2293422Y524510D01*
X2288344D01*
X2285804Y527049D01*
X2303579Y537206D02*
Y534667D01*
X2301040D01*
X2306118D01*
X2303579D01*
Y527049D01*
X2306118Y524510D01*
X2316275Y534667D02*
X2321353D01*
X2323892Y532127D01*
Y524510D01*
X2316275D01*
X2313736Y527049D01*
X2316275Y529588D01*
X2323892D01*
X2339127Y534667D02*
X2331510D01*
X2328970Y532127D01*
Y527049D01*
X2331510Y524510D01*
X2339127D01*
X2344206D02*
Y539745D01*
Y529588D02*
X2351823Y534667D01*
X2344206Y529588D02*
X2351823Y524510D01*
X1958239Y476246D02*
X1960778Y478785D01*
X1965856D01*
X1968396Y476246D01*
Y473707D01*
X1965856Y471167D01*
X1963317D01*
X1965856D01*
X1968396Y468628D01*
Y466089D01*
X1965856Y463550D01*
X1960778D01*
X1958239Y466089D01*
X1973474Y463550D02*
Y466089D01*
X1976013D01*
Y463550D01*
X1973474D01*
X1996327Y478785D02*
X1986170D01*
Y471167D01*
X1991248Y473707D01*
X1993788D01*
X1996327Y471167D01*
Y466089D01*
X1993788Y463550D01*
X1988709D01*
X1986170Y466089D01*
X1965856Y402590D02*
Y417825D01*
X1958239Y410207D01*
X1968396D01*
X1973474Y402590D02*
Y405129D01*
X1976013D01*
Y402590D01*
X1973474D01*
X1986170Y415286D02*
X1988709Y417825D01*
X1993788D01*
X1996327Y415286D01*
Y405129D01*
X1993788Y402590D01*
X1988709D01*
X1986170Y405129D01*
Y415286D01*
X2011562Y417825D02*
X2001405D01*
Y410207D01*
X2006483Y412747D01*
X2009023D01*
X2011562Y410207D01*
Y405129D01*
X2009023Y402590D01*
X2003944D01*
X2001405Y405129D01*
X1965856Y341630D02*
Y356865D01*
X1958239Y349248D01*
X1968396D01*
X1973474Y341630D02*
Y344169D01*
X1976013D01*
Y341630D01*
X1973474D01*
X1996327Y356865D02*
X1991248Y354326D01*
X1986170Y349248D01*
Y344169D01*
X1988709Y341630D01*
X1993788D01*
X1996327Y344169D01*
Y346708D01*
X1993788Y349248D01*
X1986170D01*
X1965856Y280670D02*
Y295905D01*
X1958239Y288288D01*
X1968396D01*
X1973474Y280670D02*
Y283209D01*
X1976013D01*
Y280670D01*
X1973474D01*
X1986170Y293366D02*
X1988709Y295905D01*
X1993788D01*
X1996327Y293366D01*
Y283209D01*
X1993788Y280670D01*
X1988709D01*
X1986170Y283209D01*
Y293366D01*
X2011562Y295905D02*
X2001405D01*
Y288288D01*
X2006483Y290827D01*
X2009023D01*
X2011562Y288288D01*
Y283209D01*
X2009023Y280670D01*
X2003944D01*
X2001405Y283209D01*
X1958239Y232406D02*
X1960778Y234945D01*
X1965856D01*
X1968396Y232406D01*
Y229867D01*
X1965856Y227327D01*
X1963317D01*
X1965856D01*
X1968396Y224788D01*
Y222249D01*
X1965856Y219710D01*
X1960778D01*
X1958239Y222249D01*
X1973474Y219710D02*
Y222249D01*
X1976013D01*
Y219710D01*
X1973474D01*
X1996327Y234945D02*
X1986170D01*
Y227327D01*
X1991248Y229867D01*
X1993788D01*
X1996327Y227327D01*
Y222249D01*
X1993788Y219710D01*
X1988709D01*
X1986170Y222249D01*
X1968396Y537206D02*
X1965856Y539745D01*
X1960778D01*
X1958239Y537206D01*
Y527049D01*
X1960778Y524510D01*
X1965856D01*
X1968396Y527049D01*
X1976013Y524510D02*
X1981092D01*
X1983631Y527049D01*
Y532127D01*
X1981092Y534667D01*
X1976013D01*
X1973474Y532127D01*
Y527049D01*
X1976013Y524510D01*
X1988709D02*
Y534667D01*
X1996327D01*
X1998866Y532127D01*
Y524510D01*
X2003944D02*
X2011562D01*
X2014101Y527049D01*
X2011562Y529588D01*
X2006483D01*
X2003944Y532127D01*
X2006483Y534667D01*
X2014101D01*
X2021718Y537206D02*
Y534667D01*
X2019179D01*
X2024258D01*
X2021718D01*
Y527049D01*
X2024258Y524510D01*
X2034414Y534667D02*
X2039493D01*
X2042032Y532127D01*
Y524510D01*
X2034414D01*
X2031875Y527049D01*
X2034414Y529588D01*
X2042032D01*
X2047110Y524510D02*
Y534667D01*
X2054728D01*
X2057267Y532127D01*
Y524510D01*
X2064884Y537206D02*
Y534667D01*
X2062345D01*
X2067424D01*
X2064884D01*
Y527049D01*
X2067424Y524510D01*
X1793181Y476246D02*
X1795720Y478785D01*
X1800798D01*
X1803338Y476246D01*
Y466089D01*
X1800798Y463550D01*
X1795720D01*
X1793181Y466089D01*
Y476246D01*
X1808416Y463550D02*
Y466089D01*
X1810955D01*
Y463550D01*
X1808416D01*
X1828729D02*
Y478785D01*
X1821112Y471167D01*
X1831268D01*
X1836347Y476246D02*
X1838886Y478785D01*
X1843964D01*
X1846504Y476246D01*
Y466089D01*
X1843964Y463550D01*
X1838886D01*
X1836347Y466089D01*
Y476246D01*
X1851582Y463550D02*
Y473707D01*
X1854121D01*
X1856660Y471167D01*
Y463550D01*
Y471167D01*
X1859200Y473707D01*
X1861739Y471167D01*
Y463550D01*
X1866817D02*
X1871895D01*
X1869356D01*
Y473707D01*
X1866817D01*
X1879513Y463550D02*
X1884591D01*
X1882052D01*
Y478785D01*
X1879513D01*
X1793181Y433070D02*
X1798259D01*
X1795720D01*
Y448305D01*
X1793181Y445766D01*
X1805877Y433070D02*
Y435609D01*
X1808416D01*
Y433070D01*
X1805877D01*
X1818573Y445766D02*
X1821112Y448305D01*
X1826190D01*
X1828729Y445766D01*
Y443227D01*
X1826190Y440687D01*
X1823651D01*
X1826190D01*
X1828729Y438148D01*
Y435609D01*
X1826190Y433070D01*
X1821112D01*
X1818573Y435609D01*
X1833808Y445766D02*
X1836347Y448305D01*
X1841425D01*
X1843964Y445766D01*
Y443227D01*
X1841425Y440687D01*
X1843964Y438148D01*
Y435609D01*
X1841425Y433070D01*
X1836347D01*
X1833808Y435609D01*
Y438148D01*
X1836347Y440687D01*
X1833808Y443227D01*
Y445766D01*
X1836347Y440687D02*
X1841425D01*
X1849043Y433070D02*
Y443227D01*
X1851582D01*
X1854121Y440687D01*
Y433070D01*
Y440687D01*
X1856660Y443227D01*
X1859200Y440687D01*
Y433070D01*
X1864278D02*
X1869356D01*
X1866817D01*
Y443227D01*
X1864278D01*
X1876974Y433070D02*
X1882052D01*
X1879513D01*
Y448305D01*
X1876974D01*
X1793181Y415286D02*
X1795720Y417825D01*
X1800798D01*
X1803338Y415286D01*
Y412747D01*
X1800798Y410207D01*
X1798259D01*
X1800798D01*
X1803338Y407668D01*
Y405129D01*
X1800798Y402590D01*
X1795720D01*
X1793181Y405129D01*
X1808416Y402590D02*
Y405129D01*
X1810955D01*
Y402590D01*
X1808416D01*
X1821112Y405129D02*
X1823651Y402590D01*
X1828729D01*
X1831268Y405129D01*
Y415286D01*
X1828729Y417825D01*
X1823651D01*
X1821112Y415286D01*
Y412747D01*
X1823651Y410207D01*
X1831268D01*
X1836347Y402590D02*
X1841425D01*
X1838886D01*
Y417825D01*
X1836347Y415286D01*
X1849043Y402590D02*
Y412747D01*
X1851582D01*
X1854121Y410207D01*
Y402590D01*
Y410207D01*
X1856660Y412747D01*
X1859200Y410207D01*
Y402590D01*
X1864278D02*
X1869356D01*
X1866817D01*
Y412747D01*
X1864278D01*
X1876974Y402590D02*
X1882052D01*
X1879513D01*
Y417825D01*
X1876974D01*
X1793181Y372110D02*
X1798259D01*
X1795720D01*
Y387345D01*
X1793181Y384806D01*
X1805877Y372110D02*
Y374649D01*
X1808416D01*
Y372110D01*
X1805877D01*
X1818573Y384806D02*
X1821112Y387345D01*
X1826190D01*
X1828729Y384806D01*
Y382267D01*
X1826190Y379728D01*
X1823651D01*
X1826190D01*
X1828729Y377188D01*
Y374649D01*
X1826190Y372110D01*
X1821112D01*
X1818573Y374649D01*
X1833808Y384806D02*
X1836347Y387345D01*
X1841425D01*
X1843964Y384806D01*
Y382267D01*
X1841425Y379728D01*
X1843964Y377188D01*
Y374649D01*
X1841425Y372110D01*
X1836347D01*
X1833808Y374649D01*
Y377188D01*
X1836347Y379728D01*
X1833808Y382267D01*
Y384806D01*
X1836347Y379728D02*
X1841425D01*
X1849043Y372110D02*
Y382267D01*
X1851582D01*
X1854121Y379728D01*
Y372110D01*
Y379728D01*
X1856660Y382267D01*
X1859200Y379728D01*
Y372110D01*
X1864278D02*
X1869356D01*
X1866817D01*
Y382267D01*
X1864278D01*
X1876974Y372110D02*
X1882052D01*
X1879513D01*
Y387345D01*
X1876974D01*
X1800798Y341630D02*
Y356865D01*
X1793181Y349248D01*
X1803338D01*
X1808416Y344169D02*
X1810955Y341630D01*
X1816033D01*
X1818573Y344169D01*
Y354326D01*
X1816033Y356865D01*
X1810955D01*
X1808416Y354326D01*
Y351787D01*
X1810955Y349248D01*
X1818573D01*
X1823651Y341630D02*
Y344169D01*
X1826190D01*
Y341630D01*
X1823651D01*
X1836347Y354326D02*
X1838886Y356865D01*
X1843964D01*
X1846504Y354326D01*
Y351787D01*
X1843964Y349248D01*
X1846504Y346708D01*
Y344169D01*
X1843964Y341630D01*
X1838886D01*
X1836347Y344169D01*
Y346708D01*
X1838886Y349248D01*
X1836347Y351787D01*
Y354326D01*
X1838886Y349248D02*
X1843964D01*
X1851582Y354326D02*
X1854121Y356865D01*
X1859200D01*
X1861739Y354326D01*
Y344169D01*
X1859200Y341630D01*
X1854121D01*
X1851582Y344169D01*
Y354326D01*
X1866817Y341630D02*
Y351787D01*
X1869356D01*
X1871895Y349248D01*
Y341630D01*
Y349248D01*
X1874435Y351787D01*
X1876974Y349248D01*
Y341630D01*
X1882052D02*
X1887130D01*
X1884591D01*
Y351787D01*
X1882052D01*
X1894748Y341630D02*
X1899826D01*
X1897287D01*
Y356865D01*
X1894748D01*
X1793181Y311150D02*
X1798259D01*
X1795720D01*
Y326385D01*
X1793181Y323846D01*
X1805877Y311150D02*
Y313689D01*
X1808416D01*
Y311150D01*
X1805877D01*
X1818573Y323846D02*
X1821112Y326385D01*
X1826190D01*
X1828729Y323846D01*
Y321307D01*
X1826190Y318768D01*
X1823651D01*
X1826190D01*
X1828729Y316228D01*
Y313689D01*
X1826190Y311150D01*
X1821112D01*
X1818573Y313689D01*
X1833808Y323846D02*
X1836347Y326385D01*
X1841425D01*
X1843964Y323846D01*
Y321307D01*
X1841425Y318768D01*
X1843964Y316228D01*
Y313689D01*
X1841425Y311150D01*
X1836347D01*
X1833808Y313689D01*
Y316228D01*
X1836347Y318768D01*
X1833808Y321307D01*
Y323846D01*
X1836347Y318768D02*
X1841425D01*
X1849043Y311150D02*
Y321307D01*
X1851582D01*
X1854121Y318768D01*
Y311150D01*
Y318768D01*
X1856660Y321307D01*
X1859200Y318768D01*
Y311150D01*
X1864278D02*
X1869356D01*
X1866817D01*
Y321307D01*
X1864278D01*
X1876974Y311150D02*
X1882052D01*
X1879513D01*
Y326385D01*
X1876974D01*
X1793181Y293366D02*
X1795720Y295905D01*
X1800798D01*
X1803338Y293366D01*
Y290827D01*
X1800798Y288288D01*
X1798259D01*
X1800798D01*
X1803338Y285748D01*
Y283209D01*
X1800798Y280670D01*
X1795720D01*
X1793181Y283209D01*
X1808416Y280670D02*
Y283209D01*
X1810955D01*
Y280670D01*
X1808416D01*
X1821112Y283209D02*
X1823651Y280670D01*
X1828729D01*
X1831268Y283209D01*
Y293366D01*
X1828729Y295905D01*
X1823651D01*
X1821112Y293366D01*
Y290827D01*
X1823651Y288288D01*
X1831268D01*
X1836347Y280670D02*
X1841425D01*
X1838886D01*
Y295905D01*
X1836347Y293366D01*
X1849043Y280670D02*
Y290827D01*
X1851582D01*
X1854121Y288288D01*
Y280670D01*
Y288288D01*
X1856660Y290827D01*
X1859200Y288288D01*
Y280670D01*
X1864278D02*
X1869356D01*
X1866817D01*
Y290827D01*
X1864278D01*
X1876974Y280670D02*
X1882052D01*
X1879513D01*
Y295905D01*
X1876974D01*
X1793181Y250190D02*
X1798259D01*
X1795720D01*
Y265425D01*
X1793181Y262886D01*
X1805877Y250190D02*
Y252729D01*
X1808416D01*
Y250190D01*
X1805877D01*
X1818573Y262886D02*
X1821112Y265425D01*
X1826190D01*
X1828729Y262886D01*
Y260347D01*
X1826190Y257808D01*
X1823651D01*
X1826190D01*
X1828729Y255268D01*
Y252729D01*
X1826190Y250190D01*
X1821112D01*
X1818573Y252729D01*
X1833808Y262886D02*
X1836347Y265425D01*
X1841425D01*
X1843964Y262886D01*
Y260347D01*
X1841425Y257808D01*
X1843964Y255268D01*
Y252729D01*
X1841425Y250190D01*
X1836347D01*
X1833808Y252729D01*
Y255268D01*
X1836347Y257808D01*
X1833808Y260347D01*
Y262886D01*
X1836347Y257808D02*
X1841425D01*
X1849043Y250190D02*
Y260347D01*
X1851582D01*
X1854121Y257808D01*
Y250190D01*
Y257808D01*
X1856660Y260347D01*
X1859200Y257808D01*
Y250190D01*
X1864278D02*
X1869356D01*
X1866817D01*
Y260347D01*
X1864278D01*
X1876974Y250190D02*
X1882052D01*
X1879513D01*
Y265425D01*
X1876974D01*
X1793181Y232406D02*
X1795720Y234945D01*
X1800798D01*
X1803338Y232406D01*
Y222249D01*
X1800798Y219710D01*
X1795720D01*
X1793181Y222249D01*
Y232406D01*
X1808416Y219710D02*
Y222249D01*
X1810955D01*
Y219710D01*
X1808416D01*
X1828729D02*
Y234945D01*
X1821112Y227327D01*
X1831268D01*
X1836347Y232406D02*
X1838886Y234945D01*
X1843964D01*
X1846504Y232406D01*
Y222249D01*
X1843964Y219710D01*
X1838886D01*
X1836347Y222249D01*
Y232406D01*
X1851582Y219710D02*
Y229867D01*
X1854121D01*
X1856660Y227327D01*
Y219710D01*
Y227327D01*
X1859200Y229867D01*
X1861739Y227327D01*
Y219710D01*
X1866817D02*
X1871895D01*
X1869356D01*
Y229867D01*
X1866817D01*
X1879513Y219710D02*
X1884591D01*
X1882052D01*
Y234945D01*
X1879513D01*
X1793181Y539745D02*
X1803338D01*
X1798259D01*
Y524510D01*
X1808416Y539745D02*
Y524510D01*
Y532127D01*
X1810955Y534667D01*
X1816033D01*
X1818573Y532127D01*
Y524510D01*
X1823651D02*
X1828729D01*
X1826190D01*
Y534667D01*
X1823651D01*
X1846504D02*
X1838886D01*
X1836347Y532127D01*
Y527049D01*
X1838886Y524510D01*
X1846504D01*
X1851582D02*
Y539745D01*
Y529588D02*
X1859200Y534667D01*
X1851582Y529588D02*
X1859200Y524510D01*
X1866817D02*
Y534667D01*
X1874435D01*
X1876974Y532127D01*
Y524510D01*
X1889670D02*
X1884591D01*
X1882052Y527049D01*
Y532127D01*
X1884591Y534667D01*
X1889670D01*
X1892209Y532127D01*
Y529588D01*
X1882052D01*
X1897287Y524510D02*
X1904905D01*
X1907444Y527049D01*
X1904905Y529588D01*
X1899826D01*
X1897287Y532127D01*
X1899826Y534667D01*
X1907444D01*
X1912522Y524510D02*
X1920140D01*
X1922679Y527049D01*
X1920140Y529588D01*
X1915061D01*
X1912522Y532127D01*
X1915061Y534667D01*
X1922679D01*
X1584957Y476246D02*
X1582417Y478785D01*
X1577339D01*
X1574800Y476246D01*
Y473707D01*
X1577339Y471167D01*
X1582417D01*
X1584957Y468628D01*
Y466089D01*
X1582417Y463550D01*
X1577339D01*
X1574800Y466089D01*
X1592574Y463550D02*
X1597653D01*
X1600192Y466089D01*
Y471167D01*
X1597653Y473707D01*
X1592574D01*
X1590035Y471167D01*
Y466089D01*
X1592574Y463550D01*
X1605270D02*
X1610349D01*
X1607809D01*
Y478785D01*
X1605270D01*
X1628123D02*
Y463550D01*
X1620505D01*
X1617966Y466089D01*
Y471167D01*
X1620505Y473707D01*
X1628123D01*
X1640819Y463550D02*
X1635740D01*
X1633201Y466089D01*
Y471167D01*
X1635740Y473707D01*
X1640819D01*
X1643358Y471167D01*
Y468628D01*
X1633201D01*
X1648436Y473707D02*
Y463550D01*
Y468628D01*
X1650975Y471167D01*
X1653515Y473707D01*
X1656054D01*
X1678906Y463550D02*
Y478785D01*
X1686524D01*
X1689063Y476246D01*
Y471167D01*
X1686524Y468628D01*
X1678906D01*
X1683985D02*
X1689063Y463550D01*
X1701759D02*
X1696681D01*
X1694141Y466089D01*
Y471167D01*
X1696681Y473707D01*
X1701759D01*
X1704298Y471167D01*
Y468628D01*
X1694141D01*
X1709377Y463550D02*
X1716994D01*
X1719533Y466089D01*
X1716994Y468628D01*
X1711916D01*
X1709377Y471167D01*
X1711916Y473707D01*
X1719533D01*
X1724612Y463550D02*
X1729690D01*
X1727151D01*
Y473707D01*
X1724612D01*
X1737307Y463550D02*
X1744925D01*
X1747464Y466089D01*
X1744925Y468628D01*
X1739847D01*
X1737307Y471167D01*
X1739847Y473707D01*
X1747464D01*
X1755082Y476246D02*
Y473707D01*
X1752543D01*
X1757621D01*
X1755082D01*
Y466089D01*
X1757621Y463550D01*
X1574800Y402590D02*
Y417825D01*
X1582417D01*
X1584957Y415286D01*
Y410207D01*
X1582417Y407668D01*
X1574800D01*
X1590035Y402590D02*
Y417825D01*
X1597653D01*
X1600192Y415286D01*
Y410207D01*
X1597653Y407668D01*
X1590035D01*
X1605270Y410207D02*
X1615427D01*
X1620505Y415286D02*
X1623044Y417825D01*
X1628123D01*
X1630662Y415286D01*
Y405129D01*
X1628123Y402590D01*
X1623044D01*
X1620505Y405129D01*
Y415286D01*
X1635740D02*
X1638280Y417825D01*
X1643358D01*
X1645897Y415286D01*
Y405129D01*
X1643358Y402590D01*
X1638280D01*
X1635740Y405129D01*
Y415286D01*
X1661132Y417825D02*
X1656054Y415286D01*
X1650975Y410207D01*
Y405129D01*
X1653515Y402590D01*
X1658593D01*
X1661132Y405129D01*
Y407668D01*
X1658593Y410207D01*
X1650975D01*
X1584957Y384806D02*
X1582417Y387345D01*
X1577339D01*
X1574800Y384806D01*
Y374649D01*
X1577339Y372110D01*
X1582417D01*
X1584957Y374649D01*
X1600192Y387345D02*
X1590035D01*
Y379728D01*
X1595113D01*
X1590035D01*
Y372110D01*
X1605270Y379728D02*
X1615427D01*
X1620505Y384806D02*
X1623044Y387345D01*
X1628123D01*
X1630662Y384806D01*
Y374649D01*
X1628123Y372110D01*
X1623044D01*
X1620505Y374649D01*
Y384806D01*
X1635740D02*
X1638280Y387345D01*
X1643358D01*
X1645897Y384806D01*
Y374649D01*
X1643358Y372110D01*
X1638280D01*
X1635740Y374649D01*
Y384806D01*
X1658593Y372110D02*
Y387345D01*
X1650975Y379728D01*
X1661132D01*
X1584957Y356865D02*
X1574800D01*
Y349248D01*
X1579878D01*
X1574800D01*
Y341630D01*
X1590035D02*
Y356865D01*
X1597653D01*
X1600192Y354326D01*
Y349248D01*
X1597653Y346708D01*
X1590035D01*
X1595113D02*
X1600192Y341630D01*
X1605270Y349248D02*
X1615427D01*
X1628123Y341630D02*
Y356865D01*
X1620505Y349248D01*
X1630662D01*
X1584957Y323846D02*
X1582417Y326385D01*
X1577339D01*
X1574800Y323846D01*
Y313689D01*
X1577339Y311150D01*
X1582417D01*
X1584957Y313689D01*
X1600192Y326385D02*
X1590035D01*
Y318768D01*
X1595113D01*
X1590035D01*
Y311150D01*
X1605270Y318768D02*
X1615427D01*
X1620505Y323846D02*
X1623044Y326385D01*
X1628123D01*
X1630662Y323846D01*
Y313689D01*
X1628123Y311150D01*
X1623044D01*
X1620505Y313689D01*
Y323846D01*
X1635740D02*
X1638280Y326385D01*
X1643358D01*
X1645897Y323846D01*
Y313689D01*
X1643358Y311150D01*
X1638280D01*
X1635740Y313689D01*
Y323846D01*
X1658593Y311150D02*
Y326385D01*
X1650975Y318768D01*
X1661132D01*
X1574800Y280670D02*
Y295905D01*
X1582417D01*
X1584957Y293366D01*
Y288288D01*
X1582417Y285748D01*
X1574800D01*
X1590035Y280670D02*
Y295905D01*
X1597653D01*
X1600192Y293366D01*
Y288288D01*
X1597653Y285748D01*
X1590035D01*
X1605270Y288288D02*
X1615427D01*
X1620505Y293366D02*
X1623044Y295905D01*
X1628123D01*
X1630662Y293366D01*
Y283209D01*
X1628123Y280670D01*
X1623044D01*
X1620505Y283209D01*
Y293366D01*
X1635740D02*
X1638280Y295905D01*
X1643358D01*
X1645897Y293366D01*
Y283209D01*
X1643358Y280670D01*
X1638280D01*
X1635740Y283209D01*
Y293366D01*
X1661132Y295905D02*
X1656054Y293366D01*
X1650975Y288288D01*
Y283209D01*
X1653515Y280670D01*
X1658593D01*
X1661132Y283209D01*
Y285748D01*
X1658593Y288288D01*
X1650975D01*
X1584957Y232406D02*
X1582417Y234945D01*
X1577339D01*
X1574800Y232406D01*
Y229867D01*
X1577339Y227327D01*
X1582417D01*
X1584957Y224788D01*
Y222249D01*
X1582417Y219710D01*
X1577339D01*
X1574800Y222249D01*
X1592574Y219710D02*
X1597653D01*
X1600192Y222249D01*
Y227327D01*
X1597653Y229867D01*
X1592574D01*
X1590035Y227327D01*
Y222249D01*
X1592574Y219710D01*
X1605270D02*
X1610349D01*
X1607809D01*
Y234945D01*
X1605270D01*
X1628123D02*
Y219710D01*
X1620505D01*
X1617966Y222249D01*
Y227327D01*
X1620505Y229867D01*
X1628123D01*
X1640819Y219710D02*
X1635740D01*
X1633201Y222249D01*
Y227327D01*
X1635740Y229867D01*
X1640819D01*
X1643358Y227327D01*
Y224788D01*
X1633201D01*
X1648436Y229867D02*
Y219710D01*
Y224788D01*
X1650975Y227327D01*
X1653515Y229867D01*
X1656054D01*
X1678906Y219710D02*
Y234945D01*
X1686524D01*
X1689063Y232406D01*
Y227327D01*
X1686524Y224788D01*
X1678906D01*
X1683985D02*
X1689063Y219710D01*
X1701759D02*
X1696681D01*
X1694141Y222249D01*
Y227327D01*
X1696681Y229867D01*
X1701759D01*
X1704298Y227327D01*
Y224788D01*
X1694141D01*
X1709377Y219710D02*
X1716994D01*
X1719533Y222249D01*
X1716994Y224788D01*
X1711916D01*
X1709377Y227327D01*
X1711916Y229867D01*
X1719533D01*
X1724612Y219710D02*
X1729690D01*
X1727151D01*
Y229867D01*
X1724612D01*
X1737307Y219710D02*
X1744925D01*
X1747464Y222249D01*
X1744925Y224788D01*
X1739847D01*
X1737307Y227327D01*
X1739847Y229867D01*
X1747464D01*
X1755082Y232406D02*
Y229867D01*
X1752543D01*
X1757621D01*
X1755082D01*
Y222249D01*
X1757621Y219710D01*
X1574800Y524510D02*
Y539745D01*
X1579878Y534667D01*
X1584957Y539745D01*
Y524510D01*
X1592574Y534667D02*
X1597653D01*
X1600192Y532127D01*
Y524510D01*
X1592574D01*
X1590035Y527049D01*
X1592574Y529588D01*
X1600192D01*
X1607809Y537206D02*
Y534667D01*
X1605270D01*
X1610349D01*
X1607809D01*
Y527049D01*
X1610349Y524510D01*
X1625584D02*
X1620505D01*
X1617966Y527049D01*
Y532127D01*
X1620505Y534667D01*
X1625584D01*
X1628123Y532127D01*
Y529588D01*
X1617966D01*
X1633201Y534667D02*
Y524510D01*
Y529588D01*
X1635740Y532127D01*
X1638280Y534667D01*
X1640819D01*
X1648436Y524510D02*
X1653515D01*
X1650975D01*
Y534667D01*
X1648436D01*
X1663671D02*
X1668750D01*
X1671289Y532127D01*
Y524510D01*
X1663671D01*
X1661132Y527049D01*
X1663671Y529588D01*
X1671289D01*
X1676367Y524510D02*
X1681445D01*
X1678906D01*
Y539745D01*
X1676367D01*
X1338645Y509265D02*
X1348802D01*
X1343723D01*
Y494030D01*
X1356419D02*
X1361497D01*
X1364037Y496569D01*
Y501647D01*
X1361497Y504187D01*
X1356419D01*
X1353880Y501647D01*
Y496569D01*
X1356419Y494030D01*
X1369115Y488952D02*
Y504187D01*
X1376733D01*
X1379272Y501647D01*
Y496569D01*
X1376733Y494030D01*
X1369115D01*
X1407203Y509265D02*
X1402124D01*
X1399585Y506726D01*
Y496569D01*
X1402124Y494030D01*
X1407203D01*
X1409742Y496569D01*
Y506726D01*
X1407203Y509265D01*
X1414820Y504187D02*
X1419899Y494030D01*
X1424977Y504187D01*
X1437673Y494030D02*
X1432594D01*
X1430055Y496569D01*
Y501647D01*
X1432594Y504187D01*
X1437673D01*
X1440212Y501647D01*
Y499108D01*
X1430055D01*
X1445290Y504187D02*
Y494030D01*
Y499108D01*
X1447830Y501647D01*
X1450369Y504187D01*
X1452908D01*
X1460526Y494030D02*
X1465604D01*
X1463065D01*
Y509265D01*
X1460526D01*
X1475760Y504187D02*
X1480839D01*
X1483378Y501647D01*
Y494030D01*
X1475760D01*
X1473221Y496569D01*
X1475760Y499108D01*
X1483378D01*
X1488456Y504187D02*
Y496569D01*
X1490996Y494030D01*
X1498613D01*
Y491491D01*
X1496074Y488952D01*
X1493535D01*
X1498613Y494030D02*
Y504187D01*
X1338645Y478785D02*
X1348802D01*
X1343723D01*
Y463550D01*
X1356419D02*
X1361497D01*
X1364037Y466089D01*
Y471167D01*
X1361497Y473707D01*
X1356419D01*
X1353880Y471167D01*
Y466089D01*
X1356419Y463550D01*
X1369115Y458472D02*
Y473707D01*
X1376733D01*
X1379272Y471167D01*
Y466089D01*
X1376733Y463550D01*
X1369115D01*
X1409742Y476246D02*
X1407203Y478785D01*
X1402124D01*
X1399585Y476246D01*
Y473707D01*
X1402124Y471167D01*
X1407203D01*
X1409742Y468628D01*
Y466089D01*
X1407203Y463550D01*
X1402124D01*
X1399585Y466089D01*
X1417359Y463550D02*
X1422438D01*
X1424977Y466089D01*
Y471167D01*
X1422438Y473707D01*
X1417359D01*
X1414820Y471167D01*
Y466089D01*
X1417359Y463550D01*
X1430055D02*
X1435134D01*
X1432594D01*
Y478785D01*
X1430055D01*
X1452908D02*
Y463550D01*
X1445290D01*
X1442751Y466089D01*
Y471167D01*
X1445290Y473707D01*
X1452908D01*
X1465604Y463550D02*
X1460526D01*
X1457986Y466089D01*
Y471167D01*
X1460526Y473707D01*
X1465604D01*
X1468143Y471167D01*
Y468628D01*
X1457986D01*
X1473221Y473707D02*
Y463550D01*
Y468628D01*
X1475760Y471167D01*
X1478300Y473707D01*
X1480839D01*
X1338645Y448305D02*
X1348802D01*
X1343723D01*
Y433070D01*
X1356419D02*
X1361497D01*
X1364037Y435609D01*
Y440687D01*
X1361497Y443227D01*
X1356419D01*
X1353880Y440687D01*
Y435609D01*
X1356419Y433070D01*
X1369115Y427992D02*
Y443227D01*
X1376733D01*
X1379272Y440687D01*
Y435609D01*
X1376733Y433070D01*
X1369115D01*
X1399585Y448305D02*
Y433070D01*
X1409742D01*
X1417359Y443227D02*
X1422438D01*
X1424977Y440687D01*
Y433070D01*
X1417359D01*
X1414820Y435609D01*
X1417359Y438148D01*
X1424977D01*
X1430055Y443227D02*
Y435609D01*
X1432594Y433070D01*
X1440212D01*
Y430531D01*
X1437673Y427992D01*
X1435134D01*
X1440212Y433070D02*
Y443227D01*
X1452908Y433070D02*
X1447830D01*
X1445290Y435609D01*
Y440687D01*
X1447830Y443227D01*
X1452908D01*
X1455447Y440687D01*
Y438148D01*
X1445290D01*
X1460526Y443227D02*
Y433070D01*
Y438148D01*
X1463065Y440687D01*
X1465604Y443227D01*
X1468143D01*
X1338645Y417825D02*
Y402590D01*
X1346262D01*
X1348802Y405129D01*
Y415286D01*
X1346262Y417825D01*
X1338645D01*
X1353880Y402590D02*
X1358958D01*
X1356419D01*
Y412747D01*
X1353880D01*
X1374193Y402590D02*
X1369115D01*
X1366576Y405129D01*
Y410207D01*
X1369115Y412747D01*
X1374193D01*
X1376733Y410207D01*
Y407668D01*
X1366576D01*
X1381811Y402590D02*
X1386889D01*
X1384350D01*
Y417825D01*
X1381811D01*
X1402124Y402590D02*
X1397046D01*
X1394507Y405129D01*
Y410207D01*
X1397046Y412747D01*
X1402124D01*
X1404664Y410207D01*
Y407668D01*
X1394507D01*
X1419899Y412747D02*
X1412281D01*
X1409742Y410207D01*
Y405129D01*
X1412281Y402590D01*
X1419899D01*
X1427516Y415286D02*
Y412747D01*
X1424977D01*
X1430055D01*
X1427516D01*
Y405129D01*
X1430055Y402590D01*
X1437673Y412747D02*
Y402590D01*
Y407668D01*
X1440212Y410207D01*
X1442751Y412747D01*
X1445290D01*
X1452908Y402590D02*
X1457986D01*
X1455447D01*
Y412747D01*
X1452908D01*
X1475760D02*
X1468143D01*
X1465604Y410207D01*
Y405129D01*
X1468143Y402590D01*
X1475760D01*
X1506231D02*
X1496074D01*
X1506231Y412747D01*
Y415286D01*
X1503692Y417825D01*
X1498613D01*
X1496074Y415286D01*
X1348802Y384806D02*
X1346262Y387345D01*
X1341184D01*
X1338645Y384806D01*
Y374649D01*
X1341184Y372110D01*
X1346262D01*
X1348802Y374649D01*
Y379728D01*
X1343723D01*
X1353880Y372110D02*
Y387345D01*
X1364037Y372110D01*
Y387345D01*
X1369115D02*
Y372110D01*
X1376733D01*
X1379272Y374649D01*
Y384806D01*
X1376733Y387345D01*
X1369115D01*
X1338645Y356865D02*
Y341630D01*
X1346262D01*
X1348802Y344169D01*
Y354326D01*
X1346262Y356865D01*
X1338645D01*
X1353880Y341630D02*
X1358958D01*
X1356419D01*
Y351787D01*
X1353880D01*
X1374193Y341630D02*
X1369115D01*
X1366576Y344169D01*
Y349248D01*
X1369115Y351787D01*
X1374193D01*
X1376733Y349248D01*
Y346708D01*
X1366576D01*
X1381811Y341630D02*
X1386889D01*
X1384350D01*
Y356865D01*
X1381811D01*
X1402124Y341630D02*
X1397046D01*
X1394507Y344169D01*
Y349248D01*
X1397046Y351787D01*
X1402124D01*
X1404664Y349248D01*
Y346708D01*
X1394507D01*
X1419899Y351787D02*
X1412281D01*
X1409742Y349248D01*
Y344169D01*
X1412281Y341630D01*
X1419899D01*
X1427516Y354326D02*
Y351787D01*
X1424977D01*
X1430055D01*
X1427516D01*
Y344169D01*
X1430055Y341630D01*
X1437673Y351787D02*
Y341630D01*
Y346708D01*
X1440212Y349248D01*
X1442751Y351787D01*
X1445290D01*
X1452908Y341630D02*
X1457986D01*
X1455447D01*
Y351787D01*
X1452908D01*
X1475760D02*
X1468143D01*
X1465604Y349248D01*
Y344169D01*
X1468143Y341630D01*
X1475760D01*
X1496074D02*
X1501152D01*
X1498613D01*
Y356865D01*
X1496074Y354326D01*
X1338645Y311150D02*
Y326385D01*
X1346262D01*
X1348802Y323846D01*
Y318768D01*
X1346262Y316228D01*
X1338645D01*
X1353880Y326385D02*
Y311150D01*
X1358958Y316228D01*
X1364037Y311150D01*
Y326385D01*
X1369115Y311150D02*
Y326385D01*
X1376733D01*
X1379272Y323846D01*
Y318768D01*
X1376733Y316228D01*
X1369115D01*
X1374193D02*
X1379272Y311150D01*
X1338645Y295905D02*
Y280670D01*
X1346262D01*
X1348802Y283209D01*
Y293366D01*
X1346262Y295905D01*
X1338645D01*
X1353880Y280670D02*
X1358958D01*
X1356419D01*
Y290827D01*
X1353880D01*
X1374193Y280670D02*
X1369115D01*
X1366576Y283209D01*
Y288288D01*
X1369115Y290827D01*
X1374193D01*
X1376733Y288288D01*
Y285748D01*
X1366576D01*
X1381811Y280670D02*
X1386889D01*
X1384350D01*
Y295905D01*
X1381811D01*
X1402124Y280670D02*
X1397046D01*
X1394507Y283209D01*
Y288288D01*
X1397046Y290827D01*
X1402124D01*
X1404664Y288288D01*
Y285748D01*
X1394507D01*
X1419899Y290827D02*
X1412281D01*
X1409742Y288288D01*
Y283209D01*
X1412281Y280670D01*
X1419899D01*
X1427516Y293366D02*
Y290827D01*
X1424977D01*
X1430055D01*
X1427516D01*
Y283209D01*
X1430055Y280670D01*
X1437673Y290827D02*
Y280670D01*
Y285748D01*
X1440212Y288288D01*
X1442751Y290827D01*
X1445290D01*
X1452908Y280670D02*
X1457986D01*
X1455447D01*
Y290827D01*
X1452908D01*
X1475760D02*
X1468143D01*
X1465604Y288288D01*
Y283209D01*
X1468143Y280670D01*
X1475760D01*
X1496074Y293366D02*
X1498613Y295905D01*
X1503692D01*
X1506231Y293366D01*
Y290827D01*
X1503692Y288288D01*
X1501152D01*
X1503692D01*
X1506231Y285748D01*
Y283209D01*
X1503692Y280670D01*
X1498613D01*
X1496074Y283209D01*
X1338645Y265425D02*
Y250190D01*
X1346262D01*
X1348802Y252729D01*
Y255268D01*
X1346262Y257808D01*
X1338645D01*
X1346262D01*
X1348802Y260347D01*
Y262886D01*
X1346262Y265425D01*
X1338645D01*
X1356419Y250190D02*
X1361497D01*
X1364037Y252729D01*
Y257808D01*
X1361497Y260347D01*
X1356419D01*
X1353880Y257808D01*
Y252729D01*
X1356419Y250190D01*
X1371654Y262886D02*
Y260347D01*
X1369115D01*
X1374193D01*
X1371654D01*
Y252729D01*
X1374193Y250190D01*
X1384350Y262886D02*
Y260347D01*
X1381811D01*
X1386889D01*
X1384350D01*
Y252729D01*
X1386889Y250190D01*
X1397046D02*
X1402124D01*
X1404664Y252729D01*
Y257808D01*
X1402124Y260347D01*
X1397046D01*
X1394507Y257808D01*
Y252729D01*
X1397046Y250190D01*
X1409742D02*
Y260347D01*
X1412281D01*
X1414820Y257808D01*
Y250190D01*
Y257808D01*
X1417359Y260347D01*
X1419899Y257808D01*
Y250190D01*
X1440212Y265425D02*
Y250190D01*
X1450369D01*
X1457986Y260347D02*
X1463065D01*
X1465604Y257808D01*
Y250190D01*
X1457986D01*
X1455447Y252729D01*
X1457986Y255268D01*
X1465604D01*
X1470682Y260347D02*
Y252729D01*
X1473221Y250190D01*
X1480839D01*
Y247651D01*
X1478300Y245112D01*
X1475760D01*
X1480839Y250190D02*
Y260347D01*
X1493535Y250190D02*
X1488456D01*
X1485917Y252729D01*
Y257808D01*
X1488456Y260347D01*
X1493535D01*
X1496074Y257808D01*
Y255268D01*
X1485917D01*
X1501152Y260347D02*
Y250190D01*
Y255268D01*
X1503692Y257808D01*
X1506231Y260347D01*
X1508770D01*
X1338645Y234945D02*
Y219710D01*
X1346262D01*
X1348802Y222249D01*
Y224788D01*
X1346262Y227327D01*
X1338645D01*
X1346262D01*
X1348802Y229867D01*
Y232406D01*
X1346262Y234945D01*
X1338645D01*
X1356419Y219710D02*
X1361497D01*
X1364037Y222249D01*
Y227327D01*
X1361497Y229867D01*
X1356419D01*
X1353880Y227327D01*
Y222249D01*
X1356419Y219710D01*
X1371654Y232406D02*
Y229867D01*
X1369115D01*
X1374193D01*
X1371654D01*
Y222249D01*
X1374193Y219710D01*
X1384350Y232406D02*
Y229867D01*
X1381811D01*
X1386889D01*
X1384350D01*
Y222249D01*
X1386889Y219710D01*
X1397046D02*
X1402124D01*
X1404664Y222249D01*
Y227327D01*
X1402124Y229867D01*
X1397046D01*
X1394507Y227327D01*
Y222249D01*
X1397046Y219710D01*
X1409742D02*
Y229867D01*
X1412281D01*
X1414820Y227327D01*
Y219710D01*
Y227327D01*
X1417359Y229867D01*
X1419899Y227327D01*
Y219710D01*
X1450369Y232406D02*
X1447830Y234945D01*
X1442751D01*
X1440212Y232406D01*
Y229867D01*
X1442751Y227327D01*
X1447830D01*
X1450369Y224788D01*
Y222249D01*
X1447830Y219710D01*
X1442751D01*
X1440212Y222249D01*
X1457986Y219710D02*
X1463065D01*
X1465604Y222249D01*
Y227327D01*
X1463065Y229867D01*
X1457986D01*
X1455447Y227327D01*
Y222249D01*
X1457986Y219710D01*
X1470682D02*
X1475760D01*
X1473221D01*
Y234945D01*
X1470682D01*
X1493535D02*
Y219710D01*
X1485917D01*
X1483378Y222249D01*
Y227327D01*
X1485917Y229867D01*
X1493535D01*
X1506231Y219710D02*
X1501152D01*
X1498613Y222249D01*
Y227327D01*
X1501152Y229867D01*
X1506231D01*
X1508770Y227327D01*
Y224788D01*
X1498613D01*
X1513848Y229867D02*
Y219710D01*
Y224788D01*
X1516387Y227327D01*
X1518927Y229867D01*
X1521466D01*
X1338645Y204465D02*
Y189230D01*
X1346262D01*
X1348802Y191769D01*
Y194308D01*
X1346262Y196847D01*
X1338645D01*
X1346262D01*
X1348802Y199387D01*
Y201926D01*
X1346262Y204465D01*
X1338645D01*
X1356419Y189230D02*
X1361497D01*
X1364037Y191769D01*
Y196847D01*
X1361497Y199387D01*
X1356419D01*
X1353880Y196847D01*
Y191769D01*
X1356419Y189230D01*
X1371654Y201926D02*
Y199387D01*
X1369115D01*
X1374193D01*
X1371654D01*
Y191769D01*
X1374193Y189230D01*
X1384350Y201926D02*
Y199387D01*
X1381811D01*
X1386889D01*
X1384350D01*
Y191769D01*
X1386889Y189230D01*
X1397046D02*
X1402124D01*
X1404664Y191769D01*
Y196847D01*
X1402124Y199387D01*
X1397046D01*
X1394507Y196847D01*
Y191769D01*
X1397046Y189230D01*
X1409742D02*
Y199387D01*
X1412281D01*
X1414820Y196847D01*
Y189230D01*
Y196847D01*
X1417359Y199387D01*
X1419899Y196847D01*
Y189230D01*
X1447830Y204465D02*
X1442751D01*
X1440212Y201926D01*
Y191769D01*
X1442751Y189230D01*
X1447830D01*
X1450369Y191769D01*
Y201926D01*
X1447830Y204465D01*
X1455447Y199387D02*
X1460526Y189230D01*
X1465604Y199387D01*
X1478300Y189230D02*
X1473221D01*
X1470682Y191769D01*
Y196847D01*
X1473221Y199387D01*
X1478300D01*
X1480839Y196847D01*
Y194308D01*
X1470682D01*
X1485917Y199387D02*
Y189230D01*
Y194308D01*
X1488456Y196847D01*
X1490996Y199387D01*
X1493535D01*
X1501152Y189230D02*
X1506231D01*
X1503692D01*
Y204465D01*
X1501152D01*
X1516387Y199387D02*
X1521466D01*
X1524005Y196847D01*
Y189230D01*
X1516387D01*
X1513848Y191769D01*
X1516387Y194308D01*
X1524005D01*
X1529083Y199387D02*
Y191769D01*
X1531622Y189230D01*
X1539240D01*
Y186691D01*
X1536701Y184152D01*
X1534162D01*
X1539240Y189230D02*
Y199387D01*
X1338645Y524510D02*
Y539745D01*
X1348802Y524510D01*
Y539745D01*
X1356419Y534667D02*
X1361497D01*
X1364037Y532127D01*
Y524510D01*
X1356419D01*
X1353880Y527049D01*
X1356419Y529588D01*
X1364037D01*
X1369115Y524510D02*
Y534667D01*
X1371654D01*
X1374193Y532127D01*
Y524510D01*
Y532127D01*
X1376733Y534667D01*
X1379272Y532127D01*
Y524510D01*
X1391968D02*
X1386889D01*
X1384350Y527049D01*
Y532127D01*
X1386889Y534667D01*
X1391968D01*
X1394507Y532127D01*
Y529588D01*
X1384350D01*
X1234527Y433070D02*
X1239605D01*
X1237066D01*
Y448305D01*
X1234527Y445766D01*
X1244684Y372110D02*
X1234527D01*
X1244684Y382267D01*
Y384806D01*
X1242145Y387345D01*
X1237066D01*
X1234527Y384806D01*
Y323846D02*
X1237066Y326385D01*
X1242145D01*
X1244684Y323846D01*
Y321307D01*
X1242145Y318768D01*
X1239605D01*
X1242145D01*
X1244684Y316228D01*
Y313689D01*
X1242145Y311150D01*
X1237066D01*
X1234527Y313689D01*
X1242145Y250190D02*
Y265425D01*
X1234527Y257808D01*
X1244684D01*
X1234527Y539745D02*
Y524510D01*
X1244684D01*
X1252301Y534667D02*
X1257380D01*
X1259919Y532127D01*
Y524510D01*
X1252301D01*
X1249762Y527049D01*
X1252301Y529588D01*
X1259919D01*
X1264997Y534667D02*
Y527049D01*
X1267536Y524510D01*
X1275154D01*
Y521971D01*
X1272615Y519432D01*
X1270076D01*
X1275154Y524510D02*
Y534667D01*
X1287850Y524510D02*
X1282771D01*
X1280232Y527049D01*
Y532127D01*
X1282771Y534667D01*
X1287850D01*
X1290389Y532127D01*
Y529588D01*
X1280232D01*
X1295467Y534667D02*
Y524510D01*
Y529588D01*
X1298006Y532127D01*
X1300546Y534667D01*
X1303085D01*
D17*
X544500Y523750D02*
D03*
Y509250D02*
D03*
X568500Y523750D02*
D03*
Y509250D02*
D03*
D18*
X587500Y523500D02*
D03*
Y507500D02*
D03*
D19*
X426840Y50605D02*
D03*
X431840D02*
D03*
X436840D02*
D03*
X441840D02*
D03*
Y73855D02*
D03*
X436840D02*
D03*
X431840D02*
D03*
X426840D02*
D03*
D20*
X443465Y57230D02*
D03*
Y62230D02*
D03*
Y67230D02*
D03*
X425215D02*
D03*
Y62230D02*
D03*
Y57230D02*
D03*
D21*
X524523Y394205D02*
D03*
X540786Y377942D02*
D03*
X528058Y365214D02*
D03*
X511795Y381478D02*
D03*
D22*
X496874Y368126D02*
D03*
X507127Y357873D02*
D03*
D23*
X550581Y397419D02*
D03*
X559419Y388581D02*
D03*
D24*
X505685Y400154D02*
D03*
X496846Y391315D02*
D03*
D25*
X485346Y478649D02*
D03*
X492946D02*
D03*
D26*
X556895Y350594D02*
D03*
X553359Y347059D02*
D03*
X549823Y343523D02*
D03*
X546288Y339988D02*
D03*
X542752Y336452D02*
D03*
X539217Y332917D02*
D03*
X535681Y329381D02*
D03*
X532146Y325846D02*
D03*
X528610Y322310D02*
D03*
X525075Y318775D02*
D03*
X521539Y315239D02*
D03*
X518004Y311704D02*
D03*
X514468Y308168D02*
D03*
X510933Y304632D02*
D03*
X507397Y301097D02*
D03*
X503862Y297561D02*
D03*
X583058Y218365D02*
D03*
X586593Y221901D02*
D03*
X590129Y225437D02*
D03*
X593664Y228972D02*
D03*
X597200Y232508D02*
D03*
X600735Y236043D02*
D03*
X604271Y239579D02*
D03*
X607806Y243114D02*
D03*
X611342Y246650D02*
D03*
X614877Y250185D02*
D03*
X618413Y253721D02*
D03*
X621948Y257256D02*
D03*
X625484Y260792D02*
D03*
X629019Y264328D02*
D03*
X632555Y267863D02*
D03*
X636091Y271399D02*
D03*
D27*
X503862D02*
D03*
X507397Y267863D02*
D03*
X510933Y264328D02*
D03*
X514468Y260792D02*
D03*
X518004Y257256D02*
D03*
X521539Y253721D02*
D03*
X525075Y250185D02*
D03*
X528610Y246650D02*
D03*
X532146Y243114D02*
D03*
X535681Y239579D02*
D03*
X539217Y236043D02*
D03*
X542752Y232508D02*
D03*
X546288Y228972D02*
D03*
X549823Y225437D02*
D03*
X553359Y221901D02*
D03*
X556894Y218365D02*
D03*
X636091Y297561D02*
D03*
X632555Y301097D02*
D03*
X629019Y304632D02*
D03*
X625484Y308168D02*
D03*
X621948Y311704D02*
D03*
X618413Y315239D02*
D03*
X614877Y318775D02*
D03*
X611342Y322310D02*
D03*
X607806Y325846D02*
D03*
X604271Y329381D02*
D03*
X600735Y332917D02*
D03*
X597200Y336452D02*
D03*
X593664Y339988D02*
D03*
X590129Y343523D02*
D03*
X586593Y347059D02*
D03*
X583058Y350594D02*
D03*
D28*
X459981Y218185D02*
D03*
X471295Y229499D02*
D03*
X599082Y394790D02*
D03*
X587768Y383476D02*
D03*
X464820Y295384D02*
D03*
X476134Y306698D02*
D03*
X575484Y165086D02*
D03*
X564170Y153772D02*
D03*
D29*
X692000Y275000D02*
D03*
X676000Y275000D02*
D03*
X131230Y73020D02*
D03*
X147231Y73020D02*
D03*
X500760Y53340D02*
D03*
X484760Y53340D02*
D03*
X500760Y33020D02*
D03*
X484760Y33020D02*
D03*
X502030Y93980D02*
D03*
X486030Y93980D02*
D03*
X951100Y367030D02*
D03*
X966600D02*
D03*
Y382270D02*
D03*
X951100D02*
D03*
X836470Y367030D02*
D03*
X851970D02*
D03*
X852300Y382270D02*
D03*
X836800D02*
D03*
D30*
X656205Y396204D02*
D03*
X647000Y387000D02*
D03*
X498578Y179608D02*
D03*
X489374Y170404D02*
D03*
D31*
X573950Y398203D02*
D03*
X592335Y416588D02*
D03*
X435563Y223811D02*
D03*
X453948Y242196D02*
D03*
D32*
X617227Y356087D02*
D03*
X626773Y365634D02*
D03*
X512117Y188267D02*
D03*
X521663Y197813D02*
D03*
D33*
X669000Y254000D02*
D03*
X680544D02*
D03*
D34*
X713500Y522000D02*
D03*
X732500D02*
D03*
X723000Y546000D02*
D03*
D35*
X197660Y459740D02*
D03*
X330660D02*
D03*
D36*
X675750Y89250D02*
D03*
X675750Y105250D02*
D03*
X816610Y337950D02*
D03*
Y322450D02*
D03*
X866028Y178642D02*
D03*
Y194142D02*
D03*
X932180Y412880D02*
D03*
Y397380D02*
D03*
Y327530D02*
D03*
Y343030D02*
D03*
D37*
X654000Y116500D02*
D03*
Y90500D02*
D03*
X135176Y53380D02*
D03*
Y27380D02*
D03*
D38*
X846690Y68580D02*
D03*
X860190D02*
D03*
X1012590D02*
D03*
X999090D02*
D03*
X961790D02*
D03*
X948290D02*
D03*
X910990D02*
D03*
X897490D02*
D03*
X809390D02*
D03*
X795890D02*
D03*
D39*
X463401Y320635D02*
D03*
X449613Y306847D02*
D03*
D40*
X396750Y509250D02*
D03*
Y466950D02*
D03*
X653000Y498850D02*
D03*
Y541150D02*
D03*
D41*
X616000Y502250D02*
D03*
Y529250D02*
D03*
D42*
X94325Y311760D02*
D03*
Y292760D02*
D03*
X73315D02*
D03*
Y302260D02*
D03*
D43*
Y311760D02*
D03*
D44*
X376655Y39377D02*
D03*
X363637D02*
D03*
X377349Y71120D02*
D03*
X364331D02*
D03*
X74051Y274802D02*
D03*
X87069D02*
D03*
D45*
X186612Y74018D02*
D03*
Y61518D02*
D03*
Y49018D02*
D03*
Y36518D02*
D03*
X208612D02*
D03*
Y49018D02*
D03*
Y61518D02*
D03*
Y74018D02*
D03*
D46*
X1072090Y271480D02*
D03*
Y297480D02*
D03*
Y277980D02*
D03*
Y284480D02*
D03*
Y290980D02*
D03*
D47*
X1035000Y280000D02*
D03*
X1021000Y275000D02*
D03*
Y285000D02*
D03*
D48*
X676780Y31750D02*
D03*
Y44450D02*
D03*
Y57150D02*
D03*
Y69850D02*
D03*
X628780Y31750D02*
D03*
Y44450D02*
D03*
Y57150D02*
D03*
Y69850D02*
D03*
D49*
X482600Y73660D02*
D03*
X502100D02*
D03*
D50*
X349000Y321000D02*
D03*
X295000D02*
D03*
D51*
X380000Y303500D02*
D03*
Y288500D02*
D03*
D52*
X957580Y325570D02*
D03*
X967080Y350070D02*
D03*
X948080D02*
D03*
X957580Y423730D02*
D03*
X948080Y399230D02*
D03*
X967080D02*
D03*
X844550Y423730D02*
D03*
X835050Y399230D02*
D03*
X854050D02*
D03*
X843280Y325570D02*
D03*
X852780Y350070D02*
D03*
X833780D02*
D03*
D53*
X817880Y406600D02*
D03*
Y419100D02*
D03*
X73660Y339190D02*
D03*
Y351690D02*
D03*
D54*
X993140Y43180D02*
D03*
X1018540D02*
D03*
X942340D02*
D03*
X967740D02*
D03*
X891540D02*
D03*
X916940D02*
D03*
X840740D02*
D03*
X866140D02*
D03*
X789940D02*
D03*
X815340D02*
D03*
D55*
X550746Y166348D02*
D03*
X558908Y174511D02*
D03*
D56*
X911298Y186392D02*
D03*
X886798Y195892D02*
D03*
Y176892D02*
D03*
D57*
X88052Y251942D02*
D03*
X74051D02*
D03*
D58*
X93980Y354360D02*
D03*
Y340360D02*
D03*
D59*
X463489Y500380D02*
D03*
Y538480D02*
D03*
X511810D02*
D03*
D60*
X462910Y513080D02*
D03*
Y525780D02*
D03*
X512389D02*
D03*
X512390Y513080D02*
D03*
D61*
X511810Y500380D02*
D03*
D62*
X418000Y416000D02*
D03*
X384000D02*
D03*
X417000Y382000D02*
D03*
X383000D02*
D03*
D93*
X487649Y519430D02*
D03*
D102*
X73533Y102108D02*
D03*
Y172212D02*
D03*
D103*
X48641Y112141D02*
D03*
D104*
Y162179D02*
D03*
D107*
X20154Y261306D02*
G03*
X20154Y257870I7786J-1718D01*
G01*
X560761Y307657D02*
G03*
X561745Y307683I249J9240D01*
G01*
X415191Y158651D02*
X495300Y238760D01*
X415191Y107950D02*
Y158651D01*
X427990Y163830D02*
X500380Y236220D01*
X427990Y101600D02*
Y163830D01*
X421640Y95250D02*
X427990Y101600D01*
X378619Y71120D02*
Y91599D01*
X382270Y95250D02*
X421640D01*
X750570Y372110D02*
X762000Y360680D01*
X696497Y372110D02*
X750570D01*
X762000Y312420D02*
Y360680D01*
X629019Y304632D02*
X696497Y372110D01*
X576940Y139429D02*
X577517D01*
X583015Y144927D01*
X515376Y356757D02*
X539217Y332917D01*
X511071Y358441D02*
X512755Y356757D01*
X509010D02*
X510694Y358441D01*
X512755Y356757D02*
X515376D01*
X510694Y358441D02*
X511071D01*
X861060Y297180D02*
X902758Y338878D01*
X770890Y313690D02*
X787400Y297180D01*
X861060D01*
X786130Y288290D02*
X891690D01*
X762000Y312420D02*
X786130Y288290D01*
X891690D02*
X930930Y327530D01*
X778510Y359565D02*
X785015Y353060D01*
X778510Y359565D02*
Y375920D01*
X768350Y386080D02*
X778510Y375920D01*
X762000Y381000D02*
X770890Y372110D01*
X625484Y308168D02*
X698316Y381000D01*
X762000D01*
X696325Y386080D02*
X768350D01*
X621948Y311704D02*
X696325Y386080D01*
X722274Y419100D02*
X818630D01*
X618413Y315239D02*
X722274Y419100D01*
X640415Y308099D02*
X649715Y317400D01*
X660400D02*
X679000Y336000D01*
X649715Y317400D02*
X660400D01*
X632900Y301097D02*
X639903Y308099D01*
X632555Y301097D02*
X632900D01*
X639903Y308099D02*
X640415D01*
X664962Y250190D02*
X668772Y254000D01*
X650228Y250190D02*
X664962D01*
X632555Y267863D02*
X650228Y250190D01*
X668772Y254000D02*
X669000D01*
X664890Y262890D02*
X677000Y275000D01*
X644945Y262890D02*
X664890D01*
X636436Y271399D02*
X644945Y262890D01*
X744377Y100330D02*
X912186D01*
X612130Y232577D02*
X744377Y100330D01*
X611618Y232577D02*
X612130D01*
X604616Y239579D02*
X611618Y232577D01*
X604271Y239579D02*
X604616D01*
X912186Y100330D02*
X936316Y76200D01*
X743656Y93980D02*
X868680D01*
X608595Y229041D02*
X743656Y93980D01*
X608083Y229041D02*
X608595D01*
X601081Y236043D02*
X608083Y229041D01*
X868680Y93980D02*
X886460Y76200D01*
X600735Y236043D02*
X601081D01*
X745475Y85090D02*
X821690D01*
X605059Y225505D02*
X745475Y85090D01*
X604547Y225505D02*
X605059D01*
X821690Y85090D02*
X830580Y76200D01*
X597545Y232508D02*
X604547Y225505D01*
X597200Y232508D02*
X597545D01*
X601524Y221970D02*
X747294Y76200D01*
X790668D01*
X695549Y63051D02*
Y108361D01*
X593815Y210095D02*
Y213822D01*
Y210095D02*
X695549Y108361D01*
X704850Y56185D02*
Y110370D01*
X590129Y225091D02*
X704850Y110370D01*
X538756Y298174D02*
Y305093D01*
X579205Y257725D02*
X582275D01*
X583000Y257000D01*
X538756Y298174D02*
X579205Y257725D01*
X521539Y314894D02*
X532130Y304303D01*
Y288290D02*
X571000Y249420D01*
X532130Y288290D02*
Y304303D01*
X521539Y314894D02*
Y315239D01*
X571000Y243000D02*
Y249420D01*
X533682Y352518D02*
X541493Y360329D01*
X533682Y345523D02*
X542752Y336452D01*
X533682Y345523D02*
Y352518D01*
X548458Y359031D02*
Y360458D01*
X557000Y369000D01*
X548458Y359031D02*
X556895Y350594D01*
X689649Y57150D02*
X695549Y63051D01*
X676780Y57150D02*
X689649D01*
X687221Y38556D02*
X704850Y56185D01*
X610870Y107950D02*
Y179070D01*
X655276Y49054D02*
Y63544D01*
X610870Y107950D02*
X655276Y63544D01*
X600710Y87630D02*
X617672Y70668D01*
X627962D01*
X600710Y87630D02*
Y176530D01*
X627962Y70668D02*
X628780Y69850D01*
X572300Y217640D02*
X610870Y179070D01*
X566737Y210503D02*
X600710Y176530D01*
X572300Y217640D02*
Y230340D01*
X566737Y210503D02*
Y221994D01*
X556421Y238760D02*
X563880D01*
X546633Y228972D02*
X556421Y238760D01*
X563880D02*
X572300Y230340D01*
X566737Y221994D02*
X567652Y222910D01*
X561543Y232659D02*
X565078Y229123D01*
X567652Y222910D02*
Y226549D01*
X565078Y229123D02*
X567652Y226549D01*
X565078Y229123D02*
X565078D01*
X539750Y202293D02*
Y207947D01*
Y202293D02*
X558872Y183171D01*
X539750Y207947D02*
X553359Y221556D01*
X532130Y221885D02*
X542752Y232508D01*
X532130Y208280D02*
Y221885D01*
X521663Y197813D02*
X532130Y208280D01*
X521970Y226060D02*
Y232593D01*
X473909Y177999D02*
X521970Y226060D01*
Y232593D02*
X532146Y242769D01*
X516890Y234584D02*
X528610Y246304D01*
X516890Y229870D02*
Y234584D01*
X464820Y177800D02*
X516890Y229870D01*
X452120Y173990D02*
X510540Y232410D01*
Y235305D01*
X525075Y249840D01*
X464820Y86964D02*
Y177800D01*
X473909Y116975D02*
Y177999D01*
X574600Y165970D02*
Y174400D01*
X546100Y202900D02*
X574600Y174400D01*
X546100Y202900D02*
Y206981D01*
X556894Y217776D01*
Y218365D01*
X558872Y176602D02*
Y183171D01*
X557647Y175377D02*
X558872Y176602D01*
X506632Y197813D02*
X516164D01*
X516694Y198343D01*
X521133D02*
X521663Y197813D01*
X516694Y198343D02*
X521133D01*
X498578Y189759D02*
X506632Y197813D01*
X498578Y184486D02*
Y189759D01*
X498204Y179981D02*
X498578Y179608D01*
X498204Y179981D02*
Y184112D01*
X498578Y184486D01*
X463810Y85954D02*
X464820Y86964D01*
X445222Y85954D02*
X463810D01*
X452120Y116840D02*
Y173990D01*
X436880Y111760D02*
Y166370D01*
X521285Y253975D02*
X521539Y254229D01*
X436880Y111760D02*
X452120Y96520D01*
X532146Y242769D02*
Y243114D01*
X528610Y246304D02*
Y246650D01*
X525075Y249840D02*
Y250185D01*
X505741Y235231D02*
Y237922D01*
X436880Y166370D02*
X505741Y235231D01*
X500380Y236220D02*
Y239633D01*
X518004Y257256D01*
X505741Y237922D02*
X521539Y253721D01*
X495300Y238760D02*
Y241624D01*
X514468Y260792D01*
X48641Y162179D02*
X58420Y171958D01*
Y187960D02*
X74051Y203591D01*
X58420Y171958D02*
Y187960D01*
X23155Y208575D02*
Y243444D01*
X22860Y208280D02*
X23155Y208575D01*
X20154Y246445D02*
X23155Y243444D01*
X412000Y297588D02*
Y303000D01*
X12998Y247094D02*
Y270046D01*
X15535Y220422D02*
Y244558D01*
X27940Y249350D02*
X32335Y244956D01*
Y198032D02*
Y244956D01*
X12998Y247094D02*
X15535Y244558D01*
X97025Y337565D02*
X107263Y327326D01*
Y326487D02*
Y327326D01*
X20154Y264502D02*
X27940Y272288D01*
X20154Y246445D02*
Y257870D01*
Y261306D02*
Y264502D01*
X513000Y341304D02*
X523758D01*
X535681Y329381D01*
X1044834Y280416D02*
X1045250Y280833D01*
X1035416Y280416D02*
X1044834D01*
X1035000Y280000D02*
X1035416Y280416D01*
X474978Y249022D02*
X475000Y249000D01*
X453948Y242196D02*
X460774Y249022D01*
X474978D01*
X446535Y265035D02*
X497498D01*
X258000Y40000D02*
Y76500D01*
X446535Y265035D01*
X423877Y212750D02*
X434939Y223811D01*
X435563D01*
X411000Y212750D02*
X423877D01*
X956008Y363642D02*
X967080Y352570D01*
X953238Y363642D02*
X956008D01*
X951100Y365780D02*
X953238Y363642D01*
X902758Y369008D02*
X928792Y395042D01*
Y398036D01*
X902758Y338878D02*
Y369008D01*
X818630Y419100D02*
X821268Y416462D01*
Y415764D02*
X833162Y403870D01*
X821268Y415764D02*
Y416462D01*
X833162Y401118D02*
Y403870D01*
Y401118D02*
X835050Y399230D01*
X476548Y57230D02*
X480184Y53594D01*
X443465Y57230D02*
X476548D01*
X480184Y53594D02*
X484505D01*
X475614Y58164D02*
X476548Y57230D01*
X475614Y58164D02*
Y76136D01*
X484505Y53594D02*
X484760Y53340D01*
X523728Y511638D02*
X542112D01*
X512390Y513080D02*
X522287D01*
X523728Y511638D01*
X540862Y526138D02*
Y527388D01*
X511810Y538480D02*
X529770D01*
X540862Y526138D02*
X543250Y523750D01*
X529770Y538480D02*
X540862Y527388D01*
X543250Y523750D02*
X544500D01*
X951100Y365780D02*
Y382270D01*
X967080Y350070D02*
Y352570D01*
X491490Y124460D02*
Y124878D01*
X484771Y131596D02*
X491490Y124878D01*
X484771Y131596D02*
Y172460D01*
X474277Y111320D02*
X476378Y109220D01*
X473909Y116975D02*
X474277Y116606D01*
Y111320D02*
Y116606D01*
X437196Y74211D02*
Y77929D01*
X445222Y85954D01*
X436840Y73855D02*
X437196Y74211D01*
X252278Y34278D02*
X258000Y40000D01*
X208612Y34278D02*
X252278D01*
X384000Y416000D02*
Y417522D01*
X197660Y459740D02*
X234490Y422910D01*
X378612D02*
X384000Y417522D01*
X234490Y422910D02*
X378612D01*
X142315Y56768D02*
Y57225D01*
X135176Y53380D02*
X138926D01*
X142315Y57225D02*
X147231Y62141D01*
Y73020D01*
X138926Y53380D02*
X142315Y56768D01*
X147231Y73020D02*
X147859Y73648D01*
X145834Y20350D02*
X168650D01*
X142315Y23870D02*
X145834Y20350D01*
X135176Y27380D02*
X138926D01*
X142315Y23870D02*
Y23992D01*
X138926Y27380D02*
X142315Y23992D01*
X380103Y35928D02*
X386301Y29731D01*
X391909D01*
X393700Y27940D01*
X376655Y38849D02*
Y39906D01*
X379575Y35928D02*
X380103D01*
X376655Y38849D02*
X379575Y35928D01*
X365760Y35560D02*
X388570Y12750D01*
X465740D01*
X365760Y35560D02*
Y43180D01*
X465740Y12750D02*
X484760Y31770D01*
Y53340D01*
X844550Y396638D02*
Y423730D01*
X862330Y501650D02*
Y507746D01*
X631886Y122500D02*
X637886Y116500D01*
X654000D01*
X631250Y122500D02*
X631886D01*
X468500Y83250D02*
X470000Y81750D01*
X470000D01*
X475614Y76136D01*
X451235Y83250D02*
X468500D01*
X484280Y55069D02*
X484760Y54590D01*
Y53340D02*
Y54590D01*
X443853Y75868D02*
X451235Y83250D01*
X441840Y74980D02*
X442728Y75868D01*
X441840Y73855D02*
Y74980D01*
X442728Y75868D02*
X443853D01*
X63490Y318362D02*
X68151Y313701D01*
X35914Y318362D02*
X63490D01*
X68151Y313559D02*
Y313701D01*
X69950Y311760D02*
X73315D01*
X68151Y313559D02*
X69950Y311760D01*
X41350Y359400D02*
X52700D01*
X72910Y339190D01*
X73660D01*
X39250Y361500D02*
X41350Y359400D01*
X521069Y525780D02*
X530349Y516500D01*
X512389Y525780D02*
X521069D01*
X544500Y509210D02*
X548580D01*
X542112Y511638D02*
X544500Y509250D01*
X588050Y507500D02*
X593300Y502250D01*
X616000D01*
X587500Y507500D02*
X588050D01*
X616000Y502250D02*
X619400Y498850D01*
X653000D01*
X559172Y523710D02*
X589500D01*
X556672Y501118D02*
X581118D01*
X530349Y516500D02*
X551962D01*
X546060Y524980D02*
X547330Y523710D01*
X548580Y509210D02*
X556672Y501118D01*
X551962Y516500D02*
X559172Y523710D01*
X581118Y501118D02*
X583462Y503462D01*
Y504012D01*
X586950Y507500D01*
X587500D01*
X594412Y416588D02*
X609000Y402000D01*
X650409D01*
X656205Y396204D01*
X656205D01*
X484280Y55069D02*
Y71980D01*
X482600Y73660D02*
X484280Y71980D01*
X186242Y73648D02*
X186612Y74018D01*
X147859Y73648D02*
X186242D01*
X93025Y341065D02*
X93980D01*
X412000Y303000D02*
X439913D01*
X380500D02*
X412000D01*
X380000Y303500D02*
X380500Y303000D01*
X375362Y308138D02*
X380000Y303500D01*
X168650Y20350D02*
X170750Y18250D01*
X330660Y459740D02*
X380170Y509250D01*
X396750D01*
X408400D01*
X417270Y500380D01*
X627507Y355557D02*
X637938Y365988D01*
X617757Y355557D02*
X627507D01*
X617227Y356087D02*
X617757Y355557D01*
X616835Y356087D02*
X617227D01*
X597200Y336452D02*
X616835Y356087D01*
X637938Y365988D02*
Y373060D01*
X647374Y382496D01*
Y386627D01*
X647000Y387000D02*
X647374Y386627D01*
X592335Y416588D02*
X594412D01*
X575484Y165086D02*
X583015Y157555D01*
Y144927D02*
Y157555D01*
X574600Y165970D02*
X575484Y165086D01*
X186182Y34278D02*
X208612D01*
X866000Y194170D02*
X866028Y194142D01*
X866000Y194170D02*
Y214000D01*
X464820Y295384D02*
X464820D01*
X439913Y303000D02*
X444821Y307908D01*
X448552D02*
X449613Y306847D01*
X444821Y307908D02*
X448552D01*
X655276Y49054D02*
X659879Y44450D01*
X676780D01*
X653136Y26000D02*
X658886Y31750D01*
X652000Y26000D02*
X653136D01*
X658886Y31750D02*
X676780D01*
X642674Y38556D02*
X687221D01*
X636780Y44450D02*
X642674Y38556D01*
X557000Y369000D02*
X570000D01*
X349000Y321000D02*
X358500D01*
X371362Y308138D01*
X375362D01*
X358500Y321000D02*
X383000Y345500D01*
Y382000D01*
Y415000D02*
X384000Y416000D01*
X383000Y382000D02*
Y415000D01*
X541493Y360329D02*
Y377235D01*
X540786Y377942D02*
X541493Y377235D01*
X548053D01*
X548760Y377942D02*
X548781D01*
X548053Y377235D02*
X548760Y377942D01*
X548781D02*
X559419Y388581D01*
X559419D01*
X497873Y366127D02*
X511795Y380048D01*
X496581Y391581D02*
X497111Y391050D01*
X511795Y381478D02*
X511795D01*
X502222Y391050D02*
X511795Y381478D01*
X497111Y391050D02*
X502222D01*
X511795Y380048D02*
Y381478D01*
X197660Y459740D02*
X276400Y538480D01*
X463489D01*
X601244Y370000D02*
X602808D01*
X604000D01*
X573950Y397293D02*
X601244Y370000D01*
X682900Y283150D02*
Y292900D01*
X684000Y294000D01*
X677000Y275000D02*
Y277250D01*
X682900Y283150D01*
X636091Y271399D02*
X636436D01*
X553359Y221556D02*
Y221901D01*
X548000Y308000D02*
X560761Y307657D01*
X561009Y316897D02*
X568227Y310613D01*
X565717Y308000D02*
X567145D01*
X603595Y271550D01*
X561745Y307683D02*
X565717Y308000D01*
X589714Y290000D02*
X628184D01*
X568227Y310613D02*
X589714Y290000D01*
X525075Y318775D02*
X538756Y305093D01*
X603595Y271550D02*
X621452D01*
X628184Y290000D02*
X635745Y297561D01*
X636091D01*
X581000Y318000D02*
X588000Y311000D01*
X606757D01*
X614532Y318775D01*
X614877D01*
X598524Y55880D02*
X599159Y56515D01*
X628145D01*
X628780Y57150D01*
X550169Y225437D02*
X557391Y232659D01*
X561543D01*
X583058Y350594D02*
X583403D01*
X602808Y370000D01*
X573950Y397293D02*
Y398203D01*
X453948Y242196D02*
X458598D01*
X471295Y229499D02*
X472178Y228615D01*
X458598Y242196D02*
X471295Y229499D01*
X453948Y242196D02*
X453948D01*
X475202Y228615D02*
X475879Y229292D01*
X475953D02*
X510933Y264271D01*
X472178Y228615D02*
X475202D01*
X475879Y229292D02*
X475953D01*
X626773Y365634D02*
Y366494D01*
X621452Y271550D02*
X628166Y264835D01*
X497498Y265035D02*
X503862Y271399D01*
X238123Y46880D02*
X246493Y45607D01*
X210750Y46880D02*
X238123D01*
X208182Y71778D02*
X209452Y73048D01*
X245872D01*
X208182Y59278D02*
Y59380D01*
X209150Y60348D01*
X230632D01*
X208612Y49018D02*
X210750Y46880D01*
X933201Y344050D02*
Y362399D01*
X932180Y343030D02*
X933201Y344050D01*
X785015Y353060D02*
X810260D01*
X770890Y313690D02*
Y372110D01*
X815750Y307000D02*
Y321590D01*
X932180Y397380D02*
X946230D01*
X948080Y399230D01*
X94935Y337565D02*
Y339405D01*
X85740Y340360D02*
X93025D01*
X94935Y337565D02*
X97025D01*
X94325Y311760D02*
Y337565D01*
X93980Y340360D02*
X94935Y339405D01*
X815750Y321590D02*
X816610Y322450D01*
X1013170Y68000D02*
X1035500D01*
X1012590Y68580D02*
X1013170Y68000D01*
X85405Y287488D02*
X87069Y285824D01*
X85405Y287488D02*
Y306206D01*
X90959Y311760D02*
X94325D01*
X87069Y274802D02*
Y285824D01*
X85405Y306206D02*
X90959Y311760D01*
X73660Y351690D02*
X74410D01*
X85740Y340360D01*
X675750Y89250D02*
X676780Y88220D01*
Y69850D02*
Y88220D01*
X674500Y90500D02*
X675750Y89250D01*
X654000Y90500D02*
X674500D01*
X417270Y500380D02*
X463489D01*
X469809D02*
X471887Y498302D01*
X486220Y477520D02*
X486420D01*
X484482Y479258D02*
X486220Y477520D01*
X484482Y479258D02*
Y479387D01*
X471887Y491982D02*
X484482Y479387D01*
X471887Y491982D02*
Y498302D01*
X463489Y500380D02*
X469809D01*
X494020Y477520D02*
X494220D01*
X511810Y495110D02*
Y500380D01*
X494220Y477520D02*
X511810Y495110D01*
X12998Y270046D02*
X27940Y284988D01*
Y249350D02*
Y259588D01*
X74051Y203591D02*
Y251942D01*
Y274802D01*
X73315Y275538D02*
X74051Y274802D01*
X73315Y275538D02*
Y292760D01*
Y311760D02*
Y338845D01*
X73660Y339190D01*
X27940Y310388D02*
X35914Y318362D01*
X393915Y81065D02*
X403497D01*
X403497Y81065D01*
X393700Y81280D02*
X393915Y81065D01*
X403497Y81065D02*
X410255D01*
X441840Y49480D02*
Y50605D01*
Y49480D02*
X442728Y48592D01*
X443853D01*
X449265Y43180D01*
X464820D01*
X593664Y228972D02*
X594010D01*
X601012Y221970D02*
X601524D01*
X594010Y228972D02*
X601012Y221970D01*
X590129Y225091D02*
Y225437D01*
X586593Y221556D02*
X593595Y214553D01*
Y214042D02*
X593815Y213822D01*
X586593Y221556D02*
Y221901D01*
X593595Y214042D02*
Y214553D01*
X628780Y44450D02*
X636780D01*
X867778Y195892D02*
X886798D01*
X866028Y194142D02*
X867778Y195892D01*
X911298Y186392D02*
X1010852D01*
X1025120Y200660D01*
X546288Y228972D02*
X546633D01*
X549823Y225437D02*
X550169D01*
X476134Y306698D02*
X477018Y305815D01*
X514123Y308168D02*
X514468D01*
X506900Y315390D02*
X514123Y308168D01*
X489618Y315390D02*
X506900D01*
X480042Y305815D02*
X489618Y315390D01*
X477018Y305815D02*
X480042D01*
X930930Y327530D02*
X932180D01*
X817860Y340490D02*
X832780Y325570D01*
X816610Y340490D02*
X817860D01*
X816610D02*
Y346710D01*
Y337950D02*
Y340490D01*
X810260Y353060D02*
X816610Y346710D01*
X934140Y325570D02*
X957580D01*
X932180Y327530D02*
X934140Y325570D01*
X463401Y319431D02*
Y320635D01*
Y319431D02*
X476134Y306698D01*
X999090Y52880D02*
Y68580D01*
X993140Y46930D02*
X999090Y52880D01*
X993140Y43180D02*
Y46930D01*
X789940Y43180D02*
Y46930D01*
X795890Y52880D02*
Y68580D01*
X789940Y46930D02*
X795890Y52880D01*
X846690D02*
Y68580D01*
X840740Y46930D02*
X846690Y52880D01*
X840740Y43180D02*
Y46930D01*
X897490Y52880D02*
Y68580D01*
X891540Y46930D02*
X897490Y52880D01*
X891540Y43180D02*
Y46930D01*
X948290Y52880D02*
Y68580D01*
X942340Y46930D02*
X948290Y52880D01*
X942340Y43180D02*
Y46930D01*
X953512Y76200D02*
X954170D01*
X936316D02*
X943068D01*
X953489Y76224D02*
X953512Y76200D01*
X954170D02*
X961790Y68580D01*
X943068Y76200D02*
X943091Y76224D01*
X953489D01*
X902712Y76200D02*
X903370D01*
X892291Y76224D02*
X902689D01*
X903370Y76200D02*
X910990Y68580D01*
X902689Y76224D02*
X902712Y76200D01*
X886460D02*
X892268D01*
X892291Y76224D01*
X841491D02*
X851889D01*
X852570Y76200D02*
X860190Y68580D01*
X851889Y76224D02*
X851912Y76200D01*
X830580D02*
X841468D01*
X851912D02*
X852570D01*
X841468D02*
X841491Y76224D01*
X801112Y76200D02*
X801770D01*
X790668D02*
X790691Y76224D01*
X801770Y76200D02*
X809390Y68580D01*
X790691Y76224D02*
X801089D01*
X801112Y76200D01*
X393700Y55880D02*
X394375Y56555D01*
X424540D02*
X425215Y57230D01*
X394375Y56555D02*
X424540D01*
X398490Y42826D02*
X406269Y50605D01*
X426840D01*
X379575Y42826D02*
X398490D01*
X376655Y39906D02*
X379575Y42826D01*
X377349Y70592D02*
X380269Y67671D01*
X399015D01*
X377349Y70592D02*
Y71120D01*
X404456Y62230D02*
X425215D01*
X399015Y67671D02*
X404456Y62230D01*
X208182Y46778D02*
X208612D01*
X357981Y91599D02*
X378619D01*
X356870Y92710D02*
X357981Y91599D01*
X365601Y43339D02*
X365760Y43180D01*
X365601Y43339D02*
Y67310D01*
X378619Y91599D02*
X382270Y95250D01*
X410255Y81065D02*
X424090Y67230D01*
X425215D01*
X850462Y390943D02*
X852300Y389105D01*
X850244Y390943D02*
X850462D01*
X844550Y396638D02*
X850244Y390943D01*
X852300Y382270D02*
Y389105D01*
X957580Y392540D02*
Y423730D01*
Y392540D02*
X966600Y383520D01*
Y382270D02*
Y383520D01*
X832780Y325570D02*
X843280D01*
X836470Y365780D02*
X847792Y354458D01*
X850892D01*
X836470Y365780D02*
Y367030D01*
X850892Y354458D02*
X852780Y352570D01*
Y350070D02*
Y352570D01*
X836800Y367360D02*
Y382270D01*
X836470Y367030D02*
X836800Y367360D01*
D108*
X379730Y74930D02*
D03*
D109*
X2369603Y181610D02*
Y547370D01*
X2085204Y486410D02*
X2369603D01*
X2085204Y455930D02*
X2369603D01*
X2085204Y425450D02*
X2369603D01*
X2085204Y394970D02*
X2369603D01*
X2085204Y364490D02*
X2369603D01*
X2085204Y334010D02*
X2369603D01*
X2085204Y303530D02*
X2369603D01*
X2085204Y273050D02*
X2369603D01*
X2085204Y242570D02*
X2369603D01*
X2085204Y212090D02*
X2369603D01*
X2085204Y181610D02*
X2369603D01*
X2085204D02*
Y547370D01*
X1940459Y486410D02*
X2085204D01*
X1940459Y455930D02*
X2085204D01*
X1940459Y425450D02*
X2085204D01*
X1940459Y394970D02*
X2085204D01*
X1940459Y364490D02*
X2085204D01*
X1940459Y334010D02*
X2085204D01*
X1940459Y303530D02*
X2085204D01*
X1940459Y273050D02*
X2085204D01*
X1940459Y242570D02*
X2085204D01*
X1940459Y212090D02*
X2085204D01*
X1940459Y181610D02*
X2085204D01*
X1940459D02*
Y547370D01*
X1775401Y486410D02*
X1940459D01*
X1775401Y455930D02*
X1940459D01*
X1775401Y425450D02*
X1940459D01*
X1775401Y394970D02*
X1940459D01*
X1775401Y364490D02*
X1940459D01*
X1775401Y334010D02*
X1940459D01*
X1775401Y303530D02*
X1940459D01*
X1775401Y273050D02*
X1940459D01*
X1775401Y242570D02*
X1940459D01*
X1775401Y212090D02*
X1940459D01*
X1775401Y181610D02*
X1940459D01*
X1775401D02*
Y547370D01*
X1557020Y486410D02*
X1775401D01*
X1557020Y455930D02*
X1775401D01*
X1557020Y425450D02*
X1775401D01*
X1557020Y394970D02*
X1775401D01*
X1557020Y364490D02*
X1775401D01*
X1557020Y334010D02*
X1775401D01*
X1557020Y303530D02*
X1775401D01*
X1557020Y273050D02*
X1775401D01*
X1557020Y242570D02*
X1775401D01*
X1557020Y212090D02*
X1775401D01*
X1557020Y181610D02*
X1775401D01*
X1557020D02*
Y547370D01*
X1320865Y486410D02*
X1557020D01*
X1320865Y455930D02*
X1557020D01*
X1320865Y425450D02*
X1557020D01*
X1320865Y394970D02*
X1557020D01*
X1320865Y364490D02*
X1557020D01*
X1320865Y334010D02*
X1557020D01*
X1320865Y303530D02*
X1557020D01*
X1320865Y273050D02*
X1557020D01*
X1320865Y242570D02*
X1557020D01*
X1320865Y212090D02*
X1557020D01*
X1320865Y181610D02*
X1557020D01*
X1320865D02*
Y547370D01*
X1216747Y486410D02*
X1320865D01*
X1216747Y455930D02*
X1320865D01*
X1216747Y425450D02*
X1320865D01*
X1216747Y394970D02*
X1320865D01*
X1216747Y364490D02*
X1320865D01*
X1216747Y334010D02*
X1320865D01*
X1216747Y303530D02*
X1320865D01*
X1216747Y273050D02*
X1320865D01*
X1216747Y242570D02*
X1320865D01*
X1216747Y212090D02*
X1320865D01*
X1216747Y181610D02*
X1320865D01*
X1216747D02*
Y547370D01*
X2369603D01*
X1216747Y516890D02*
X2369603D01*
D110*
X2085204Y506810D02*
X2095283Y516890D01*
X2085204Y491571D02*
X2110523Y516890D01*
X2095283Y486410D02*
X2125763Y516890D01*
X2110523Y486410D02*
X2141003Y516890D01*
X2125763Y486410D02*
X2156243Y516890D01*
X2141003Y486410D02*
X2171483Y516890D01*
X2156243Y486410D02*
X2186723Y516890D01*
X2171483Y486410D02*
X2201963Y516890D01*
X2186723Y486410D02*
X2217203Y516890D01*
X2201963Y486410D02*
X2232443Y516890D01*
X2217203Y486410D02*
X2247683Y516890D01*
X2232443Y486410D02*
X2262923Y516890D01*
X2247683Y486410D02*
X2278163Y516890D01*
X2262923Y486410D02*
X2293403Y516890D01*
X2278163Y486410D02*
X2308643Y516890D01*
X2293403Y486410D02*
X2323883Y516890D01*
X2308643Y486410D02*
X2339123Y516890D01*
X2323883Y486410D02*
X2354363Y516890D01*
X2339123Y486410D02*
X2369603Y516890D01*
X2354363Y486410D02*
X2369603Y501650D01*
X2085204Y476330D02*
X2095283Y486410D01*
X2085204Y461091D02*
X2110523Y486410D01*
X2095283Y455930D02*
X2125763Y486410D01*
X2110523Y455930D02*
X2141003Y486410D01*
X2125763Y455930D02*
X2156243Y486410D01*
X2141003Y455930D02*
X2171483Y486410D01*
X2156243Y455930D02*
X2186723Y486410D01*
X2171483Y455930D02*
X2201963Y486410D01*
X2186723Y455930D02*
X2217203Y486410D01*
X2201963Y455930D02*
X2232443Y486410D01*
X2217203Y455930D02*
X2247683Y486410D01*
X2232443Y455930D02*
X2262923Y486410D01*
X2247683Y455930D02*
X2278163Y486410D01*
X2262923Y455930D02*
X2293403Y486410D01*
X2278163Y455930D02*
X2308643Y486410D01*
X2293403Y455930D02*
X2323883Y486410D01*
X2308643Y455930D02*
X2339123Y486410D01*
X2323883Y455930D02*
X2354363Y486410D01*
X2339123Y455930D02*
X2369603Y486410D01*
X2354363Y455930D02*
X2369603Y471170D01*
X2085204Y445850D02*
X2095283Y455930D01*
X2085204Y430611D02*
X2110523Y455930D01*
X2095283Y425450D02*
X2125763Y455930D01*
X2110523Y425450D02*
X2141003Y455930D01*
X2125763Y425450D02*
X2156243Y455930D01*
X2141003Y425450D02*
X2171483Y455930D01*
X2156243Y425450D02*
X2186723Y455930D01*
X2171483Y425450D02*
X2201963Y455930D01*
X2186723Y425450D02*
X2217203Y455930D01*
X2201963Y425450D02*
X2232443Y455930D01*
X2217203Y425450D02*
X2247683Y455930D01*
X2232443Y425450D02*
X2262923Y455930D01*
X2247683Y425450D02*
X2278163Y455930D01*
X2262923Y425450D02*
X2293403Y455930D01*
X2278163Y425450D02*
X2308643Y455930D01*
X2293403Y425450D02*
X2323883Y455930D01*
X2308643Y425450D02*
X2339123Y455930D01*
X2323883Y425450D02*
X2354363Y455930D01*
X2339123Y425450D02*
X2369603Y455930D01*
X2354363Y425450D02*
X2369603Y440690D01*
X2085204Y415370D02*
X2095283Y425450D01*
X2085204Y400131D02*
X2110523Y425450D01*
X2095283Y394970D02*
X2125763Y425450D01*
X2110523Y394970D02*
X2141003Y425450D01*
X2125763Y394970D02*
X2156243Y425450D01*
X2141003Y394970D02*
X2171483Y425450D01*
X2156243Y394970D02*
X2186723Y425450D01*
X2171483Y394970D02*
X2201963Y425450D01*
X2186723Y394970D02*
X2217203Y425450D01*
X2201963Y394970D02*
X2232443Y425450D01*
X2217203Y394970D02*
X2247683Y425450D01*
X2232443Y394970D02*
X2262923Y425450D01*
X2247683Y394970D02*
X2278163Y425450D01*
X2262923Y394970D02*
X2293403Y425450D01*
X2278163Y394970D02*
X2308643Y425450D01*
X2293403Y394970D02*
X2323883Y425450D01*
X2308643Y394970D02*
X2339123Y425450D01*
X2323883Y394970D02*
X2354363Y425450D01*
X2339123Y394970D02*
X2369603Y425450D01*
X2354363Y394970D02*
X2369603Y410210D01*
X2085204Y384891D02*
X2095283Y394970D01*
X2085204Y369650D02*
X2110523Y394970D01*
X2095283Y364490D02*
X2125763Y394970D01*
X2110523Y364490D02*
X2141003Y394970D01*
X2125763Y364490D02*
X2156243Y394970D01*
X2141003Y364490D02*
X2171483Y394970D01*
X2156243Y364490D02*
X2186723Y394970D01*
X2171483Y364490D02*
X2201963Y394970D01*
X2186723Y364490D02*
X2217203Y394970D01*
X2201963Y364490D02*
X2232443Y394970D01*
X2217203Y364490D02*
X2247683Y394970D01*
X2232443Y364490D02*
X2262923Y394970D01*
X2247683Y364490D02*
X2278163Y394970D01*
X2262923Y364490D02*
X2293403Y394970D01*
X2278163Y364490D02*
X2308643Y394970D01*
X2293403Y364490D02*
X2323883Y394970D01*
X2308643Y364490D02*
X2339123Y394970D01*
X2323883Y364490D02*
X2354363Y394970D01*
X2339123Y364490D02*
X2369603Y394970D01*
X2354363Y364490D02*
X2369603Y379730D01*
X2085204Y354411D02*
X2095283Y364490D01*
X2085204Y339170D02*
X2110523Y364490D01*
X2095283Y334010D02*
X2125763Y364490D01*
X2110523Y334010D02*
X2141003Y364490D01*
X2125763Y334010D02*
X2156243Y364490D01*
X2141003Y334010D02*
X2171483Y364490D01*
X2156243Y334010D02*
X2186723Y364490D01*
X2171483Y334010D02*
X2201963Y364490D01*
X2186723Y334010D02*
X2217203Y364490D01*
X2201963Y334010D02*
X2232443Y364490D01*
X2217203Y334010D02*
X2247683Y364490D01*
X2232443Y334010D02*
X2262923Y364490D01*
X2247683Y334010D02*
X2278163Y364490D01*
X2262923Y334010D02*
X2293403Y364490D01*
X2278163Y334010D02*
X2308643Y364490D01*
X2293403Y334010D02*
X2323883Y364490D01*
X2308643Y334010D02*
X2339123Y364490D01*
X2323883Y334010D02*
X2354363Y364490D01*
X2339123Y334010D02*
X2369603Y364490D01*
X2354363Y334010D02*
X2369603Y349250D01*
X2085204Y323931D02*
X2095283Y334010D01*
X2085204Y308690D02*
X2110523Y334010D01*
X2095283Y303530D02*
X2125763Y334010D01*
X2110523Y303530D02*
X2141003Y334010D01*
X2125763Y303530D02*
X2156243Y334010D01*
X2141003Y303530D02*
X2171483Y334010D01*
X2156243Y303530D02*
X2186723Y334010D01*
X2171483Y303530D02*
X2201963Y334010D01*
X2186723Y303530D02*
X2217203Y334010D01*
X2201963Y303530D02*
X2232443Y334010D01*
X2217203Y303530D02*
X2247683Y334010D01*
X2232443Y303530D02*
X2262923Y334010D01*
X2247683Y303530D02*
X2278163Y334010D01*
X2262923Y303530D02*
X2293403Y334010D01*
X2278163Y303530D02*
X2308643Y334010D01*
X2293403Y303530D02*
X2323883Y334010D01*
X2308643Y303530D02*
X2339123Y334010D01*
X2323883Y303530D02*
X2354363Y334010D01*
X2339123Y303530D02*
X2369603Y334010D01*
X2354363Y303530D02*
X2369603Y318770D01*
X2085204Y293451D02*
X2095283Y303530D01*
X2085204Y278211D02*
X2110523Y303530D01*
X2095283Y273050D02*
X2125763Y303530D01*
X2110523Y273050D02*
X2141003Y303530D01*
X2125763Y273050D02*
X2156243Y303530D01*
X2141003Y273050D02*
X2171483Y303530D01*
X2156243Y273050D02*
X2186723Y303530D01*
X2171483Y273050D02*
X2201963Y303530D01*
X2186723Y273050D02*
X2217203Y303530D01*
X2201963Y273050D02*
X2232443Y303530D01*
X2217203Y273050D02*
X2247683Y303530D01*
X2232443Y273050D02*
X2262923Y303530D01*
X2247683Y273050D02*
X2278163Y303530D01*
X2262923Y273050D02*
X2293403Y303530D01*
X2278163Y273050D02*
X2308643Y303530D01*
X2293403Y273050D02*
X2323883Y303530D01*
X2308643Y273050D02*
X2339123Y303530D01*
X2323883Y273050D02*
X2354363Y303530D01*
X2339123Y273050D02*
X2369603Y303530D01*
X2354363Y273050D02*
X2369603Y288290D01*
X2085204Y262971D02*
X2095283Y273050D01*
X2085204Y247731D02*
X2110523Y273050D01*
X2095283Y242570D02*
X2125763Y273050D01*
X2110523Y242570D02*
X2141003Y273050D01*
X2125763Y242570D02*
X2156243Y273050D01*
X2141003Y242570D02*
X2171483Y273050D01*
X2156243Y242570D02*
X2186723Y273050D01*
X2171483Y242570D02*
X2201963Y273050D01*
X2186723Y242570D02*
X2217203Y273050D01*
X2201963Y242570D02*
X2232443Y273050D01*
X2217203Y242570D02*
X2247683Y273050D01*
X2232443Y242570D02*
X2262923Y273050D01*
X2247683Y242570D02*
X2278163Y273050D01*
X2262923Y242570D02*
X2293403Y273050D01*
X2278163Y242570D02*
X2308643Y273050D01*
X2293403Y242570D02*
X2323883Y273050D01*
X2308643Y242570D02*
X2339123Y273050D01*
X2323883Y242570D02*
X2354363Y273050D01*
X2339123Y242570D02*
X2369603Y273050D01*
X2354363Y242570D02*
X2369603Y257810D01*
X2085204Y232491D02*
X2095283Y242570D01*
X2085204Y217250D02*
X2110523Y242570D01*
X2095283Y212090D02*
X2125763Y242570D01*
X2110523Y212090D02*
X2141003Y242570D01*
X2125763Y212090D02*
X2156243Y242570D01*
X2141003Y212090D02*
X2171483Y242570D01*
X2156243Y212090D02*
X2186723Y242570D01*
X2171483Y212090D02*
X2201963Y242570D01*
X2186723Y212090D02*
X2217203Y242570D01*
X2201963Y212090D02*
X2232443Y242570D01*
X2217203Y212090D02*
X2247683Y242570D01*
X2232443Y212090D02*
X2262923Y242570D01*
X2247683Y212090D02*
X2278163Y242570D01*
X2262923Y212090D02*
X2293403Y242570D01*
X2278163Y212090D02*
X2308643Y242570D01*
X2293403Y212090D02*
X2323883Y242570D01*
X2308643Y212090D02*
X2339123Y242570D01*
X2323883Y212090D02*
X2354363Y242570D01*
X2339123Y212090D02*
X2369603Y242570D01*
X2354363Y212090D02*
X2369603Y227330D01*
X2085204Y202010D02*
X2095283Y212090D01*
X2085204Y186770D02*
X2110523Y212090D01*
X2095283Y181610D02*
X2125763Y212090D01*
X2110523Y181610D02*
X2141003Y212090D01*
X2125763Y181610D02*
X2156243Y212090D01*
X2141003Y181610D02*
X2171483Y212090D01*
X2156243Y181610D02*
X2186723Y212090D01*
X2171483Y181610D02*
X2201963Y212090D01*
X2186723Y181610D02*
X2217203Y212090D01*
X2201963Y181610D02*
X2232443Y212090D01*
X2217203Y181610D02*
X2247683Y212090D01*
X2232443Y181610D02*
X2262923Y212090D01*
X2247683Y181610D02*
X2278163Y212090D01*
X2262923Y181610D02*
X2293403Y212090D01*
X2278163Y181610D02*
X2308643Y212090D01*
X2293403Y181610D02*
X2323883Y212090D01*
X2308643Y181610D02*
X2339123Y212090D01*
X2323883Y181610D02*
X2354363Y212090D01*
X2339123Y181610D02*
X2369603Y212090D01*
X2354363Y181610D02*
X2369603Y196850D01*
D111*
X625484Y260792D02*
X643538Y242738D01*
X781722D01*
X1019000Y285000D02*
X1041168D01*
X1047666Y286666D02*
X1047749Y286583D01*
X1019000Y275000D02*
X1048582D01*
X1047749Y286583D02*
X1048917D01*
X1042834Y286666D02*
X1047666D01*
X1048582Y275000D02*
X1051562Y277980D01*
X1041168Y285000D02*
X1042834Y286666D01*
X1051562Y277980D02*
X1072090D01*
X1050753Y284746D02*
X1071824D01*
X1048917Y286583D02*
X1050753Y284746D01*
X1015744Y278256D02*
X1019000Y275000D01*
X821256Y278256D02*
X1015744D01*
X781722Y242738D02*
X820404Y281420D01*
X1015420D01*
X782899Y239899D02*
X821256Y278256D01*
X1015420Y281420D02*
X1019000Y285000D01*
X642362Y239899D02*
X782899D01*
X639274Y239930D02*
X642330D01*
X642362Y239899D01*
X621948Y257256D02*
X639274Y239930D01*
D112*
X666040Y528110D02*
X713290D01*
X713500Y527900D01*
Y522000D02*
Y527900D01*
X661060Y533090D02*
X666040Y528110D01*
X657960Y533090D02*
X661060D01*
X653000Y538050D02*
X657960Y533090D01*
X653000Y538050D02*
Y544250D01*
X168840Y560000D02*
X637250D01*
X653000Y544250D01*
X957580Y487680D02*
X977900Y508000D01*
X957580Y423730D02*
Y487680D01*
X844550Y423730D02*
Y483870D01*
X862330Y501650D01*
X732500Y522000D02*
X797276D01*
X811530Y507746D01*
X63500Y454660D02*
X168840Y560000D01*
D113*
X50000Y50000D02*
D03*
X1093000D02*
D03*
Y521500D02*
D03*
X50000D02*
D03*
D114*
X1025120Y200660D02*
D03*
X960120D02*
D03*
D115*
X63500Y403860D02*
D03*
Y454660D02*
D03*
X811530Y507746D02*
D03*
X862330D02*
D03*
X927100Y508000D02*
D03*
X977900D02*
D03*
D116*
X40640Y297688D02*
D03*
X27940D02*
D03*
X40640Y310388D02*
D03*
X27940D02*
D03*
Y284988D02*
D03*
X40640D02*
D03*
X27940Y272288D02*
D03*
X40640D02*
D03*
X27940Y259588D02*
D03*
D117*
X40640D02*
D03*
D118*
X1072090Y247230D02*
D03*
Y321730D02*
D03*
D119*
X1110090Y245730D02*
D03*
Y323230D02*
D03*
D120*
X1082590Y259480D02*
D03*
Y309480D02*
D03*
D121*
X415191Y107950D02*
D03*
X576940Y139429D02*
D03*
X452120Y116840D02*
D03*
Y96520D02*
D03*
X22860Y208280D02*
D03*
X412000Y297588D02*
D03*
X15535Y220422D02*
D03*
X32335Y198032D02*
D03*
X107263Y326487D02*
D03*
X56013Y275236D02*
D03*
X513000Y341304D02*
D03*
X1045250Y280833D02*
D03*
X475000Y249000D02*
D03*
X411000Y212750D02*
D03*
X491490Y124460D02*
D03*
X476378Y109220D02*
D03*
X690880Y551180D02*
D03*
X88900Y231140D02*
D03*
X631250Y122500D02*
D03*
X462750Y70500D02*
D03*
X591250Y544250D02*
D03*
X90250Y387750D02*
D03*
X399000Y356000D02*
D03*
X411500Y285000D02*
D03*
X418000Y177750D02*
D03*
X548640Y149860D02*
D03*
X723250Y256000D02*
D03*
X617750Y386750D02*
D03*
X633000Y402000D02*
D03*
X779000Y405750D02*
D03*
X868500Y378500D02*
D03*
X933500Y439250D02*
D03*
X986250Y412750D02*
D03*
X985000Y342250D02*
D03*
X871250Y160750D02*
D03*
X980750Y63750D02*
D03*
X929500Y64250D02*
D03*
X878750Y64500D02*
D03*
X828250Y63500D02*
D03*
X605750Y39250D02*
D03*
X648250Y133250D02*
D03*
X517000Y43000D02*
D03*
X447250Y27500D02*
D03*
X163250Y49250D02*
D03*
X170750Y18250D02*
D03*
X401250Y441000D02*
D03*
X428750Y520750D02*
D03*
X866000Y214000D02*
D03*
X679000Y336000D02*
D03*
X652000Y26000D02*
D03*
X570000Y369000D02*
D03*
X684000Y294000D02*
D03*
X548000Y308000D02*
D03*
X561009Y316897D02*
D03*
X581000Y318000D02*
D03*
X583000Y257000D02*
D03*
X598524Y55880D02*
D03*
X571000Y243000D02*
D03*
X604000Y370000D02*
D03*
X246493Y45607D02*
D03*
X245872Y73048D02*
D03*
X230632Y60348D02*
D03*
X933201Y362399D02*
D03*
X815750Y307000D02*
D03*
X1035500Y68000D02*
D03*
X39250Y361500D02*
D03*
X393700Y81280D02*
D03*
Y27940D02*
D03*
X464820Y43180D02*
D03*
X393700Y55880D02*
D03*
X356870Y92710D02*
D03*
D122*
X538480Y415290D02*
D03*
M02*
