G04*
G04 #@! TF.GenerationSoftware,Altium Limited,Altium Designer,22.9.1 (49)*
G04*
G04 Layer_Physical_Order=4*
G04 Layer_Color=16711680*
%FSLAX44Y44*%
%MOMM*%
G71*
G04*
G04 #@! TF.SameCoordinates,A2259558-2793-4ACD-BA26-FD92625B8348*
G04*
G04*
G04 #@! TF.FilePolarity,Positive*
G04*
G01*
G75*
%ADD102C,1.9954*%
%ADD103C,1.5406*%
%ADD104R,1.5406X1.5406*%
%ADD107C,0.1724*%
%ADD112C,0.5080*%
%ADD113C,5.8420*%
%ADD114C,1.4080*%
%ADD115C,2.5400*%
%ADD116C,1.0160*%
%ADD117R,1.0160X1.0160*%
%ADD118O,2.0000X1.4500*%
%ADD119O,1.8000X1.1500*%
%ADD120C,0.8000*%
%ADD121C,0.6096*%
%ADD122C,1.2700*%
G36*
X1097732Y562719D02*
X1103169Y561638D01*
X1108419Y559856D01*
X1113391Y557404D01*
X1118000Y554324D01*
X1122168Y550668D01*
X1125824Y546500D01*
X1128904Y541891D01*
X1131356Y536919D01*
X1133138Y531669D01*
X1134219Y526232D01*
X1134500Y521951D01*
X1134546Y520700D01*
X1134546Y520700D01*
X1134546Y519452D01*
X1134546Y50800D01*
X1134546Y50800D01*
X1134546D01*
X1134500Y49549D01*
X1134219Y45268D01*
X1133138Y39831D01*
X1131356Y34581D01*
X1128904Y29609D01*
X1125824Y25000D01*
X1122168Y20832D01*
X1118000Y17176D01*
X1113391Y14096D01*
X1108419Y11644D01*
X1103169Y9862D01*
X1097732Y8781D01*
X1092383Y8430D01*
X1092200Y8454D01*
X52058D01*
X52048Y8454D01*
X50800Y8454D01*
X49549Y8500D01*
X45268Y8781D01*
X39831Y9862D01*
X34581Y11644D01*
X29609Y14096D01*
X25000Y17176D01*
X20832Y20832D01*
X17176Y25000D01*
X14096Y29609D01*
X11644Y34581D01*
X9862Y39831D01*
X8781Y45268D01*
X8430Y50617D01*
X8454Y50800D01*
Y519442D01*
X8454Y519452D01*
X8454Y520700D01*
X8500Y521951D01*
X8781Y526232D01*
X9862Y531669D01*
X11644Y536919D01*
X14096Y541891D01*
X17176Y546500D01*
X20832Y550668D01*
X25000Y554324D01*
X29609Y557404D01*
X34581Y559856D01*
X39831Y561638D01*
X45268Y562719D01*
X50617Y563070D01*
X50800Y563046D01*
X1092200D01*
X1092383Y563070D01*
X1097732Y562719D01*
D02*
G37*
%LPC*%
G36*
X1094270Y553248D02*
Y522770D01*
X1124748D01*
X1124456Y526482D01*
X1123289Y531342D01*
X1121377Y535959D01*
X1118766Y540220D01*
X1115520Y544020D01*
X1111720Y547266D01*
X1107459Y549877D01*
X1102842Y551789D01*
X1097982Y552956D01*
X1094270Y553248D01*
D02*
G37*
G36*
X1091730D02*
X1088018Y552956D01*
X1083158Y551789D01*
X1078541Y549877D01*
X1074280Y547266D01*
X1070480Y544020D01*
X1067234Y540220D01*
X1064623Y535959D01*
X1062711Y531342D01*
X1061544Y526482D01*
X1061252Y522770D01*
X1091730D01*
Y553248D01*
D02*
G37*
G36*
X51270D02*
Y522770D01*
X81748D01*
X81456Y526482D01*
X80289Y531342D01*
X78377Y535959D01*
X75766Y540220D01*
X72520Y544020D01*
X68720Y547266D01*
X64459Y549877D01*
X59842Y551789D01*
X54982Y552956D01*
X51270Y553248D01*
D02*
G37*
G36*
X48730D02*
X45018Y552956D01*
X40158Y551789D01*
X35541Y549877D01*
X31280Y547266D01*
X27480Y544020D01*
X24234Y540220D01*
X21623Y535959D01*
X19711Y531342D01*
X18544Y526482D01*
X18252Y522770D01*
X48730D01*
Y553248D01*
D02*
G37*
G36*
X927100Y522803D02*
X924212Y522519D01*
X921435Y521676D01*
X918876Y520308D01*
X916633Y518467D01*
X914791Y516224D01*
X913423Y513665D01*
X912581Y510888D01*
X912297Y508000D01*
X912581Y505112D01*
X913423Y502335D01*
X913918Y501410D01*
X906169Y493662D01*
X869926D01*
X869608Y494932D01*
X870554Y495438D01*
X872797Y497279D01*
X874639Y499522D01*
X876006Y502081D01*
X876849Y504858D01*
X877133Y507746D01*
X876849Y510634D01*
X876006Y513411D01*
X874639Y515970D01*
X872797Y518214D01*
X870554Y520055D01*
X867995Y521423D01*
X865218Y522265D01*
X862330Y522549D01*
X859442Y522265D01*
X856665Y521423D01*
X854106Y520055D01*
X851862Y518214D01*
X850022Y515970D01*
X848653Y513411D01*
X847811Y510634D01*
X847527Y507746D01*
X847811Y504858D01*
X848653Y502081D01*
X850022Y499522D01*
X851862Y497279D01*
X854106Y495438D01*
X855052Y494932D01*
X854734Y493662D01*
X832207D01*
X824712Y501156D01*
X825207Y502081D01*
X826049Y504858D01*
X826333Y507746D01*
X826049Y510634D01*
X825207Y513411D01*
X823839Y515970D01*
X821998Y518214D01*
X819754Y520055D01*
X817195Y521423D01*
X814418Y522265D01*
X811530Y522549D01*
X808642Y522265D01*
X805865Y521423D01*
X803306Y520055D01*
X801062Y518214D01*
X799221Y515970D01*
X797853Y513411D01*
X797011Y510634D01*
X796727Y507746D01*
X797011Y504858D01*
X797853Y502081D01*
X799221Y499522D01*
X801062Y497279D01*
X803306Y495438D01*
X805865Y494070D01*
X808642Y493227D01*
X811530Y492943D01*
X814418Y493227D01*
X817195Y494070D01*
X818120Y494564D01*
X826980Y485704D01*
X828492Y484693D01*
X830276Y484338D01*
X908100D01*
X909884Y484693D01*
X911396Y485704D01*
X920510Y494818D01*
X921435Y494324D01*
X924212Y493481D01*
X927100Y493197D01*
X929988Y493481D01*
X932765Y494324D01*
X933690Y494818D01*
X943338Y485169D01*
Y212780D01*
X943693Y210996D01*
X944704Y209484D01*
X951267Y202920D01*
X950970Y200660D01*
X951282Y198292D01*
X952196Y196085D01*
X953650Y194190D01*
X955545Y192736D01*
X957752Y191821D01*
X960120Y191510D01*
X962488Y191821D01*
X964695Y192736D01*
X966590Y194190D01*
X968044Y196085D01*
X968959Y198292D01*
X969270Y200660D01*
X968959Y203028D01*
X968044Y205235D01*
X966590Y207130D01*
X964695Y208584D01*
X962488Y209499D01*
X960120Y209810D01*
X957860Y209513D01*
X952662Y214711D01*
Y487100D01*
X952307Y488884D01*
X951296Y490396D01*
X940282Y501410D01*
X940777Y502335D01*
X941619Y505112D01*
X941903Y508000D01*
X941619Y510888D01*
X940777Y513665D01*
X939408Y516224D01*
X937568Y518467D01*
X935324Y520308D01*
X932765Y521676D01*
X929988Y522519D01*
X927100Y522803D01*
D02*
G37*
G36*
X977900D02*
X975012Y522519D01*
X972235Y521676D01*
X969676Y520308D01*
X967432Y518467D01*
X965592Y516224D01*
X964223Y513665D01*
X963381Y510888D01*
X963097Y508000D01*
X963381Y505112D01*
X964223Y502335D01*
X965592Y499776D01*
X967432Y497533D01*
X969676Y495691D01*
X972235Y494324D01*
X975012Y493481D01*
X977900Y493197D01*
X980788Y493481D01*
X983565Y494324D01*
X986124Y495691D01*
X988367Y497533D01*
X990209Y499776D01*
X991577Y502335D01*
X992419Y505112D01*
X992703Y508000D01*
X992419Y510888D01*
X991577Y513665D01*
X990209Y516224D01*
X988367Y518467D01*
X986124Y520308D01*
X983565Y521676D01*
X980788Y522519D01*
X977900Y522803D01*
D02*
G37*
G36*
X1124748Y520230D02*
X1094270D01*
Y489752D01*
X1097982Y490044D01*
X1102842Y491211D01*
X1107459Y493123D01*
X1111720Y495734D01*
X1115520Y498980D01*
X1118766Y502780D01*
X1121377Y507041D01*
X1123289Y511658D01*
X1124456Y516518D01*
X1124748Y520230D01*
D02*
G37*
G36*
X1091730D02*
X1061252D01*
X1061544Y516518D01*
X1062711Y511658D01*
X1064623Y507041D01*
X1067234Y502780D01*
X1070480Y498980D01*
X1074280Y495734D01*
X1078541Y493123D01*
X1083158Y491211D01*
X1088018Y490044D01*
X1091730Y489752D01*
Y520230D01*
D02*
G37*
G36*
X81748D02*
X51270D01*
Y489752D01*
X54982Y490044D01*
X59842Y491211D01*
X64459Y493123D01*
X68720Y495734D01*
X72520Y498980D01*
X75766Y502780D01*
X78377Y507041D01*
X80289Y511658D01*
X81456Y516518D01*
X81748Y520230D01*
D02*
G37*
G36*
X48730D02*
X18252D01*
X18544Y516518D01*
X19711Y511658D01*
X21623Y507041D01*
X24234Y502780D01*
X27480Y498980D01*
X31280Y495734D01*
X35541Y493123D01*
X40158Y491211D01*
X45018Y490044D01*
X48730Y489752D01*
Y520230D01*
D02*
G37*
G36*
X63500Y469463D02*
X60612Y469179D01*
X57835Y468336D01*
X55276Y466968D01*
X53032Y465127D01*
X51192Y462884D01*
X49823Y460325D01*
X48981Y457548D01*
X48697Y454660D01*
X48981Y451772D01*
X49823Y448995D01*
X51192Y446436D01*
X53032Y444193D01*
X55276Y442351D01*
X57835Y440984D01*
X60612Y440141D01*
X63500Y439857D01*
X66388Y440141D01*
X69165Y440984D01*
X71724Y442351D01*
X73967Y444193D01*
X75809Y446436D01*
X77176Y448995D01*
X78019Y451772D01*
X78303Y454660D01*
X78019Y457548D01*
X77176Y460325D01*
X75809Y462884D01*
X73967Y465127D01*
X71724Y466968D01*
X69165Y468336D01*
X66388Y469179D01*
X63500Y469463D01*
D02*
G37*
G36*
X64770Y419049D02*
Y405130D01*
X78689D01*
X78520Y406848D01*
X77648Y409720D01*
X76233Y412368D01*
X74328Y414688D01*
X72008Y416593D01*
X69360Y418008D01*
X66488Y418880D01*
X64770Y419049D01*
D02*
G37*
G36*
X62230D02*
X60512Y418880D01*
X57640Y418008D01*
X54992Y416593D01*
X52671Y414688D01*
X50767Y412368D01*
X49352Y409720D01*
X48481Y406848D01*
X48311Y405130D01*
X62230D01*
Y419049D01*
D02*
G37*
G36*
X633000Y407179D02*
X631018Y406785D01*
X629338Y405662D01*
X628215Y403982D01*
X627821Y402000D01*
X628215Y400018D01*
X629338Y398338D01*
X631018Y397215D01*
X633000Y396820D01*
X634982Y397215D01*
X636662Y398338D01*
X637785Y400018D01*
X638180Y402000D01*
X637785Y403982D01*
X636662Y405662D01*
X634982Y406785D01*
X633000Y407179D01*
D02*
G37*
G36*
X587453Y421045D02*
X569493Y403085D01*
X578832Y393745D01*
X596793Y411706D01*
X587453Y421045D01*
D02*
G37*
G36*
X78689Y402590D02*
X64770D01*
Y388671D01*
X66488Y388840D01*
X69360Y389712D01*
X72008Y391127D01*
X74328Y393032D01*
X76233Y395352D01*
X77648Y398000D01*
X78520Y400872D01*
X78689Y402590D01*
D02*
G37*
G36*
X62230D02*
X48311D01*
X48481Y400872D01*
X49352Y398000D01*
X50767Y395352D01*
X52671Y393032D01*
X54992Y391127D01*
X57640Y389712D01*
X60512Y388840D01*
X62230Y388671D01*
Y402590D01*
D02*
G37*
G36*
X570000Y374179D02*
X568018Y373785D01*
X566338Y372663D01*
X565215Y370982D01*
X564821Y369000D01*
X565215Y367018D01*
X566338Y365337D01*
X568018Y364215D01*
X570000Y363820D01*
X571982Y364215D01*
X573662Y365337D01*
X574785Y367018D01*
X575179Y369000D01*
X574785Y370982D01*
X573662Y372663D01*
X571982Y373785D01*
X570000Y374179D01*
D02*
G37*
G36*
X933201Y367579D02*
X931218Y367185D01*
X929538Y366062D01*
X928415Y364382D01*
X928021Y362399D01*
X928415Y360417D01*
X929538Y358737D01*
X931218Y357614D01*
X933201Y357220D01*
X935183Y357614D01*
X936863Y358737D01*
X937986Y360417D01*
X938380Y362399D01*
X937986Y364382D01*
X936863Y366062D01*
X935183Y367185D01*
X933201Y367579D01*
D02*
G37*
G36*
X550392Y328070D02*
X550392Y328070D01*
X138430D01*
X138430Y328070D01*
X137301Y327846D01*
X136344Y327206D01*
X136344Y327206D01*
X78977Y269840D01*
X78337Y268882D01*
X78113Y267753D01*
X78113Y267753D01*
Y267705D01*
X23700Y213293D01*
X22860Y213459D01*
X20878Y213065D01*
X19197Y211943D01*
X18075Y210262D01*
X17680Y208280D01*
X18075Y206298D01*
X19197Y204618D01*
X20878Y203495D01*
X22860Y203100D01*
X24842Y203495D01*
X26523Y204618D01*
X27645Y206298D01*
X28040Y208280D01*
X27873Y209120D01*
X83150Y264397D01*
X83150Y264397D01*
X83789Y265354D01*
X84014Y266483D01*
X84014Y266483D01*
Y266531D01*
X139652Y322169D01*
X457195D01*
X457681Y320996D01*
X448078Y311394D01*
X451818Y307654D01*
X451332Y306481D01*
X137833D01*
X136704Y306256D01*
X135746Y305616D01*
X135746Y305616D01*
X33175Y203045D01*
X32335Y203212D01*
X30353Y202817D01*
X28672Y201695D01*
X27550Y200014D01*
X27155Y198032D01*
X27550Y196050D01*
X28672Y194370D01*
X30353Y193247D01*
X32335Y192853D01*
X34317Y193247D01*
X35997Y194370D01*
X37120Y196050D01*
X37514Y198032D01*
X37347Y198872D01*
X139055Y300579D01*
X406478D01*
X407163Y299310D01*
X406820Y297588D01*
X407215Y295606D01*
X408338Y293926D01*
X410018Y292803D01*
X412000Y292409D01*
X413982Y292803D01*
X415662Y293926D01*
X416785Y295606D01*
X417179Y297588D01*
X416837Y299310D01*
X417522Y300579D01*
X543530D01*
X543530Y300579D01*
X544659Y300804D01*
X545616Y301444D01*
X547160Y302987D01*
X548000Y302820D01*
X549982Y303215D01*
X551662Y304338D01*
X552785Y306018D01*
X553180Y308000D01*
X552785Y309982D01*
X551662Y311663D01*
X549982Y312785D01*
X548000Y313179D01*
X546018Y312785D01*
X544338Y311663D01*
X543215Y309982D01*
X542821Y308000D01*
X542921Y307497D01*
X542030Y306481D01*
X456987D01*
X456501Y307654D01*
X465467Y316620D01*
X461201Y320900D01*
X461728Y322169D01*
X549169D01*
X556175Y315164D01*
X556224Y314915D01*
X557347Y313235D01*
X559027Y312112D01*
X561009Y311718D01*
X562992Y312112D01*
X564672Y313235D01*
X565795Y314915D01*
X566189Y316897D01*
X565795Y318879D01*
X564672Y320560D01*
X562992Y321682D01*
X561009Y322077D01*
X559027Y321682D01*
X558413Y321272D01*
X552478Y327206D01*
X551521Y327846D01*
X551333Y327883D01*
X550392Y328070D01*
D02*
G37*
G36*
X1113340Y331591D02*
X1111360D01*
Y324500D01*
X1121534D01*
X1121417Y325394D01*
X1120581Y327411D01*
X1119252Y329142D01*
X1117521Y330471D01*
X1115504Y331307D01*
X1113340Y331591D01*
D02*
G37*
G36*
X1108820D02*
X1106840D01*
X1104676Y331307D01*
X1102659Y330471D01*
X1100928Y329142D01*
X1099599Y327411D01*
X1098763Y325394D01*
X1098646Y324500D01*
X1108820D01*
Y331591D01*
D02*
G37*
G36*
X1074840Y331604D02*
X1073360D01*
Y323000D01*
X1084547D01*
X1084378Y324286D01*
X1083392Y326667D01*
X1081822Y328712D01*
X1079777Y330281D01*
X1077396Y331268D01*
X1074840Y331604D01*
D02*
G37*
G36*
X1070820D02*
X1069340D01*
X1066784Y331268D01*
X1064403Y330281D01*
X1062358Y328712D01*
X1060788Y326667D01*
X1059802Y324286D01*
X1059633Y323000D01*
X1070820D01*
Y331604D01*
D02*
G37*
G36*
X107263Y331666D02*
X105281Y331272D01*
X103601Y330149D01*
X102478Y328469D01*
X102084Y326487D01*
X102478Y324504D01*
X103601Y322824D01*
X105281Y321701D01*
X107263Y321307D01*
X109246Y321701D01*
X110926Y322824D01*
X112049Y324504D01*
X112443Y326487D01*
X112049Y328469D01*
X110926Y330149D01*
X109246Y331272D01*
X107263Y331666D01*
D02*
G37*
G36*
X1121534Y321960D02*
X1111360D01*
Y314869D01*
X1113340D01*
X1115504Y315153D01*
X1117521Y315989D01*
X1119252Y317318D01*
X1120581Y319049D01*
X1121417Y321066D01*
X1121534Y321960D01*
D02*
G37*
G36*
X1108820D02*
X1098646D01*
X1098763Y321066D01*
X1099599Y319049D01*
X1100928Y317318D01*
X1102659Y315989D01*
X1104676Y315153D01*
X1106840Y314869D01*
X1108820D01*
Y321960D01*
D02*
G37*
G36*
X39250Y366679D02*
X37268Y366285D01*
X35587Y365163D01*
X34465Y363482D01*
X34070Y361500D01*
X34465Y359518D01*
X35587Y357837D01*
X37268Y356715D01*
X39250Y356320D01*
X40090Y356488D01*
X57359Y339218D01*
X57359Y339218D01*
X58317Y338578D01*
X59446Y338354D01*
X508862D01*
X509338Y337642D01*
X510357Y336960D01*
X509972Y335690D01*
X128044D01*
X126915Y335466D01*
X125958Y334826D01*
X125958Y334826D01*
X48925Y257794D01*
X47752Y258280D01*
Y266700D01*
X47558D01*
X46932Y267970D01*
X47296Y268445D01*
X48064Y270299D01*
X48159Y271018D01*
X40640D01*
Y273558D01*
X48159D01*
X48064Y274277D01*
X47296Y276131D01*
X46075Y277723D01*
X45709Y278003D01*
Y279273D01*
X46075Y279553D01*
X47296Y281145D01*
X48064Y282999D01*
X48159Y283718D01*
X40640D01*
Y286258D01*
X48159D01*
X48064Y286977D01*
X47296Y288831D01*
X46075Y290423D01*
X45508Y290858D01*
Y292459D01*
X45712Y292616D01*
X46852Y294101D01*
X47569Y295831D01*
X47813Y297688D01*
X47569Y299545D01*
X46852Y301275D01*
X45712Y302760D01*
X45508Y302917D01*
Y304518D01*
X46075Y304953D01*
X47296Y306545D01*
X48064Y308399D01*
X48159Y309118D01*
X40640D01*
Y310388D01*
X39370D01*
Y317907D01*
X38651Y317812D01*
X36797Y317044D01*
X35205Y315823D01*
X34770Y315256D01*
X33169D01*
X33012Y315460D01*
X31527Y316600D01*
X29797Y317317D01*
X27940Y317561D01*
X26083Y317317D01*
X24353Y316600D01*
X22868Y315460D01*
X21728Y313975D01*
X21011Y312245D01*
X20767Y310388D01*
X21011Y308531D01*
X21728Y306801D01*
X22868Y305316D01*
X23490Y304838D01*
Y303238D01*
X22868Y302760D01*
X21728Y301275D01*
X21011Y299545D01*
X20767Y297688D01*
X21011Y295831D01*
X21728Y294101D01*
X22868Y292616D01*
X23490Y292138D01*
Y290538D01*
X22868Y290060D01*
X21728Y288575D01*
X21011Y286845D01*
X20767Y284988D01*
X21011Y283131D01*
X21728Y281401D01*
X22868Y279916D01*
X23490Y279438D01*
Y277838D01*
X22868Y277360D01*
X21728Y275875D01*
X21011Y274145D01*
X20767Y272288D01*
X21011Y270431D01*
X21728Y268701D01*
X22868Y267216D01*
X23490Y266738D01*
Y265138D01*
X22868Y264660D01*
X21728Y263175D01*
X21011Y261445D01*
X20767Y259588D01*
X21011Y257731D01*
X21728Y256001D01*
X22868Y254516D01*
X24353Y253376D01*
X26083Y252659D01*
X27940Y252415D01*
X29797Y252659D01*
X31527Y253376D01*
X32258Y253937D01*
X33528Y253311D01*
Y252476D01*
X41757D01*
X42243Y251303D01*
X16375Y225435D01*
X15535Y225602D01*
X13553Y225207D01*
X11872Y224085D01*
X10749Y222404D01*
X10355Y220422D01*
X10749Y218440D01*
X11872Y216760D01*
X13553Y215637D01*
X15535Y215243D01*
X17517Y215637D01*
X19197Y216760D01*
X20320Y218440D01*
X20714Y220422D01*
X20547Y221262D01*
X48427Y249142D01*
X49005Y249528D01*
X129267Y329790D01*
X565038D01*
X575988Y318840D01*
X575821Y318000D01*
X576215Y316018D01*
X577337Y314338D01*
X579018Y313215D01*
X581000Y312820D01*
X582982Y313215D01*
X584663Y314338D01*
X585785Y316018D01*
X586180Y318000D01*
X585785Y319982D01*
X584663Y321662D01*
X582982Y322785D01*
X581000Y323180D01*
X580160Y323012D01*
X568346Y334826D01*
X567389Y335466D01*
X566260Y335690D01*
X566260Y335690D01*
X516028D01*
X515643Y336960D01*
X516662Y337642D01*
X517785Y339322D01*
X518180Y341304D01*
X517785Y343286D01*
X516662Y344967D01*
X514982Y346090D01*
X513000Y346484D01*
X511018Y346090D01*
X509338Y344967D01*
X508862Y344255D01*
X60668D01*
X44262Y360660D01*
X44429Y361500D01*
X44035Y363482D01*
X42913Y365163D01*
X41232Y366285D01*
X39250Y366679D01*
D02*
G37*
G36*
X1070820Y320460D02*
X1059633D01*
X1059802Y319174D01*
X1060788Y316793D01*
X1062358Y314748D01*
X1064403Y313178D01*
X1066784Y312192D01*
X1069340Y311856D01*
X1070820D01*
Y320460D01*
D02*
G37*
G36*
X41910Y317907D02*
Y311658D01*
X48159D01*
X48064Y312377D01*
X47296Y314231D01*
X46075Y315823D01*
X44483Y317044D01*
X42629Y317812D01*
X41910Y317907D01*
D02*
G37*
G36*
X1084547Y320460D02*
X1073360D01*
Y311856D01*
X1074840D01*
X1075638Y311961D01*
X1076706Y310820D01*
X1076440Y309480D01*
X1076908Y307126D01*
X1078241Y305131D01*
X1080236Y303798D01*
X1082590Y303330D01*
X1084944Y303798D01*
X1086939Y305131D01*
X1088272Y307126D01*
X1088740Y309480D01*
X1088272Y311834D01*
X1086939Y313829D01*
X1084944Y315162D01*
X1083900Y315369D01*
X1083373Y316769D01*
X1083392Y316793D01*
X1084378Y319174D01*
X1084547Y320460D01*
D02*
G37*
G36*
X815750Y312180D02*
X813768Y311785D01*
X812087Y310662D01*
X810965Y308982D01*
X810571Y307000D01*
X810965Y305018D01*
X812087Y303337D01*
X813768Y302215D01*
X815750Y301821D01*
X817732Y302215D01*
X819413Y303337D01*
X820535Y305018D01*
X820929Y307000D01*
X820535Y308982D01*
X819413Y310662D01*
X817732Y311785D01*
X815750Y312180D01*
D02*
G37*
G36*
X604000Y375179D02*
X602018Y374785D01*
X600337Y373662D01*
X599215Y371982D01*
X598820Y370000D01*
X599215Y368018D01*
X600337Y366338D01*
X602018Y365215D01*
X604000Y364821D01*
X605982Y365215D01*
X606360Y365467D01*
X674704Y297124D01*
X674218Y295951D01*
X519000D01*
X519000Y295951D01*
X517871Y295726D01*
X516914Y295086D01*
X516914Y295086D01*
X475840Y254013D01*
X475000Y254179D01*
X473018Y253785D01*
X471338Y252663D01*
X470215Y250982D01*
X469821Y249000D01*
X470215Y247018D01*
X471338Y245338D01*
X472187Y244770D01*
Y244618D01*
X472187Y244618D01*
X472412Y243489D01*
X473052Y242532D01*
X571090Y144493D01*
Y143512D01*
X571090Y143512D01*
X571315Y142383D01*
X571954Y141426D01*
X572124Y141256D01*
X571761Y139429D01*
X572155Y137447D01*
X573278Y135767D01*
X574958Y134644D01*
X576940Y134250D01*
X578661Y134592D01*
X579931Y133907D01*
Y42368D01*
X579931Y42368D01*
X580156Y41239D01*
X580796Y40282D01*
X597164Y23914D01*
X597164Y23914D01*
X598121Y23274D01*
X599250Y23049D01*
X599250Y23049D01*
X647862D01*
X648337Y22338D01*
X650018Y21215D01*
X652000Y20821D01*
X653982Y21215D01*
X655663Y22338D01*
X656785Y24018D01*
X657179Y26000D01*
X656785Y27982D01*
X655663Y29662D01*
X653982Y30785D01*
X652000Y31179D01*
X650018Y30785D01*
X648337Y29662D01*
X647862Y28951D01*
X600472D01*
X585832Y43590D01*
Y64013D01*
X587102Y64138D01*
X587274Y63275D01*
X587914Y62318D01*
X593511Y56720D01*
X593344Y55880D01*
X593739Y53898D01*
X594861Y52217D01*
X596542Y51095D01*
X598524Y50700D01*
X600506Y51095D01*
X602186Y52217D01*
X603309Y53898D01*
X603703Y55880D01*
X603309Y57862D01*
X602186Y59542D01*
X600506Y60665D01*
X599877Y60790D01*
X599653Y60940D01*
X598524Y61165D01*
X597412D01*
X592951Y65626D01*
Y250000D01*
X592951Y250000D01*
X592726Y251129D01*
X592086Y252086D01*
X592086Y252086D01*
X588013Y256160D01*
X588180Y257000D01*
X587785Y258982D01*
X586662Y260662D01*
X584982Y261785D01*
X583000Y262180D01*
X581018Y261785D01*
X579338Y260662D01*
X578215Y258982D01*
X577821Y257000D01*
X578215Y255018D01*
X579338Y253337D01*
X581018Y252215D01*
X583000Y251821D01*
X583840Y251987D01*
X587049Y248778D01*
Y244499D01*
X585779Y244374D01*
X585608Y245238D01*
X584968Y246195D01*
X583959Y247204D01*
X583001Y247844D01*
X581872Y248069D01*
X581872Y248069D01*
X579535D01*
X579535Y248069D01*
X579445Y248051D01*
X573100D01*
X573100Y248051D01*
X572374Y247906D01*
X571000Y248179D01*
X569018Y247785D01*
X567337Y246663D01*
X566215Y244982D01*
X565821Y243000D01*
X566215Y241018D01*
X567337Y239338D01*
X569018Y238215D01*
X571000Y237820D01*
X572982Y238215D01*
X574663Y239338D01*
X575785Y241018D01*
X576010Y242150D01*
X579517D01*
X579518Y242150D01*
X579931Y240973D01*
Y144951D01*
X578661Y144266D01*
X577160Y144565D01*
X576991Y144734D01*
Y145715D01*
X576767Y146845D01*
X576127Y147802D01*
X576127Y147802D01*
X478656Y245273D01*
X478662Y245338D01*
X479785Y247018D01*
X480179Y249000D01*
X480013Y249840D01*
X520222Y290049D01*
X680769D01*
X682018Y289215D01*
X684000Y288820D01*
X685982Y289215D01*
X687663Y290338D01*
X688785Y292018D01*
X689180Y294000D01*
X688785Y295982D01*
X687663Y297663D01*
X685982Y298785D01*
X684000Y299179D01*
X682018Y298785D01*
X681640Y298533D01*
X608933Y371240D01*
X608785Y371982D01*
X607663Y373662D01*
X605982Y374785D01*
X604000Y375179D01*
D02*
G37*
G36*
X1045250Y286012D02*
X1043268Y285618D01*
X1041588Y284495D01*
X1040465Y282815D01*
X1040070Y280833D01*
X1040465Y278851D01*
X1041588Y277170D01*
X1043268Y276048D01*
X1045250Y275653D01*
X1047232Y276048D01*
X1048913Y277170D01*
X1050035Y278851D01*
X1050430Y280833D01*
X1050035Y282815D01*
X1048913Y284495D01*
X1047232Y285618D01*
X1045250Y286012D01*
D02*
G37*
G36*
X1082590Y265630D02*
X1080236Y265162D01*
X1078241Y263829D01*
X1076908Y261834D01*
X1076440Y259480D01*
X1076706Y258140D01*
X1075638Y256999D01*
X1074840Y257104D01*
X1073360D01*
Y248500D01*
X1084547D01*
X1084378Y249786D01*
X1083392Y252167D01*
X1083373Y252191D01*
X1083900Y253591D01*
X1084944Y253798D01*
X1086939Y255131D01*
X1088272Y257126D01*
X1088740Y259480D01*
X1088272Y261834D01*
X1086939Y263829D01*
X1084944Y265162D01*
X1082590Y265630D01*
D02*
G37*
G36*
X1070820Y257104D02*
X1069340D01*
X1066784Y256768D01*
X1064403Y255782D01*
X1062358Y254212D01*
X1060788Y252167D01*
X1059802Y249786D01*
X1059633Y248500D01*
X1070820D01*
Y257104D01*
D02*
G37*
G36*
X1113340Y254091D02*
X1111360D01*
Y247000D01*
X1121534D01*
X1121417Y247894D01*
X1120581Y249911D01*
X1119252Y251642D01*
X1117521Y252971D01*
X1115504Y253807D01*
X1113340Y254091D01*
D02*
G37*
G36*
X1108820D02*
X1106840D01*
X1104676Y253807D01*
X1102659Y252971D01*
X1100928Y251642D01*
X1099599Y249911D01*
X1098763Y247894D01*
X1098646Y247000D01*
X1108820D01*
Y254091D01*
D02*
G37*
G36*
X1121534Y244460D02*
X1111360D01*
Y237369D01*
X1113340D01*
X1115504Y237653D01*
X1117521Y238489D01*
X1119252Y239818D01*
X1120581Y241549D01*
X1121417Y243566D01*
X1121534Y244460D01*
D02*
G37*
G36*
X1108820D02*
X1098646D01*
X1098763Y243566D01*
X1099599Y241549D01*
X1100928Y239818D01*
X1102659Y238489D01*
X1104676Y237653D01*
X1106840Y237369D01*
X1108820D01*
Y244460D01*
D02*
G37*
G36*
X1084547Y245960D02*
X1073360D01*
Y237355D01*
X1074840D01*
X1077396Y237692D01*
X1079777Y238678D01*
X1081822Y240248D01*
X1083392Y242293D01*
X1084378Y244674D01*
X1084547Y245960D01*
D02*
G37*
G36*
X1070820D02*
X1059633D01*
X1059802Y244674D01*
X1060788Y242293D01*
X1062358Y240248D01*
X1064403Y238678D01*
X1066784Y237692D01*
X1069340Y237355D01*
X1070820D01*
Y245960D01*
D02*
G37*
G36*
X449066Y246654D02*
X431105Y228693D01*
X440445Y219354D01*
X458405Y237314D01*
X449066Y246654D01*
D02*
G37*
G36*
X679000Y341180D02*
X677018Y340785D01*
X675338Y339663D01*
X674215Y337982D01*
X673820Y336000D01*
X674215Y334018D01*
X675338Y332337D01*
X677018Y331215D01*
X679000Y330821D01*
X680982Y331215D01*
X682663Y332337D01*
X683138Y333050D01*
X700778D01*
X821914Y211914D01*
X821914Y211914D01*
X822871Y211274D01*
X824000Y211049D01*
X861862D01*
X862337Y210338D01*
X864018Y209215D01*
X866000Y208820D01*
X867982Y209215D01*
X869662Y210338D01*
X870785Y212018D01*
X871180Y214000D01*
X870785Y215982D01*
X869662Y217663D01*
X867982Y218785D01*
X866000Y219179D01*
X864018Y218785D01*
X862337Y217663D01*
X861862Y216950D01*
X825222D01*
X704086Y338086D01*
X703129Y338726D01*
X702000Y338951D01*
X702000Y338951D01*
X683138D01*
X682663Y339663D01*
X680982Y340785D01*
X679000Y341180D01*
D02*
G37*
G36*
X411000Y217929D02*
X409018Y217535D01*
X407337Y216413D01*
X406215Y214732D01*
X405821Y212750D01*
X406215Y210768D01*
X407337Y209088D01*
X409018Y207965D01*
X411000Y207570D01*
X412982Y207965D01*
X414663Y209088D01*
X415785Y210768D01*
X416180Y212750D01*
X415785Y214732D01*
X414663Y216413D01*
X412982Y217535D01*
X411000Y217929D01*
D02*
G37*
G36*
X1025120Y209810D02*
X1022752Y209499D01*
X1020545Y208584D01*
X1018650Y207130D01*
X1017196Y205235D01*
X1016282Y203028D01*
X1015970Y200660D01*
X1016282Y198292D01*
X1017196Y196085D01*
X1018650Y194190D01*
X1020545Y192736D01*
X1022752Y191821D01*
X1025120Y191510D01*
X1027488Y191821D01*
X1029695Y192736D01*
X1031590Y194190D01*
X1033044Y196085D01*
X1033959Y198292D01*
X1034270Y200660D01*
X1033959Y203028D01*
X1033044Y205235D01*
X1031590Y207130D01*
X1029695Y208584D01*
X1027488Y209499D01*
X1025120Y209810D01*
D02*
G37*
G36*
X335280Y223682D02*
X132080D01*
Y187960D01*
X335280D01*
Y223682D01*
D02*
G37*
G36*
X73533Y184325D02*
X70398Y183912D01*
X67477Y182702D01*
X64968Y180777D01*
X63043Y178268D01*
X61833Y175347D01*
X61420Y172212D01*
X61833Y169077D01*
X63043Y166156D01*
X64968Y163647D01*
X67477Y161722D01*
X70398Y160512D01*
X73533Y160099D01*
X76668Y160512D01*
X79589Y161722D01*
X82098Y163647D01*
X84023Y166156D01*
X85233Y169077D01*
X85646Y172212D01*
X85233Y175347D01*
X84023Y178268D01*
X82098Y180777D01*
X79589Y182702D01*
X76668Y183912D01*
X73533Y184325D01*
D02*
G37*
G36*
X58376Y171914D02*
X38906D01*
Y152444D01*
X58376D01*
Y171914D01*
D02*
G37*
G36*
X491490Y129640D02*
X489508Y129245D01*
X487827Y128123D01*
X486705Y126442D01*
X486311Y124460D01*
X486705Y122478D01*
X487827Y120798D01*
X489508Y119675D01*
X491490Y119281D01*
X493472Y119675D01*
X495153Y120798D01*
X496275Y122478D01*
X496670Y124460D01*
X496275Y126442D01*
X495153Y128123D01*
X493472Y129245D01*
X491490Y129640D01*
D02*
G37*
G36*
X631250Y127680D02*
X629268Y127285D01*
X627588Y126163D01*
X626465Y124482D01*
X626071Y122500D01*
X626465Y120518D01*
X627588Y118837D01*
X629268Y117715D01*
X631250Y117320D01*
X633232Y117715D01*
X634912Y118837D01*
X636035Y120518D01*
X636429Y122500D01*
X636035Y124482D01*
X634912Y126163D01*
X633232Y127285D01*
X631250Y127680D01*
D02*
G37*
G36*
X49911Y122305D02*
Y113411D01*
X58805D01*
X58620Y114815D01*
X57588Y117307D01*
X55946Y119446D01*
X53807Y121088D01*
X51315Y122120D01*
X49911Y122305D01*
D02*
G37*
G36*
X47371D02*
X45967Y122120D01*
X43475Y121088D01*
X41336Y119446D01*
X39694Y117307D01*
X38662Y114815D01*
X38477Y113411D01*
X47371D01*
Y122305D01*
D02*
G37*
G36*
X58805Y110871D02*
X49911D01*
Y101977D01*
X51315Y102162D01*
X53807Y103194D01*
X55946Y104836D01*
X57588Y106975D01*
X58620Y109467D01*
X58805Y110871D01*
D02*
G37*
G36*
X47371D02*
X38477D01*
X38662Y109467D01*
X39694Y106975D01*
X41336Y104836D01*
X43475Y103194D01*
X45967Y102162D01*
X47371Y101977D01*
Y110871D01*
D02*
G37*
G36*
X356870Y97889D02*
X354888Y97495D01*
X353208Y96372D01*
X352732Y95660D01*
X265534D01*
X265534Y95660D01*
X264405Y95436D01*
X263448Y94796D01*
X263448Y94796D01*
X246712Y78060D01*
X245872Y78228D01*
X243890Y77833D01*
X242209Y76711D01*
X241087Y75030D01*
X240693Y73048D01*
X241087Y71066D01*
X242209Y69385D01*
X243890Y68263D01*
X245872Y67868D01*
X247854Y68263D01*
X249534Y69385D01*
X250657Y71066D01*
X251052Y73048D01*
X250884Y73888D01*
X266756Y89760D01*
X352732D01*
X353208Y89047D01*
X354888Y87925D01*
X356870Y87530D01*
X358852Y87925D01*
X360532Y89047D01*
X361655Y90728D01*
X362049Y92710D01*
X361655Y94692D01*
X360532Y96372D01*
X358852Y97495D01*
X356870Y97889D01*
D02*
G37*
G36*
X660604Y116200D02*
X647396D01*
Y90800D01*
X660604D01*
Y116200D01*
D02*
G37*
G36*
X73533Y114221D02*
X70398Y113808D01*
X67477Y112598D01*
X64968Y110673D01*
X63043Y108164D01*
X61833Y105243D01*
X61420Y102108D01*
X61833Y98973D01*
X63043Y96052D01*
X64968Y93543D01*
X67477Y91618D01*
X70398Y90408D01*
X73533Y89995D01*
X76668Y90408D01*
X79589Y91618D01*
X82098Y93543D01*
X84023Y96052D01*
X85233Y98973D01*
X85646Y102108D01*
X85233Y105243D01*
X84023Y108164D01*
X82098Y110673D01*
X79589Y112598D01*
X76668Y113808D01*
X73533Y114221D01*
D02*
G37*
G36*
X415191Y113130D02*
X413208Y112735D01*
X411528Y111613D01*
X410405Y109932D01*
X410011Y107950D01*
X410405Y105968D01*
X411528Y104288D01*
X411269Y103022D01*
X394540Y86292D01*
X393700Y86460D01*
X391718Y86065D01*
X390037Y84943D01*
X388915Y83262D01*
X388521Y81280D01*
X388915Y79298D01*
X390037Y77618D01*
X391718Y76495D01*
X393700Y76101D01*
X395682Y76495D01*
X397363Y77618D01*
X398485Y79298D01*
X398880Y81280D01*
X398713Y82120D01*
X416823Y100230D01*
X416823Y100230D01*
X417463Y101188D01*
X417687Y102317D01*
Y103509D01*
X418853Y104288D01*
X419976Y105968D01*
X420370Y107950D01*
X419976Y109932D01*
X418853Y111613D01*
X417173Y112735D01*
X415191Y113130D01*
D02*
G37*
G36*
X1035500Y73179D02*
X1033518Y72785D01*
X1031837Y71663D01*
X1030715Y69982D01*
X1030321Y68000D01*
X1030715Y66018D01*
X1031837Y64338D01*
X1033518Y63215D01*
X1035500Y62821D01*
X1037482Y63215D01*
X1039163Y64338D01*
X1040285Y66018D01*
X1040679Y68000D01*
X1040285Y69982D01*
X1039163Y71663D01*
X1037482Y72785D01*
X1035500Y73179D01*
D02*
G37*
G36*
X452120Y122020D02*
X450138Y121625D01*
X448457Y120503D01*
X447335Y118822D01*
X446940Y116840D01*
X447318Y114941D01*
X393372Y60994D01*
X391718Y60665D01*
X390037Y59542D01*
X389562Y58830D01*
X238352D01*
X235557Y61625D01*
X235417Y62330D01*
X234294Y64011D01*
X232614Y65133D01*
X230632Y65528D01*
X228650Y65133D01*
X226970Y64011D01*
X225847Y62330D01*
X225452Y60348D01*
X225847Y58366D01*
X226970Y56686D01*
X228650Y55563D01*
X230632Y55168D01*
X232614Y55563D01*
X233010Y55827D01*
X235044Y53794D01*
X235044Y53794D01*
X236001Y53154D01*
X237130Y52930D01*
X237130Y52930D01*
X389562D01*
X390037Y52217D01*
X391718Y51095D01*
X393700Y50700D01*
X395682Y51095D01*
X397363Y52217D01*
X398485Y53898D01*
X398880Y55880D01*
X398502Y57779D01*
X452448Y111726D01*
X454102Y112055D01*
X455783Y113177D01*
X456905Y114858D01*
X457299Y116840D01*
X456905Y118822D01*
X455783Y120503D01*
X454102Y121625D01*
X452120Y122020D01*
D02*
G37*
G36*
X1094270Y81748D02*
Y51270D01*
X1124748D01*
X1124456Y54982D01*
X1123289Y59842D01*
X1121377Y64459D01*
X1118766Y68720D01*
X1115520Y72520D01*
X1111720Y75766D01*
X1107459Y78377D01*
X1102842Y80289D01*
X1097982Y81456D01*
X1094270Y81748D01*
D02*
G37*
G36*
X1091730D02*
X1088018Y81456D01*
X1083158Y80289D01*
X1078541Y78377D01*
X1074280Y75766D01*
X1070480Y72520D01*
X1067234Y68720D01*
X1064623Y64459D01*
X1062711Y59842D01*
X1061544Y54982D01*
X1061252Y51270D01*
X1091730D01*
Y81748D01*
D02*
G37*
G36*
X51270D02*
Y51270D01*
X81748D01*
X81456Y54982D01*
X80289Y59842D01*
X78377Y64459D01*
X75766Y68720D01*
X72520Y72520D01*
X68720Y75766D01*
X64459Y78377D01*
X59842Y80289D01*
X54982Y81456D01*
X51270Y81748D01*
D02*
G37*
G36*
X48730D02*
X45018Y81456D01*
X40158Y80289D01*
X35541Y78377D01*
X31280Y75766D01*
X27480Y72520D01*
X24234Y68720D01*
X21623Y64459D01*
X19711Y59842D01*
X18544Y54982D01*
X18252Y51270D01*
X48730D01*
Y81748D01*
D02*
G37*
G36*
X476378Y114399D02*
X474395Y114005D01*
X472715Y112882D01*
X471592Y111202D01*
X471198Y109220D01*
X471592Y107238D01*
X472715Y105557D01*
X474395Y104435D01*
X476378Y104040D01*
X477164Y104197D01*
X480919Y100442D01*
Y63452D01*
X465660Y48193D01*
X464820Y48359D01*
X462838Y47965D01*
X461157Y46842D01*
X460035Y45162D01*
X459641Y43180D01*
X460035Y41198D01*
X461157Y39518D01*
X462838Y38395D01*
X464820Y38001D01*
X466802Y38395D01*
X468483Y39518D01*
X469605Y41198D01*
X470000Y43180D01*
X469832Y44020D01*
X485956Y60144D01*
X485956Y60144D01*
X486596Y61101D01*
X486820Y62230D01*
X486820Y62230D01*
Y69360D01*
X499970D01*
Y77960D01*
X486820D01*
Y101664D01*
X486820Y101664D01*
X486596Y102793D01*
X485956Y103750D01*
X485956Y103750D01*
X481380Y108327D01*
X481557Y109220D01*
X481163Y111202D01*
X480040Y112882D01*
X478360Y114005D01*
X476378Y114399D01*
D02*
G37*
G36*
X452120Y101699D02*
X450138Y101305D01*
X448457Y100183D01*
X447335Y98502D01*
X446940Y96520D01*
X447335Y94538D01*
X448457Y92858D01*
X449170Y92382D01*
Y87582D01*
X394540Y32952D01*
X393700Y33119D01*
X391718Y32725D01*
X390037Y31602D01*
X389562Y30891D01*
X265382D01*
X251505Y44767D01*
X251672Y45607D01*
X251278Y47590D01*
X250155Y49270D01*
X248475Y50393D01*
X246493Y50787D01*
X244510Y50393D01*
X242830Y49270D01*
X241707Y47590D01*
X241313Y45607D01*
X241707Y43625D01*
X242830Y41945D01*
X244510Y40822D01*
X246493Y40428D01*
X247332Y40595D01*
X262074Y25854D01*
X262074Y25854D01*
X263031Y25214D01*
X264160Y24990D01*
X389562D01*
X390037Y24278D01*
X391718Y23155D01*
X393700Y22761D01*
X395682Y23155D01*
X397363Y24278D01*
X398485Y25958D01*
X398880Y27940D01*
X398713Y28780D01*
X454206Y84274D01*
X454206Y84274D01*
X454846Y85231D01*
X455070Y86360D01*
X455070Y86360D01*
Y92382D01*
X455783Y92858D01*
X456905Y94538D01*
X457299Y96520D01*
X456905Y98502D01*
X455783Y100183D01*
X454102Y101305D01*
X452120Y101699D01*
D02*
G37*
G36*
X141780Y53080D02*
X128572D01*
Y27680D01*
X141780D01*
Y53080D01*
D02*
G37*
G36*
X1124748Y48730D02*
X1094270D01*
Y18252D01*
X1097982Y18544D01*
X1102842Y19711D01*
X1107459Y21623D01*
X1111720Y24234D01*
X1115520Y27480D01*
X1118766Y31280D01*
X1121377Y35541D01*
X1123289Y40158D01*
X1124456Y45018D01*
X1124748Y48730D01*
D02*
G37*
G36*
X1091730D02*
X1061252D01*
X1061544Y45018D01*
X1062711Y40158D01*
X1064623Y35541D01*
X1067234Y31280D01*
X1070480Y27480D01*
X1074280Y24234D01*
X1078541Y21623D01*
X1083158Y19711D01*
X1088018Y18544D01*
X1091730Y18252D01*
Y48730D01*
D02*
G37*
G36*
X81748D02*
X51270D01*
Y18252D01*
X54982Y18544D01*
X59842Y19711D01*
X64459Y21623D01*
X68720Y24234D01*
X72520Y27480D01*
X75766Y31280D01*
X78377Y35541D01*
X80289Y40158D01*
X81456Y45018D01*
X81748Y48730D01*
D02*
G37*
G36*
X48730D02*
X18252D01*
X18544Y45018D01*
X19711Y40158D01*
X21623Y35541D01*
X24234Y31280D01*
X27480Y27480D01*
X31280Y24234D01*
X35541Y21623D01*
X40158Y19711D01*
X45018Y18544D01*
X48730Y18252D01*
Y48730D01*
D02*
G37*
G36*
X170750Y23430D02*
X168768Y23035D01*
X167087Y21913D01*
X165965Y20232D01*
X165571Y18250D01*
X165965Y16268D01*
X167087Y14588D01*
X168768Y13465D01*
X170750Y13070D01*
X172732Y13465D01*
X174412Y14588D01*
X175535Y16268D01*
X175930Y18250D01*
X175535Y20232D01*
X174412Y21913D01*
X172732Y23035D01*
X170750Y23430D01*
D02*
G37*
%LPD*%
D102*
X73533Y102108D02*
D03*
Y172212D02*
D03*
D103*
X48641Y112141D02*
D03*
D104*
Y162179D02*
D03*
D107*
X414737Y102317D02*
Y107496D01*
X415191Y107950D01*
X393700Y81280D02*
X414737Y102317D01*
X475138Y244618D02*
Y248862D01*
X475000Y249000D02*
X475138Y248862D01*
Y244618D02*
X574041Y145715D01*
Y143512D02*
X576940Y140612D01*
Y139429D02*
Y140612D01*
X579535Y245118D02*
X581872D01*
X582882Y244108D01*
X574041Y143512D02*
Y145715D01*
X582882Y42368D02*
X599250Y26000D01*
X582882Y42368D02*
Y244108D01*
X393700Y57150D02*
X452120Y115570D01*
Y86360D02*
Y96520D01*
Y115570D02*
Y116840D01*
X393700Y55880D02*
Y57150D01*
X22860Y208280D02*
X81063Y266483D01*
Y267753D02*
X138430Y325120D01*
X81063Y266483D02*
Y267753D01*
X138430Y325120D02*
X550392D01*
X32335Y198032D02*
X137833Y303530D01*
X543530D01*
X550392Y325120D02*
X558614Y316897D01*
X46919Y251614D02*
X128044Y332740D01*
X566260D02*
X581000Y318000D01*
X128044Y332740D02*
X566260D01*
X543530Y303530D02*
X548000Y308000D01*
X15535Y220422D02*
X46727Y251614D01*
X46919D01*
X581000Y318000D02*
X581000D01*
X39250Y361500D02*
X59446Y341304D01*
X513000D01*
X683000Y293000D02*
X684000Y294000D01*
X519000Y293000D02*
X683000D01*
X475000Y249000D02*
X519000Y293000D01*
X476378Y109156D02*
Y109220D01*
Y109156D02*
X483870Y101664D01*
Y62230D02*
Y101664D01*
X464820Y43180D02*
X483870Y62230D01*
X558614Y316897D02*
X561009D01*
X599250Y26000D02*
X652000D01*
X393700Y27940D02*
X452120Y86360D01*
X246493Y45607D02*
X264160Y27940D01*
X393700D01*
X824000Y214000D02*
X866000D01*
X702000Y336000D02*
X824000Y214000D01*
X679000Y336000D02*
X702000D01*
X682000Y294000D02*
X684000D01*
X604000Y370000D02*
X606000D01*
X682000Y294000D01*
X590000Y64404D02*
Y250000D01*
X583000Y257000D02*
X590000Y250000D01*
Y64404D02*
X596190Y58214D01*
X598524D01*
Y55880D02*
Y58214D01*
X573100Y245100D02*
X579518D01*
X571000Y243000D02*
X573100Y245100D01*
X579518D02*
X579535Y245118D01*
X246493Y45607D02*
X246493D01*
X245872Y73048D02*
X265534Y92710D01*
X230632Y60348D02*
X232662D01*
X237130Y55880D01*
X393700D01*
X265534Y92710D02*
X356870D01*
D112*
X830276Y489000D02*
X908100D01*
X927100Y508000D01*
X811530Y507746D02*
X830276Y489000D01*
X927100Y508000D02*
X948000Y487100D01*
Y212780D02*
Y487100D01*
Y212780D02*
X960120Y200660D01*
D113*
X50000Y50000D02*
D03*
X1093000D02*
D03*
Y521500D02*
D03*
X50000D02*
D03*
D114*
X1025120Y200660D02*
D03*
X960120D02*
D03*
D115*
X63500Y403860D02*
D03*
Y454660D02*
D03*
X811530Y507746D02*
D03*
X862330D02*
D03*
X927100Y508000D02*
D03*
X977900D02*
D03*
D116*
X40640Y297688D02*
D03*
X27940D02*
D03*
X40640Y310388D02*
D03*
X27940D02*
D03*
Y284988D02*
D03*
X40640D02*
D03*
X27940Y272288D02*
D03*
X40640D02*
D03*
X27940Y259588D02*
D03*
D117*
X40640D02*
D03*
D118*
X1072090Y247230D02*
D03*
Y321730D02*
D03*
D119*
X1110090Y245730D02*
D03*
Y323230D02*
D03*
D120*
X1082590Y259480D02*
D03*
Y309480D02*
D03*
D121*
X415191Y107950D02*
D03*
X576940Y139429D02*
D03*
X452120Y116840D02*
D03*
Y96520D02*
D03*
X22860Y208280D02*
D03*
X412000Y297588D02*
D03*
X15535Y220422D02*
D03*
X32335Y198032D02*
D03*
X107263Y326487D02*
D03*
X56013Y275236D02*
D03*
X513000Y341304D02*
D03*
X1045250Y280833D02*
D03*
X475000Y249000D02*
D03*
X411000Y212750D02*
D03*
X491490Y124460D02*
D03*
X476378Y109220D02*
D03*
X690880Y551180D02*
D03*
X88900Y231140D02*
D03*
X631250Y122500D02*
D03*
X462750Y70500D02*
D03*
X591250Y544250D02*
D03*
X90250Y387750D02*
D03*
X399000Y356000D02*
D03*
X411500Y285000D02*
D03*
X418000Y177750D02*
D03*
X548640Y149860D02*
D03*
X723250Y256000D02*
D03*
X617750Y386750D02*
D03*
X633000Y402000D02*
D03*
X779000Y405750D02*
D03*
X868500Y378500D02*
D03*
X933500Y439250D02*
D03*
X986250Y412750D02*
D03*
X985000Y342250D02*
D03*
X871250Y160750D02*
D03*
X980750Y63750D02*
D03*
X929500Y64250D02*
D03*
X878750Y64500D02*
D03*
X828250Y63500D02*
D03*
X605750Y39250D02*
D03*
X648250Y133250D02*
D03*
X517000Y43000D02*
D03*
X447250Y27500D02*
D03*
X163250Y49250D02*
D03*
X170750Y18250D02*
D03*
X401250Y441000D02*
D03*
X428750Y520750D02*
D03*
X866000Y214000D02*
D03*
X679000Y336000D02*
D03*
X652000Y26000D02*
D03*
X570000Y369000D02*
D03*
X684000Y294000D02*
D03*
X548000Y308000D02*
D03*
X561009Y316897D02*
D03*
X581000Y318000D02*
D03*
X583000Y257000D02*
D03*
X598524Y55880D02*
D03*
X571000Y243000D02*
D03*
X604000Y370000D02*
D03*
X246493Y45607D02*
D03*
X245872Y73048D02*
D03*
X230632Y60348D02*
D03*
X933201Y362399D02*
D03*
X815750Y307000D02*
D03*
X1035500Y68000D02*
D03*
X39250Y361500D02*
D03*
X393700Y81280D02*
D03*
Y27940D02*
D03*
X464820Y43180D02*
D03*
X393700Y55880D02*
D03*
X356870Y92710D02*
D03*
D122*
X538480Y415290D02*
D03*
M02*
